<?xml version="1.0" standalone="no"?>
<!DOCTYPE svg PUBLIC "-//W3C//DTD SVG 1.1//EN" "http://www.w3.org/Graphics/SVG/1.1/DTD/svg11.dtd" >
<svg xmlns="http://www.w3.org/2000/svg" xmlns:xlink="http://www.w3.org/1999/xlink" version="1.1">
<metadata>
Created by FontForge 20200314 at Tue Aug 29 11:49:21 2023
 By Unknown
Copyright (c) 2023 by Jehoo Creative. All rights reserved.
</metadata>
<defs>
<font id="Astroviz" horiz-adv-x="672" >
  <font-face 
    font-family="Astroviz"
    font-weight="500"
    font-stretch="normal"
    units-per-em="1000"
    panose-1="0 0 0 0 0 0 0 0 0 0"
    ascent="800"
    descent="-200"
    x-height="530"
    cap-height="700"
    bbox="-100 -232 1953 899"
    underline-thickness="50"
    underline-position="-125"
    unicode-range="U+000D-FB06"
  />
<missing-glyph horiz-adv-x="473" 
d="M50 0v520h373v-520h-373zM398 495h-323v-470h323v470z" />
    <glyph glyph-name="f_f" unicode="ff" horiz-adv-x="900" 
d="M264 562v-42h230v82q0 98 98 98h200q98 0 98 -98v-41h-25v41q0 73 -73 73h-71q-73 0 -73 -73v-82h236v-25h-236v-470h100v-25h-354v25h100v452h109v18h-339v-470h100v-25h-354v25h100v452h109v18h-209v25h100v42q0 98 98 98h223v-25h-94q-73 0 -73 -73z" />
    <glyph glyph-name="fi" unicode="fi" horiz-adv-x="758" 
d="M264 602v-82h157q44 0 71 -24.5t27 -65.5v-131h18v141q0 55 -40 84v6h151v-505h100v-25h-354v25h100v397q0 73 -73 73h-157v-470h100v-25h-354v25h100v452h109v18h-209v25h100v82q0 98 98 98h147q98 0 98 -98v-41h-25v41q0 73 -73 73h-18q-73 0 -73 -73zM661 639l-27 -9
q-36 -14 -55 -50l-8 -11l-7 11q-19 35 -55 50l-27 9l27 10q36 15 55 49l7 12l8 -12q20 -35 55 -49z" />
    <glyph glyph-name="fl" unicode="fl" horiz-adv-x="758" 
d="M264 562v-42h189v-25h-189v-470h100v-25h-354v25h100v452h109v18h-209v25h100v42q0 98 98 98h213q44 0 71 -24.5t27 -65.5v-101h18v141q0 55 -40 84v6h151v-675h100v-25h-354v25h100v537q0 73 -73 73h-84q-73 0 -73 -73z" />
    <glyph glyph-name="f_f_i" unicode="ffi" horiz-adv-x="1142" 
d="M1045 639l-27 -9q-36 -14 -55 -50l-8 -11l-7 11q-19 35 -55 50l-27 9l27 10q36 15 55 49l7 12l8 -12q20 -35 55 -49zM264 562v-42h230v82q0 98 98 98h147q98 0 98 -98v-41h-25v41q0 73 -73 73h-18q-73 0 -73 -73v-82h157q44 0 71 -24.5t27 -65.5v-131h18v141q0 55 -40 84
v6h151v-505h100v-25h-354v25h100v397q0 73 -73 73h-157v-470h100v-25h-354v25h100v452h109v18h-339v-470h100v-25h-354v25h100v452h109v18h-209v25h100v42q0 98 98 98h240v-25h-111q-73 0 -73 -73z" />
    <glyph glyph-name="f_f_l" unicode="ffl" horiz-adv-x="1142" 
d="M264 562v-42h230v42q0 98 98 98h213q44 0 71 -24.5t27 -65.5v-101h18v141q0 55 -40 84v6h151v-675h100v-25h-354v25h100v537q0 73 -73 73h-84q-73 0 -73 -73v-42h189v-25h-189v-470h100v-25h-354v25h100v452h109v18h-339v-470h100v-25h-354v25h100v452h109v18h-209v25
h100v42q0 98 98 98h250v-25h-121q-73 0 -73 -73z" />
    <glyph glyph-name="s_t" unicode="st" horiz-adv-x="1128" 
d="M791 505h-497q-90 0 -90 -90v-65q0 -73 73 -73h118q44 0 71 -24.5t27 -65.5v-64h18v64q0 49 -32 78.5t-84 29.5v19h30q89 0 143 -37t54 -98v-65q0 -114 -114 -114h-428v25h298q90 0 90 90v64q0 73 -73 73h-118q-44 0 -71 24.5t-27 65.5v64h-18v-64q0 -49 32 -78.5
t84 -29.5v-19h-30q-89 0 -143 37t-54 98v66q0 114 114 114h440q110 0 156 82l53 88h23v-180h236v-25h-236v-397q0 -73 73 -73h71q73 0 73 73v152h25v-152q0 -98 -98 -98h-200q-98 0 -98 98v389h109v18z" />
    <glyph glyph-name="f_t.liga" unicode="ft" horiz-adv-x="837" 
d="M545 495v-397q0 -73 73 -73h71q73 0 73 73v152h25v-152q0 -98 -98 -98h-200q-98 0 -98 98v379h110v18h-237v-470h100v-25h-354v25h100v452h109v18h-209v25h100v82q0 98 98 98h239q98 0 98 -98v-82h236v-25h-236zM264 602v-82h175q37 0 59 20t22 52v10q0 73 -73 73h-110
q-73 0 -73 -73z" />
    <glyph glyph-name="s_s.liga" unicode="ss" horiz-adv-x="1343" 
d="M164 530h441v-121q0 -37 12.5 -64.5t32 -42t41.5 -31.5t41.5 -33t32 -46t12.5 -70v-97h272q90 0 90 90v64q0 73 -73 73h-117q-44 0 -71 24.5t-27 65.5v64h-19v-64q0 -49 32 -78.5t85 -29.5v-19h-31q-88 0 -142 37t-54 98v66q0 114 114 114h457v-25h-327q-90 0 -90 -90
v-65q0 -73 73 -73h117q44 0 71 -24.5t27 -65.5v-64h19v64q0 49 -32 78.5t-85 29.5v19h31q88 0 142 -37t54 -98v-65q0 -114 -114 -114h-427v121q0 37 -12.5 64.5t-32 42t-41.5 31.5t-41.5 33t-32 46t-12.5 70v97h-286q-90 0 -90 -90v-65q0 -73 73 -73h118q44 0 71 -24.5
t27 -65.5v-64h18v64q0 49 -32 78.5t-84 29.5v19h30q89 0 143 -37t54 -98v-65q0 -114 -114 -114h-458v25h328q90 0 90 90v64q0 73 -73 73h-118q-44 0 -71 24.5t-27 65.5v64h-18v-64q0 -49 32 -78.5t84 -29.5v-19h-30q-89 0 -143 37t-54 98v66q0 114 114 114z" />
    <glyph glyph-name="t_h.liga" unicode="th" horiz-adv-x="1234" 
d="M250 495v-397q0 -73 73 -73h71q73 0 73 73v602h239v-174q-43 -29 -43 -86v-131h18v131q0 41 27 65.5t71 24.5h247q98 0 98 -98v-407h100v-25h-348v25h94v407q0 73 -73 73h-118q-73 0 -73 -73v-407h93v-25h-247v675h-60v-577q0 -98 -98 -98h-200q-98 0 -98 98v379h109v18
h-195v25h8q47 0 89 24t67 68l53 88h23v-180h187v-25h-187z" />
    <glyph glyph-name=".notdef" horiz-adv-x="473" 
d="M50 0v520h373v-520h-373zM398 495h-323v-470h323v470z" />
    <glyph glyph-name="uni0000" horiz-adv-x="0" 
 />
    <glyph glyph-name="uni0000" horiz-adv-x="0" 
 />
    <glyph glyph-name="uni000D" unicode="&#xd;" horiz-adv-x="250" 
 />
    <glyph glyph-name="space" unicode=" " horiz-adv-x="260" 
 />
    <glyph glyph-name="exclam" unicode="!" horiz-adv-x="314" 
d="M158 -10q-28 0 -44.5 17t-16.5 45t16.5 44.5t44.5 16.5q27 0 43.5 -16.5t16.5 -44.5t-16.5 -45t-43.5 -17zM170 200h-25l43 347h-16l-35 -278h-9l-47 431h152z" />
    <glyph glyph-name="quotedbl" unicode="&#x22;" horiz-adv-x="435" 
d="M145 445h-20l-48 255h116zM285 445h-20l-48 255h116z" />
    <glyph glyph-name="numbersign" unicode="#" horiz-adv-x="899" 
d="M342 508l-115 -315h330l115 315h-330zM70 168v25h130l115 315h-155v25h164l61 167h27l-61 -167h330l61 167h27l-61 -167h121v-25h-130l-115 -315h155v-25h-164l-61 -168h-27l61 168h-330l-61 -168h-27l61 168h-121z" />
    <glyph glyph-name="dollar" unicode="$" horiz-adv-x="712" 
d="M343 276l25 -28l6 -138q13 0 30.5 8t23.5 22q29 4 44.5 27t15.5 58q0 51 -25 63q-3 49 -59 49q-34 0 -79.5 9t-59.5 21h-3q-27 7 -45 36t-18 62l-8 26l-10 -37q0 -22 11.5 -41.5t29.5 -23.5q1 -31 24.5 -50.5t59.5 -19.5l16 -19h21v-24zM264 367h1q15 -5 32 -5h118
q44 0 71 -24.5t27 -65.5v-64h18v64q0 49 -32 78.5t-84 29.5h-72v210h-39q-80 0 -80 -90v-65q0 -53 38 -68h2zM343 276l-21 24h-55q-89 0 -143 37t-54 98v66q0 114 114 114h159v85h25v-85h257v-25h-257v-191h77q89 0 143 -37t54 -98v-65q0 -114 -114 -114h-160v-85h-25v85
h-243v25h243v166z" />
    <glyph glyph-name="percent" unicode="%" horiz-adv-x="883" 
d="M554 293v-181q-22 -29 -22 -66v-6h9v11q0 36 29 65l140 127q24 24 26 50q2 45 -45 45h-92q-45 0 -45 -45zM599 13h92q45 0 45 45v180q22 29 22 66v7h-9v-12q0 -36 -29 -65l-140 -127q-24 -24 -26 -49q-2 -45 45 -45zM147 643v-181q-22 -29 -22 -66v-6h10v11q0 37 29 65
l140 127q25 25 25 50q3 45 -44 45h-93q-45 0 -45 -45zM192 363h93q45 0 45 45v180q21 28 21 66v7h-9v-12q0 -36 -29 -65l-140 -127q-25 -25 -25 -49q-3 -45 44 -45zM70 407v236q0 57 57 57h223q57 0 57 -57v-236q0 -57 -57 -57h-223q-57 0 -57 57zM647 700h27l-437 -700h-27
zM477 57v236q0 57 57 57h222q57 0 57 -57v-236q0 -57 -57 -57h-222q-57 0 -57 57z" />
    <glyph glyph-name="ampersand" unicode="&#x26;" horiz-adv-x="800" 
d="M447 103l91 140l-12 18q-50 77 -144 77h-85q-44 0 -71 24.5t-27 65.5v91h-18v-91q0 -49 32 -78.5t84 -29.5v-25h-49q-73 0 -73 -73v-107q0 -90 90 -90h39q92 0 143 78zM366 0h-178q-118 0 -118 118v112q0 38 23 62t63 27q-86 33 -86 117v146q0 118 118 118h258
q118 0 118 -118v-111q0 -38 -23.5 -60.5t-62.5 -22.5h-105v18h36q73 0 73 73v106q0 90 -90 90h-78q-90 0 -90 -90v-149q0 -73 73 -73h86q105 0 164 -87l6 -9l87 133h90l-131 -203l131 -197h-30l-116 174l-56 -86q-57 -88 -162 -88z" />
    <glyph glyph-name="quotesingle" unicode="'" horiz-adv-x="253" 
d="M145 445h-20l-48 255h116z" />
    <glyph glyph-name="parenleft" unicode="(" horiz-adv-x="395" 
d="M192 276q0 -146 36.5 -277.5t96.5 -198.5h-30q-102 82 -163.5 211t-61.5 259q0 129 61.5 261t163.5 219h30q-60 -67 -96.5 -197.5t-36.5 -276.5z" />
    <glyph glyph-name="parenright" unicode=")" horiz-adv-x="395" 
d="M203 276q0 146 -36.5 276.5t-96.5 197.5h30q102 -87 163.5 -219t61.5 -261q0 -130 -61.5 -259t-163.5 -211h-30q60 67 96.5 198.5t36.5 277.5z" />
    <glyph glyph-name="asterisk" unicode="*" horiz-adv-x="517" 
d="M485 570l-53 -9q-65 -12 -76 -80l-5 -41h-5l-5 41q-9 68 -76 80l-53 9v4l53 9q67 12 76 80l5 41h5l5 -41q11 -68 76 -80l53 -9v-4z" />
    <glyph glyph-name="plus" unicode="+" horiz-adv-x="548" 
d="M128 338v25h134v134h25v-134h133v-25h-133v-134h-25v134h-134z" />
    <glyph glyph-name="comma" unicode="," horiz-adv-x="261" 
d="M70 52q0 28 16.5 44.5t44.5 16.5q27 0 43.5 -17t16.5 -45v-92q0 -37 -20.5 -57.5t-57.5 -20.5h-43v25h43q25 0 39 14t14 39v42q-14 -11 -35 -11q-28 0 -44.5 17t-16.5 45z" />
    <glyph glyph-name="hyphen" unicode="-" horiz-adv-x="412" 
d="M60 265v25h292v-25h-292z" />
    <glyph glyph-name="period" unicode="." horiz-adv-x="261" 
d="M131 -10q-28 0 -44.5 17t-16.5 45t16.5 44.5t44.5 16.5q27 0 43.5 -16.5t16.5 -44.5t-16.5 -45t-43.5 -17z" />
    <glyph glyph-name="slash" unicode="/" horiz-adv-x="454" 
d="M440 810h27l-383 -920h-27z" />
    <glyph glyph-name="zero" unicode="0" horiz-adv-x="773" 
d="M50 114v472q0 114 114 114h446q114 0 114 -114v-472q0 -114 -114 -114h-446q-114 0 -114 114zM204 585v-361q-43 -57 -43 -132v-13h18v23q0 72 58 130l281 254q48 48 51 99q3 90 -89 90h-186q-90 0 -90 -90zM294 25h186q90 0 90 90v361q43 57 43 132v13h-18v-23
q0 -72 -58 -130l-281 -254q-48 -48 -51 -99q-3 -90 89 -90z" />
    <glyph glyph-name="one" unicode="1" horiz-adv-x="474" 
d="M203 675h-18v-131q0 -41 -27 -65.5t-71 -24.5h-27v25h27q73 0 73 73v148h154v-675h150v-25h-454v25h150v433q43 29 43 86v131z" />
    <glyph glyph-name="two" unicode="2" horiz-adv-x="774" 
d="M724 602v-92q0 -112 -96 -162q-46 -27 -209.5 -101.5t-225.5 -121.5h524v-125h-667q0 21 13 44t40.5 48.5t56.5 48t74 51.5t78.5 49.5t85.5 51.5t80 49q92 52 92 168v92q0 73 -73 73h-220q-73 0 -73 -73v-98h-154v98q0 47 25.5 72.5t72.5 25.5h349q44 0 71 -24.5
t27 -65.5v-93h18v93q0 54 -40 84v6h57q42 0 68 -27t26 -71z" />
    <glyph glyph-name="three" unicode="3" horiz-adv-x="760" 
d="M50 196h154v-98q0 -73 73 -73h189q90 0 90 90v129q0 73 -73 73v25q53 0 85 29.5t32 78.5v91h-19v-91q0 -41 -27 -65.5t-71 -24.5h-228v25h228q73 0 73 73v127q0 90 -90 90h-189q-73 0 -73 -73v-98h-154v98q0 47 25.5 72.5t72.5 25.5h444q118 0 118 -118v-124
q0 -84 -85 -117q39 -3 62 -27t23 -62v-134q0 -118 -118 -118h-444q-47 0 -72.5 25.5t-25.5 72.5v98z" />
    <glyph glyph-name="four" unicode="4" horiz-adv-x="917" 
d="M50 178l349 522h99q44 0 71 -24.5t27 -65.5v-141h18v141q0 54 -40 84v6h151v-497h142v-25h-142v-153h99v-25h-363v25h110v153h-521zM475 675l-370 -472h466v399q0 73 -73 73h-23z" />
    <glyph glyph-name="five" unicode="5" horiz-adv-x="715" 
d="M665 577h-568l-21 -141q-5 -35 15 -54t58 -19h289q44 0 71 -24.5t27 -65.5v-91h18v91q0 49 -32 78.5t-84 29.5h-289v25h398q53 0 85.5 -38.5t32.5 -102.5v-147q0 -118 -118 -118h-496v200h25v-175h345q90 0 90 90v150q0 73 -73 73h-289q-46 0 -75 25.5t-23 64.5l40 272
h574v-123z" />
    <glyph glyph-name="six" unicode="6" horiz-adv-x="738" 
d="M204 602v-132h386q47 0 72.5 -25.5t25.5 -72.5v-274q0 -47 -25.5 -72.5t-72.5 -25.5h-313q-44 0 -71 24.5t-27 65.5v141h-18v-141q0 -54 40 -84v-6h-57q-42 0 -68 27t-26 71v504q0 47 25.5 72.5t72.5 25.5h540v-25h-411q-73 0 -73 -73zM461 445h-257v-347q0 -73 73 -73
h184q73 0 73 73v274q0 73 -73 73z" />
    <glyph glyph-name="seven" unicode="7" horiz-adv-x="754" 
d="M359 0h-154q0 122 94.5 257.5t237.5 256.5l142 121v23l-106 -83h-523v125h654v-72l-133 -121q-91 -90 -151.5 -231t-60.5 -276z" />
    <glyph glyph-name="eight" unicode="8" horiz-adv-x="760" 
d="M592 0h-424q-118 0 -118 118v112q0 38 23 62t63 27q-86 33 -86 117v146q0 118 118 118h424q118 0 118 -118v-111q0 -38 -23 -62t-62 -27q85 -33 85 -117v-147q0 -118 -118 -118zM483 381v25h49q73 0 73 73v106q0 90 -90 90h-221q-90 0 -90 -90v-149q0 -73 73 -73h206
q44 0 71 -24.5t27 -65.5v-91h19v91q0 49 -32 78.5t-85 29.5zM277 320v-25h-49q-73 0 -73 -73v-107q0 -90 90 -90h221q90 0 90 90v150q0 73 -73 73h-206q-44 0 -71 24.5t-27 65.5v91h-18v-91q0 -49 32 -78.5t84 -29.5z" />
    <glyph glyph-name="nine" unicode="9" horiz-adv-x="738" 
d="M534 98v132h-386q-47 0 -72.5 25.5t-25.5 72.5v274q0 47 25.5 72.5t72.5 25.5h313q44 0 71 -24.5t27 -65.5v-141h19v141q0 53 -40 84v6h56q43 0 68.5 -27t25.5 -71v-504q0 -47 -25.5 -72.5t-72.5 -25.5h-540v25h411q73 0 73 73zM277 255h257v347q0 73 -73 73h-184
q-73 0 -73 -73v-274q0 -73 73 -73z" />
    <glyph glyph-name="colon" unicode=":" horiz-adv-x="283" 
d="M120 -10q-28 0 -44.5 17t-16.5 45t16.5 44.5t44.5 16.5q27 0 43.5 -16.5t16.5 -44.5t-16.5 -45t-43.5 -17zM120 417q-28 0 -44.5 16.5t-16.5 44.5t16.5 45t44.5 17q27 0 43.5 -17t16.5 -45t-16.5 -44.5t-43.5 -16.5z" />
    <glyph glyph-name="semicolon" unicode=";" horiz-adv-x="283" 
d="M142 417q-28 0 -44.5 16.5t-16.5 44.5t16.5 45t44.5 17q27 0 43.5 -17t16.5 -45t-16.5 -44.5t-43.5 -16.5zM81 52q0 28 16.5 44.5t44.5 16.5q27 0 43.5 -17t16.5 -45v-92q0 -37 -20.5 -57.5t-57.5 -20.5h-43v25h43q53 0 53 53v42q-14 -11 -35 -11q-28 0 -44.5 17
t-16.5 45z" />
    <glyph glyph-name="less" unicode="&#x3c;" horiz-adv-x="525" 
d="M127 360l270 176v-31l-236 -155l236 -154v-32l-270 176v20z" />
    <glyph glyph-name="equal" unicode="=" horiz-adv-x="548" 
d="M128 425v25h292v-25h-292zM128 251v25h292v-25h-292z" />
    <glyph glyph-name="greater" unicode="&#x3e;" horiz-adv-x="525" 
d="M127 505v31l270 -176v-20l-270 -176v32l237 154z" />
    <glyph glyph-name="question" unicode="?" horiz-adv-x="773" 
d="M673 602v-92q0 -71 -29.5 -115.5t-71.5 -63.5t-83.5 -32.5t-71 -36.5t-29.5 -62h-25q0 43 16 70t39 43.5t46 35.5t39 59.5t16 101.5v92q0 73 -73 73h-140q-73 0 -73 -73v-177l-154 50v127q0 47 25.5 72.5t72.5 25.5h269q44 0 71 -24.5t27 -65.5v-93h18v93q0 54 -40 84v6
h57q42 0 68 -27t26 -71zM376 -10q-27 0 -43.5 17t-16.5 45t16.5 44.5t43.5 16.5t43.5 -16.5t16.5 -44.5t-16.5 -45t-43.5 -17z" />
    <glyph glyph-name="at" unicode="@" horiz-adv-x="1052" 
d="M168 700h716q44 0 71 -27t27 -71v-519q0 -98 -98 -98h-82q-101 0 -101 101v61h-18v-72q0 -41 -27 -65.5t-71 -24.5h-247q-98 0 -98 98v334q0 98 98 98h247q44 0 71 -24.5t27 -65.5v-72h18v72q0 55 -40 84v6h151v-433q0 -72 72 -72q73 0 73 72v520q0 73 -73 73h-716
q-73 0 -73 -73v-704q0 -73 73 -73h460q73 0 73 73v27h25v-27q0 -44 -27 -71t-71 -27h-460q-44 0 -71 27t-27 71v704q0 44 27 71t71 27zM394 417v-334q0 -73 73 -73h118q73 0 73 73v334q0 73 -73 73h-118q-73 0 -73 -73z" />
    <glyph glyph-name="A" unicode="A" horiz-adv-x="906" 
d="M551 268h-23q-204 0 -356 -137l-144 -131h-18v25l236 650h-111v25h221q40 0 60.5 -22t37.5 -68l51 -141h18l-50 141q-3 7 -8 23.5t-8.5 25t-9.5 19t-14 16.5v6h56q39 0 57 -22.5t37 -75.5l210 -577h103v-25h-366v25h109zM47 51l116 105q150 137 355 137h24l-113 309
q-8 24 -12 33t-12 21t-19.5 15.5t-29.5 3.5h-83z" />
    <glyph glyph-name="B" unicode="B" horiz-adv-x="834" 
d="M10 700h661q55 0 84 -29t29 -84v-116q0 -37 -23.5 -61.5t-62.5 -27.5q86 -34 86 -117v-152q0 -55 -29 -84t-84 -29h-661v25h100v650h-100v25zM630 479v106q0 90 -90 90h-276v-239q0 -73 73 -73h220q44 0 71 -24.5t27 -65.5v-91h18v91q0 49 -32 78.5t-84 29.5v25
q73 0 73 73zM265 25h275q90 0 90 90v150q0 73 -73 73h-220q-44 0 -71 24.5t-27 65.5v91h-18v-91q0 -49 32 -78.5t84 -29.5l1 -25q-73 0 -73 -73v-197z" />
    <glyph glyph-name="C" unicode="C" horiz-adv-x="718" 
d="M50 98v504q0 44 26 71t68 27h57v-6q-40 -30 -40 -84v-141h18v141q0 41 27 65.5t71 24.5h293q47 0 72.5 -25.5t25.5 -72.5v-98h-154v98q0 73 -73 73h-164q-73 0 -73 -73v-504q0 -73 73 -73h293q73 0 73 73v90h25v-98q0 -41 -27 -65.5t-71 -24.5h-422q-47 0 -72.5 25.5
t-25.5 72.5z" />
    <glyph glyph-name="D" unicode="D" horiz-adv-x="867" 
d="M464 0h-454v25h100v650h-100v25h376v-6q-75 -27 -120 -118.5t-45 -212.5v-13h18v13q0 148 66 242.5t159 94.5q159 0 256 -96t97 -254t-74.5 -254t-197.5 -96h-3v6q74 27 119.5 119t45.5 212v13h-19v-13q0 -148 -66 -242.5t-158 -94.5zM264 350v-325h200q86 0 142.5 90
t56.5 235q0 146 -54.5 235.5t-144.5 89.5q-87 0 -143.5 -90t-56.5 -235z" />
    <glyph glyph-name="E" unicode="E" horiz-adv-x="710" 
d="M221 482h18v128q0 41 27 65.5t71 24.5h323v-225h-25v200h-298q-73 0 -73 -73v-227h396v-25h-396v-252q0 -73 73 -73h298v200h25v-225h-323q-44 0 -71 24.5t-27 65.5v128h-18v-128q0 -54 40 -84v-6h-251v25h100v650h-100v25h251v-6q-40 -30 -40 -84v-128z" />
    <glyph glyph-name="F" unicode="F" horiz-adv-x="687" 
d="M221 482h18v128q0 41 27 65.5t71 24.5h300v-225h-25v200h-275q-73 0 -73 -73v-227h366v-25h-366v-325h93v-25h-347v25h100v650h-100v25h251v-6q-40 -30 -40 -84v-128z" />
    <glyph glyph-name="G" unicode="G" horiz-adv-x="719" 
d="M558 231h-18v-141q0 -41 -27 -65.5t-71 -24.5h-294q-47 0 -72.5 25.5t-25.5 72.5v504q0 44 26 71t68 27h57v-6q-40 -30 -40 -84v-141h18v141q0 41 27 65.5t71 24.5h392v-25h-392q-73 0 -73 -73v-504q0 -73 73 -73h165q73 0 73 73v407h-93v25h247v-530h-151v6q40 30 40 84
v141z" />
    <glyph glyph-name="H" unicode="H" horiz-adv-x="894" 
d="M530 25h100v240q0 73 -73 73h-220q-44 0 -71 24.5t-27 65.5v91h-18v-91q0 -49 32 -78.5t84 -29.5v-25q-73 0 -73 -73v-197h100v-25h-354v25h100v650h-100v25h354v-25h-100v-239q0 -73 73 -73h220q44 0 71 -24.5t27 -65.5v-91h18v91q0 49 -32 78.5t-84 29.5v25q73 0 73 73
v196h-100v25h354v-25h-100v-650h100v-25h-354v25z" />
    <glyph glyph-name="I" unicode="I" horiz-adv-x="374" 
d="M37 675h-27v25h27q44 0 71 -24.5t27 -65.5v-141h18v141q0 55 -40 84v6h251v-25h-100v-650h100v-25h-354v25h100v577q0 73 -73 73z" />
    <glyph glyph-name="J" unicode="J" horiz-adv-x="374" 
d="M264 675v-460q0 -245 -245 -245h-9v25h10q90 0 90 90v517q0 73 -73 73h-27v25h27q44 0 71 -24.5t27 -65.5v-141h18v141q0 55 -40 84v6h251v-25h-100z" />
    <glyph glyph-name="K" unicode="K" horiz-adv-x="891" 
d="M264 675v-299q-43 -29 -43 -86v-100h18v100q0 41 27 65.5t71 24.5h127q41 0 63 -23t35 -67l32 -109h19l-32 109q-22 65 -47 84v25h38q31 0 48.5 17.5t31.5 55.5l71 203h-169v25h327v-25h-130l-74 -211q-26 -72 -78 -86h18q21 0 41.5 -28.5t32.5 -67.5l85 -257h105v-25
h-354v25h95l-85 257q-13 42 -26 57.5t-47 15.5h-127q-73 0 -73 -73v-257h100v-25h-354v25h100v650h-100v25h354v-25h-100z" />
    <glyph glyph-name="L" unicode="L" horiz-adv-x="693" 
d="M239 90v128h-18v-128q0 -54 40 -84v-6h-251v25h100v650h-100v25h347v-25h-93v-577q0 -73 73 -73h281v200h25v-225h-306q-44 0 -71 24.5t-27 65.5z" />
    <glyph glyph-name="M" unicode="M" horiz-adv-x="1137" 
d="M697 602l-122 -602h-154l-122 602q-8 39 -23 56t-50 17h-90v-650h99v-25h-225v25h100v650h-100v25h216q76 0 96 -90l33 -141h18l-33 141q-16 68 -38 84v6h57q74 0 94 -98l109 -537l109 537q10 50 32 74t67 24h27q44 0 71 -24.5t27 -65.5v-141h18v141q0 54 -40 84v6h254
v-25h-103v-650h103v-25h-357v25h100v577q0 73 -73 73h-27q-35 0 -50 -17t-23 -56z" />
    <glyph glyph-name="N" unicode="N" horiz-adv-x="887" 
d="M611 0h-141l-206 630q-13 45 -53 45h-76v-650h100v-25h-225v25h100v650h-100v25h201q31 0 48 -17.5t30 -53.5l58 -160h19l-51 141q-2 5 -7.5 23.5t-8.5 25.5t-9.5 18t-14.5 17v6h141l206 -630q13 -45 53 -45h17q60 0 60 60v590h-100v25h225v-25h-100v-590q0 -85 -85 -85
h-17q-31 0 -48 17.5t-30 53.5l-58 160h-19l51 -141q2 -5 7.5 -23.5t8.5 -25.5t9.5 -18t14.5 -17v-6z" />
    <glyph glyph-name="O" unicode="O" horiz-adv-x="774" 
d="M724 602v-504q0 -44 -26 -71t-68 -27h-57v6q40 30 40 84v141h-18v-141q0 -41 -27 -65.5t-71 -24.5h-349q-47 0 -72.5 25.5t-25.5 72.5v504q0 44 26 71t68 27h57v-6q-40 -30 -40 -84v-141h18v141q0 41 27 65.5t71 24.5h349q47 0 72.5 -25.5t25.5 -72.5zM277 25h220
q73 0 73 73v504q0 73 -73 73h-220q-73 0 -73 -73v-504q0 -73 73 -73zM460 350l-15 -9q-26 -16 -48 -47l-10 -15l-10 15q-22 31 -48 47l-15 9l15 9q27 17 48 47l10 15l10 -15q21 -30 48 -47z" />
    <glyph glyph-name="P" unicode="P" horiz-adv-x="779" 
d="M729 602v-331q0 -44 -26 -71t-68 -27h-371v-148h100v-25h-354v25h100v650h-100v25h251v-6q-40 -30 -40 -84v-141h18v141q0 41 27 65.5t71 24.5h294q47 0 72.5 -25.5t25.5 -72.5zM264 198h238q73 0 73 73v331q0 73 -73 73h-165q-73 0 -73 -73v-404z" />
    <glyph glyph-name="Q" unicode="Q" horiz-adv-x="719" 
d="M50 84v518q0 47 25.5 72.5t72.5 25.5h294q44 0 71 -24.5t27 -65.5v-141h18v141q0 54 -40 84v6h57q42 0 68 -27t26 -71v-504q0 -47 -25.5 -72.5t-72.5 -25.5h-294q-44 0 -71 24.5t-27 65.5v141h-18v-141q0 -47 33 -76t87 -29h210q114 0 114 -114v-38h-154v37q0 90 -90 90
h-168q-65 0 -104 34t-39 90zM277 25h165q73 0 73 73v504q0 73 -73 73h-165q-73 0 -73 -73v-504q0 -73 73 -73z" />
    <glyph glyph-name="R" unicode="R" horiz-adv-x="935" 
d="M10 700h656q114 0 114 -114v-112q0 -41 -28.5 -65.5t-74.5 -24.5h-30q62 -21 91 -112l82 -247h105v-25h-354v25h95l-85 257q-13 42 -26 57.5t-47 15.5h-171q-44 0 -71 24.5t-27 65.5v64h-18v-64q0 -49 32 -78.5t84 -29.5v-25q-73 0 -73 -73v-214h100v-25h-354v25h100v650
h-100v25zM626 482v103q0 90 -90 90h-272v-222q0 -73 73 -73h174q40 -1 60.5 -23.5t34.5 -66.5l32 -109h19l-32 109q-23 75 -72 94v25q73 0 73 73z" />
    <glyph glyph-name="S" unicode="S" horiz-adv-x="760" 
d="M204 585v-149q0 -73 73 -73h206q44 0 71 -24.5t27 -65.5v-91h19v91q0 49 -32 78.5t-85 29.5h-206v25h315q53 0 85.5 -38.5t32.5 -102.5v-147q0 -118 -118 -118h-542v200h25v-175h391q90 0 90 90v150q0 73 -73 73h-206q-44 0 -71 24.5t-27 65.5v91h-18v-91q0 -49 32 -78.5
t84 -29.5h206v-25h-315q-53 0 -85.5 38.5t-32.5 102.5v146q0 118 118 118h542v-180h-25v155h-391q-90 0 -90 -90z" />
    <glyph glyph-name="T" unicode="T" horiz-adv-x="731" 
d="M399 482h18v128q0 41 27 65.5t71 24.5h206v-225h-25v200h-181q-73 0 -73 -73v-577h94v-25h-348v25h100v650h-253v-200h-25v225h429v-6q-40 -30 -40 -84v-128z" />
    <glyph glyph-name="U" unicode="U" horiz-adv-x="838" 
d="M110 98v577h-100v25h357v-25h-103v-577q0 -73 73 -73h293q73 0 73 73v577h-100v25h225v-25h-100v-577q0 -47 -25.5 -72.5t-72.5 -25.5h-293q-44 0 -71 24.5t-27 65.5v141h-18v-141q0 -54 40 -84v-6h-57q-42 0 -68 27t-26 71z" />
    <glyph glyph-name="V" unicode="V" horiz-adv-x="1015" 
d="M869 675h-107v25h243v-25h-109l-210 -577q-11 -29 -17 -43t-17.5 -29t-27 -20.5t-38.5 -5.5h-37q-40 0 -60 22t-38 68l-50 141h-18l50 -141q3 -8 8 -24t8 -24.5t9.5 -19t14.5 -16.5v-6h-57q-38 0 -56 22.5t-38 75.5l-210 577h-102v25h366v-25h-110l210 -577
q18 -49 30 -60q15 -13 43 -13h37q32 0 44 13.5t26 51.5q1 2 1 3t1 2.5t1 2.5z" />
    <glyph glyph-name="W" unicode="W" horiz-adv-x="1339" 
d="M367 675h-98l117 -577q8 -39 23 -56t50 -17h53q35 0 50.5 17t22.5 56l123 602h53l122 -602q8 -39 23 -56t50 -17h53q35 0 50 17t23 56l117 577h-104v25h234v-25h-105l-117 -577q-10 -51 -31.5 -74.5t-66.5 -23.5h-53q-81 0 -98 90l-29 141h-19l30 -141q11 -63 40 -84v-6
h-57q-74 0 -94 98l-59 303l-60 -303q-10 -51 -31.5 -74.5t-66.5 -23.5h-53q-81 0 -98 90l-29 141h-18l29 -141q11 -63 40 -84v-6h-57q-74 0 -94 98l-117 577h-105v25h357v-25z" />
    <glyph glyph-name="X" unicode="X" horiz-adv-x="880" 
d="M516 25h100v240q0 73 -73 73h-206q-44 0 -71 24.5t-27 65.5v91h-18v-91q0 -49 32 -78.5t84 -29.5v-25h-129q-73 0 -73 -73v-197h170v-25h-295v25h100v205q0 38 23 62t63 27q-86 33 -86 117v239h-100v25h354v-25h-100v-239q0 -73 73 -73h206q44 0 71 -24.5t27 -65.5v-91
h19v91q0 49 -32 78.5t-85 29.5v25h129q73 0 73 73v196h-170v25h295v-25h-100v-204q0 -38 -23 -62t-62 -27q85 -33 85 -117v-240h100v-25h-354v25z" />
    <glyph glyph-name="Y" unicode="Y" horiz-adv-x="937" 
d="M119 675h-109v25h354v-25h-91l110 -294q8 -24 12 -33t12 -21t19.5 -15.5t29.5 -3.5h153q32 0 44 13.5t26 51.5q1 2 1 3t1 2.5t1 2.5l109 294h-101v25h237v-25h-109l-109 -294q-11 -29 -17 -43t-17.5 -29t-27 -20.5t-38.5 -5.5h-153q-41 0 -61.5 22.5t-36.5 67.5l-53 141
h-18l52 -141q38 -108 117 -108h90v-240h100v-25h-354v25h100v216q-51 3 -96 41.5t-67 98.5z" />
    <glyph glyph-name="Z" unicode="Z" horiz-adv-x="710" 
d="M50 153v135l540 259q45 23 45 53v15q0 60 -60 60h-525v25h525q85 0 85 -85v-14q0 -16 -5 -28t-17.5 -22.5t-20.5 -15.5t-28 -15l-198 -93v-18l179 83q65 29 84 55h6v-135l-540 -259q-45 -23 -45 -53v-15q0 -60 60 -60h525v-25h-525q-85 0 -85 85v14q0 16 5 28t17.5 22.5
t20.5 15.5t28 15l198 93v18l-179 -83q-65 -29 -84 -55h-6z" />
    <glyph glyph-name="bracketleft" unicode="[" horiz-adv-x="367" 
d="M70 -107v764q0 93 93 93h40v-5q-23 -6 -36.5 -29.5t-13.5 -55.5v-138h19v138q0 41 27 65.5t71 24.5h27v-25h-27q-73 0 -73 -73v-754q0 -73 73 -73h27v-25h-27q-44 0 -71 24.5t-27 65.5v138h-19v-138q0 -32 13.5 -55.5t36.5 -29.5v-5h-40q-93 0 -93 93z" />
    <glyph glyph-name="backslash" unicode="\" horiz-adv-x="551" 
d="M453 -110l-383 920h27l384 -920h-28z" />
    <glyph glyph-name="bracketright" unicode="]" horiz-adv-x="367" 
d="M297 657v-764q0 -93 -93 -93h-41v5q23 6 36.5 29.5t13.5 55.5v138h-18v-138q0 -41 -27 -65.5t-71 -24.5h-27v25h27q73 0 73 73v754q0 73 -73 73h-27v25h27q44 0 71 -24.5t27 -65.5v-138h18v138q0 32 -14 55.5t-36 29.5v5h41q93 0 93 -93z" />
    <glyph glyph-name="asciicircum" unicode="^" horiz-adv-x="570" 
d="M253 610l176 -270h-31l-155 236l-154 -236h-32l176 270h20z" />
    <glyph glyph-name="underscore" unicode="_" horiz-adv-x="532" 
d="M70 -25v25h392v-25h-392z" />
    <glyph glyph-name="grave" unicode="`" horiz-adv-x="314" 
d="M70 642v60h21l153 -129h-20l-133 69h-21z" />
    <glyph glyph-name="a" unicode="a" horiz-adv-x="732" 
d="M622 437v-412h100v-25h-250v6q40 28 40 84v141h-19v-138q0 -44 -25.5 -68.5t-71.5 -24.5h-248q-47 0 -72.5 24t-25.5 71v146q0 41 27 65.5t71 24.5h320v101q0 73 -73 73h-167q-73 0 -73 -73v-38h-25v38q0 98 98 98h296q46 0 72 -25t26 -68zM204 233v-135q0 -73 74 -73
h117q73 0 73 73v208h-191q-73 0 -73 -73z" />
    <glyph glyph-name="b" unicode="b" horiz-adv-x="732" 
d="M264 700v-174q-43 -29 -43 -86v-72h18v72q0 41 27 65.5t71 24.5h247q98 0 98 -98v-334q0 -98 -98 -98h-247q-44 0 -71 24.5t-27 65.5v72h-18v-72q0 -55 40 -84v-6h-151v675h-100v25h254zM337 25h118q73 0 73 73v334q0 73 -73 73h-118q-73 0 -73 -73v-334q0 -73 73 -73z
" />
    <glyph glyph-name="c" unicode="c" 
d="M50 98v334q0 44 26 71t68 27h57v-6q-40 -30 -40 -84v-141h18v141q0 41 27 65.5t71 24.5h247q47 0 72.5 -25.5t25.5 -72.5v-98h-154v98q0 73 -73 73h-118q-73 0 -73 -73v-334q0 -73 73 -73h247q73 0 73 73v90h25v-98q0 -41 -27 -65.5t-71 -24.5h-376q-47 0 -72.5 25.5
t-25.5 72.5z" />
    <glyph glyph-name="d" unicode="d" horiz-adv-x="732" 
d="M468 526v149h-100v25h254v-675h100v-25h-251v6q40 29 40 84v72h-18v-72q0 -41 -27 -65.5t-71 -24.5h-247q-98 0 -98 98v334q0 98 98 98h247q44 0 71 -24.5t27 -65.5v-72h18v72q0 57 -43 86zM277 25h118q73 0 73 73v334q0 73 -73 73h-118q-73 0 -73 -73v-334q0 -73 73 -73
z" />
    <glyph glyph-name="e" unicode="e" 
d="M524 204h-320v-106q0 -73 73 -73h247q73 0 73 73v44h25v-52q0 -41 -27 -65.5t-71 -24.5h-376q-47 0 -72.5 25.5t-25.5 72.5v334q0 44 26 71t68 27h57v-6q-40 -30 -40 -84v-141h18v141q0 41 27 65.5t71 24.5h247q47 0 72.5 -25.5t25.5 -72.5v-130q0 -47 -25.5 -72.5
t-72.5 -25.5zM204 432v-203h191q73 0 73 73v130q0 73 -73 73h-118q-73 0 -73 -73z" />
    <glyph glyph-name="f" unicode="f" horiz-adv-x="516" 
d="M264 602v-82h236v-25h-236v-470h100v-25h-354v25h100v452h109v18h-209v25h100v82q0 98 98 98h200q98 0 98 -98v-41h-25v41q0 73 -73 73h-71q-73 0 -73 -73z" />
    <glyph glyph-name="g" unicode="g" horiz-adv-x="742" 
d="M50 197v235q0 47 25.5 72.5t72.5 25.5h247q44 0 71 -24.5t27 -65.5v-133h18v133q0 54 -40 84v25h91q30 0 46 17t33 56l24 51h27l-26 -59q-16 -40 -36 -61.5t-54 -24.5l-18 -3q29 -8 46.5 -33t17.5 -60v-282q0 -47 -25.5 -72.5t-72.5 -25.5h-429q0 -73 73 -73h454v-88
q0 -41 -27 -66t-71 -25h-356q-98 0 -98 81v68h6q28 -38 84 -38h391v43h-391q-41 0 -65.5 27t-24.5 71v25h109v161h-18v-105h-46q-31 0 -48 16.5t-17 47.5zM204 432v-355h191q73 0 73 73v282q0 73 -73 73h-118q-73 0 -73 -73z" />
    <glyph glyph-name="h" unicode="h" horiz-adv-x="792" 
d="M221 309h18v131q0 41 27 65.5t71 24.5h247q98 0 98 -98v-407h100v-25h-348v25h94v407q0 73 -73 73h-118q-73 0 -73 -73v-407h93v-25h-347v25h100v650h-100v25h254v-174q-43 -29 -43 -86v-131z" />
    <glyph glyph-name="i" unicode="i" horiz-adv-x="374" 
d="M37 505h-27v25h27q44 0 71 -24.5t27 -65.5v-141h18v141q0 55 -40 84v6h151v-505h100v-25h-354v25h100v407q0 73 -73 73zM277 639l-27 -9q-36 -14 -55 -50l-8 -11l-7 11q-19 35 -55 50l-27 9l27 10q36 15 55 49l7 12l8 -12q20 -35 55 -49z" />
    <glyph glyph-name="j" unicode="j" horiz-adv-x="327" 
d="M264 530v-485q0 -245 -245 -245h-9v25h10q90 0 90 90v517q0 73 -73 73h-27v25h27q44 0 71 -24.5t27 -65.5v-141h18v141q0 55 -40 84v6h151zM277 639l-27 -9q-36 -14 -55 -50l-8 -11l-7 11q-19 35 -55 50l-27 9l27 10q36 15 55 49l7 12l8 -12q20 -35 55 -49z" />
    <glyph glyph-name="k" unicode="k" horiz-adv-x="804" 
d="M364 0h-354v25h100v650h-100v25h254v-324q-43 -29 -43 -86v-100h18v100q0 41 27 65.5t71 24.5h41q41 0 62.5 -22.5t35.5 -67.5l32 -109h18l-32 109q-19 63 -47 84v25h78q59 0 93 73l17 36h-168v25h327v-25h-132l-19 -44q-36 -80 -105 -89q41 -12 67 -93l84 -257h105v-25
h-354v25h95l-84 257q-10 30 -15.5 42t-19.5 21.5t-38 9.5h-41q-73 0 -73 -73v-257h100v-25z" />
    <glyph glyph-name="l" unicode="l" horiz-adv-x="374" 
d="M37 675h-27v25h27q44 0 71 -24.5t27 -65.5v-141h18v141q0 55 -40 84v6h151v-675h100v-25h-354v25h100v577q0 73 -73 73z" />
    <glyph glyph-name="m" unicode="m" horiz-adv-x="1176" 
d="M511 25v480h-184q-73 0 -73 -73v-407h90v-25h-334v25h90v480h-90v25h241v-6q-40 -30 -40 -84v-243h18v243q0 41 27 65.5t71 24.5h335v-6q-40 -30 -40 -84v-243h18v243q0 41 27 65.5t71 24.5h240q98 0 98 -98v-407h90v-25h-334v25h90v407q0 73 -73 73h-111q-73 0 -73 -73
v-407h90v-25h-334v25h90z" />
    <glyph glyph-name="n" unicode="n" horiz-adv-x="792" 
d="M221 299h18v141q0 41 27 65.5t71 24.5h247q98 0 98 -98v-407h100v-25h-348v25h94v407q0 73 -73 73h-118q-73 0 -73 -73v-407h93v-25h-347v25h100v480h-100v25h251v-6q-40 -30 -40 -84v-141z" />
    <glyph glyph-name="o" unicode="o" 
d="M622 432v-334q0 -44 -26 -71t-68 -27h-57v6q40 30 40 84v141h-18v-141q0 -41 -27 -65.5t-71 -24.5h-247q-47 0 -72.5 25.5t-25.5 72.5v334q0 44 26 71t68 27h57v-6q-40 -30 -40 -84v-141h18v141q0 41 27 65.5t71 24.5h247q47 0 72.5 -25.5t25.5 -72.5zM277 25h118
q73 0 73 73v334q0 73 -73 73h-118q-73 0 -73 -73v-334q0 -73 73 -73zM406 265l-15 -9q-24 -15 -45 -44l-10 -14l-10 14q-19 29 -45 44l-14 9l14 9q27 16 45 44l10 14l10 -14q20 -28 45 -44z" />
    <glyph glyph-name="p" unicode="p" horiz-adv-x="732" 
d="M264 4v-179h100v-25h-354v25h100v680h-100v25h251v-6q-40 -29 -40 -84v-72h18v72q0 41 27 65.5t71 24.5h247q98 0 98 -98v-334q0 -98 -98 -98h-247q-44 0 -71 24.5t-27 65.5v72h-18v-72q0 -57 43 -86zM455 505h-118q-73 0 -73 -73v-334q0 -73 73 -73h118q73 0 73 73v334
q0 73 -73 73z" />
    <glyph glyph-name="q" unicode="q" horiz-adv-x="732" 
d="M468 -175v179q43 29 43 86v72h-18v-72q0 -41 -27 -65.5t-71 -24.5h-247q-98 0 -98 98v334q0 98 98 98h247q44 0 71 -24.5t27 -65.5v-72h18v72q0 55 -40 84v6h151v-705h100v-25h-354v25h100zM395 505h-118q-73 0 -73 -73v-334q0 -73 73 -73h118q73 0 73 73v334
q0 73 -73 73z" />
    <glyph glyph-name="r" unicode="r" horiz-adv-x="556" 
d="M110 25v480h-100v25h251v-6q-40 -30 -40 -84v-243h18v243q0 41 27 65.5t71 24.5h71q98 0 98 -98v-113h-25v113q0 73 -73 73h-71q-73 0 -73 -73v-407h93v-25h-347v25h100z" />
    <glyph glyph-name="s" unicode="s" 
d="M622 505h-328q-90 0 -90 -90v-65q0 -73 73 -73h118q44 0 71 -24.5t27 -65.5v-64h18v64q0 49 -32 78.5t-84 29.5v19h30q89 0 143 -37t54 -98v-65q0 -114 -114 -114h-458v25h328q90 0 90 90v64q0 73 -73 73h-118q-44 0 -71 24.5t-27 65.5v64h-18v-64q0 -49 32 -78.5
t84 -29.5v-19h-30q-89 0 -143 37t-54 98v66q0 114 114 114h458v-25z" />
    <glyph glyph-name="t" unicode="t" horiz-adv-x="542" 
d="M250 495v-397q0 -73 73 -73h71q73 0 73 73v152h25v-152q0 -98 -98 -98h-200q-98 0 -98 98v379h109v18h-195v25h8q47 0 89 24t67 68l53 88h23v-180h236v-25h-236z" />
    <glyph glyph-name="u" unicode="u" horiz-adv-x="772" 
d="M561 90v141h-18v-141q0 -41 -27 -65.5t-71 -24.5h-247q-98 0 -98 98v407h-90v25h334v-25h-90v-407q0 -73 73 -73h118q73 0 73 73v407h-90v25h334v-25h-90v-480h90v-25h-241v6q40 30 40 84z" />
    <glyph glyph-name="v" unicode="v" horiz-adv-x="811" 
d="M114 505h-104v25h354v-25h-96l83 -407q7 -39 22.5 -56t50.5 -17h93q35 0 50 17t23 56l83 407h-119v25h247v-25h-103l-83 -407q-10 -51 -31.5 -74.5t-66.5 -23.5h-93q-81 0 -98 90l-30 141h-18l29 -141q13 -63 40 -84v-6h-56q-74 0 -94 98z" />
    <glyph glyph-name="w" unicode="w" horiz-adv-x="1096" 
d="M364 505h-98l48 -407q5 -38 21 -55.5t52 -17.5h53q36 0 52 17.5t21 55.5l50 425h99l50 -425q5 -38 21 -55.5t52 -17.5h53q36 0 52 17.5t21 55.5l49 407h-121v25h247v-25h-101l-49 -407q-11 -98 -98 -98h-53q-85 0 -98 90l-20 141h-18l20 -141q9 -61 40 -84v-6h-57
q-81 0 -94 98l-9 96l-11 -96q-11 -98 -98 -98h-53q-43 0 -68 24t-30 66l-20 141h-18l20 -141q7 -60 40 -84v-6h-57q-41 0 -65 26t-29 72l-48 407h-102v25h354v-25z" />
    <glyph glyph-name="x" unicode="x" horiz-adv-x="792" 
d="M782 0h-354v25h100v154q0 73 -73 73h-118q-44 0 -71 24.5t-27 65.5v64h-18v-64q0 -49 32 -78.5t84 -29.5v-25h-129q-73 0 -73 -73v-111h193v-25h-318v25h100v119q0 39 25 62.5t65 26.5q-42 17 -66 47.5t-24 69.5v155h-100v25h354v-25h-100v-155q0 -73 73 -73h118
q44 0 71 -24.5t27 -65.5v-64h18v64q0 49 -32 78.5t-84 29.5v25h129q73 0 73 73v112h-194v25h319v-25h-100v-120q0 -39 -25 -62.5t-66 -26.5q43 -17 67 -47.5t24 -69.5v-154h100v-25z" />
    <glyph glyph-name="y" unicode="y" horiz-adv-x="805" 
d="M568 25l98 480h-119v25h248v-25h-104l-125 -607q-11 -50 -32 -74t-66 -24h-86q-80 0 -98 90l-12 55h-18l11 -55q13 -63 40 -84v-6h-56q-76 0 -94 98l-17 83h154l17 -83q8 -39 23 -56t50 -17h86q35 0 50 17t23 56l21 102h-138q-81 0 -98 90l-30 141h-18l29 -141
q13 -63 40 -84v-6h-56q-74 0 -94 98l-83 407h-104v25h354v-25h-96l83 -407q7 -39 22.5 -56t50.5 -17h144z" />
    <glyph glyph-name="z" unicode="z" horiz-adv-x="623" 
d="M23 163v123l507 93q20 4 32.5 18.5t12.5 34.5v13q0 60 -60 60h-492v25h492q85 0 85 -85v-13q0 -63 -71 -78l-160 -29v-19l141 25q61 9 84 36h6v-123l-507 -93q-20 -4 -32.5 -18.5t-12.5 -34.5v-13q0 -60 60 -60h492v-25h-492q-85 0 -85 85v13q0 63 71 78l160 29v19
l-141 -25q-63 -11 -84 -36h-6z" />
    <glyph glyph-name="braceleft" unicode="{" horiz-adv-x="467" 
d="M170 357v300q0 93 93 93h40v-5q-23 -6 -36.5 -29.5t-13.5 -55.5v-59h19v59q0 41 27 65.5t71 24.5h27v-25h-27q-73 0 -73 -73v-300q0 -79 -61 -91q61 -12 61 -90v-273q0 -73 73 -73h27v-25h-27q-44 0 -71 24.5t-27 65.5v59h-19v-59q0 -32 13.5 -55.5t36.5 -29.5v-5h-40
q-93 0 -93 93v374q18 7 30.5 29t12.5 53v60h-18v-60q0 -41 -27 -65.5t-71 -24.5h-27v25h27q73 0 73 73z" />
    <glyph glyph-name="bar" unicode="|" horiz-adv-x="165" 
d="M95 -110h-25v920h25v-920z" />
    <glyph glyph-name="braceright" unicode="}" horiz-adv-x="467" 
d="M297 193v-300q0 -93 -93 -93h-41v5q23 6 36.5 29.5t13.5 55.5v59h-18v-59q0 -41 -27 -65.5t-71 -24.5h-27v25h27q73 0 73 73v300q0 77 61 91q-61 12 -61 90v273q0 73 -73 73h-27v25h27q44 0 71 -24.5t27 -65.5v-59h18v59q0 32 -14 55.5t-36 29.5v5h41q93 0 93 -93v-374
q-19 -7 -31.5 -29t-12.5 -53v-60h19v60q0 41 27 65.5t71 24.5h27v-25h-27q-73 0 -73 -73z" />
    <glyph glyph-name="asciitilde" unicode="~" horiz-adv-x="558" 
d="M90 287h-20l15 37q17 43 46 66t80 23q37 0 72.5 -13t57 -28t43.5 -28t36 -13q16 0 24 11t14 34l10 36h20l-10 -36q-13 -44 -32 -66.5t-54 -22.5q-37 0 -106.5 43t-111.5 43q-19 0 -32 -7.5t-18.5 -15.5t-15.5 -26z" />
    <glyph glyph-name="exclamdown" unicode="&#xa1;" horiz-adv-x="292" 
d="M145 540q28 0 44.5 -17t16.5 -45t-16.5 -44.5t-44.5 -16.5q-27 0 -43.5 16.5t-16.5 44.5t16.5 45t43.5 17zM133 330h25l-43 -347h16l35 278h9l47 -431h-152z" />
    <glyph glyph-name="cent" unicode="&#xa2;" horiz-adv-x="712" 
d="M70 183v334q0 44 26 71t68 27h57v-6q-40 -30 -40 -84v-141h18v141q0 40 26.5 65t70.5 25h47v85h25v-85h176q47 0 72.5 -25.5t25.5 -72.5v-98h-154v98q0 73 -72 73h-48v-480h176q73 0 73 73v90h25v-98q0 -41 -27 -65.5t-71 -24.5h-176v-85h-25v85h-175q-47 0 -72.5 25.5
t-25.5 72.5zM296 110h47v480h-47q-72 0 -72 -73v-334q0 -73 72 -73z" />
    <glyph glyph-name="sterling" unicode="&#xa3;" horiz-adv-x="823" 
d="M349 90v83h-18v-83q0 -54 40 -84v-6h-251v25h100v188h129q0 21 -8 37t-23.5 27.5t-31 20t-39 19.5t-38.5 20h-139v25h105q-55 51 -55 148v92q0 44 26 71t68 27h57v-6q-40 -30 -40 -84v-93h18v93q0 41 27 65.5t71 24.5h308q47 0 72.5 -25.5t25.5 -72.5v-104l-154 -50v154
q0 73 -73 73h-179q-73 0 -73 -73v-92q0 -101 31 -148h298v-25h-278q1 -2 7 -8.5t7.5 -8t6.5 -8t7 -9.5t6 -10t5.5 -12t4 -13t3 -16t1.5 -18t1 -21v-115q0 -73 73 -73h281v200h25v-225h-306q-44 0 -71 24.5t-27 65.5z" />
    <glyph glyph-name="currency" unicode="&#xa4;" horiz-adv-x="564" 
d="M70 246v208q0 74 67 94l-67 102h30l65 -98h234l64 98h31l-68 -102q32 -9 50 -33.5t18 -60.5v-208q0 -36 -18 -60.5t-50 -33.5l68 -102h-31l-64 98h-234l-65 -98h-30l67 102q-67 20 -67 94zM95 454v-208q0 -33 20.5 -53t52.5 -20h228q32 0 52.5 20t20.5 53v208
q0 33 -20.5 53t-52.5 20h-228q-32 0 -52.5 -20t-20.5 -53z" />
    <glyph glyph-name="yen" unicode="&#xa5;" horiz-adv-x="1057" 
d="M179 675h-109v25h354v-25h-91l110 -294q8 -24 12 -33t12 -21t19.5 -15.5t29.5 -3.5h153q32 0 44 13.5t26 51.5q1 2 1 3t1 2.5t1 2.5l109 294h-101v25h237v-25h-109l-109 -294q-11 -29 -17 -43t-17.5 -29t-27 -20.5t-38.5 -5.5h-153q-41 0 -61.5 22.5t-36.5 67.5l-53 141
h-18l52 -141q38 -108 117 -108h306v-25h-216v-115h216v-25h-216v-75h100v-25h-354v25h100v75h-216v25h216v115h-216v25h142q-62 39 -89 116z" />
    <glyph glyph-name="brokenbar" unicode="&#xa6;" horiz-adv-x="165" 
d="M95 430h-25v380h25v-380zM95 -110h-25v380h25v-380z" />
    <glyph glyph-name="section" unicode="&#xa7;" horiz-adv-x="712" 
d="M625 675h-311q-90 0 -90 -90v-58q0 -73 73 -73h118q44 0 71 -24.5t27 -65.5v-38h18v38q0 49 -32 78.5t-84 29.5v18h30q89 0 143 -36.5t54 -97.5v-12q0 -114 -114 -114h-304q2 -72 73 -72h118q44 0 71 -24.5t27 -65.5v-34h18v34q0 49 -32 78.5t-84 29.5v19h30
q89 0 143 -37t54 -98v-56q0 -114 -114 -114h-441v25h311q90 0 90 90v55q0 73 -73 73h-118q-44 0 -71 24.5t-27 65.5v38h-18v-38q0 -49 32 -78.5t84 -29.5v-19h-30q-89 0 -143 37t-54 98v12q0 114 114 114h304q-3 72 -73 72h-118q-44 0 -71 24.5t-27 65.5v37h-18v-37
q0 -49 32 -79t84 -30v-18h-30q-89 0 -143 37t-54 98v59q0 114 114 114h441v-25zM224 255h174q83 0 89 77h-173q-84 0 -90 -77z" />
    <glyph glyph-name="dieresis" unicode="&#xa8;" horiz-adv-x="465" 
d="M215 645l-14 -8q-29 -19 -48 -48l-10 -14l-10 14q-22 31 -49 48l-14 8l14 9q27 16 49 48l10 14l10 -14q19 -30 48 -48zM395 645l-14 -8q-29 -19 -48 -48l-10 -14l-10 14q-22 31 -49 48l-14 8l14 9q27 16 49 48l10 14l10 -14q19 -30 48 -48z" />
    <glyph glyph-name="copyright" unicode="&#xa9;" horiz-adv-x="597" 
d="M170 397v202q0 17 10.5 28t27.5 11h33v-2q-16 -12 -16 -34v-68h8v68q0 16 11 26t28 10h116q39 0 39 -39v-42h-73v42q0 29 -29 29h-53q-29 0 -29 -29v-202q0 -29 29 -29h116q29 0 29 29v39h10v-42q0 -17 -10.5 -26.5t-28.5 -9.5h-179q-39 0 -39 39zM168 700h261
q44 0 71 -27t27 -71v-208q0 -44 -27 -71t-71 -27h-261q-44 0 -71 27t-27 71v208q0 44 27 71t71 27zM80 602v-208q0 -40 24 -64t64 -24h261q40 0 64 24t24 64v208q0 40 -24 64t-64 24h-261q-40 0 -64 -24t-24 -64z" />
    <glyph glyph-name="ordfeminine" unicode="&#xaa;" horiz-adv-x="566" 
d="M436 694v-250h60v-15h-167v4q24 14 24 50v103h-12v-101q0 -26 -15.5 -41t-43.5 -15h-153q-27 0 -43 14.5t-16 41.5v88q0 24 16 39t43 15h197v64q0 44 -44 44h-102q-44 0 -44 -44v-27h-15v27q0 59 59 59h197q28 0 43.5 -14.5t15.5 -41.5zM181 568v-80q0 -44 44 -44h57
q44 0 44 44v124h-101q-44 0 -44 -44z" />
    <glyph glyph-name="guillemotleft" unicode="&#xab;" horiz-adv-x="366" 
d="M192 137h-29l-93 128l93 128h29l-93 -128zM296 137h-30l-93 128l93 128h30l-93 -128z" />
    <glyph glyph-name="logicalnot" unicode="&#xac;" horiz-adv-x="432" 
d="M70 338v25h292v-159h-25v134h-267z" />
    <glyph glyph-name="registered" unicode="&#xae;" horiz-adv-x="597" 
d="M111 539h270q46 0 46 -46v-42q0 -16 -11.5 -26t-30.5 -10h-13q30 -8 42 -49l30 -97h42v-10h-154v10h39l-31 103q-5 16 -10.5 22.5t-18.5 6.5h-57q-18 0 -28.5 9.5t-10.5 26.5v31h-9v-31q0 -19 13.5 -31.5t34.5 -12.5v-10q-29 0 -29 -29v-85h40v-10h-154v10h40v260h-40v10
zM354 454v39q0 36 -36 36h-93v-89q0 -29 29 -29h58q28 0 38 -36l13 -49h8l-14 49q-8 34 -32 40v10q29 0 29 29zM168 601h261q44 0 71 -27t27 -71v-208q0 -44 -27 -71t-71 -27h-261q-44 0 -71 27t-27 71v208q0 44 27 71t71 27zM80 503v-208q0 -40 24 -64t64 -24h261
q40 0 64 24t24 64v208q0 40 -24 64t-64 24h-261q-40 0 -64 -24t-24 -64z" />
    <glyph glyph-name="macron" unicode="&#xaf;" horiz-adv-x="385" 
d="M315 600h-245v25h245v-25z" />
    <glyph glyph-name="degree" unicode="&#xb0;" horiz-adv-x="474" 
d="M168 700h138q44 0 71 -27t27 -71v-138q0 -44 -27 -71t-71 -27h-138q-44 0 -71 27t-27 71v138q0 44 27 71t71 27zM95 602v-138q0 -33 20 -53t53 -20h138q33 0 53 20t20 53v138q0 33 -20 53t-53 20h-138q-33 0 -53 -20t-20 -53z" />
    <glyph glyph-name="plusminus" unicode="&#xb1;" horiz-adv-x="432" 
d="M70 0v25h292v-25h-292zM229 204h-25v134h-134v25h134v134h25v-134h133v-25h-133v-134z" />
    <glyph glyph-name="twosuperior" unicode="&#xb2;" horiz-adv-x="552" 
d="M501 686v-62q0 -78 -68 -113q-26 -14 -130 -55t-145 -70h341v-91h-449q0 14 7.5 28.5t25.5 31t33.5 29.5t46.5 32t48 29.5t54.5 32t50.5 29.5q66 34 66 117v62q0 48 -47 48h-119q-47 0 -47 -48v-68h-119v68q0 31 16.5 47.5t46.5 16.5h222q29 0 46 -16t17 -42v-66h13v66
q0 35 -26 54v4h55q28 0 44.5 -17.5t16.5 -46.5z" />
    <glyph glyph-name="threesuperior" unicode="&#xb3;" horiz-adv-x="539" 
d="M50 428h119v-69q0 -48 47 -48h95q58 0 58 59v84q0 47 -47 47v16q35 0 55.5 19.5t20.5 52.5v62h-12v-62q0 -26 -18 -42.5t-46 -16.5h-145v17h145q47 0 47 47v81q0 59 -58 59h-95q-47 0 -47 -48v-68h-119v68q0 31 16.5 47.5t46.5 16.5h299q77 0 77 -77v-79q0 -56 -57 -77
q26 -1 41.5 -17t15.5 -41v-87q0 -77 -77 -77h-299q-30 0 -46.5 16.5t-16.5 47.5v69z" />
    <glyph glyph-name="acute" unicode="&#xb4;" horiz-adv-x="314" 
d="M223 702h21v-60h-21l-133 -69h-20z" />
    <glyph glyph-name="paragraph" unicode="&#xb6;" horiz-adv-x="657" 
d="M70 379q0 56 9.5 141.5t23.5 114.5q24 30 97 47.5t140 17.5l93 -102q-3 34 -8 55q6 5 27.5 12.5t23.5 9.5q6 -4 39.5 -19t39.5 -24q2 -32 4 -172l28 -30l-9 -540l-16 240q0 146 -3 330l-126 138q10 -101 10 -228l-8 -480l-17 97l-93 186q-44 0 -108.5 9.5t-85.5 23.5
q-25 14 -43 69t-18 104z" />
    <glyph glyph-name="periodcentered" unicode="&#xb7;" horiz-adv-x="261" 
d="M131 203q-28 0 -44.5 17t-16.5 45t16.5 45t44.5 17q27 0 43.5 -17t16.5 -45t-16.5 -45t-43.5 -17z" />
    <glyph glyph-name="cedilla" unicode="&#xb8;" horiz-adv-x="311" 
d="M161 -58h-29l35 58h23l-25 -41h5q30 0 50.5 -19t20.5 -49q0 -33 -23 -54t-60 -21q-45 0 -88 35l28 44q27 -22 60 -22q18 0 28.5 10.5t10.5 26.5q0 32 -36 32z" />
    <glyph glyph-name="onesuperior" unicode="&#xb9;" horiz-adv-x="334" 
d="M136 734h-13v-101q0 -27 -17 -43t-46 -16h-18v16h18q47 0 47 48v112h119v-439h98v-16h-314v16h97v265q29 17 29 57v101z" />
    <glyph glyph-name="ordmasculine" unicode="&#xba;" horiz-adv-x="505" 
d="M435 691v-203q0 -27 -15.5 -43t-41.5 -16h-50v4q24 15 24 50v103h-12v-103q0 -24 -16 -39t-43 -15h-152q-59 0 -59 59v203q0 27 15.5 43t41.5 16h50v-4q-24 -15 -24 -50v-103h12v103q0 24 16.5 39t42.5 15h153q58 0 58 -59zM224 444h57q44 0 44 44v203q0 44 -44 44h-57
q-44 0 -44 -44v-203q0 -44 44 -44zM295 590l-8 -6q-14 -8 -28 -26l-6 -10l-6 10q-12 16 -28 26l-9 6l9 5q15 10 28 27l6 9l6 -9q9 -14 28 -27z" />
    <glyph glyph-name="guillemotright" unicode="&#xbb;" horiz-adv-x="366" 
d="M296 265l-93 -128h-30l93 128l-93 128h30zM192 265l-93 -128h-29l93 128l-93 128h29z" />
    <glyph glyph-name="onequarter" unicode="&#xbc;" horiz-adv-x="1191" 
d="M136 684h-13v-101q0 -27 -17 -43t-46 -16h-18v16h18q47 0 47 48v112h119v-439h98v-16h-314v16h97v265q29 17 29 57v101zM617 700h28l-384 -700h-27zM595 116l222 339h69q29 0 46.5 -16t17.5 -42v-112h13v112q0 35 -26 54v4h115v-323h89v-16h-89v-100h66v-16h-254v16h70
v100h-339zM869 439l-239 -307h304v259q0 48 -48 48h-17z" />
    <glyph glyph-name="onehalf" unicode="&#xbd;" horiz-adv-x="1097" 
d="M136 684h-13v-101q0 -27 -17 -43t-46 -16h-18v16h18q47 0 47 48v112h119v-439h98v-16h-314v16h97v265q29 17 29 57v101zM617 700h28l-384 -700h-27zM1046 391v-62q0 -78 -68 -113q-26 -14 -130 -55t-145 -70h341v-91h-449q0 14 7.5 28.5t25.5 31t33.5 29.5t46.5 32
t48 29.5t54.5 32t50.5 29.5q66 34 66 117v62q0 48 -47 48h-119q-47 0 -47 -48v-68h-119v68q0 31 16.5 47.5t46.5 16.5h222q29 0 46 -16t17 -42v-66h13v66q0 35 -26 54v4h55q28 0 44.5 -17.5t16.5 -46.5z" />
    <glyph glyph-name="threequarters" unicode="&#xbe;" horiz-adv-x="1396" 
d="M50 378h119v-69q0 -48 47 -48h95q58 0 58 59v84q0 47 -47 47v16q35 0 55.5 19.5t20.5 52.5v62h-12v-62q0 -26 -18 -42.5t-46 -16.5h-145v17h145q47 0 47 47v81q0 59 -58 59h-95q-47 0 -47 -48v-68h-119v68q0 31 16.5 47.5t46.5 16.5h299q77 0 77 -77v-79q0 -56 -57 -77
q26 -1 41.5 -17t15.5 -41v-87q0 -77 -77 -77h-299q-30 0 -46.5 16.5t-16.5 47.5v69zM822 700h28l-384 -700h-27zM799 116l222 339h69q29 0 46.5 -16t17.5 -42v-112h13v112q0 35 -26 54v4h115v-323h89v-16h-89v-100h66v-16h-254v16h70v100h-339zM1073 439l-239 -307h304v259
q0 48 -48 48h-17z" />
    <glyph glyph-name="questiondown" unicode="&#xbf;" horiz-adv-x="734" 
d="M70 -72v92q0 71 29.5 115.5t71 63.5t83.5 32.5t71.5 36.5t29.5 62h25q0 -43 -16 -70t-39 -43.5t-46 -35.5t-39 -59.5t-16 -101.5v-92q0 -73 73 -73h140q73 0 73 73v177l154 -50v-127q0 -47 -25.5 -72.5t-72.5 -25.5h-269q-44 0 -71 24.5t-27 65.5v93h-18v-93
q0 -54 40 -84v-6h-57q-42 0 -68 27t-26 71zM366 540q28 0 44.5 -17t16.5 -45t-16.5 -44.5t-44.5 -16.5q-27 0 -43.5 16.5t-16.5 44.5t16.5 45t43.5 17z" />
    <glyph glyph-name="Agrave" unicode="&#xc0;" horiz-adv-x="906" 
d="M551 268h-23q-204 0 -356 -137l-144 -131h-18v25l236 650h-111v25h221q40 0 60.5 -22t37.5 -68l51 -141h18l-50 141q-3 7 -8 23.5t-8.5 25t-9.5 19t-14 16.5v6h56q39 0 57 -22.5t37 -75.5l210 -577h103v-25h-366v25h109zM47 51l116 105q150 137 355 137h24l-113 309
q-8 24 -12 33t-12 21t-19.5 15.5t-29.5 3.5h-83zM310 812v60h21l153 -129h-20l-133 69h-21z" />
    <glyph glyph-name="Aacute" unicode="&#xc1;" horiz-adv-x="906" 
d="M551 268h-23q-204 0 -356 -137l-144 -131h-18v25l236 650h-111v25h221q40 0 60.5 -22t37.5 -68l51 -141h18l-50 141q-3 7 -8 23.5t-8.5 25t-9.5 19t-14 16.5v6h56q39 0 57 -22.5t37 -75.5l210 -577h103v-25h-366v25h109zM47 51l116 105q150 137 355 137h24l-113 309
q-8 24 -12 33t-12 21t-19.5 15.5t-29.5 3.5h-83zM462 872h21v-60h-21l-133 -69h-20z" />
    <glyph glyph-name="Acircumflex" unicode="&#xc2;" horiz-adv-x="906" 
d="M551 268h-23q-204 0 -356 -137l-144 -131h-18v25l236 650h-111v25h221q40 0 60.5 -22t37.5 -68l51 -141h18l-50 141q-3 7 -8 23.5t-8.5 25t-9.5 19t-14 16.5v6h56q39 0 57 -22.5t37 -75.5l210 -577h103v-25h-366v25h109zM47 51l116 105q150 137 355 137h24l-113 309
q-8 24 -12 33t-12 21t-19.5 15.5t-29.5 3.5h-83zM270 743h-20l131 129h31l129 -129h-20l-109 76h-31z" />
    <glyph glyph-name="Atilde" unicode="&#xc3;" horiz-adv-x="906" 
d="M551 268h-23q-204 0 -356 -137l-144 -131h-18v25l236 650h-111v25h221q40 0 60.5 -22t37.5 -68l51 -141h18l-50 141q-3 7 -8 23.5t-8.5 25t-9.5 19t-14 16.5v6h56q39 0 57 -22.5t37 -75.5l210 -577h103v-25h-366v25h109zM47 51l116 105q150 137 355 137h24l-113 309
q-8 24 -12 33t-12 21t-19.5 15.5t-29.5 3.5h-83zM259 743h-20l10 37q13 44 31.5 66.5t53.5 22.5q32 0 61 -20.5t53 -41t41 -20.5q16 0 24 11t14 34l10 36h20l-10 -36q-13 -44 -32 -66.5t-54 -22.5q-33 0 -61.5 21.5t-52 43t-41.5 21.5q-16 0 -23 -11.5t-14 -37.5z" />
    <glyph glyph-name="Adieresis" unicode="&#xc4;" horiz-adv-x="906" 
d="M551 268h-23q-204 0 -356 -137l-144 -131h-18v25l236 650h-111v25h221q40 0 60.5 -22t37.5 -68l51 -141h18l-50 141q-3 7 -8 23.5t-8.5 25t-9.5 19t-14 16.5v6h56q39 0 57 -22.5t37 -75.5l210 -577h103v-25h-366v25h109zM47 51l116 105q150 137 355 137h24l-113 309
q-8 24 -12 33t-12 21t-19.5 15.5t-29.5 3.5h-83zM379 825l-14 -8q-29 -19 -48 -48l-10 -14l-10 14q-22 31 -49 48l-14 8l14 9q27 16 49 48l10 14l10 -14q19 -30 48 -48zM559 825l-14 -8q-29 -19 -48 -48l-10 -14l-10 14q-22 31 -49 48l-14 8l14 9q27 16 49 48l10 14l10 -14
q19 -30 48 -48z" />
    <glyph glyph-name="Aring" unicode="&#xc5;" horiz-adv-x="906" 
d="M551 268h-23q-204 0 -356 -137l-144 -131h-18v25l236 650h-111v25h221q40 0 60.5 -22t37.5 -68l51 -141h18l-50 141q-3 7 -8 23.5t-8.5 25t-9.5 19t-14 16.5v6h56q39 0 57 -22.5t37 -75.5l210 -577h103v-25h-366v25h109zM47 51l116 105q150 137 355 137h24l-113 309
q-8 24 -12 33t-12 21t-19.5 15.5t-29.5 3.5h-83zM396 743l-108 78l108 78l107 -78zM396 879l-78 -58l78 -58l77 58z" />
    <glyph glyph-name="AE" unicode="&#xc6;" horiz-adv-x="957" 
d="M28 0h-18v25l236 650h-111v25h372v-6q-17 -12 -28.5 -36t-11.5 -48v-128h18v128q0 42 27.5 66t70.5 24h324v-225h-25v200h-299q-50 0 -58 -41q-15 -9 -15 -32v-227h397v-25h-397v-252q0 -73 73 -73h299v200h25v-225h-324q-43 0 -70.5 24.5t-27.5 65.5v128h-18v-128
q0 -23 11 -47t29 -37v-6h-251v25h100v216q-100 -33 -184 -110zM273 675l-226 -624l116 105q90 81 193 113v406h-83z" />
    <glyph glyph-name="Ccedilla" unicode="&#xc7;" horiz-adv-x="718" 
d="M351 -58h-29l35 58h-209q-47 0 -72.5 25.5t-25.5 72.5v504q0 44 26 71t68 27h57v-6q-40 -30 -40 -84v-141h18v141q0 41 27 65.5t71 24.5h293q47 0 72.5 -25.5t25.5 -72.5v-98h-154v98q0 73 -73 73h-164q-73 0 -73 -73v-504q0 -73 73 -73h293q73 0 73 73v90h25v-98
q0 -41 -27 -65.5t-71 -24.5h-190l-25 -41h5q30 0 50.5 -19t20.5 -49q0 -33 -23 -54t-60 -21q-45 0 -88 35l28 44q27 -22 60 -22q18 0 28.5 10.5t10.5 26.5q0 32 -36 32z" />
    <glyph glyph-name="Egrave" unicode="&#xc8;" horiz-adv-x="710" 
d="M221 482h18v128q0 41 27 65.5t71 24.5h323v-225h-25v200h-298q-73 0 -73 -73v-227h396v-25h-396v-252q0 -73 73 -73h298v200h25v-225h-323q-44 0 -71 24.5t-27 65.5v128h-18v-128q0 -54 40 -84v-6h-251v25h100v650h-100v25h251v-6q-40 -30 -40 -84v-128zM248 812v60h21
l153 -129h-20l-133 69h-21z" />
    <glyph glyph-name="Eacute" unicode="&#xc9;" horiz-adv-x="710" 
d="M221 482h18v128q0 41 27 65.5t71 24.5h323v-225h-25v200h-298q-73 0 -73 -73v-227h396v-25h-396v-252q0 -73 73 -73h298v200h25v-225h-323q-44 0 -71 24.5t-27 65.5v128h-18v-128q0 -54 40 -84v-6h-251v25h100v650h-100v25h251v-6q-40 -30 -40 -84v-128zM400 872h21v-60
h-21l-133 -69h-20z" />
    <glyph glyph-name="Ecircumflex" unicode="&#xca;" horiz-adv-x="710" 
d="M221 482h18v128q0 41 27 65.5t71 24.5h323v-225h-25v200h-298q-73 0 -73 -73v-227h396v-25h-396v-252q0 -73 73 -73h298v200h25v-225h-323q-44 0 -71 24.5t-27 65.5v128h-18v-128q0 -54 40 -84v-6h-251v25h100v650h-100v25h251v-6q-40 -30 -40 -84v-128zM209 743h-20
l131 129h31l129 -129h-20l-109 76h-31z" />
    <glyph glyph-name="Edieresis" unicode="&#xcb;" horiz-adv-x="710" 
d="M221 482h18v128q0 41 27 65.5t71 24.5h323v-225h-25v200h-298q-73 0 -73 -73v-227h396v-25h-396v-252q0 -73 73 -73h298v200h25v-225h-323q-44 0 -71 24.5t-27 65.5v128h-18v-128q0 -54 40 -84v-6h-251v25h100v650h-100v25h251v-6q-40 -30 -40 -84v-128zM317 825l-14 -8
q-29 -19 -48 -48l-10 -14l-10 14q-22 31 -49 48l-14 8l14 9q27 16 49 48l10 14l10 -14q19 -30 48 -48zM497 825l-14 -8q-29 -19 -48 -48l-10 -14l-10 14q-22 31 -49 48l-14 8l14 9q27 16 49 48l10 14l10 -14q19 -30 48 -48z" />
    <glyph glyph-name="Igrave" unicode="&#xcc;" horiz-adv-x="374" 
d="M37 675h-27v25h27q44 0 71 -24.5t27 -65.5v-141h18v141q0 55 -40 84v6h251v-25h-100v-650h100v-25h-354v25h100v577q0 73 -73 73zM98 812v60h21l153 -129h-20l-133 69h-21z" />
    <glyph glyph-name="Iacute" unicode="&#xcd;" horiz-adv-x="374" 
d="M37 675h-27v25h27q44 0 71 -24.5t27 -65.5v-141h18v141q0 55 -40 84v6h251v-25h-100v-650h100v-25h-354v25h100v577q0 73 -73 73zM251 872h21v-60h-21l-133 -69h-20z" />
    <glyph glyph-name="Icircumflex" unicode="&#xce;" horiz-adv-x="374" 
d="M37 675h-27v25h27q44 0 71 -24.5t27 -65.5v-141h18v141q0 55 -40 84v6h251v-25h-100v-650h100v-25h-354v25h100v577q0 73 -73 73zM59 743h-20l131 129h31l129 -129h-20l-109 76h-31z" />
    <glyph glyph-name="Idieresis" unicode="&#xcf;" horiz-adv-x="374" 
d="M37 675h-27v25h27q44 0 71 -24.5t27 -65.5v-141h18v141q0 55 -40 84v6h251v-25h-100v-650h100v-25h-354v25h100v577q0 73 -73 73zM168 825l-14 -8q-29 -19 -48 -48l-10 -14l-10 14q-22 31 -49 48l-14 8l14 9q27 16 49 48l10 14l10 -14q20 -30 48 -48zM348 825l-14 -8
q-29 -19 -48 -48l-10 -14l-10 14q-22 31 -49 48l-14 8l14 9q27 16 49 48l10 14l10 -14q20 -30 48 -48z" />
    <glyph glyph-name="Eth" unicode="&#xd0;" horiz-adv-x="867" 
d="M264 363h93v-25h-93v-313h200q86 0 142.5 90t56.5 235q0 146 -54.5 235.5t-144.5 89.5q-84 0 -140.5 -86.5t-59.5 -225.5zM18 338v25h92v312h-100v25h376v-6q-75 -27 -120 -118.5t-45 -212.5h18q0 148 66 242.5t159 94.5q159 0 256 -96t97 -254t-74.5 -254t-197.5 -96h-3
v6q74 27 119.5 119t45.5 212v13h-19v-13q0 -148 -66 -242.5t-158 -94.5h-454v25h100v313h-92z" />
    <glyph glyph-name="Ntilde" unicode="&#xd1;" horiz-adv-x="887" 
d="M611 0h-141l-206 630q-13 45 -53 45h-76v-650h100v-25h-225v25h100v650h-100v25h201q31 0 48 -17.5t30 -53.5l58 -160h19l-51 141q-2 5 -7.5 23.5t-8.5 25.5t-9.5 18t-14.5 17v6h141l206 -630q13 -45 53 -45h17q60 0 60 60v590h-100v25h225v-25h-100v-590q0 -85 -85 -85
h-17q-31 0 -48 17.5t-30 53.5l-58 160h-19l51 -141q2 -5 7.5 -23.5t8.5 -25.5t9.5 -18t14.5 -17v-6zM306 743h-20l10 37q13 44 31.5 66.5t53.5 22.5q32 0 61 -20.5t52.5 -41t41.5 -20.5q16 0 24 11t14 34l10 36h20l-10 -36q-13 -44 -32 -66.5t-54 -22.5q-32 0 -61 21.5
t-52.5 43t-41.5 21.5q-11 0 -18.5 -7.5t-10.5 -15.5t-8 -26z" />
    <glyph glyph-name="Ograve" unicode="&#xd2;" horiz-adv-x="774" 
d="M277 25h220q73 0 73 73v504q0 73 -73 73h-220q-73 0 -73 -73v-504q0 -73 73 -73zM724 602v-504q0 -44 -26 -71t-68 -27h-57v6q40 30 40 84v141h-18v-141q0 -41 -27 -65.5t-71 -24.5h-349q-47 0 -72.5 25.5t-25.5 72.5v504q0 44 26 71t68 27h57v-6q-40 -30 -40 -84v-141
h18v141q0 41 27 65.5t71 24.5h349q47 0 72.5 -25.5t25.5 -72.5zM460 350l-15 -9q-26 -16 -48 -47l-10 -15l-10 15q-22 31 -48 47l-15 9l15 9q27 17 48 47l10 15l10 -15q21 -30 48 -47zM300 812v60h21l153 -129h-20l-133 69h-21z" />
    <glyph glyph-name="Oacute" unicode="&#xd3;" horiz-adv-x="774" 
d="M277 25h220q73 0 73 73v504q0 73 -73 73h-220q-73 0 -73 -73v-504q0 -73 73 -73zM724 602v-504q0 -44 -26 -71t-68 -27h-57v6q40 30 40 84v141h-18v-141q0 -41 -27 -65.5t-71 -24.5h-349q-47 0 -72.5 25.5t-25.5 72.5v504q0 44 26 71t68 27h57v-6q-40 -30 -40 -84v-141
h18v141q0 41 27 65.5t71 24.5h349q47 0 72.5 -25.5t25.5 -72.5zM460 350l-15 -9q-26 -16 -48 -47l-10 -15l-10 15q-22 31 -48 47l-15 9l15 9q27 17 48 47l10 15l10 -15q21 -30 48 -47zM452 872h21v-60h-21l-133 -69h-20z" />
    <glyph glyph-name="Ocircumflex" unicode="&#xd4;" horiz-adv-x="774" 
d="M277 25h220q73 0 73 73v504q0 73 -73 73h-220q-73 0 -73 -73v-504q0 -73 73 -73zM724 602v-504q0 -44 -26 -71t-68 -27h-57v6q40 30 40 84v141h-18v-141q0 -41 -27 -65.5t-71 -24.5h-349q-47 0 -72.5 25.5t-25.5 72.5v504q0 44 26 71t68 27h57v-6q-40 -30 -40 -84v-141
h18v141q0 41 27 65.5t71 24.5h349q47 0 72.5 -25.5t25.5 -72.5zM460 350l-15 -9q-26 -16 -48 -47l-10 -15l-10 15q-22 31 -48 47l-15 9l15 9q27 17 48 47l10 15l10 -15q21 -30 48 -47zM261 743h-20l131 129h31l129 -129h-20l-109 76h-31z" />
    <glyph glyph-name="Otilde" unicode="&#xd5;" horiz-adv-x="774" 
d="M277 25h220q73 0 73 73v504q0 73 -73 73h-220q-73 0 -73 -73v-504q0 -73 73 -73zM724 602v-504q0 -44 -26 -71t-68 -27h-57v6q40 30 40 84v141h-18v-141q0 -41 -27 -65.5t-71 -24.5h-349q-47 0 -72.5 25.5t-25.5 72.5v504q0 44 26 71t68 27h57v-6q-40 -30 -40 -84v-141
h18v141q0 41 27 65.5t71 24.5h349q47 0 72.5 -25.5t25.5 -72.5zM460 350l-15 -9q-26 -16 -48 -47l-10 -15l-10 15q-22 31 -48 47l-15 9l15 9q27 17 48 47l10 15l10 -15q21 -30 48 -47zM249 743h-20l10 37q13 44 31.5 66.5t53.5 22.5q32 0 61 -20.5t53 -41t41 -20.5
q16 0 24 11t14 34l10 36h20l-10 -36q-13 -44 -32 -66.5t-54 -22.5q-33 0 -61.5 21.5t-52 43t-41.5 21.5q-16 0 -23 -11.5t-14 -37.5z" />
    <glyph glyph-name="Odieresis" unicode="&#xd6;" horiz-adv-x="774" 
d="M277 25h220q73 0 73 73v504q0 73 -73 73h-220q-73 0 -73 -73v-504q0 -73 73 -73zM724 602v-504q0 -44 -26 -71t-68 -27h-57v6q40 30 40 84v141h-18v-141q0 -41 -27 -65.5t-71 -24.5h-349q-47 0 -72.5 25.5t-25.5 72.5v504q0 44 26 71t68 27h57v-6q-40 -30 -40 -84v-141
h18v141q0 41 27 65.5t71 24.5h349q47 0 72.5 -25.5t25.5 -72.5zM460 350l-15 -9q-26 -16 -48 -47l-10 -15l-10 15q-22 31 -48 47l-15 9l15 9q27 17 48 47l10 15l10 -15q21 -30 48 -47zM369 825l-14 -8q-29 -19 -48 -48l-10 -14l-10 14q-22 31 -49 48l-14 8l14 9q27 16 49 48
l10 14l10 -14q19 -30 48 -48zM549 825l-14 -8q-29 -19 -48 -48l-10 -14l-10 14q-22 31 -49 48l-14 8l14 9q27 16 49 48l10 14l10 -14q19 -30 48 -48z" />
    <glyph glyph-name="multiply" unicode="&#xd7;" horiz-adv-x="364" 
d="M87 238l-17 17l94 95l-94 95l17 18l95 -95l95 95l17 -18l-94 -95l94 -95l-17 -17l-95 94z" />
    <glyph glyph-name="Oslash" unicode="&#xd8;" horiz-adv-x="774" 
d="M204 602v-459l146 182q-8 8 -21 16l-15 9l15 9q27 17 48 47l10 15l10 -15q6 -8 8 -11l165 206v1q0 73 -73 73h-220q-73 0 -73 -73zM570 98v460l-146 -183q8 -8 21 -16l15 -9l-15 -9q-26 -16 -48 -47l-10 -15l-10 15l-9 12l-164 -206v-2q0 -73 73 -73h220q73 0 73 73z
M689 750h35l-48 -60q48 -22 48 -88v-504q0 -44 -26 -71t-68 -27h-57v6q40 30 40 84v141h-18v-141q0 -41 -27 -65.5t-71 -24.5h-349q-8 0 -22 2l-42 -52h-34l48 60q-48 22 -48 88v504q0 44 26 71t68 27h57v-6q-40 -30 -40 -84v-141h18v141q0 41 27 65.5t71 24.5h349
q8 0 22 -2z" />
    <glyph glyph-name="Ugrave" unicode="&#xd9;" horiz-adv-x="838" 
d="M110 98v577h-100v25h357v-25h-103v-577q0 -73 73 -73h293q73 0 73 73v577h-100v25h225v-25h-100v-577q0 -47 -25.5 -72.5t-72.5 -25.5h-293q-44 0 -71 24.5t-27 65.5v141h-18v-141q0 -54 40 -84v-6h-57q-42 0 -68 27t-26 71zM332 812v60h21l153 -129h-20l-133 69h-21z
" />
    <glyph glyph-name="Uacute" unicode="&#xda;" horiz-adv-x="838" 
d="M110 98v577h-100v25h357v-25h-103v-577q0 -73 73 -73h293q73 0 73 73v577h-100v25h225v-25h-100v-577q0 -47 -25.5 -72.5t-72.5 -25.5h-293q-44 0 -71 24.5t-27 65.5v141h-18v-141q0 -54 40 -84v-6h-57q-42 0 -68 27t-26 71zM485 872h21v-60h-21l-133 -69h-20z" />
    <glyph glyph-name="Ucircumflex" unicode="&#xdb;" horiz-adv-x="838" 
d="M110 98v577h-100v25h357v-25h-103v-577q0 -73 73 -73h293q73 0 73 73v577h-100v25h225v-25h-100v-577q0 -47 -25.5 -72.5t-72.5 -25.5h-293q-44 0 -71 24.5t-27 65.5v141h-18v-141q0 -54 40 -84v-6h-57q-42 0 -68 27t-26 71zM293 743h-20l131 129h31l129 -129h-20
l-109 76h-31z" />
    <glyph glyph-name="Udieresis" unicode="&#xdc;" horiz-adv-x="838" 
d="M110 98v577h-100v25h357v-25h-103v-577q0 -73 73 -73h293q73 0 73 73v577h-100v25h225v-25h-100v-577q0 -47 -25.5 -72.5t-72.5 -25.5h-293q-44 0 -71 24.5t-27 65.5v141h-18v-141q0 -54 40 -84v-6h-57q-42 0 -68 27t-26 71zM402 825l-14 -8q-29 -19 -48 -48l-10 -14
l-10 14q-22 31 -49 48l-14 8l14 9q27 16 49 48l10 14l10 -14q20 -30 48 -48zM582 825l-14 -8q-29 -19 -48 -48l-10 -14l-10 14q-22 31 -49 48l-14 8l14 9q27 16 49 48l10 14l10 -14q20 -30 48 -48z" />
    <glyph glyph-name="Yacute" unicode="&#xdd;" horiz-adv-x="937" 
d="M119 675h-109v25h354v-25h-91l110 -294q8 -24 12 -33t12 -21t19.5 -15.5t29.5 -3.5h153q32 0 44 13.5t26 51.5q1 2 1 3t1 2.5t1 2.5l109 294h-101v25h237v-25h-109l-109 -294q-11 -29 -17 -43t-17.5 -29t-27 -20.5t-38.5 -5.5h-153q-41 0 -61.5 22.5t-36.5 67.5l-53 141
h-18l52 -141q38 -108 117 -108h90v-240h100v-25h-354v25h100v216q-51 3 -96 41.5t-67 98.5zM534 872h21v-60h-21l-133 -69h-20z" />
    <glyph glyph-name="Thorn" unicode="&#xde;" horiz-adv-x="732" 
d="M264 700v-122q-43 -29 -43 -86v-71h18v71q0 41 27 65.5t71 24.5h247q98 0 98 -98v-268q0 -98 -98 -98h-247q-44 0 -71 24.5t-27 65.5v71h-18v-71q0 -56 43 -88v-95h100v-25h-354v25h100v650h-100v25h254zM337 143h118q73 0 73 73v268q0 73 -73 73h-118q-73 0 -73 -73
v-268q0 -73 73 -73z" />
    <glyph glyph-name="germandbls" unicode="&#xdf;" horiz-adv-x="727" 
d="M269 196h25v-98q0 -73 64 -73h87q78 0 78 90v129q0 73 -73 73v25q52 0 84 29.5t32 78.5v91h-18v-91q0 -41 -27 -65.5t-71 -24.5h-181v25h181q73 0 73 73v127q0 90 -90 90h-156q-73 0 -73 -73v-602h-154v602q0 47 25.5 72.5t72.5 25.5h411q118 0 118 -118v-124
q0 -84 -86 -117q40 -3 63 -27t23 -62v-134q0 -118 -112 -118h-203q-45 0 -69 25.5t-24 72.5v98z" />
    <glyph glyph-name="agrave" unicode="&#xe0;" horiz-adv-x="732" 
d="M622 437v-412h100v-25h-250v6q40 28 40 84v141h-19v-138q0 -44 -25.5 -68.5t-71.5 -24.5h-248q-47 0 -72.5 24t-25.5 71v146q0 41 27 65.5t71 24.5h320v101q0 73 -73 73h-167q-73 0 -73 -73v-38h-25v38q0 98 98 98h296q46 0 72 -25t26 -68zM204 233v-135q0 -73 74 -73
h117q73 0 73 73v208h-191q-73 0 -73 -73zM299 642v60h21l153 -129h-20l-133 69h-21z" />
    <glyph glyph-name="aacute" unicode="&#xe1;" horiz-adv-x="732" 
d="M622 437v-412h100v-25h-250v6q40 28 40 84v141h-19v-138q0 -44 -25.5 -68.5t-71.5 -24.5h-248q-47 0 -72.5 24t-25.5 71v146q0 41 27 65.5t71 24.5h320v101q0 73 -73 73h-167q-73 0 -73 -73v-38h-25v38q0 98 98 98h296q46 0 72 -25t26 -68zM204 233v-135q0 -73 74 -73
h117q73 0 73 73v208h-191q-73 0 -73 -73zM451 702h21v-60h-21l-133 -69h-20z" />
    <glyph glyph-name="acircumflex" unicode="&#xe2;" horiz-adv-x="732" 
d="M622 437v-412h100v-25h-250v6q40 28 40 84v141h-19v-138q0 -44 -25.5 -68.5t-71.5 -24.5h-248q-47 0 -72.5 24t-25.5 71v146q0 41 27 65.5t71 24.5h320v101q0 73 -73 73h-167q-73 0 -73 -73v-38h-25v38q0 98 98 98h296q46 0 72 -25t26 -68zM204 233v-135q0 -73 74 -73
h117q73 0 73 73v208h-191q-73 0 -73 -73zM260 573h-20l131 129h31l129 -129h-20l-109 76h-31z" />
    <glyph glyph-name="atilde" unicode="&#xe3;" horiz-adv-x="732" 
d="M622 437v-412h100v-25h-250v6q40 28 40 84v141h-19v-138q0 -44 -25.5 -68.5t-71.5 -24.5h-248q-47 0 -72.5 24t-25.5 71v146q0 41 27 65.5t71 24.5h320v101q0 73 -73 73h-167q-73 0 -73 -73v-38h-25v38q0 98 98 98h296q46 0 72 -25t26 -68zM204 233v-135q0 -73 74 -73
h117q73 0 73 73v208h-191q-73 0 -73 -73zM248 573h-20l10 37q13 44 31.5 66.5t53.5 22.5q32 0 61 -20.5t52.5 -41t41.5 -20.5q16 0 24 11t14 34l10 36h20l-10 -36q-13 -44 -32 -66.5t-54 -22.5q-32 0 -61 21.5t-52.5 43t-41.5 21.5q-11 0 -18.5 -7.5t-10.5 -15.5t-8 -26z
" />
    <glyph glyph-name="adieresis" unicode="&#xe4;" horiz-adv-x="732" 
d="M622 437v-412h100v-25h-250v6q40 28 40 84v141h-19v-138q0 -44 -25.5 -68.5t-71.5 -24.5h-248q-47 0 -72.5 24t-25.5 71v146q0 41 27 65.5t71 24.5h320v101q0 73 -73 73h-167q-73 0 -73 -73v-38h-25v38q0 98 98 98h296q46 0 72 -25t26 -68zM204 233v-135q0 -73 74 -73
h117q73 0 73 73v208h-191q-73 0 -73 -73zM368 655l-14 -8q-29 -19 -48 -48l-10 -14l-10 14q-22 31 -49 48l-14 8l14 9q27 16 49 48l10 14l10 -14q20 -30 48 -48zM548 655l-14 -8q-29 -19 -48 -48l-10 -14l-10 14q-22 31 -49 48l-14 8l14 9q27 16 49 48l10 14l10 -14
q20 -30 48 -48z" />
    <glyph glyph-name="aring" unicode="&#xe5;" horiz-adv-x="732" 
d="M622 437v-412h100v-25h-250v6q40 28 40 84v141h-19v-138q0 -44 -25.5 -68.5t-71.5 -24.5h-248q-47 0 -72.5 24t-25.5 71v146q0 41 27 65.5t71 24.5h320v101q0 73 -73 73h-167q-73 0 -73 -73v-38h-25v38q0 98 98 98h296q46 0 72 -25t26 -68zM204 233v-135q0 -73 74 -73
h117q73 0 73 73v208h-191q-73 0 -73 -73zM386 573l-108 78l108 78l107 -78zM386 709l-78 -58l78 -58l77 58z" />
    <glyph glyph-name="ae" unicode="&#xe6;" horiz-adv-x="1107" 
d="M148 331h320v101q0 73 -73 73h-167q-73 0 -73 -73v-38h-25v38q0 98 98 98h408v-6q-40 -31 -40 -84v-141h18v141q0 41 27.5 65.5t70.5 24.5h247q47 0 72.5 -25.5t25.5 -72.5v-130q0 -47 -25.5 -72.5t-72.5 -25.5h-320v-106q0 -73 73 -73h247q73 0 73 73v44h25v-52
q0 -41 -27 -65.5t-71 -24.5h-487v6q40 26 40 84v141h-19v-138q0 -44 -26.5 -68.5t-70.5 -24.5h-248q-47 0 -72.5 24t-25.5 71v146q0 41 27 65.5t71 24.5zM639 432v-203h191q73 0 73 73v130q0 73 -73 73h-118q-73 0 -73 -73zM278 25h117q73 0 73 73v208h-191q-73 0 -73 -73
v-135q0 -73 74 -73z" />
    <glyph glyph-name="ccedilla" unicode="&#xe7;" 
d="M342 -58h-29l35 58h-200q-47 0 -72.5 25.5t-25.5 72.5v334q0 44 26 71t68 27h57v-6q-40 -30 -40 -84v-141h18v141q0 41 27 65.5t71 24.5h247q47 0 72.5 -25.5t25.5 -72.5v-98h-154v98q0 73 -73 73h-118q-73 0 -73 -73v-334q0 -73 73 -73h247q73 0 73 73v90h25v-98
q0 -41 -27 -65.5t-71 -24.5h-153l-25 -41h5q30 0 50.5 -19t20.5 -49q0 -33 -23 -54t-60 -21q-45 0 -88 35l28 44q27 -22 60 -22q18 0 28.5 10.5t10.5 26.5q0 32 -36 32z" />
    <glyph glyph-name="egrave" unicode="&#xe8;" 
d="M524 204h-320v-106q0 -73 73 -73h247q73 0 73 73v44h25v-52q0 -41 -27 -65.5t-71 -24.5h-376q-47 0 -72.5 25.5t-25.5 72.5v334q0 44 26 71t68 27h57v-6q-40 -30 -40 -84v-141h18v141q0 41 27 65.5t71 24.5h247q47 0 72.5 -25.5t25.5 -72.5v-130q0 -47 -25.5 -72.5
t-72.5 -25.5zM204 432v-203h191q73 0 73 73v130q0 73 -73 73h-118q-73 0 -73 -73zM250 642v60h21l153 -129h-20l-133 69h-21z" />
    <glyph glyph-name="eacute" unicode="&#xe9;" 
d="M524 204h-320v-106q0 -73 73 -73h247q73 0 73 73v44h25v-52q0 -41 -27 -65.5t-71 -24.5h-376q-47 0 -72.5 25.5t-25.5 72.5v334q0 44 26 71t68 27h57v-6q-40 -30 -40 -84v-141h18v141q0 41 27 65.5t71 24.5h247q47 0 72.5 -25.5t25.5 -72.5v-130q0 -47 -25.5 -72.5
t-72.5 -25.5zM204 432v-203h191q73 0 73 73v130q0 73 -73 73h-118q-73 0 -73 -73zM402 702h21v-60h-21l-133 -69h-20z" />
    <glyph glyph-name="ecircumflex" unicode="&#xea;" 
d="M524 204h-320v-106q0 -73 73 -73h247q73 0 73 73v44h25v-52q0 -41 -27 -65.5t-71 -24.5h-376q-47 0 -72.5 25.5t-25.5 72.5v334q0 44 26 71t68 27h57v-6q-40 -30 -40 -84v-141h18v141q0 41 27 65.5t71 24.5h247q47 0 72.5 -25.5t25.5 -72.5v-130q0 -47 -25.5 -72.5
t-72.5 -25.5zM204 432v-203h191q73 0 73 73v130q0 73 -73 73h-118q-73 0 -73 -73zM211 573h-20l131 129h31l129 -129h-20l-109 76h-31z" />
    <glyph glyph-name="edieresis" unicode="&#xeb;" 
d="M524 204h-320v-106q0 -73 73 -73h247q73 0 73 73v44h25v-52q0 -41 -27 -65.5t-71 -24.5h-376q-47 0 -72.5 25.5t-25.5 72.5v334q0 44 26 71t68 27h57v-6q-40 -30 -40 -84v-141h18v141q0 41 27 65.5t71 24.5h247q47 0 72.5 -25.5t25.5 -72.5v-130q0 -47 -25.5 -72.5
t-72.5 -25.5zM204 432v-203h191q73 0 73 73v130q0 73 -73 73h-118q-73 0 -73 -73zM319 655l-14 -8q-29 -19 -48 -48l-10 -14l-10 14q-22 31 -49 48l-14 8l14 9q27 16 49 48l10 14l10 -14q19 -30 48 -48zM499 655l-14 -8q-29 -19 -48 -48l-10 -14l-10 14q-22 31 -49 48l-14 8
l14 9q27 16 49 48l10 14l10 -14q19 -30 48 -48z" />
    <glyph glyph-name="igrave" unicode="&#xec;" horiz-adv-x="374" 
d="M37 505h-27v25h27q44 0 71 -24.5t27 -65.5v-141h18v141q0 55 -40 84v6h151v-505h100v-25h-354v25h100v407q0 73 -73 73zM100 642v60h21l153 -129h-20l-133 69h-21z" />
    <glyph glyph-name="iacute" unicode="&#xed;" horiz-adv-x="374" 
d="M37 505h-27v25h27q44 0 71 -24.5t27 -65.5v-141h18v141q0 55 -40 84v6h151v-505h100v-25h-354v25h100v407q0 73 -73 73zM253 702h21v-60h-21l-133 -69h-20z" />
    <glyph glyph-name="icircumflex" unicode="&#xee;" horiz-adv-x="374" 
d="M37 505h-27v25h27q44 0 71 -24.5t27 -65.5v-141h18v141q0 55 -40 84v6h151v-505h100v-25h-354v25h100v407q0 73 -73 73zM61 573h-20l131 129h31l129 -129h-20l-109 76h-31z" />
    <glyph glyph-name="idieresis" unicode="&#xef;" horiz-adv-x="374" 
d="M37 505h-27v25h27q44 0 71 -24.5t27 -65.5v-141h18v141q0 55 -40 84v6h151v-505h100v-25h-354v25h100v407q0 73 -73 73zM170 655l-14 -8q-29 -19 -48 -48l-10 -14l-10 14q-22 31 -49 48l-14 8l14 9q27 16 49 48l10 14l10 -14q20 -30 48 -48zM350 655l-14 -8
q-29 -19 -48 -48l-10 -14l-10 14q-22 31 -49 48l-14 8l14 9q27 16 49 48l10 14l10 -14q20 -30 48 -48z" />
    <glyph glyph-name="eth" unicode="&#xf0;" horiz-adv-x="738" 
d="M148 397h386v12q0 14 -2 23.5t-11 17.5t-13 10.5t-22.5 10.5t-24.5 11l-120 55l-281 -112v25l252 101l-262 124v25l336 -120l302 120v-25l-269 -107l171 -61q30 -11 43 -16.5t28.5 -17t21 -26.5t5.5 -38v-311q0 -44 -25.5 -71t-68.5 -27h-56v6q40 31 40 84v114h-19v-114
q0 -41 -27 -65.5t-71 -24.5h-313q-47 0 -72.5 25.5t-25.5 72.5v201q0 47 25.5 72.5t72.5 25.5zM534 98v274h-257q-73 0 -73 -73v-201q0 -73 73 -73h184q73 0 73 73z" />
    <glyph glyph-name="ntilde" unicode="&#xf1;" horiz-adv-x="792" 
d="M221 299h18v141q0 41 27 65.5t71 24.5h247q98 0 98 -98v-407h100v-25h-348v25h94v407q0 73 -73 73h-118q-73 0 -73 -73v-407h93v-25h-347v25h100v480h-100v25h251v-6q-40 -30 -40 -84v-141zM258 573h-20l10 37q13 44 31.5 66.5t53.5 22.5q32 0 61 -20.5t52.5 -41
t41.5 -20.5q16 0 24 11t14 34l10 36h20l-10 -36q-13 -44 -32 -66.5t-54 -22.5q-32 0 -61 21.5t-52.5 43t-41.5 21.5q-11 0 -18.5 -7.5t-10.5 -15.5t-8 -26z" />
    <glyph glyph-name="ograve" unicode="&#xf2;" 
d="M622 432v-334q0 -44 -26 -71t-68 -27h-57v6q40 30 40 84v141h-18v-141q0 -41 -27 -65.5t-71 -24.5h-247q-47 0 -72.5 25.5t-25.5 72.5v334q0 44 26 71t68 27h57v-6q-40 -30 -40 -84v-141h18v141q0 41 27 65.5t71 24.5h247q47 0 72.5 -25.5t25.5 -72.5zM277 25h118
q73 0 73 73v334q0 73 -73 73h-118q-73 0 -73 -73v-334q0 -73 73 -73zM406 265l-15 -9q-24 -15 -45 -44l-10 -14l-10 14q-19 29 -45 44l-14 9l14 9q27 16 45 44l10 14l10 -14q20 -28 45 -44zM249 642v60h21l153 -129h-20l-133 69h-21z" />
    <glyph glyph-name="oacute" unicode="&#xf3;" 
d="M622 432v-334q0 -44 -26 -71t-68 -27h-57v6q40 30 40 84v141h-18v-141q0 -41 -27 -65.5t-71 -24.5h-247q-47 0 -72.5 25.5t-25.5 72.5v334q0 44 26 71t68 27h57v-6q-40 -30 -40 -84v-141h18v141q0 41 27 65.5t71 24.5h247q47 0 72.5 -25.5t25.5 -72.5zM277 25h118
q73 0 73 73v334q0 73 -73 73h-118q-73 0 -73 -73v-334q0 -73 73 -73zM406 265l-15 -9q-24 -15 -45 -44l-10 -14l-10 14q-19 29 -45 44l-14 9l14 9q27 16 45 44l10 14l10 -14q20 -28 45 -44zM402 702h21v-60h-21l-133 -69h-20z" />
    <glyph glyph-name="ocircumflex" unicode="&#xf4;" 
d="M622 432v-334q0 -44 -26 -71t-68 -27h-57v6q40 30 40 84v141h-18v-141q0 -41 -27 -65.5t-71 -24.5h-247q-47 0 -72.5 25.5t-25.5 72.5v334q0 44 26 71t68 27h57v-6q-40 -30 -40 -84v-141h18v141q0 41 27 65.5t71 24.5h247q47 0 72.5 -25.5t25.5 -72.5zM277 25h118
q73 0 73 73v334q0 73 -73 73h-118q-73 0 -73 -73v-334q0 -73 73 -73zM406 265l-15 -9q-24 -15 -45 -44l-10 -14l-10 14q-19 29 -45 44l-14 9l14 9q27 16 45 44l10 14l10 -14q20 -28 45 -44zM210 573h-20l131 129h31l129 -129h-20l-109 76h-31z" />
    <glyph glyph-name="otilde" unicode="&#xf5;" 
d="M622 432v-334q0 -44 -26 -71t-68 -27h-57v6q40 30 40 84v141h-18v-141q0 -41 -27 -65.5t-71 -24.5h-247q-47 0 -72.5 25.5t-25.5 72.5v334q0 44 26 71t68 27h57v-6q-40 -30 -40 -84v-141h18v141q0 41 27 65.5t71 24.5h247q47 0 72.5 -25.5t25.5 -72.5zM277 25h118
q73 0 73 73v334q0 73 -73 73h-118q-73 0 -73 -73v-334q0 -73 73 -73zM406 265l-15 -9q-24 -15 -45 -44l-10 -14l-10 14q-19 29 -45 44l-14 9l14 9q27 16 45 44l10 14l10 -14q20 -28 45 -44zM198 573h-20l10 37q13 44 31.5 66.5t53.5 22.5q32 0 61 -20.5t52.5 -41t41.5 -20.5
q16 0 24 11t14 34l10 36h20l-10 -36q-13 -44 -32 -66.5t-54 -22.5q-32 0 -61 21.5t-52.5 43t-41.5 21.5q-11 0 -18.5 -7.5t-10.5 -15.5t-8 -26z" />
    <glyph glyph-name="odieresis" unicode="&#xf6;" 
d="M622 432v-334q0 -44 -26 -71t-68 -27h-57v6q40 30 40 84v141h-18v-141q0 -41 -27 -65.5t-71 -24.5h-247q-47 0 -72.5 25.5t-25.5 72.5v334q0 44 26 71t68 27h57v-6q-40 -30 -40 -84v-141h18v141q0 41 27 65.5t71 24.5h247q47 0 72.5 -25.5t25.5 -72.5zM277 25h118
q73 0 73 73v334q0 73 -73 73h-118q-73 0 -73 -73v-334q0 -73 73 -73zM406 265l-15 -9q-24 -15 -45 -44l-10 -14l-10 14q-19 29 -45 44l-14 9l14 9q27 16 45 44l10 14l10 -14q20 -28 45 -44zM319 655l-14 -8q-29 -19 -48 -48l-10 -14l-10 14q-22 31 -49 48l-14 8l14 9
q27 16 49 48l10 14l10 -14q19 -30 48 -48zM499 655l-14 -8q-29 -19 -48 -48l-10 -14l-10 14q-22 31 -49 48l-14 8l14 9q27 16 49 48l10 14l10 -14q19 -30 48 -48z" />
    <glyph glyph-name="divide" unicode="&#xf7;" horiz-adv-x="432" 
d="M219 417q-28 0 -44.5 16.5t-16.5 44.5t16.5 45t44.5 17q27 0 43.5 -17t16.5 -45t-16.5 -44.5t-43.5 -16.5zM70 338v25h292v-25h-292zM219 161q-28 0 -44.5 17t-16.5 45t16.5 44.5t44.5 16.5q27 0 43.5 -16.5t16.5 -44.5t-16.5 -45t-43.5 -17z" />
    <glyph glyph-name="oslash" unicode="&#xf8;" 
d="M204 432v-303l97 113q-12 10 -20 14l-14 9l14 9q27 16 45 44l10 14l10 -14l9 -12l113 132q-3 67 -73 67h-118q-73 0 -73 -73zM468 98v301l-95 -111q9 -9 18 -14l15 -9l-15 -9q-24 -15 -45 -44l-10 -14l-10 14q-1 2 -3.5 6t-4.5 6l-114 -133q4 -66 73 -66h118q73 0 73 73z
M590 580h33l-51 -59q50 -21 50 -89v-334q0 -44 -26 -71t-68 -27h-57v6q40 30 40 84v141h-18v-141q0 -41 -27 -65.5t-71 -24.5h-247q-14 0 -20 1l-44 -51h-33l50 58q-51 22 -51 90v334q0 44 26 71t68 27h57v-6q-40 -30 -40 -84v-141h18v141q0 41 27 65.5t71 24.5h247
q8 0 22 -2z" />
    <glyph glyph-name="ugrave" unicode="&#xf9;" horiz-adv-x="772" 
d="M561 90v141h-18v-141q0 -41 -27 -65.5t-71 -24.5h-247q-98 0 -98 98v407h-90v25h334v-25h-90v-407q0 -73 73 -73h118q73 0 73 73v407h-90v25h334v-25h-90v-480h90v-25h-241v6q40 30 40 84zM299 642v60h21l153 -129h-20l-133 69h-21z" />
    <glyph glyph-name="uacute" unicode="&#xfa;" horiz-adv-x="772" 
d="M561 90v141h-18v-141q0 -41 -27 -65.5t-71 -24.5h-247q-98 0 -98 98v407h-90v25h334v-25h-90v-407q0 -73 73 -73h118q73 0 73 73v407h-90v25h334v-25h-90v-480h90v-25h-241v6q40 30 40 84zM451 702h21v-60h-21l-133 -69h-20z" />
    <glyph glyph-name="ucircumflex" unicode="&#xfb;" horiz-adv-x="772" 
d="M561 90v141h-18v-141q0 -41 -27 -65.5t-71 -24.5h-247q-98 0 -98 98v407h-90v25h334v-25h-90v-407q0 -73 73 -73h118q73 0 73 73v407h-90v25h334v-25h-90v-480h90v-25h-241v6q40 30 40 84zM259 573h-20l131 129h31l129 -129h-20l-109 76h-31z" />
    <glyph glyph-name="udieresis" unicode="&#xfc;" horiz-adv-x="772" 
d="M561 90v141h-18v-141q0 -41 -27 -65.5t-71 -24.5h-247q-98 0 -98 98v407h-90v25h334v-25h-90v-407q0 -73 73 -73h118q73 0 73 73v407h-90v25h334v-25h-90v-480h90v-25h-241v6q40 30 40 84zM368 655l-14 -8q-29 -19 -48 -48l-10 -14l-10 14q-22 31 -49 48l-14 8l14 9
q27 16 49 48l10 14l10 -14q20 -30 48 -48zM548 655l-14 -8q-29 -19 -48 -48l-10 -14l-10 14q-22 31 -49 48l-14 8l14 9q27 16 49 48l10 14l10 -14q20 -30 48 -48z" />
    <glyph glyph-name="yacute" unicode="&#xfd;" horiz-adv-x="805" 
d="M568 25l98 480h-119v25h248v-25h-104l-125 -607q-11 -50 -32 -74t-66 -24h-86q-80 0 -98 90l-12 55h-18l11 -55q13 -63 40 -84v-6h-56q-76 0 -94 98l-17 83h154l17 -83q8 -39 23 -56t50 -17h86q35 0 50 17t23 56l21 102h-138q-81 0 -98 90l-30 141h-18l29 -141
q13 -63 40 -84v-6h-56q-74 0 -94 98l-83 407h-104v25h354v-25h-96l83 -407q7 -39 22.5 -56t50.5 -17h144zM467 702h21v-60h-21l-133 -69h-20z" />
    <glyph glyph-name="thorn" unicode="&#xfe;" horiz-adv-x="732" 
d="M264 700v-174q-43 -29 -43 -86v-72h18v72q0 41 27 65.5t71 24.5h247q98 0 98 -98v-302q0 -98 -98 -98h-247q-44 0 -71 24.5t-27 65.5v72h-18v-72q0 -54 43 -88v-209h100v-25h-354v25h100v850h-100v25h254zM337 57h118q73 0 73 73v302q0 73 -73 73h-118q-73 0 -73 -73
v-302q0 -73 73 -73z" />
    <glyph glyph-name="ydieresis" unicode="&#xff;" horiz-adv-x="805" 
d="M568 25l98 480h-119v25h248v-25h-104l-125 -607q-11 -50 -32 -74t-66 -24h-86q-80 0 -98 90l-12 55h-18l11 -55q13 -63 40 -84v-6h-56q-76 0 -94 98l-17 83h154l17 -83q8 -39 23 -56t50 -17h86q35 0 50 17t23 56l21 102h-138q-81 0 -98 90l-30 141h-18l29 -141
q13 -63 40 -84v-6h-56q-74 0 -94 98l-83 407h-104v25h354v-25h-96l83 -407q7 -39 22.5 -56t50.5 -17h144zM384 655l-14 -8q-29 -19 -48 -48l-10 -14l-10 14q-22 31 -49 48l-14 8l14 9q27 16 49 48l10 14l10 -14q20 -30 48 -48zM564 655l-14 -8q-29 -19 -48 -48l-10 -14
l-10 14q-22 31 -49 48l-14 8l14 9q27 16 49 48l10 14l10 -14q20 -30 48 -48z" />
    <glyph glyph-name="Amacron" unicode="&#x100;" horiz-adv-x="906" 
d="M551 268h-23q-204 0 -356 -137l-144 -131h-18v25l236 650h-111v25h221q40 0 60.5 -22t37.5 -68l51 -141h18l-50 141q-3 7 -8 23.5t-8.5 25t-9.5 19t-14 16.5v6h56q39 0 57 -22.5t37 -75.5l210 -577h103v-25h-366v25h109zM47 51l116 105q150 137 355 137h24l-113 309
q-8 24 -12 33t-12 21t-19.5 15.5t-29.5 3.5h-83zM519 770h-245v25h245v-25z" />
    <glyph glyph-name="amacron" unicode="&#x101;" horiz-adv-x="732" 
d="M622 437v-412h100v-25h-250v6q40 28 40 84v141h-19v-138q0 -44 -25.5 -68.5t-71.5 -24.5h-248q-47 0 -72.5 24t-25.5 71v146q0 41 27 65.5t71 24.5h320v101q0 73 -73 73h-167q-73 0 -73 -73v-38h-25v38q0 98 98 98h296q46 0 72 -25t26 -68zM204 233v-135q0 -73 74 -73
h117q73 0 73 73v208h-191q-73 0 -73 -73zM509 600h-245v25h245v-25z" />
    <glyph glyph-name="Abreve" unicode="&#x102;" horiz-adv-x="906" 
d="M551 268h-23q-204 0 -356 -137l-144 -131h-18v25l236 650h-111v25h221q40 0 60.5 -22t37.5 -68l51 -141h18l-50 141q-3 7 -8 23.5t-8.5 25t-9.5 19t-14 16.5v6h56q39 0 57 -22.5t37 -75.5l210 -577h103v-25h-366v25h109zM47 51l116 105q150 137 355 137h24l-113 309
q-8 24 -12 33t-12 21t-19.5 15.5t-29.5 3.5h-83zM268 846l-12 26h20l14 -26q12 -20 41 -33t67 -13q39 0 68 13t41 33l13 26h20l-12 -26q-52 -103 -129 -103q-40 0 -73.5 28t-57.5 75z" />
    <glyph glyph-name="abreve" unicode="&#x103;" horiz-adv-x="732" 
d="M622 437v-412h100v-25h-250v6q40 28 40 84v141h-19v-138q0 -44 -25.5 -68.5t-71.5 -24.5h-248q-47 0 -72.5 24t-25.5 71v146q0 41 27 65.5t71 24.5h320v101q0 73 -73 73h-167q-73 0 -73 -73v-38h-25v38q0 98 98 98h296q46 0 72 -25t26 -68zM204 233v-135q0 -73 74 -73
h117q73 0 73 73v208h-191q-73 0 -73 -73zM257 676l-12 26h20l14 -26q12 -20 41 -33t67 -13q39 0 68 13t41 33l13 26h20l-12 -26q-52 -103 -129 -103q-40 0 -73.5 28t-57.5 75z" />
    <glyph glyph-name="Aogonek" unicode="&#x104;" horiz-adv-x="906" 
d="M47 51l116 105q150 137 355 137h24l-113 309q-8 24 -12 33t-12 21t-19.5 15.5t-29.5 3.5h-83zM896 0h-100l-26 -31q-23 -31 -23 -58q0 -16 11 -24.5t26 -8.5q31 0 56 31l29 -51q-41 -42 -89 -42q-32 0 -54.5 20.5t-22.5 50.5q0 37 42 83l28 30h-243v25h109l-88 243h-23
q-204 0 -356 -137l-144 -131h-18v25l236 650h-111v25h221q40 0 60.5 -22t37.5 -68l51 -141h18l-50 141q-3 7 -8 23.5t-8.5 25t-9.5 19t-14 16.5v6h56q39 0 57 -22.5t37 -75.5l210 -577h103v-25z" />
    <glyph glyph-name="aogonek" unicode="&#x105;" horiz-adv-x="732" 
d="M204 233v-135q0 -73 74 -73h117q73 0 73 73v208h-191q-73 0 -73 -73zM722 0h-100l-26 -31q-23 -31 -23 -58q0 -16 11 -24.5t26 -8.5q31 0 56 31l29 -51q-41 -42 -89 -42q-32 0 -54.5 20.5t-22.5 50.5q0 37 42 83l28 30h-127v6q40 28 40 84v141h-19v-138
q0 -44 -25.5 -68.5t-71.5 -24.5h-248q-47 0 -72.5 24t-25.5 71v146q0 41 27 65.5t71 24.5h320v101q0 73 -73 73h-167q-73 0 -73 -73v-38h-25v38q0 98 98 98h296q46 0 72 -25t26 -68v-412h100v-25z" />
    <glyph glyph-name="Cacute" unicode="&#x106;" horiz-adv-x="718" 
d="M50 98v504q0 44 26 71t68 27h57v-6q-40 -30 -40 -84v-141h18v141q0 41 27 65.5t71 24.5h293q47 0 72.5 -25.5t25.5 -72.5v-98h-154v98q0 73 -73 73h-164q-73 0 -73 -73v-504q0 -73 73 -73h293q73 0 73 73v90h25v-98q0 -41 -27 -65.5t-71 -24.5h-422q-47 0 -72.5 25.5
t-25.5 72.5zM425 872h21v-60h-21l-133 -69h-20z" />
    <glyph glyph-name="cacute" unicode="&#x107;" 
d="M50 98v334q0 44 26 71t68 27h57v-6q-40 -30 -40 -84v-141h18v141q0 41 27 65.5t71 24.5h247q47 0 72.5 -25.5t25.5 -72.5v-98h-154v98q0 73 -73 73h-118q-73 0 -73 -73v-334q0 -73 73 -73h247q73 0 73 73v90h25v-98q0 -41 -27 -65.5t-71 -24.5h-376q-47 0 -72.5 25.5
t-25.5 72.5zM402 702h21v-60h-21l-133 -69h-20z" />
    <glyph glyph-name="Ccircumflex" unicode="&#x108;" horiz-adv-x="718" 
d="M50 98v504q0 44 26 71t68 27h57v-6q-40 -30 -40 -84v-141h18v141q0 41 27 65.5t71 24.5h293q47 0 72.5 -25.5t25.5 -72.5v-98h-154v98q0 73 -73 73h-164q-73 0 -73 -73v-504q0 -73 73 -73h293q73 0 73 73v90h25v-98q0 -41 -27 -65.5t-71 -24.5h-422q-47 0 -72.5 25.5
t-25.5 72.5zM233 743h-20l131 129h31l129 -129h-20l-109 76h-31z" />
    <glyph glyph-name="ccircumflex" unicode="&#x109;" 
d="M50 98v334q0 44 26 71t68 27h57v-6q-40 -30 -40 -84v-141h18v141q0 41 27 65.5t71 24.5h247q47 0 72.5 -25.5t25.5 -72.5v-98h-154v98q0 73 -73 73h-118q-73 0 -73 -73v-334q0 -73 73 -73h247q73 0 73 73v90h25v-98q0 -41 -27 -65.5t-71 -24.5h-376q-47 0 -72.5 25.5
t-25.5 72.5zM210 573h-20l131 129h31l129 -129h-20l-109 76h-31z" />
    <glyph glyph-name="Cdotaccent" unicode="&#x10a;" horiz-adv-x="718" 
d="M50 98v504q0 44 26 71t68 27h57v-6q-40 -30 -40 -84v-141h18v141q0 41 27 65.5t71 24.5h293q47 0 72.5 -25.5t25.5 -72.5v-98h-154v98q0 73 -73 73h-164q-73 0 -73 -73v-504q0 -73 73 -73h293q73 0 73 73v90h25v-98q0 -41 -27 -65.5t-71 -24.5h-422q-47 0 -72.5 25.5
t-25.5 72.5zM432 815l-14 -8q-29 -19 -48 -48l-10 -14l-10 14q-22 31 -49 48l-14 8l14 9q27 16 49 48l10 14l10 -14q20 -30 48 -48z" />
    <glyph glyph-name="cdotaccent" unicode="&#x10b;" 
d="M50 98v334q0 44 26 71t68 27h57v-6q-40 -30 -40 -84v-141h18v141q0 41 27 65.5t71 24.5h247q47 0 72.5 -25.5t25.5 -72.5v-98h-154v98q0 73 -73 73h-118q-73 0 -73 -73v-334q0 -73 73 -73h247q73 0 73 73v90h25v-98q0 -41 -27 -65.5t-71 -24.5h-376q-47 0 -72.5 25.5
t-25.5 72.5zM409 645l-14 -8q-29 -19 -48 -48l-10 -14l-10 14q-22 31 -49 48l-14 8l14 9q27 16 49 48l10 14l10 -14q19 -30 48 -48z" />
    <glyph glyph-name="Ccaron" unicode="&#x10c;" horiz-adv-x="718" 
d="M50 98v504q0 44 26 71t68 27h57v-6q-40 -30 -40 -84v-141h18v141q0 41 27 65.5t71 24.5h293q47 0 72.5 -25.5t25.5 -72.5v-98h-154v98q0 73 -73 73h-164q-73 0 -73 -73v-504q0 -73 73 -73h293q73 0 73 73v90h25v-98q0 -41 -27 -65.5t-71 -24.5h-422q-47 0 -72.5 25.5
t-25.5 72.5zM344 753l-131 129h20l111 -76h31l109 76h20l-129 -129h-31z" />
    <glyph glyph-name="ccaron" unicode="&#x10d;" 
d="M50 98v334q0 44 26 71t68 27h57v-6q-40 -30 -40 -84v-141h18v141q0 41 27 65.5t71 24.5h247q47 0 72.5 -25.5t25.5 -72.5v-98h-154v98q0 73 -73 73h-118q-73 0 -73 -73v-334q0 -73 73 -73h247q73 0 73 73v90h25v-98q0 -41 -27 -65.5t-71 -24.5h-376q-47 0 -72.5 25.5
t-25.5 72.5zM321 583l-131 129h20l111 -76h31l109 76h20l-129 -129h-31z" />
    <glyph glyph-name="Dcaron" unicode="&#x10e;" horiz-adv-x="867" 
d="M464 0h-454v25h100v650h-100v25h376v-6q-75 -27 -120 -118.5t-45 -212.5v-13h18v13q0 148 66 242.5t159 94.5q159 0 256 -96t97 -254t-74.5 -254t-197.5 -96h-3v6q74 27 119.5 119t45.5 212v13h-19v-13q0 -148 -66 -242.5t-158 -94.5zM264 350v-325h200q86 0 142.5 90
t56.5 235q0 146 -54.5 235.5t-144.5 89.5q-87 0 -143.5 -90t-56.5 -235zM398 753l-131 129h20l111 -76h31l109 76h20l-129 -129h-31z" />
    <glyph glyph-name="dcaron" unicode="&#x10f;" horiz-adv-x="992" 
d="M468 526v149h-100v25h254v-675h100v-25h-251v6q40 29 40 84v72h-18v-72q0 -41 -27 -65.5t-71 -24.5h-247q-98 0 -98 98v334q0 98 98 98h247q44 0 71 -24.5t27 -65.5v-72h18v72q0 57 -43 86zM277 25h118q73 0 73 73v334q0 73 -73 73h-118q-73 0 -73 -73v-334q0 -73 73 -73
zM652 678q0 28 16.5 45t43.5 17t43.5 -17t16.5 -45v-92q0 -37 -20.5 -57.5t-57.5 -20.5h-42v25h42q53 0 53 53v41q-15 -10 -35 -10q-27 0 -43.5 16.5t-16.5 44.5z" />
    <glyph glyph-name="Dcroat" unicode="&#x110;" horiz-adv-x="867" 
d="M264 363h93v-25h-93v-313h200q86 0 142.5 90t56.5 235q0 146 -54.5 235.5t-144.5 89.5q-84 0 -140.5 -86.5t-59.5 -225.5zM18 338v25h92v312h-100v25h376v-6q-75 -27 -120 -118.5t-45 -212.5h18q0 148 66 242.5t159 94.5q159 0 256 -96t97 -254t-74.5 -254t-197.5 -96h-3
v6q74 27 119.5 119t45.5 212v13h-19v-13q0 -148 -66 -242.5t-158 -94.5h-454v25h100v313h-92z" />
    <glyph glyph-name="dcroat" unicode="&#x111;" horiz-adv-x="732" 
d="M277 25h118q73 0 73 73v334q0 73 -73 73h-118q-73 0 -73 -73v-334q0 -73 73 -73zM361 598v25h107v52h-100v25h254v-77h78v-25h-78v-573h100v-25h-251v6q40 29 40 84v72h-18v-72q0 -41 -27 -65.5t-71 -24.5h-247q-98 0 -98 98v334q0 98 98 98h247q44 0 71 -24.5t27 -65.5
v-72h18v72q0 57 -43 86v72h-107z" />
    <glyph glyph-name="Emacron" unicode="&#x112;" horiz-adv-x="710" 
d="M221 482h18v128q0 41 27 65.5t71 24.5h323v-225h-25v200h-298q-73 0 -73 -73v-227h396v-25h-396v-252q0 -73 73 -73h298v200h25v-225h-323q-44 0 -71 24.5t-27 65.5v128h-18v-128q0 -54 40 -84v-6h-251v25h100v650h-100v25h251v-6q-40 -30 -40 -84v-128zM458 770h-245v25
h245v-25z" />
    <glyph glyph-name="emacron" unicode="&#x113;" 
d="M524 204h-320v-106q0 -73 73 -73h247q73 0 73 73v44h25v-52q0 -41 -27 -65.5t-71 -24.5h-376q-47 0 -72.5 25.5t-25.5 72.5v334q0 44 26 71t68 27h57v-6q-40 -30 -40 -84v-141h18v141q0 41 27 65.5t71 24.5h247q47 0 72.5 -25.5t25.5 -72.5v-130q0 -47 -25.5 -72.5
t-72.5 -25.5zM204 432v-203h191q73 0 73 73v130q0 73 -73 73h-118q-73 0 -73 -73zM460 600h-245v25h245v-25z" />
    <glyph glyph-name="Ebreve" unicode="&#x114;" horiz-adv-x="710" 
d="M221 482h18v128q0 41 27 65.5t71 24.5h323v-225h-25v200h-298q-73 0 -73 -73v-227h396v-25h-396v-252q0 -73 73 -73h298v200h25v-225h-323q-44 0 -71 24.5t-27 65.5v128h-18v-128q0 -54 40 -84v-6h-251v25h100v650h-100v25h251v-6q-40 -30 -40 -84v-128zM206 846l-12 26
h20l14 -26q12 -20 41 -33t67 -13q39 0 68 13t41 33l13 26h20l-12 -26q-52 -103 -129 -103q-40 0 -73.5 28t-57.5 75z" />
    <glyph glyph-name="ebreve" unicode="&#x115;" 
d="M524 204h-320v-106q0 -73 73 -73h247q73 0 73 73v44h25v-52q0 -41 -27 -65.5t-71 -24.5h-376q-47 0 -72.5 25.5t-25.5 72.5v334q0 44 26 71t68 27h57v-6q-40 -30 -40 -84v-141h18v141q0 41 27 65.5t71 24.5h247q47 0 72.5 -25.5t25.5 -72.5v-130q0 -47 -25.5 -72.5
t-72.5 -25.5zM204 432v-203h191q73 0 73 73v130q0 73 -73 73h-118q-73 0 -73 -73zM208 676l-12 26h20l14 -26q12 -20 41 -33t67 -13q39 0 68 13t41 33l13 26h20l-12 -26q-52 -103 -129 -103q-40 0 -73.5 28t-57.5 75z" />
    <glyph glyph-name="Edotaccent" unicode="&#x116;" horiz-adv-x="710" 
d="M221 482h18v128q0 41 27 65.5t71 24.5h323v-225h-25v200h-298q-73 0 -73 -73v-227h396v-25h-396v-252q0 -73 73 -73h298v200h25v-225h-323q-44 0 -71 24.5t-27 65.5v128h-18v-128q0 -54 40 -84v-6h-251v25h100v650h-100v25h251v-6q-40 -30 -40 -84v-128zM407 815l-14 -8
q-29 -19 -48 -48l-10 -14l-10 14q-22 31 -49 48l-14 8l14 9q27 16 49 48l10 14l10 -14q19 -30 48 -48z" />
    <glyph glyph-name="edotaccent" unicode="&#x117;" 
d="M524 204h-320v-106q0 -73 73 -73h247q73 0 73 73v44h25v-52q0 -41 -27 -65.5t-71 -24.5h-376q-47 0 -72.5 25.5t-25.5 72.5v334q0 44 26 71t68 27h57v-6q-40 -30 -40 -84v-141h18v141q0 41 27 65.5t71 24.5h247q47 0 72.5 -25.5t25.5 -72.5v-130q0 -47 -25.5 -72.5
t-72.5 -25.5zM204 432v-203h191q73 0 73 73v130q0 73 -73 73h-118q-73 0 -73 -73zM409 645l-14 -8q-29 -19 -48 -48l-10 -14l-10 14q-22 31 -49 48l-14 8l14 9q27 16 49 48l10 14l10 -14q19 -30 48 -48z" />
    <glyph glyph-name="Eogonek" unicode="&#x118;" horiz-adv-x="710" 
d="M660 0h-79l-26 -31q-23 -31 -23 -58q0 -16 11 -24.5t26 -8.5q31 0 56 31l29 -51q-41 -42 -89 -42q-32 0 -54.5 20.5t-22.5 50.5q0 37 42 83l28 30h-221q-44 0 -71 24.5t-27 65.5v128h-18v-128q0 -54 40 -84v-6h-251v25h100v650h-100v25h251v-6q-40 -30 -40 -84v-128h18
v128q0 41 27 65.5t71 24.5h323v-225h-25v200h-298q-73 0 -73 -73v-227h396v-25h-396v-252q0 -73 73 -73h298v200h25v-225z" />
    <glyph glyph-name="eogonek" unicode="&#x119;" 
d="M204 432v-203h191q73 0 73 73v130q0 73 -73 73h-118q-73 0 -73 -73zM524 0h-1l-26 -31q-23 -31 -23 -58q0 -16 11 -24.5t26 -8.5q31 0 56 31l29 -51q-41 -42 -89 -42q-32 0 -54.5 20.5t-22.5 50.5q0 37 42 83l28 30h-352q-47 0 -72.5 25.5t-25.5 72.5v334q0 44 26 71
t68 27h57v-6q-40 -30 -40 -84v-141h18v141q0 41 27 65.5t71 24.5h247q47 0 72.5 -25.5t25.5 -72.5v-130q0 -47 -25.5 -72.5t-72.5 -25.5h-320v-106q0 -73 73 -73h247q73 0 73 73v44h25v-52q0 -41 -27 -65.5t-71 -24.5z" />
    <glyph glyph-name="Ecaron" unicode="&#x11a;" horiz-adv-x="710" 
d="M221 482h18v128q0 41 27 65.5t71 24.5h323v-225h-25v200h-298q-73 0 -73 -73v-227h396v-25h-396v-252q0 -73 73 -73h298v200h25v-225h-323q-44 0 -71 24.5t-27 65.5v128h-18v-128q0 -54 40 -84v-6h-251v25h100v650h-100v25h251v-6q-40 -30 -40 -84v-128zM319 753
l-131 129h20l111 -76h31l109 76h20l-129 -129h-31z" />
    <glyph glyph-name="ecaron" unicode="&#x11b;" 
d="M524 204h-320v-106q0 -73 73 -73h247q73 0 73 73v44h25v-52q0 -41 -27 -65.5t-71 -24.5h-376q-47 0 -72.5 25.5t-25.5 72.5v334q0 44 26 71t68 27h57v-6q-40 -30 -40 -84v-141h18v141q0 41 27 65.5t71 24.5h247q47 0 72.5 -25.5t25.5 -72.5v-130q0 -47 -25.5 -72.5
t-72.5 -25.5zM204 432v-203h191q73 0 73 73v130q0 73 -73 73h-118q-73 0 -73 -73zM321 583l-131 129h20l111 -76h31l109 76h20l-129 -129h-31z" />
    <glyph glyph-name="Gcircumflex" unicode="&#x11c;" horiz-adv-x="719" 
d="M558 231h-18v-141q0 -41 -27 -65.5t-71 -24.5h-294q-47 0 -72.5 25.5t-25.5 72.5v504q0 44 26 71t68 27h57v-6q-40 -30 -40 -84v-141h18v141q0 41 27 65.5t71 24.5h392v-25h-392q-73 0 -73 -73v-504q0 -73 73 -73h165q73 0 73 73v407h-93v25h247v-530h-151v6q40 30 40 84
v141zM233 743h-20l131 129h31l129 -129h-20l-109 76h-31z" />
    <glyph glyph-name="gcircumflex" unicode="&#x11d;" horiz-adv-x="742" 
d="M50 197v235q0 47 25.5 72.5t72.5 25.5h247q44 0 71 -24.5t27 -65.5v-133h18v133q0 54 -40 84v25h91q30 0 46 17t33 56l24 51h27l-26 -59q-16 -40 -36 -61.5t-54 -24.5l-18 -3q29 -8 46.5 -33t17.5 -60v-282q0 -47 -25.5 -72.5t-72.5 -25.5h-429q0 -73 73 -73h454v-88
q0 -41 -27 -66t-71 -25h-356q-98 0 -98 81v68h6q28 -38 84 -38h391v43h-391q-41 0 -65.5 27t-24.5 71v25h109v161h-18v-105h-46q-31 0 -48 16.5t-17 47.5zM204 432v-355h191q73 0 73 73v282q0 73 -73 73h-118q-73 0 -73 -73zM214 573h-20l131 129h31l129 -129h-20l-109 76
h-31z" />
    <glyph glyph-name="Gbreve" unicode="&#x11e;" horiz-adv-x="719" 
d="M558 231h-18v-141q0 -41 -27 -65.5t-71 -24.5h-294q-47 0 -72.5 25.5t-25.5 72.5v504q0 44 26 71t68 27h57v-6q-40 -30 -40 -84v-141h18v141q0 41 27 65.5t71 24.5h392v-25h-392q-73 0 -73 -73v-504q0 -73 73 -73h165q73 0 73 73v407h-93v25h247v-530h-151v6q40 30 40 84
v141zM231 846l-12 26h20l14 -26q12 -20 41 -33t67 -13q39 0 68 13t41 33l13 26h20l-12 -26q-52 -103 -129 -103q-40 0 -73.5 28t-57.5 75z" />
    <glyph glyph-name="gbreve" unicode="&#x11f;" horiz-adv-x="742" 
d="M50 197v235q0 47 25.5 72.5t72.5 25.5h247q44 0 71 -24.5t27 -65.5v-133h18v133q0 54 -40 84v25h91q30 0 46 17t33 56l24 51h27l-26 -59q-16 -40 -36 -61.5t-54 -24.5l-18 -3q29 -8 46.5 -33t17.5 -60v-282q0 -47 -25.5 -72.5t-72.5 -25.5h-429q0 -73 73 -73h454v-88
q0 -41 -27 -66t-71 -25h-356q-98 0 -98 81v68h6q28 -38 84 -38h391v43h-391q-41 0 -65.5 27t-24.5 71v25h109v161h-18v-105h-46q-31 0 -48 16.5t-17 47.5zM204 432v-355h191q73 0 73 73v282q0 73 -73 73h-118q-73 0 -73 -73zM212 676l-12 26h20l14 -26q12 -20 41 -33t67 -13
q39 0 68 13t41 33l13 26h20l-12 -26q-52 -103 -129 -103q-40 0 -73.5 28t-57.5 75z" />
    <glyph glyph-name="Gdotaccent" unicode="&#x120;" horiz-adv-x="719" 
d="M558 231h-18v-141q0 -41 -27 -65.5t-71 -24.5h-294q-47 0 -72.5 25.5t-25.5 72.5v504q0 44 26 71t68 27h57v-6q-40 -30 -40 -84v-141h18v141q0 41 27 65.5t71 24.5h392v-25h-392q-73 0 -73 -73v-504q0 -73 73 -73h165q73 0 73 73v407h-93v25h247v-530h-151v6q40 30 40 84
v141zM432 815l-14 -8q-29 -19 -48 -48l-10 -14l-10 14q-22 31 -49 48l-14 8l14 9q27 16 49 48l10 14l10 -14q20 -30 48 -48z" />
    <glyph glyph-name="gdotaccent" unicode="&#x121;" horiz-adv-x="742" 
d="M50 197v235q0 47 25.5 72.5t72.5 25.5h247q44 0 71 -24.5t27 -65.5v-133h18v133q0 54 -40 84v25h91q30 0 46 17t33 56l24 51h27l-26 -59q-16 -40 -36 -61.5t-54 -24.5l-18 -3q29 -8 46.5 -33t17.5 -60v-282q0 -47 -25.5 -72.5t-72.5 -25.5h-429q0 -73 73 -73h454v-88
q0 -41 -27 -66t-71 -25h-356q-98 0 -98 81v68h6q28 -38 84 -38h391v43h-391q-41 0 -65.5 27t-24.5 71v25h109v161h-18v-105h-46q-31 0 -48 16.5t-17 47.5zM204 432v-355h191q73 0 73 73v282q0 73 -73 73h-118q-73 0 -73 -73zM413 645l-14 -8q-29 -19 -48 -48l-10 -14l-10 14
q-22 31 -49 48l-14 8l14 9q27 16 49 48l10 14l10 -14q19 -30 48 -48z" />
    <glyph glyph-name="uni0122" unicode="&#x122;" horiz-adv-x="719" 
d="M558 231h-18v-141q0 -41 -27 -65.5t-71 -24.5h-294q-47 0 -72.5 25.5t-25.5 72.5v504q0 44 26 71t68 27h57v-6q-40 -30 -40 -84v-141h18v141q0 41 27 65.5t71 24.5h392v-25h-392q-73 0 -73 -73v-504q0 -73 73 -73h165q73 0 73 73v407h-93v25h247v-530h-151v6q40 30 40 84
v141zM299 -92q0 28 16.5 45t44.5 17q27 0 43.5 -17t16.5 -45v-62q0 -37 -20.5 -57.5t-57.5 -20.5h-43v25h43q25 0 39 14t14 39v11q-15 -10 -35 -10q-28 0 -44.5 16.5t-16.5 44.5z" />
    <glyph glyph-name="uni0123" unicode="&#x123;" horiz-adv-x="742" 
d="M50 197v235q0 47 25.5 72.5t72.5 25.5h247q44 0 71 -24.5t27 -65.5v-133h18v133q0 54 -40 84v25h91q30 0 46 17t33 56l24 51h27l-26 -59q-16 -40 -36 -61.5t-54 -24.5l-18 -3q29 -8 46.5 -33t17.5 -60v-282q0 -47 -25.5 -72.5t-72.5 -25.5h-429q0 -73 73 -73h454v-88
q0 -41 -27 -66t-71 -25h-356q-98 0 -98 81v68h6q28 -38 84 -38h391v43h-391q-41 0 -65.5 27t-24.5 71v25h109v161h-18v-105h-46q-31 0 -48 16.5t-17 47.5zM204 432v-355h191q73 0 73 73v282q0 73 -73 73h-118q-73 0 -73 -73zM402 635q0 -28 -16.5 -45t-44.5 -17
q-27 0 -43.5 17t-16.5 45v63q0 37 20.5 57.5t57.5 20.5h43v-25h-43q-25 0 -39 -14t-14 -39v-12q14 11 35 11q28 0 44.5 -17t16.5 -45z" />
    <glyph glyph-name="Hcircumflex" unicode="&#x124;" horiz-adv-x="894" 
d="M530 25h100v240q0 73 -73 73h-220q-44 0 -71 24.5t-27 65.5v91h-18v-91q0 -49 32 -78.5t84 -29.5v-25q-73 0 -73 -73v-197h100v-25h-354v25h100v650h-100v25h354v-25h-100v-239q0 -73 73 -73h220q44 0 71 -24.5t27 -65.5v-91h18v91q0 49 -32 78.5t-84 29.5v25q73 0 73 73
v196h-100v25h354v-25h-100v-650h100v-25h-354v25zM321 743h-20l131 129h31l129 -129h-20l-109 76h-31z" />
    <glyph glyph-name="hcircumflex" unicode="&#x125;" horiz-adv-x="792" 
d="M221 309h18v131q0 41 27 65.5t71 24.5h247q98 0 98 -98v-407h100v-25h-348v25h94v407q0 73 -73 73h-118q-73 0 -73 -73v-407h93v-25h-347v25h100v650h-100v25h254v-174q-43 -29 -43 -86v-131zM55 743h-20l131 129h31l129 -129h-20l-109 76h-31z" />
    <glyph glyph-name="Hbar" unicode="&#x126;" horiz-adv-x="894" 
d="M630 479v64h-366v-107q0 -73 73 -73h220q44 0 71 -24.5t27 -65.5v-91h18v91q0 49 -32 78.5t-84 29.5v25q73 0 73 73zM81 543v25h29v107h-100v25h354v-25h-100v-107h366v107h-100v25h354v-25h-100v-107h30v-25h-30v-518h100v-25h-354v25h100v240q0 73 -73 73h-220
q-44 0 -71 24.5t-27 65.5v91h-18v-91q0 -49 32 -78.5t84 -29.5v-25q-73 0 -73 -73v-197h100v-25h-354v25h100v518h-29z" />
    <glyph glyph-name="hbar" unicode="&#x127;" horiz-adv-x="792" 
d="M12 618v25h98v32h-100v25h254v-57h87v-25h-87v-92q-43 -29 -43 -86v-131h18v131q0 41 27 65.5t71 24.5h247q98 0 98 -98v-407h100v-25h-348v25h94v407q0 73 -73 73h-118q-73 0 -73 -73v-407h93v-25h-347v25h100v593h-98z" />
    <glyph glyph-name="Itilde" unicode="&#x128;" horiz-adv-x="374" 
d="M37 675h-27v25h27q44 0 71 -24.5t27 -65.5v-141h18v141q0 55 -40 84v6h251v-25h-100v-650h100v-25h-354v25h100v577q0 73 -73 73zM47 743h-20l10 37q13 44 31.5 66.5t53.5 22.5q32 0 61 -20.5t53 -41t41 -20.5q16 0 24 11t14 34l10 36h20l-10 -36q-13 -44 -32 -66.5
t-54 -22.5q-33 0 -61.5 21.5t-52 43t-41.5 21.5q-16 0 -23 -11.5t-14 -37.5z" />
    <glyph glyph-name="itilde" unicode="&#x129;" horiz-adv-x="374" 
d="M37 505h-27v25h27q44 0 71 -24.5t27 -65.5v-141h18v141q0 55 -40 84v6h151v-505h100v-25h-354v25h100v407q0 73 -73 73zM49 573h-20l10 37q13 44 31.5 66.5t53.5 22.5q32 0 61 -20.5t53 -41t41 -20.5q16 0 24 11t14 34l10 36h20l-10 -36q-13 -44 -32 -66.5t-54 -22.5
q-32 0 -61 21.5t-52.5 43t-41.5 21.5q-16 0 -23 -11.5t-14 -37.5z" />
    <glyph glyph-name="Imacron" unicode="&#x12a;" horiz-adv-x="374" 
d="M37 675h-27v25h27q44 0 71 -24.5t27 -65.5v-141h18v141q0 55 -40 84v6h251v-25h-100v-650h100v-25h-354v25h100v577q0 73 -73 73zM308 770h-245v25h245v-25z" />
    <glyph glyph-name="imacron" unicode="&#x12b;" horiz-adv-x="374" 
d="M37 505h-27v25h27q44 0 71 -24.5t27 -65.5v-141h18v141q0 55 -40 84v6h151v-505h100v-25h-354v25h100v407q0 73 -73 73zM310 600h-245v25h245v-25z" />
    <glyph glyph-name="Ibreve" unicode="&#x12c;" horiz-adv-x="374" 
d="M37 675h-27v25h27q44 0 71 -24.5t27 -65.5v-141h18v141q0 55 -40 84v6h251v-25h-100v-650h100v-25h-354v25h100v577q0 73 -73 73zM57 846l-12 26h20l14 -26q12 -20 41 -33t67 -13q39 0 68 13t41 33l13 26h20l-12 -26q-52 -103 -129 -103q-40 0 -73.5 28t-57.5 75z" />
    <glyph glyph-name="ibreve" unicode="&#x12d;" horiz-adv-x="374" 
d="M37 505h-27v25h27q44 0 71 -24.5t27 -65.5v-141h18v141q0 55 -40 84v6h151v-505h100v-25h-354v25h100v407q0 73 -73 73zM59 676l-12 26h20l14 -26q12 -20 41 -33t67 -13q39 0 68 13t41 33l13 26h20l-12 -26q-52 -103 -129 -103q-40 0 -73.5 28t-57.5 75z" />
    <glyph glyph-name="Iogonek" unicode="&#x12e;" horiz-adv-x="374" 
d="M364 0h-81l-26 -31q-23 -31 -23 -58q0 -16 11 -24.5t26 -8.5q31 0 56 31l29 -51q-41 -42 -89 -42q-32 0 -54.5 20.5t-22.5 50.5q0 37 42 83l28 30h-250v25h100v577q0 73 -73 73h-27v25h27q44 0 71 -24.5t27 -65.5v-141h18v141q0 55 -40 84v6h251v-25h-100v-650h100v-25z
" />
    <glyph glyph-name="iogonek" unicode="&#x12f;" horiz-adv-x="374" 
d="M364 0h-167l-26 -31q-23 -31 -23 -58q0 -16 11 -24.5t26 -8.5q31 0 56 31l29 -51q-41 -42 -89 -42q-32 0 -54.5 20.5t-22.5 50.5q0 37 42 83l28 30h-164v25h100v407q0 73 -73 73h-27v25h27q44 0 71 -24.5t27 -65.5v-141h18v141q0 55 -40 84v6h151v-505h100v-25zM277 639
l-27 -9q-36 -14 -55 -50l-8 -11l-7 11q-19 35 -55 50l-27 9l27 10q36 15 55 49l7 12l8 -12q20 -35 55 -49z" />
    <glyph glyph-name="Idotaccent" unicode="&#x130;" horiz-adv-x="374" 
d="M37 675h-27v25h27q44 0 71 -24.5t27 -65.5v-141h18v141q0 55 -40 84v6h251v-25h-100v-650h100v-25h-354v25h100v577q0 73 -73 73zM258 815l-14 -8q-29 -19 -48 -48l-10 -14l-10 14q-22 31 -49 48l-14 8l14 9q27 16 49 48l10 14l10 -14q20 -30 48 -48z" />
    <glyph glyph-name="dotlessi" unicode="&#x131;" horiz-adv-x="374" 
d="M37 505h-27v25h27q44 0 71 -24.5t27 -65.5v-141h18v141q0 55 -40 84v6h151v-505h100v-25h-354v25h100v407q0 73 -73 73z" />
    <glyph glyph-name="IJ" unicode="&#x132;" horiz-adv-x="748" 
d="M37 675h-27v25h27q44 0 71 -24.5t27 -65.5v-141h18v141q0 55 -40 84v6h251v-25h-100v-650h100v-25h-354v25h100v577q0 73 -73 73zM638 675v-460q0 -245 -245 -245h-9v25h10q90 0 90 90v517q0 73 -73 73h-27v25h27q44 0 71 -24.5t27 -65.5v-141h18v141q0 55 -40 84v6h251
v-25h-100z" />
    <glyph glyph-name="ij" unicode="&#x133;" horiz-adv-x="648" 
d="M37 505h-27v25h27q44 0 71 -24.5t27 -65.5v-141h18v141q0 55 -40 84v6h151v-505h100v-25h-354v25h100v407q0 73 -73 73zM277 639l-27 -9q-36 -14 -55 -50l-8 -11l-7 11q-19 35 -55 50l-27 9l27 10q36 15 55 49l7 12l8 -12q20 -35 55 -49zM585 530v-485q0 -245 -245 -245
h-9v25h10q90 0 90 90v517q0 73 -73 73h-27v25h27q44 0 71 -24.5t27 -65.5v-141h18v141q0 55 -40 84v6h151zM598 639l-27 -9q-36 -14 -55 -50l-8 -11l-7 11q-19 35 -55 50l-27 9l27 10q36 15 55 49l7 12l8 -12q20 -35 55 -49z" />
    <glyph glyph-name="Jcircumflex" unicode="&#x134;" horiz-adv-x="374" 
d="M264 675v-460q0 -245 -245 -245h-9v25h10q90 0 90 90v517q0 73 -73 73h-27v25h27q44 0 71 -24.5t27 -65.5v-141h18v141q0 55 -40 84v6h251v-25h-100zM61 743h-20l131 129h31l129 -129h-20l-109 76h-31z" />
    <glyph glyph-name="jcircumflex" unicode="&#x135;" horiz-adv-x="327" 
d="M264 530v-485q0 -245 -245 -245h-9v25h10q90 0 90 90v517q0 73 -73 73h-27v25h27q44 0 71 -24.5t27 -65.5v-141h18v141q0 55 -40 84v6h151zM42 573h-20l131 129h31l129 -129h-20l-109 76h-31z" />
    <glyph glyph-name="uni0136" unicode="&#x136;" horiz-adv-x="891" 
d="M264 675v-299q-43 -29 -43 -86v-100h18v100q0 41 27 65.5t71 24.5h127q41 0 63 -23t35 -67l32 -109h19l-32 109q-22 65 -47 84v25h38q31 0 48.5 17.5t31.5 55.5l71 203h-169v25h327v-25h-130l-74 -211q-26 -72 -78 -86h18q21 0 41.5 -28.5t32.5 -67.5l85 -257h105v-25
h-354v25h95l-85 257q-13 42 -26 57.5t-47 15.5h-127q-73 0 -73 -73v-257h100v-25h-354v25h100v650h-100v25h354v-25h-100zM384 -92q0 28 16.5 45t44.5 17q27 0 43.5 -17t16.5 -45v-62q0 -37 -20.5 -57.5t-57.5 -20.5h-43v25h43q25 0 39 14t14 39v11q-15 -10 -35 -10
q-28 0 -44.5 16.5t-16.5 44.5z" />
    <glyph glyph-name="uni0137" unicode="&#x137;" horiz-adv-x="804" 
d="M364 0h-354v25h100v650h-100v25h254v-324q-43 -29 -43 -86v-100h18v100q0 41 27 65.5t71 24.5h41q41 0 62.5 -22.5t35.5 -67.5l32 -109h18l-32 109q-19 63 -47 84v25h78q59 0 93 73l17 36h-168v25h327v-25h-132l-19 -44q-36 -80 -105 -89q41 -12 67 -93l84 -257h105v-25
h-354v25h95l-84 257q-10 30 -15.5 42t-19.5 21.5t-38 9.5h-41q-73 0 -73 -73v-257h100v-25zM340 -92q0 28 16.5 45t44.5 17q27 0 43.5 -17t16.5 -45v-62q0 -37 -20.5 -57.5t-57.5 -20.5h-43v25h43q25 0 39 14t14 39v11q-15 -10 -35 -10q-28 0 -44.5 16.5t-16.5 44.5z" />
    <glyph glyph-name="kgreenlandic" unicode="&#x138;" horiz-adv-x="804" 
d="M364 0h-354v25h100v480h-100v25h254v-154q-43 -29 -43 -86v-100h18v100q0 41 27 65.5t71 24.5h41q41 0 62.5 -22.5t35.5 -67.5l32 -109h18l-32 109q-19 63 -47 84v25h78q59 0 93 73l17 36h-168v25h327v-25h-132l-19 -44q-36 -80 -105 -89q41 -12 67 -93l84 -257h105v-25
h-354v25h95l-84 257q-10 30 -15.5 42t-19.5 21.5t-38 9.5h-41q-73 0 -73 -73v-257h100v-25z" />
    <glyph glyph-name="Lacute" unicode="&#x139;" horiz-adv-x="693" 
d="M239 90v128h-18v-128q0 -54 40 -84v-6h-251v25h100v650h-100v25h347v-25h-93v-577q0 -73 73 -73h281v200h25v-225h-306q-44 0 -71 24.5t-27 65.5zM413 882h21v-60h-21l-133 -69h-20z" />
    <glyph glyph-name="lacute" unicode="&#x13a;" horiz-adv-x="374" 
d="M37 675h-27v25h27q44 0 71 -24.5t27 -65.5v-141h18v141q0 55 -40 84v6h151v-675h100v-25h-354v25h100v577q0 73 -73 73zM253 872h21v-60h-21l-133 -69h-20z" />
    <glyph glyph-name="uni013B" unicode="&#x13b;" horiz-adv-x="693" 
d="M239 90v128h-18v-128q0 -54 40 -84v-6h-251v25h100v650h-100v25h347v-25h-93v-577q0 -73 73 -73h281v200h25v-225h-306q-44 0 -71 24.5t-27 65.5zM287 -92q0 28 16.5 45t44.5 17q27 0 43.5 -17t16.5 -45v-62q0 -37 -20.5 -57.5t-57.5 -20.5h-43v25h43q25 0 39 14t14 39
v11q-15 -10 -35 -10q-28 0 -44.5 16.5t-16.5 44.5z" />
    <glyph glyph-name="uni013C" unicode="&#x13c;" horiz-adv-x="374" 
d="M37 675h-27v25h27q44 0 71 -24.5t27 -65.5v-141h18v141q0 55 -40 84v6h151v-675h100v-25h-354v25h100v577q0 73 -73 73zM136 -92q0 28 16.5 45t44.5 17q27 0 43.5 -17t16.5 -45v-62q0 -37 -20.5 -57.5t-57.5 -20.5h-43v25h43q25 0 39 14t14 39v11q-15 -10 -35 -10
q-28 0 -44.5 16.5t-16.5 44.5z" />
    <glyph glyph-name="Lcaron" unicode="&#x13d;" horiz-adv-x="693" 
d="M239 90v128h-18v-128q0 -54 40 -84v-6h-251v25h100v650h-100v25h347v-25h-93v-577q0 -73 73 -73h281v200h25v-225h-306q-44 0 -71 24.5t-27 65.5zM379 675q0 28 16.5 45t44.5 17q27 0 43.5 -17t16.5 -45v-93q0 -37 -20.5 -57.5t-57.5 -20.5h-43v25h43q25 0 39 14t14 39
v42q-14 -11 -35 -11q-28 0 -44.5 17t-16.5 45z" />
    <glyph glyph-name="lcaron" unicode="&#x13e;" horiz-adv-x="465" 
d="M37 675h-27v25h27q44 0 71 -24.5t27 -65.5v-141h18v141q0 55 -40 84v6h151v-675h100v-25h-354v25h100v577q0 73 -73 73zM294 678q0 28 16.5 45t44.5 17q27 0 43.5 -17t16.5 -45v-92q0 -37 -20.5 -57.5t-57.5 -20.5h-43v25h43q25 0 39 14t14 39v41q-15 -10 -35 -10
q-28 0 -44.5 16.5t-16.5 44.5z" />
    <glyph glyph-name="Ldot" unicode="&#x13f;" horiz-adv-x="693" 
d="M239 90v128h-18v-128q0 -54 40 -84v-6h-251v25h100v650h-100v25h347v-25h-93v-577q0 -73 73 -73h281v200h25v-225h-306q-44 0 -71 24.5t-27 65.5zM380 310q-28 0 -44.5 17t-16.5 45t16.5 44.5t44.5 16.5q27 0 43.5 -16.5t16.5 -44.5t-16.5 -45t-43.5 -17z" />
    <glyph glyph-name="ldot" unicode="&#x140;" horiz-adv-x="463" 
d="M37 675h-27v25h27q44 0 71 -24.5t27 -65.5v-141h18v141q0 55 -40 84v6h151v-675h100v-25h-354v25h100v577q0 73 -73 73zM353 310q-27 0 -43.5 17t-16.5 45t16.5 44.5t43.5 16.5t43.5 -16.5t16.5 -44.5t-16.5 -45t-43.5 -17z" />
    <glyph glyph-name="Lslash" unicode="&#x141;" horiz-adv-x="693" 
d="M239 90v128h-18v-128q0 -54 40 -84v-6h-251v25h100v271l-93 -58v25l93 58v354h-100v25h347v-25h-93v-269l92 57v-25l-92 -57v-283q0 -73 73 -73h281v200h25v-225h-306q-44 0 -71 24.5t-27 65.5z" />
    <glyph glyph-name="lslash" unicode="&#x142;" horiz-adv-x="374" 
d="M37 675h-27v25h27q44 0 71 -24.5t27 -65.5v-141h18v141q0 55 -40 84v6h151v-294l91 57v-25l-91 -57v-356h100v-25h-354v25h100v271l-94 -58v25l94 58v281q0 73 -73 73z" />
    <glyph glyph-name="Nacute" unicode="&#x143;" horiz-adv-x="887" 
d="M611 0h-141l-206 630q-13 45 -53 45h-76v-650h100v-25h-225v25h100v650h-100v25h201q31 0 48 -17.5t30 -53.5l58 -160h19l-51 141q-2 5 -7.5 23.5t-8.5 25.5t-9.5 18t-14.5 17v6h141l206 -630q13 -45 53 -45h17q60 0 60 60v590h-100v25h225v-25h-100v-590q0 -85 -85 -85
h-17q-31 0 -48 17.5t-30 53.5l-58 160h-19l51 -141q2 -5 7.5 -23.5t8.5 -25.5t9.5 -18t14.5 -17v-6zM509 872h21v-60h-21l-133 -69h-20z" />
    <glyph glyph-name="nacute" unicode="&#x144;" horiz-adv-x="792" 
d="M221 299h18v141q0 41 27 65.5t71 24.5h247q98 0 98 -98v-407h100v-25h-348v25h94v407q0 73 -73 73h-118q-73 0 -73 -73v-407h93v-25h-347v25h100v480h-100v25h251v-6q-40 -30 -40 -84v-141zM461 702h21v-60h-21l-133 -69h-20z" />
    <glyph glyph-name="uni0145" unicode="&#x145;" horiz-adv-x="887" 
d="M611 0h-141l-206 630q-13 45 -53 45h-76v-650h100v-25h-225v25h100v650h-100v25h201q31 0 48 -17.5t30 -53.5l58 -160h19l-51 141q-2 5 -7.5 23.5t-8.5 25.5t-9.5 18t-14.5 17v6h141l206 -630q13 -45 53 -45h17q60 0 60 60v590h-100v25h225v-25h-100v-590q0 -85 -85 -85
h-17q-31 0 -48 17.5t-30 53.5l-58 160h-19l51 -141q2 -5 7.5 -23.5t8.5 -25.5t9.5 -18t14.5 -17v-6zM383 -92q0 28 16.5 45t44.5 17q27 0 43.5 -17t16.5 -45v-62q0 -37 -20.5 -57.5t-57.5 -20.5h-43v25h43q25 0 39 14t14 39v11q-15 -10 -35 -10q-28 0 -44.5 16.5t-16.5 44.5
z" />
    <glyph glyph-name="uni0146" unicode="&#x146;" horiz-adv-x="792" 
d="M221 299h18v141q0 41 27 65.5t71 24.5h247q98 0 98 -98v-407h100v-25h-348v25h94v407q0 73 -73 73h-118q-73 0 -73 -73v-407h93v-25h-347v25h100v480h-100v25h251v-6q-40 -30 -40 -84v-141zM335 -92q0 28 16.5 45t44.5 17q27 0 43.5 -17t16.5 -45v-62q0 -37 -20.5 -57.5
t-57.5 -20.5h-43v25h43q25 0 39 14t14 39v11q-15 -10 -35 -10q-28 0 -44.5 16.5t-16.5 44.5z" />
    <glyph glyph-name="Ncaron" unicode="&#x147;" horiz-adv-x="887" 
d="M611 0h-141l-206 630q-13 45 -53 45h-76v-650h100v-25h-225v25h100v650h-100v25h201q31 0 48 -17.5t30 -53.5l58 -160h19l-51 141q-2 5 -7.5 23.5t-8.5 25.5t-9.5 18t-14.5 17v6h141l206 -630q13 -45 53 -45h17q60 0 60 60v590h-100v25h225v-25h-100v-590q0 -85 -85 -85
h-17q-31 0 -48 17.5t-30 53.5l-58 160h-19l51 -141q2 -5 7.5 -23.5t8.5 -25.5t9.5 -18t14.5 -17v-6zM428 753l-131 129h20l111 -76h31l109 76h20l-129 -129h-31z" />
    <glyph glyph-name="ncaron" unicode="&#x148;" horiz-adv-x="792" 
d="M221 299h18v141q0 41 27 65.5t71 24.5h247q98 0 98 -98v-407h100v-25h-348v25h94v407q0 73 -73 73h-118q-73 0 -73 -73v-407h93v-25h-347v25h100v480h-100v25h251v-6q-40 -30 -40 -84v-141zM380 583l-131 129h20l111 -76h31l109 76h20l-129 -129h-31z" />
    <glyph glyph-name="napostrophe" unicode="&#x149;" horiz-adv-x="792" 
d="M221 299h18v141q0 41 27 65.5t71 24.5h247q98 0 98 -98v-407h100v-25h-348v25h94v407q0 73 -73 73h-118q-73 0 -73 -73v-407h93v-25h-347v25h100v480h-100v25h251v-6q-40 -30 -40 -84v-141zM102 714q0 28 16.5 45t44.5 17q27 0 43.5 -17t16.5 -45v-63q0 -37 -20.5 -57.5
t-57.5 -20.5h-43v25h43q25 0 39 14t14 39v12q-14 -11 -35 -11q-28 0 -44.5 17t-16.5 45z" />
    <glyph glyph-name="Eng" unicode="&#x14a;" horiz-adv-x="887" 
d="M611 0h-141l-206 630q-13 45 -53 45h-76v-650h100v-25h-225v25h100v650h-100v25h201q31 0 48 -17.5t30 -53.5l58 -160h19l-51 141q-2 5 -7.5 23.5t-8.5 25.5t-9.5 18t-14.5 17v6h141l206 -630q13 -45 53 -45h77v650h-100v25h225v-25h-100v-768q0 -48 -32.5 -77.5
t-84.5 -29.5h-8v25h10q90 0 90 90v85h-77q-31 0 -48 17.5t-30 53.5l-58 160h-19l51 -141q2 -5 7.5 -23.5t8.5 -25.5t9.5 -18t14.5 -17v-6z" />
    <glyph glyph-name="eng" unicode="&#x14b;" horiz-adv-x="732" 
d="M221 299h18v141q0 41 27 65.5t71 24.5h247q98 0 98 -98v-387q0 -245 -245 -245h-9v25h10q90 0 90 90v517q0 73 -73 73h-118q-73 0 -73 -73v-407h93v-25h-347v25h100v480h-100v25h251v-6q-40 -30 -40 -84v-141z" />
    <glyph glyph-name="Omacron" unicode="&#x14c;" horiz-adv-x="774" 
d="M277 25h220q73 0 73 73v504q0 73 -73 73h-220q-73 0 -73 -73v-504q0 -73 73 -73zM724 602v-504q0 -44 -26 -71t-68 -27h-57v6q40 30 40 84v141h-18v-141q0 -41 -27 -65.5t-71 -24.5h-349q-47 0 -72.5 25.5t-25.5 72.5v504q0 44 26 71t68 27h57v-6q-40 -30 -40 -84v-141
h18v141q0 41 27 65.5t71 24.5h349q47 0 72.5 -25.5t25.5 -72.5zM460 350l-15 -9q-26 -16 -48 -47l-10 -15l-10 15q-22 31 -48 47l-15 9l15 9q27 17 48 47l10 15l10 -15q21 -30 48 -47zM510 770h-245v25h245v-25z" />
    <glyph glyph-name="omacron" unicode="&#x14d;" 
d="M622 432v-334q0 -44 -26 -71t-68 -27h-57v6q40 30 40 84v141h-18v-141q0 -41 -27 -65.5t-71 -24.5h-247q-47 0 -72.5 25.5t-25.5 72.5v334q0 44 26 71t68 27h57v-6q-40 -30 -40 -84v-141h18v141q0 41 27 65.5t71 24.5h247q47 0 72.5 -25.5t25.5 -72.5zM277 25h118
q73 0 73 73v334q0 73 -73 73h-118q-73 0 -73 -73v-334q0 -73 73 -73zM406 265l-15 -9q-24 -15 -45 -44l-10 -14l-10 14q-19 29 -45 44l-14 9l14 9q27 16 45 44l10 14l10 -14q20 -28 45 -44zM459 600h-245v25h245v-25z" />
    <glyph glyph-name="Obreve" unicode="&#x14e;" horiz-adv-x="774" 
d="M277 25h220q73 0 73 73v504q0 73 -73 73h-220q-73 0 -73 -73v-504q0 -73 73 -73zM724 602v-504q0 -44 -26 -71t-68 -27h-57v6q40 30 40 84v141h-18v-141q0 -41 -27 -65.5t-71 -24.5h-349q-47 0 -72.5 25.5t-25.5 72.5v504q0 44 26 71t68 27h57v-6q-40 -30 -40 -84v-141
h18v141q0 41 27 65.5t71 24.5h349q47 0 72.5 -25.5t25.5 -72.5zM460 350l-15 -9q-26 -16 -48 -47l-10 -15l-10 15q-22 31 -48 47l-15 9l15 9q27 17 48 47l10 15l10 -15q21 -30 48 -47zM258 846l-12 26h20l14 -26q12 -20 41 -33t67 -13q39 0 68 13t41 33l13 26h20l-12 -26
q-52 -103 -129 -103q-40 0 -73.5 28t-57.5 75z" />
    <glyph glyph-name="obreve" unicode="&#x14f;" 
d="M622 432v-334q0 -44 -26 -71t-68 -27h-57v6q40 30 40 84v141h-18v-141q0 -41 -27 -65.5t-71 -24.5h-247q-47 0 -72.5 25.5t-25.5 72.5v334q0 44 26 71t68 27h57v-6q-40 -30 -40 -84v-141h18v141q0 41 27 65.5t71 24.5h247q47 0 72.5 -25.5t25.5 -72.5zM277 25h118
q73 0 73 73v334q0 73 -73 73h-118q-73 0 -73 -73v-334q0 -73 73 -73zM406 265l-15 -9q-24 -15 -45 -44l-10 -14l-10 14q-19 29 -45 44l-14 9l14 9q27 16 45 44l10 14l10 -14q20 -28 45 -44zM208 676l-12 26h20l14 -26q12 -20 41 -33t67 -13q39 0 68 13t41 33l13 26h20
l-12 -26q-52 -103 -129 -103q-40 0 -73.5 28t-57.5 75z" />
    <glyph glyph-name="Ohungarumlaut" unicode="&#x150;" horiz-adv-x="774" 
d="M277 25h220q73 0 73 73v504q0 73 -73 73h-220q-73 0 -73 -73v-504q0 -73 73 -73zM724 602v-504q0 -44 -26 -71t-68 -27h-57v6q40 30 40 84v141h-18v-141q0 -41 -27 -65.5t-71 -24.5h-349q-47 0 -72.5 25.5t-25.5 72.5v504q0 44 26 71t68 27h57v-6q-40 -30 -40 -84v-141
h18v141q0 41 27 65.5t71 24.5h349q47 0 72.5 -25.5t25.5 -72.5zM460 350l-15 -9q-26 -16 -48 -47l-10 -15l-10 15q-22 31 -48 47l-15 9l15 9q27 17 48 47l10 15l10 -15q21 -30 48 -47zM361 864v14h60v-14l-152 -121h-20zM468 864v14h60v-14l-159 -121h-20z" />
    <glyph glyph-name="ohungarumlaut" unicode="&#x151;" 
d="M622 432v-334q0 -44 -26 -71t-68 -27h-57v6q40 30 40 84v141h-18v-141q0 -41 -27 -65.5t-71 -24.5h-247q-47 0 -72.5 25.5t-25.5 72.5v334q0 44 26 71t68 27h57v-6q-40 -30 -40 -84v-141h18v141q0 41 27 65.5t71 24.5h247q47 0 72.5 -25.5t25.5 -72.5zM277 25h118
q73 0 73 73v334q0 73 -73 73h-118q-73 0 -73 -73v-334q0 -73 73 -73zM406 265l-15 -9q-24 -15 -45 -44l-10 -14l-10 14q-19 29 -45 44l-14 9l14 9q27 16 45 44l10 14l10 -14q20 -28 45 -44zM310 694v14h60v-14l-152 -121h-20zM417 694v14h60v-14l-159 -121h-20z" />
    <glyph glyph-name="OE" unicode="&#x152;" horiz-adv-x="987" 
d="M277 700h261v-6q-17 -11 -28.5 -35.5t-11.5 -48.5v-128h18v128q0 41 28 65.5t70 24.5h323v-225h-25v200h-305q-66 -5 -66 -73v-227h396v-25h-396v-252q0 -68 66 -73h305v200h25v-225h-330q-40 2 -65.5 26.5t-25.5 63.5v128h-18v-128q0 -24 11.5 -48.5t28.5 -35.5v-6h-390
q-47 0 -72.5 25.5t-25.5 72.5v504q0 44 26 71t68 27h57v-6q-40 -30 -40 -84v-141h18v141q0 41 27 65.5t71 24.5zM387 421v254h-110q-73 0 -73 -73v-504q0 -73 73 -73h110v254l-10 15q-22 31 -48 47l-15 9l15 9q27 17 48 47z" />
    <glyph glyph-name="oe" unicode="&#x153;" horiz-adv-x="1089" 
d="M144 530h57v-6q-40 -30 -40 -84v-141h18v141q0 41 27 65.5t71 24.5h341v-6q-18 -12 -29 -36.5t-11 -47.5v-141h19v141q0 41 27.5 65.5t70.5 24.5h246q47 0 72.5 -25.5t25.5 -72.5v-130q0 -47 -25.5 -72.5t-72.5 -25.5h-319v-106q0 -73 73 -73h246q73 0 73 73v44h25v-52
q0 -41 -27 -65.5t-71 -24.5h-470v6q19 12 29.5 36.5t10.5 47.5v141h-18v-141q0 -41 -28 -65.5t-70 -24.5h-247q-47 0 -72.5 25.5t-25.5 72.5v334q0 44 26 71t68 27zM204 432v-334q0 -73 73 -73h118q73 0 73 73v334q0 73 -73 73h-118q-73 0 -73 -73zM622 432v-203h190
q73 0 73 73v130q0 73 -73 73h-117q-73 0 -73 -73zM267 265l14 9q27 16 45 44l10 14l10 -14q20 -28 45 -44l15 -9l-15 -9q-24 -15 -45 -44l-10 -14l-10 14q-19 29 -45 44z" />
    <glyph glyph-name="Racute" unicode="&#x154;" horiz-adv-x="935" 
d="M10 700h656q114 0 114 -114v-112q0 -41 -28.5 -65.5t-74.5 -24.5h-30q62 -21 91 -112l82 -247h105v-25h-354v25h95l-85 257q-13 42 -26 57.5t-47 15.5h-171q-44 0 -71 24.5t-27 65.5v64h-18v-64q0 -49 32 -78.5t84 -29.5v-25q-73 0 -73 -73v-214h100v-25h-354v25h100v650
h-100v25zM626 482v103q0 90 -90 90h-272v-222q0 -73 73 -73h174q40 -1 60.5 -23.5t34.5 -66.5l32 -109h19l-32 109q-23 75 -72 94v25q73 0 73 73zM533 872h21v-60h-21l-133 -69h-20z" />
    <glyph glyph-name="racute" unicode="&#x155;" horiz-adv-x="556" 
d="M110 25v480h-100v25h251v-6q-40 -30 -40 -84v-243h18v243q0 41 27 65.5t71 24.5h71q98 0 98 -98v-113h-25v113q0 73 -73 73h-71q-73 0 -73 -73v-407h93v-25h-347v25h100zM355 702h21v-60h-21l-133 -69h-20z" />
    <glyph glyph-name="uni0156" unicode="&#x156;" horiz-adv-x="935" 
d="M10 700h656q114 0 114 -114v-112q0 -41 -28.5 -65.5t-74.5 -24.5h-30q62 -21 91 -112l82 -247h105v-25h-354v25h95l-85 257q-13 42 -26 57.5t-47 15.5h-171q-44 0 -71 24.5t-27 65.5v64h-18v-64q0 -49 32 -78.5t84 -29.5v-25q-73 0 -73 -73v-214h100v-25h-354v25h100v650
h-100v25zM626 482v103q0 90 -90 90h-272v-222q0 -73 73 -73h174q40 -1 60.5 -23.5t34.5 -66.5l32 -109h19l-32 109q-23 75 -72 94v25q73 0 73 73zM407 -92q0 28 16.5 45t44.5 17q27 0 43.5 -17t16.5 -45v-62q0 -37 -20.5 -57.5t-57.5 -20.5h-43v25h43q25 0 39 14t14 39v11
q-15 -10 -35 -10q-28 0 -44.5 16.5t-16.5 44.5z" />
    <glyph glyph-name="uni0157" unicode="&#x157;" horiz-adv-x="556" 
d="M110 25v480h-100v25h251v-6q-40 -30 -40 -84v-243h18v243q0 41 27 65.5t71 24.5h71q98 0 98 -98v-113h-25v113q0 73 -73 73h-71q-73 0 -73 -73v-407h93v-25h-347v25h100zM123 -92q0 28 16.5 45t44.5 17q27 0 43.5 -17t16.5 -45v-62q0 -37 -20.5 -57.5t-57.5 -20.5h-43v25
h43q25 0 39 14t14 39v11q-15 -10 -35 -10q-28 0 -44.5 16.5t-16.5 44.5z" />
    <glyph glyph-name="Rcaron" unicode="&#x158;" horiz-adv-x="935" 
d="M10 700h656q114 0 114 -114v-112q0 -41 -28.5 -65.5t-74.5 -24.5h-30q62 -21 91 -112l82 -247h105v-25h-354v25h95l-85 257q-13 42 -26 57.5t-47 15.5h-171q-44 0 -71 24.5t-27 65.5v64h-18v-64q0 -49 32 -78.5t84 -29.5v-25q-73 0 -73 -73v-214h100v-25h-354v25h100v650
h-100v25zM626 482v103q0 90 -90 90h-272v-222q0 -73 73 -73h174q40 -1 60.5 -23.5t34.5 -66.5l32 -109h19l-32 109q-23 75 -72 94v25q73 0 73 73zM452 753l-131 129h20l111 -76h31l109 76h20l-129 -129h-31z" />
    <glyph glyph-name="rcaron" unicode="&#x159;" horiz-adv-x="556" 
d="M110 25v480h-100v25h251v-6q-40 -30 -40 -84v-243h18v243q0 41 27 65.5t71 24.5h71q98 0 98 -98v-113h-25v113q0 73 -73 73h-71q-73 0 -73 -73v-407h93v-25h-347v25h100zM274 583l-131 129h20l111 -76h31l109 76h20l-129 -129h-31z" />
    <glyph glyph-name="Sacute" unicode="&#x15a;" horiz-adv-x="760" 
d="M204 585v-149q0 -73 73 -73h206q44 0 71 -24.5t27 -65.5v-91h19v91q0 49 -32 78.5t-85 29.5h-206v25h315q53 0 85.5 -38.5t32.5 -102.5v-147q0 -118 -118 -118h-542v200h25v-175h391q90 0 90 90v150q0 73 -73 73h-206q-44 0 -71 24.5t-27 65.5v91h-18v-91q0 -49 32 -78.5
t84 -29.5h206v-25h-315q-53 0 -85.5 38.5t-32.5 102.5v146q0 118 118 118h542v-180h-25v155h-391q-90 0 -90 -90zM446 872h21v-60h-21l-133 -69h-20z" />
    <glyph glyph-name="sacute" unicode="&#x15b;" 
d="M622 505h-328q-90 0 -90 -90v-65q0 -73 73 -73h118q44 0 71 -24.5t27 -65.5v-64h18v64q0 49 -32 78.5t-84 29.5v19h30q89 0 143 -37t54 -98v-65q0 -114 -114 -114h-458v25h328q90 0 90 90v64q0 73 -73 73h-118q-44 0 -71 24.5t-27 65.5v64h-18v-64q0 -49 32 -78.5
t84 -29.5v-19h-30q-89 0 -143 37t-54 98v66q0 114 114 114h458v-25zM402 702h21v-60h-21l-133 -69h-20z" />
    <glyph glyph-name="Scircumflex" unicode="&#x15c;" horiz-adv-x="760" 
d="M204 585v-149q0 -73 73 -73h206q44 0 71 -24.5t27 -65.5v-91h19v91q0 49 -32 78.5t-85 29.5h-206v25h315q53 0 85.5 -38.5t32.5 -102.5v-147q0 -118 -118 -118h-542v200h25v-175h391q90 0 90 90v150q0 73 -73 73h-206q-44 0 -71 24.5t-27 65.5v91h-18v-91q0 -49 32 -78.5
t84 -29.5h206v-25h-315q-53 0 -85.5 38.5t-32.5 102.5v146q0 118 118 118h542v-180h-25v155h-391q-90 0 -90 -90zM254 743h-20l131 129h31l129 -129h-20l-109 76h-31z" />
    <glyph glyph-name="scircumflex" unicode="&#x15d;" 
d="M622 505h-328q-90 0 -90 -90v-65q0 -73 73 -73h118q44 0 71 -24.5t27 -65.5v-64h18v64q0 49 -32 78.5t-84 29.5v19h30q89 0 143 -37t54 -98v-65q0 -114 -114 -114h-458v25h328q90 0 90 90v64q0 73 -73 73h-118q-44 0 -71 24.5t-27 65.5v64h-18v-64q0 -49 32 -78.5
t84 -29.5v-19h-30q-89 0 -143 37t-54 98v66q0 114 114 114h458v-25zM210 573h-20l131 129h31l129 -129h-20l-109 76h-31z" />
    <glyph glyph-name="Scedilla" unicode="&#x15e;" horiz-adv-x="760" 
d="M371 -58h-29l35 58h-327v200h25v-175h391q90 0 90 90v150q0 73 -73 73h-206q-44 0 -71 24.5t-27 65.5v91h-18v-91q0 -49 32 -78.5t84 -29.5h206v-25h-315q-53 0 -85.5 38.5t-32.5 102.5v146q0 118 118 118h542v-180h-25v155h-391q-90 0 -90 -90v-149q0 -73 73 -73h206
q44 0 71 -24.5t27 -65.5v-91h19v91q0 49 -32 78.5t-85 29.5h-206v25h315q53 0 85.5 -38.5t32.5 -102.5v-147q0 -118 -118 -118h-192l-25 -41h5q30 0 50.5 -19t20.5 -49q0 -33 -23 -54t-60 -21q-45 0 -88 35l28 44q27 -22 60 -22q18 0 28.5 10.5t10.5 26.5q0 32 -36 32z" />
    <glyph glyph-name="scedilla" unicode="&#x15f;" 
d="M328 -58h-29l35 58h-284v25h328q90 0 90 90v64q0 73 -73 73h-118q-44 0 -71 24.5t-27 65.5v64h-18v-64q0 -49 32 -78.5t84 -29.5v-19h-30q-89 0 -143 37t-54 98v66q0 114 114 114h458v-25h-328q-90 0 -90 -90v-65q0 -73 73 -73h118q44 0 71 -24.5t27 -65.5v-64h18v64
q0 49 -32 78.5t-84 29.5v19h30q89 0 143 -37t54 -98v-65q0 -114 -114 -114h-151l-25 -41h5q30 0 50.5 -19t20.5 -49q0 -33 -23 -54t-60 -21q-45 0 -88 35l28 44q27 -22 60 -22q18 0 28.5 10.5t10.5 26.5q0 32 -36 32z" />
    <glyph glyph-name="Scaron" unicode="&#x160;" horiz-adv-x="760" 
d="M204 585v-149q0 -73 73 -73h206q44 0 71 -24.5t27 -65.5v-91h19v91q0 49 -32 78.5t-85 29.5h-206v25h315q53 0 85.5 -38.5t32.5 -102.5v-147q0 -118 -118 -118h-542v200h25v-175h391q90 0 90 90v150q0 73 -73 73h-206q-44 0 -71 24.5t-27 65.5v91h-18v-91q0 -49 32 -78.5
t84 -29.5h206v-25h-315q-53 0 -85.5 38.5t-32.5 102.5v146q0 118 118 118h542v-180h-25v155h-391q-90 0 -90 -90zM365 753l-131 129h20l111 -76h31l109 76h20l-129 -129h-31z" />
    <glyph glyph-name="scaron" unicode="&#x161;" 
d="M622 505h-328q-90 0 -90 -90v-65q0 -73 73 -73h118q44 0 71 -24.5t27 -65.5v-64h18v64q0 49 -32 78.5t-84 29.5v19h30q89 0 143 -37t54 -98v-65q0 -114 -114 -114h-458v25h328q90 0 90 90v64q0 73 -73 73h-118q-44 0 -71 24.5t-27 65.5v64h-18v-64q0 -49 32 -78.5
t84 -29.5v-19h-30q-89 0 -143 37t-54 98v66q0 114 114 114h458v-25zM321 583l-131 129h20l111 -76h31l109 76h20l-129 -129h-31z" />
    <glyph glyph-name="uni0162" unicode="&#x162;" horiz-adv-x="731" 
d="M357 -58h-29l35 58h-175v25h100v650h-253v-200h-25v225h429v-6q-40 -30 -40 -84v-128h18v128q0 41 27 65.5t71 24.5h206v-225h-25v200h-181q-73 0 -73 -73v-577h94v-25h-150l-25 -41h5q30 0 50.5 -19t20.5 -49q0 -33 -23 -54t-60 -21q-45 0 -88 35l28 44q27 -22 60 -22
q18 0 28.5 10.5t10.5 26.5q0 32 -36 32z" />
    <glyph glyph-name="uni0163" unicode="&#x163;" horiz-adv-x="542" 
d="M304 -58h-29l35 58h-116q-98 0 -98 98v379h109v18h-195v25h8q47 0 89 24t67 68l53 88h23v-180h236v-25h-236v-397q0 -73 73 -73h71q73 0 73 73v152h25v-152q0 -98 -98 -98h-61l-25 -41h5q30 0 50.5 -19t20.5 -49q0 -33 -23 -54t-60 -21q-45 0 -88 35l28 44q27 -22 60 -22
q18 0 28.5 10.5t10.5 26.5q0 32 -36 32z" />
    <glyph glyph-name="Tcaron" unicode="&#x164;" horiz-adv-x="731" 
d="M399 482h18v128q0 41 27 65.5t71 24.5h206v-225h-25v200h-181q-73 0 -73 -73v-577h94v-25h-348v25h100v650h-253v-200h-25v225h429v-6q-40 -30 -40 -84v-128zM350 753l-131 129h20l111 -76h31l109 76h20l-129 -129h-31z" />
    <glyph glyph-name="tcaron" unicode="&#x165;" horiz-adv-x="542" 
d="M250 495v-397q0 -73 73 -73h71q73 0 73 73v152h25v-152q0 -98 -98 -98h-200q-98 0 -98 98v379h109v18h-195v25h8q47 0 89 24t67 68l53 88h23v-180h236v-25h-236zM338 714q0 28 16.5 45t44.5 17q27 0 43.5 -17t16.5 -45v-63q0 -37 -20.5 -57.5t-57.5 -20.5h-43v25h43
q25 0 39 14t14 39v12q-14 -11 -35 -11q-28 0 -44.5 17t-16.5 45z" />
    <glyph glyph-name="Tbar" unicode="&#x166;" horiz-adv-x="731" 
d="M197 338v25h91v312h-253v-200h-25v225h429v-6q-40 -30 -40 -84v-128h18v128q0 41 27 65.5t71 24.5h206v-225h-25v200h-181q-73 0 -73 -73v-239h94v-25h-94v-313h94v-25h-348v25h100v313h-91z" />
    <glyph glyph-name="tbar" unicode="&#x167;" horiz-adv-x="542" 
d="M4 268v25h92v184h109v18h-195v25h8q47 0 89 24t67 68l53 88h23v-180h236v-25h-236v-202h93v-25h-93v-170q0 -73 73 -73h71q73 0 73 73v152h25v-152q0 -98 -98 -98h-200q-98 0 -98 98v170h-92z" />
    <glyph glyph-name="Utilde" unicode="&#x168;" horiz-adv-x="838" 
d="M110 98v577h-100v25h357v-25h-103v-577q0 -73 73 -73h293q73 0 73 73v577h-100v25h225v-25h-100v-577q0 -47 -25.5 -72.5t-72.5 -25.5h-293q-44 0 -71 24.5t-27 65.5v141h-18v-141q0 -54 40 -84v-6h-57q-42 0 -68 27t-26 71zM281 743h-20l10 37q13 44 31.5 66.5
t53.5 22.5q32 0 61 -20.5t53 -41t41 -20.5q16 0 24 11t14 34l10 36h20l-10 -36q-13 -44 -32 -66.5t-54 -22.5q-33 0 -61.5 21.5t-52 43t-41.5 21.5q-16 0 -23 -11.5t-14 -37.5z" />
    <glyph glyph-name="utilde" unicode="&#x169;" horiz-adv-x="772" 
d="M561 90v141h-18v-141q0 -41 -27 -65.5t-71 -24.5h-247q-98 0 -98 98v407h-90v25h334v-25h-90v-407q0 -73 73 -73h118q73 0 73 73v407h-90v25h334v-25h-90v-480h90v-25h-241v6q40 30 40 84zM248 573h-20l10 37q13 44 31.5 66.5t53.5 22.5q32 0 61 -20.5t52.5 -41
t41.5 -20.5q16 0 24 11t14 34l10 36h20l-10 -36q-13 -44 -32 -66.5t-54 -22.5q-32 0 -61 21.5t-52.5 43t-41.5 21.5q-11 0 -18.5 -7.5t-10.5 -15.5t-8 -26z" />
    <glyph glyph-name="Umacron" unicode="&#x16a;" horiz-adv-x="838" 
d="M110 98v577h-100v25h357v-25h-103v-577q0 -73 73 -73h293q73 0 73 73v577h-100v25h225v-25h-100v-577q0 -47 -25.5 -72.5t-72.5 -25.5h-293q-44 0 -71 24.5t-27 65.5v141h-18v-141q0 -54 40 -84v-6h-57q-42 0 -68 27t-26 71zM542 770h-245v25h245v-25z" />
    <glyph glyph-name="umacron" unicode="&#x16b;" horiz-adv-x="772" 
d="M561 90v141h-18v-141q0 -41 -27 -65.5t-71 -24.5h-247q-98 0 -98 98v407h-90v25h334v-25h-90v-407q0 -73 73 -73h118q73 0 73 73v407h-90v25h334v-25h-90v-480h90v-25h-241v6q40 30 40 84zM508 600h-245v25h245v-25z" />
    <glyph glyph-name="Ubreve" unicode="&#x16c;" horiz-adv-x="838" 
d="M110 98v577h-100v25h357v-25h-103v-577q0 -73 73 -73h293q73 0 73 73v577h-100v25h225v-25h-100v-577q0 -47 -25.5 -72.5t-72.5 -25.5h-293q-44 0 -71 24.5t-27 65.5v141h-18v-141q0 -54 40 -84v-6h-57q-42 0 -68 27t-26 71zM291 846l-12 26h20l14 -26q12 -20 41 -33
t67 -13q39 0 68 13t41 33l13 26h20l-12 -26q-52 -103 -129 -103q-40 0 -73.5 28t-57.5 75z" />
    <glyph glyph-name="ubreve" unicode="&#x16d;" horiz-adv-x="772" 
d="M561 90v141h-18v-141q0 -41 -27 -65.5t-71 -24.5h-247q-98 0 -98 98v407h-90v25h334v-25h-90v-407q0 -73 73 -73h118q73 0 73 73v407h-90v25h334v-25h-90v-480h90v-25h-241v6q40 30 40 84zM257 676l-12 26h20l14 -26q12 -20 41 -33t67 -13q39 0 68 13t41 33l13 26h20
l-12 -26q-52 -103 -129 -103q-40 0 -73.5 28t-57.5 75z" />
    <glyph glyph-name="Uring" unicode="&#x16e;" horiz-adv-x="838" 
d="M110 98v577h-100v25h357v-25h-103v-577q0 -73 73 -73h293q73 0 73 73v577h-100v25h225v-25h-100v-577q0 -47 -25.5 -72.5t-72.5 -25.5h-293q-44 0 -71 24.5t-27 65.5v141h-18v-141q0 -54 40 -84v-6h-57q-42 0 -68 27t-26 71zM419 743l-108 78l108 78l107 -78zM419 879
l-78 -58l78 -58l77 58z" />
    <glyph glyph-name="uring" unicode="&#x16f;" horiz-adv-x="772" 
d="M561 90v141h-18v-141q0 -41 -27 -65.5t-71 -24.5h-247q-98 0 -98 98v407h-90v25h334v-25h-90v-407q0 -73 73 -73h118q73 0 73 73v407h-90v25h334v-25h-90v-480h90v-25h-241v6q40 30 40 84zM385 573l-108 78l108 78l107 -78zM385 709l-78 -58l78 -58l77 58z" />
    <glyph glyph-name="Uhungarumlaut" unicode="&#x170;" horiz-adv-x="838" 
d="M110 98v577h-100v25h357v-25h-103v-577q0 -73 73 -73h293q73 0 73 73v577h-100v25h225v-25h-100v-577q0 -47 -25.5 -72.5t-72.5 -25.5h-293q-44 0 -71 24.5t-27 65.5v141h-18v-141q0 -54 40 -84v-6h-57q-42 0 -68 27t-26 71zM393 864v14h60v-14l-152 -121h-20zM500 864
v14h60v-14l-159 -121h-20z" />
    <glyph glyph-name="uhungarumlaut" unicode="&#x171;" horiz-adv-x="772" 
d="M561 90v141h-18v-141q0 -41 -27 -65.5t-71 -24.5h-247q-98 0 -98 98v407h-90v25h334v-25h-90v-407q0 -73 73 -73h118q73 0 73 73v407h-90v25h334v-25h-90v-480h90v-25h-241v6q40 30 40 84zM359 694v14h60v-14l-152 -121h-20zM466 694v14h60v-14l-159 -121h-20z" />
    <glyph glyph-name="Uogonek" unicode="&#x172;" horiz-adv-x="838" 
d="M630 0l-26 -31q-23 -31 -23 -58q0 -16 11 -24.5t26 -8.5q31 0 56 31l29 -51q-41 -42 -89 -42q-32 0 -54.5 20.5t-22.5 50.5q0 37 42 83l28 30h-270q-44 0 -71 24.5t-27 65.5v141h-18v-141q0 -54 40 -84v-6h-57q-42 0 -68 27t-26 71v577h-100v25h357v-25h-103v-577
q0 -73 73 -73h293q73 0 73 73v577h-100v25h225v-25h-100v-577q0 -47 -25.5 -72.5t-72.5 -25.5z" />
    <glyph glyph-name="uogonek" unicode="&#x173;" horiz-adv-x="772" 
d="M762 0h-90l-26 -31q-23 -31 -23 -58q0 -16 11 -24.5t26 -8.5q31 0 56 31l29 -51q-41 -42 -89 -42q-32 0 -54.5 20.5t-22.5 50.5q0 37 42 83l28 30h-128v6q40 30 40 84v141h-18v-141q0 -41 -27 -65.5t-71 -24.5h-247q-98 0 -98 98v407h-90v25h334v-25h-90v-407
q0 -73 73 -73h118q73 0 73 73v407h-90v25h334v-25h-90v-480h90v-25z" />
    <glyph glyph-name="Wcircumflex" unicode="&#x174;" horiz-adv-x="1339" 
d="M367 675h-98l117 -577q8 -39 23 -56t50 -17h53q35 0 50.5 17t22.5 56l123 602h53l122 -602q8 -39 23 -56t50 -17h53q35 0 50 17t23 56l117 577h-104v25h234v-25h-105l-117 -577q-10 -51 -31.5 -74.5t-66.5 -23.5h-53q-81 0 -98 90l-29 141h-19l30 -141q11 -63 40 -84v-6
h-57q-74 0 -94 98l-59 303l-60 -303q-10 -51 -31.5 -74.5t-66.5 -23.5h-53q-81 0 -98 90l-29 141h-18l29 -141q11 -63 40 -84v-6h-57q-74 0 -94 98l-117 577h-105v25h357v-25zM544 743h-20l131 129h31l129 -129h-20l-109 76h-31z" />
    <glyph glyph-name="wcircumflex" unicode="&#x175;" horiz-adv-x="1096" 
d="M364 505h-98l48 -407q5 -38 21 -55.5t52 -17.5h53q36 0 52 17.5t21 55.5l50 425h99l50 -425q5 -38 21 -55.5t52 -17.5h53q36 0 52 17.5t21 55.5l49 407h-121v25h247v-25h-101l-49 -407q-11 -98 -98 -98h-53q-85 0 -98 90l-20 141h-18l20 -141q9 -61 40 -84v-6h-57
q-81 0 -94 98l-9 96l-11 -96q-11 -98 -98 -98h-53q-43 0 -68 24t-30 66l-20 141h-18l20 -141q7 -60 40 -84v-6h-57q-41 0 -65 26t-29 72l-48 407h-102v25h354v-25zM423 573h-20l131 129h31l129 -129h-20l-109 76h-31z" />
    <glyph glyph-name="Ycircumflex" unicode="&#x176;" horiz-adv-x="937" 
d="M119 675h-109v25h354v-25h-91l110 -294q8 -24 12 -33t12 -21t19.5 -15.5t29.5 -3.5h153q32 0 44 13.5t26 51.5q1 2 1 3t1 2.5t1 2.5l109 294h-101v25h237v-25h-109l-109 -294q-11 -29 -17 -43t-17.5 -29t-27 -20.5t-38.5 -5.5h-153q-41 0 -61.5 22.5t-36.5 67.5l-53 141
h-18l52 -141q38 -108 117 -108h90v-240h100v-25h-354v25h100v216q-51 3 -96 41.5t-67 98.5zM343 743h-20l131 129h31l129 -129h-20l-109 76h-31z" />
    <glyph glyph-name="ycircumflex" unicode="&#x177;" horiz-adv-x="805" 
d="M568 25l98 480h-119v25h248v-25h-104l-125 -607q-11 -50 -32 -74t-66 -24h-86q-80 0 -98 90l-12 55h-18l11 -55q13 -63 40 -84v-6h-56q-76 0 -94 98l-17 83h154l17 -83q8 -39 23 -56t50 -17h86q35 0 50 17t23 56l21 102h-138q-81 0 -98 90l-30 141h-18l29 -141
q13 -63 40 -84v-6h-56q-74 0 -94 98l-83 407h-104v25h354v-25h-96l83 -407q7 -39 22.5 -56t50.5 -17h144zM276 573h-20l131 129h31l129 -129h-20l-109 76h-31z" />
    <glyph glyph-name="Ydieresis" unicode="&#x178;" horiz-adv-x="937" 
d="M119 675h-109v25h354v-25h-91l110 -294q8 -24 12 -33t12 -21t19.5 -15.5t29.5 -3.5h153q32 0 44 13.5t26 51.5q1 2 1 3t1 2.5t1 2.5l109 294h-101v25h237v-25h-109l-109 -294q-11 -29 -17 -43t-17.5 -29t-27 -20.5t-38.5 -5.5h-153q-41 0 -61.5 22.5t-36.5 67.5l-53 141
h-18l52 -141q38 -108 117 -108h90v-240h100v-25h-354v25h100v216q-51 3 -96 41.5t-67 98.5zM451 825l-14 -8q-29 -19 -48 -48l-10 -14l-10 14q-22 31 -49 48l-14 8l14 9q27 16 49 48l10 14l10 -14q19 -30 48 -48zM631 825l-14 -8q-29 -19 -48 -48l-10 -14l-10 14
q-22 31 -49 48l-14 8l14 9q27 16 49 48l10 14l10 -14q19 -30 48 -48z" />
    <glyph glyph-name="Zacute" unicode="&#x179;" horiz-adv-x="710" 
d="M50 153v135l540 259q45 23 45 53v15q0 60 -60 60h-525v25h525q85 0 85 -85v-14q0 -16 -5 -28t-17.5 -22.5t-20.5 -15.5t-28 -15l-198 -93v-18l179 83q65 29 84 55h6v-135l-540 -259q-45 -23 -45 -53v-15q0 -60 60 -60h525v-25h-525q-85 0 -85 85v14q0 16 5 28t17.5 22.5
t20.5 15.5t28 15l198 93v18l-179 -83q-65 -29 -84 -55h-6zM421 872h21v-60h-21l-133 -69h-20z" />
    <glyph glyph-name="zacute" unicode="&#x17a;" horiz-adv-x="623" 
d="M23 163v123l507 93q20 4 32.5 18.5t12.5 34.5v13q0 60 -60 60h-492v25h492q85 0 85 -85v-13q0 -63 -71 -78l-160 -29v-19l141 25q61 9 84 36h6v-123l-507 -93q-20 -4 -32.5 -18.5t-12.5 -34.5v-13q0 -60 60 -60h492v-25h-492q-85 0 -85 85v13q0 63 71 78l160 29v19
l-141 -25q-63 -11 -84 -36h-6zM349 702h21v-60h-21l-133 -69h-20z" />
    <glyph glyph-name="Zdotaccent" unicode="&#x17b;" horiz-adv-x="710" 
d="M50 153v135l540 259q45 23 45 53v15q0 60 -60 60h-525v25h525q85 0 85 -85v-14q0 -16 -5 -28t-17.5 -22.5t-20.5 -15.5t-28 -15l-198 -93v-18l179 83q65 29 84 55h6v-135l-540 -259q-45 -23 -45 -53v-15q0 -60 60 -60h525v-25h-525q-85 0 -85 85v14q0 16 5 28t17.5 22.5
t20.5 15.5t28 15l198 93v18l-179 -83q-65 -29 -84 -55h-6zM428 815l-14 -8q-29 -19 -48 -48l-10 -14l-10 14q-22 31 -49 48l-14 8l14 9q27 16 49 48l10 14l10 -14q20 -30 48 -48z" />
    <glyph glyph-name="zdotaccent" unicode="&#x17c;" horiz-adv-x="623" 
d="M23 163v123l507 93q20 4 32.5 18.5t12.5 34.5v13q0 60 -60 60h-492v25h492q85 0 85 -85v-13q0 -63 -71 -78l-160 -29v-19l141 25q61 9 84 36h6v-123l-507 -93q-20 -4 -32.5 -18.5t-12.5 -34.5v-13q0 -60 60 -60h492v-25h-492q-85 0 -85 85v13q0 63 71 78l160 29v19
l-141 -25q-63 -11 -84 -36h-6zM356 645l-14 -8q-29 -19 -48 -48l-10 -14l-10 14q-22 31 -49 48l-14 8l14 9q27 16 49 48l10 14l10 -14q20 -30 48 -48z" />
    <glyph glyph-name="Zcaron" unicode="&#x17d;" horiz-adv-x="710" 
d="M50 153v135l540 259q45 23 45 53v15q0 60 -60 60h-525v25h525q85 0 85 -85v-14q0 -16 -5 -28t-17.5 -22.5t-20.5 -15.5t-28 -15l-198 -93v-18l179 83q65 29 84 55h6v-135l-540 -259q-45 -23 -45 -53v-15q0 -60 60 -60h525v-25h-525q-85 0 -85 85v14q0 16 5 28t17.5 22.5
t20.5 15.5t28 15l198 93v18l-179 -83q-65 -29 -84 -55h-6zM340 753l-131 129h20l111 -76h31l109 76h20l-129 -129h-31z" />
    <glyph glyph-name="zcaron" unicode="&#x17e;" horiz-adv-x="623" 
d="M23 163v123l507 93q20 4 32.5 18.5t12.5 34.5v13q0 60 -60 60h-492v25h492q85 0 85 -85v-13q0 -63 -71 -78l-160 -29v-19l141 25q61 9 84 36h6v-123l-507 -93q-20 -4 -32.5 -18.5t-12.5 -34.5v-13q0 -60 60 -60h492v-25h-492q-85 0 -85 85v13q0 63 71 78l160 29v19
l-141 -25q-63 -11 -84 -36h-6zM268 583l-131 129h20l111 -76h31l109 76h20l-129 -129h-31z" />
    <glyph glyph-name="longs" unicode="&#x17f;" horiz-adv-x="374" 
d="M10 0v25h100v430q0 245 245 245h9v-25h-10q-90 0 -90 -90v-560h100v-25h-354z" />
    <glyph glyph-name="florin" unicode="&#x192;" horiz-adv-x="855" 
d="M540 602l-14 -82h236l-5 -25h-236l-105 -597q-17 -98 -115 -98h-147q-98 0 -81 98l7 41h25l-7 -41q-13 -73 60 -73h18q73 0 86 73l102 579h110l2 18h-209l5 25h100l14 82q18 98 115 98h200q99 0 81 -98l-7 -41h-25l7 41q13 73 -60 73h-71q-73 0 -86 -73z" />
    <glyph glyph-name="uni0218" unicode="&#x218;" horiz-adv-x="760" 
d="M204 585v-149q0 -73 73 -73h206q44 0 71 -24.5t27 -65.5v-91h19v91q0 49 -32 78.5t-85 29.5h-206v25h315q53 0 85.5 -38.5t32.5 -102.5v-147q0 -118 -118 -118h-542v200h25v-175h391q90 0 90 90v150q0 73 -73 73h-206q-44 0 -71 24.5t-27 65.5v91h-18v-91q0 -49 32 -78.5
t84 -29.5h206v-25h-315q-53 0 -85.5 38.5t-32.5 102.5v146q0 118 118 118h542v-180h-25v155h-391q-90 0 -90 -90zM320 -92q0 28 16.5 45t44.5 17q27 0 43.5 -17t16.5 -45v-62q0 -37 -20.5 -57.5t-57.5 -20.5h-43v25h43q25 0 39 14t14 39v11q-15 -10 -35 -10
q-28 0 -44.5 16.5t-16.5 44.5z" />
    <glyph glyph-name="uni0219" unicode="&#x219;" 
d="M622 505h-328q-90 0 -90 -90v-65q0 -73 73 -73h118q44 0 71 -24.5t27 -65.5v-64h18v64q0 49 -32 78.5t-84 29.5v19h30q89 0 143 -37t54 -98v-65q0 -114 -114 -114h-458v25h328q90 0 90 90v64q0 73 -73 73h-118q-44 0 -71 24.5t-27 65.5v64h-18v-64q0 -49 32 -78.5
t84 -29.5v-19h-30q-89 0 -143 37t-54 98v66q0 114 114 114h458v-25zM277 -92q0 28 16.5 45t44.5 17q27 0 43.5 -17t16.5 -45v-62q0 -37 -20.5 -57.5t-57.5 -20.5h-43v25h43q25 0 39 14t14 39v11q-15 -10 -35 -10q-28 0 -44.5 16.5t-16.5 44.5z" />
    <glyph glyph-name="uni021A" unicode="&#x21a;" horiz-adv-x="731" 
d="M399 482h18v128q0 41 27 65.5t71 24.5h206v-225h-25v200h-181q-73 0 -73 -73v-577h94v-25h-348v25h100v650h-253v-200h-25v225h429v-6q-40 -30 -40 -84v-128zM305 -92q0 28 16.5 45t44.5 17q27 0 43.5 -17t16.5 -45v-62q0 -37 -20.5 -57.5t-57.5 -20.5h-43v25h43
q25 0 39 14t14 39v11q-15 -10 -35 -10q-28 0 -44.5 16.5t-16.5 44.5z" />
    <glyph glyph-name="uni021B" unicode="&#x21b;" horiz-adv-x="542" 
d="M250 495v-397q0 -73 73 -73h71q73 0 73 73v152h25v-152q0 -98 -98 -98h-200q-98 0 -98 98v379h109v18h-195v25h8q47 0 89 24t67 68l53 88h23v-180h236v-25h-236zM252 -92q0 28 16.5 45t44.5 17q27 0 43.5 -17t16.5 -45v-62q0 -37 -20.5 -57.5t-57.5 -20.5h-43v25h43
q25 0 39 14t14 39v11q-15 -10 -35 -10q-28 0 -44.5 16.5t-16.5 44.5z" />
    <glyph glyph-name="uni0237" unicode="&#x237;" horiz-adv-x="327" 
d="M264 530v-485q0 -245 -245 -245h-9v25h10q90 0 90 90v517q0 73 -73 73h-27v25h27q44 0 71 -24.5t27 -65.5v-141h18v141q0 55 -40 84v6h151z" />
    <glyph glyph-name="circumflex" unicode="&#x2c6;" horiz-adv-x="431" 
d="M90 573h-20l131 129h31l129 -129h-20l-109 76h-31z" />
    <glyph glyph-name="caron" unicode="&#x2c7;" horiz-adv-x="431" 
d="M201 573l-131 129h20l111 -76h31l109 76h20l-129 -129h-31z" />
    <glyph glyph-name="breve" unicode="&#x2d8;" horiz-adv-x="424" 
d="M82 676l-12 26h20l14 -26q12 -20 41 -33t67 -13q39 0 68 13t41 33l13 26h20l-12 -26q-52 -103 -129 -103q-40 0 -73.5 28t-57.5 75z" />
    <glyph glyph-name="dotaccent" unicode="&#x2d9;" horiz-adv-x="285" 
d="M215 645l-14 -8q-29 -19 -48 -48l-10 -14l-10 14q-22 31 -49 48l-14 8l14 9q27 16 49 48l10 14l10 -14q19 -30 48 -48z" />
    <glyph glyph-name="ring" unicode="&#x2da;" horiz-adv-x="355" 
d="M178 573l-108 78l108 78l107 -78zM178 709l-78 -58l78 -58l77 58z" />
    <glyph glyph-name="ogonek" unicode="&#x2db;" horiz-adv-x="306" 
d="M140 0h23l-26 -31q-23 -31 -23 -58q0 -16 11 -24.5t26 -8.5q31 0 56 31l29 -51q-41 -42 -89 -42q-32 0 -54.5 20.5t-22.5 50.5q0 37 42 83z" />
    <glyph glyph-name="tilde" unicode="&#x2dc;" horiz-adv-x="468" 
d="M90 573h-20l10 37q13 44 31.5 66.5t53.5 22.5q32 0 61 -20.5t52.5 -41t41.5 -20.5q16 0 24 11t14 34l10 36h20l-10 -36q-13 -44 -32 -66.5t-54 -22.5q-32 0 -61 21.5t-52.5 43t-41.5 21.5q-11 0 -18.5 -7.5t-10.5 -15.5t-8 -26z" />
    <glyph glyph-name="hungarumlaut" unicode="&#x2dd;" horiz-adv-x="419" 
d="M182 694v14h60v-14l-152 -121h-20zM289 694v14h60v-14l-159 -121h-20z" />
    <glyph glyph-name="acutecomb" unicode="&#x301;" horiz-adv-x="0" 
d="M223 702h21v-60h-21l-133 -69h-20z" />
    <glyph glyph-name="uni0302" unicode="&#x302;" horiz-adv-x="0" 
d="M90 573h-20l131 129h31l129 -129h-20l-109 76h-31z" />
    <glyph glyph-name="tildecomb" unicode="&#x303;" horiz-adv-x="0" 
d="M90 573h-20l10 37q13 44 31.5 66.5t53.5 22.5q32 0 61 -20.5t52.5 -41t41.5 -20.5q16 0 24 11t14 34l10 36h20l-10 -36q-13 -44 -32 -66.5t-54 -22.5q-32 0 -61 21.5t-52.5 43t-41.5 21.5q-11 0 -18.5 -7.5t-10.5 -15.5t-8 -26z" />
    <glyph glyph-name="uni0304" unicode="&#x304;" horiz-adv-x="0" 
d="M315 600h-245v25h245v-25z" />
    <glyph glyph-name="uni0306" unicode="&#x306;" horiz-adv-x="0" 
d="M82 676l-12 26h20l14 -26q12 -20 41 -33t67 -13q39 0 68 13t41 33l13 26h20l-12 -26q-52 -103 -129 -103q-40 0 -73.5 28t-57.5 75z" />
    <glyph glyph-name="uni0307" unicode="&#x307;" horiz-adv-x="0" 
d="M215 645l-14 -8q-29 -19 -48 -48l-10 -14l-10 14q-22 31 -49 48l-14 8l14 9q27 16 49 48l10 14l10 -14q19 -30 48 -48z" />
    <glyph glyph-name="uni0308" unicode="&#x308;" horiz-adv-x="0" 
d="M215 645l-14 -8q-29 -19 -48 -48l-10 -14l-10 14q-22 31 -49 48l-14 8l14 9q27 16 49 48l10 14l10 -14q19 -30 48 -48zM395 645l-14 -8q-29 -19 -48 -48l-10 -14l-10 14q-22 31 -49 48l-14 8l14 9q27 16 49 48l10 14l10 -14q19 -30 48 -48z" />
    <glyph glyph-name="uni030A" unicode="&#x30a;" horiz-adv-x="0" 
d="M178 573l-108 78l108 78l107 -78zM178 709l-78 -58l78 -58l77 58z" />
    <glyph glyph-name="uni030B" unicode="&#x30b;" horiz-adv-x="0" 
d="M182 694v14h60v-14l-152 -121h-20zM289 694v14h60v-14l-159 -121h-20z" />
    <glyph glyph-name="uni030C" unicode="&#x30c;" horiz-adv-x="0" 
d="M201 573l-131 129h20l111 -76h31l109 76h20l-129 -129h-31z" />
    <glyph glyph-name="uni0312" unicode="&#x312;" horiz-adv-x="0" 
d="M191 635q0 -28 -16.5 -45t-44.5 -17q-27 0 -43.5 17t-16.5 45v63q0 37 20.5 57.5t57.5 20.5h43v-25h-43q-25 0 -39 -14t-14 -39v-12q14 11 35 11q28 0 44.5 -17t16.5 -45z" />
    <glyph glyph-name="uni0326" unicode="&#x326;" horiz-adv-x="0" 
d="M70 -92q0 28 16.5 45t44.5 17q27 0 43.5 -17t16.5 -45v-62q0 -37 -20.5 -57.5t-57.5 -20.5h-43v25h43q25 0 39 14t14 39v11q-15 -10 -35 -10q-28 0 -44.5 16.5t-16.5 44.5z" />
    <glyph glyph-name="uni0327" unicode="&#x327;" horiz-adv-x="0" 
d="M161 -58h-29l35 58h23l-25 -41h5q30 0 50.5 -19t20.5 -49q0 -33 -23 -54t-60 -21q-45 0 -88 35l28 44q27 -22 60 -22q18 0 28.5 10.5t10.5 26.5q0 32 -36 32z" />
    <glyph glyph-name="uni0328" unicode="&#x328;" horiz-adv-x="0" 
d="M140 0h23l-26 -31q-23 -31 -23 -58q0 -16 11 -24.5t26 -8.5q31 0 56 31l29 -51q-41 -42 -89 -42q-32 0 -54.5 20.5t-22.5 50.5q0 37 42 83z" />
    <glyph glyph-name="uni0335" unicode="&#x335;" horiz-adv-x="0" 
d="M37 253v25h339v-25h-339z" />
    <glyph glyph-name="uni0336" unicode="&#x336;" horiz-adv-x="0" 
d="M87 253v25h733v-25h-733z" />
    <glyph glyph-name="uni0337" unicode="&#x337;" horiz-adv-x="0" 
d="M589 580h33l-539 -630h-33z" />
    <glyph glyph-name="uni0338" unicode="&#x338;" horiz-adv-x="0" 
d="M689 750h35l-640 -800h-34z" />
    <glyph glyph-name="uni0394" unicode="&#x394;" horiz-adv-x="1025" 
d="M955 0h-885v25l210 577q10 27 16.5 41t17.5 29.5t25.5 21.5t34.5 6h47v-6q-8 -6 -14.5 -16.5t-9.5 -19t-8 -24.5t-8 -24l-51 -141h19l50 141q17 46 37.5 68t60.5 22h31q40 0 60.5 -22t37.5 -68l51 -141h18l-50 141q-3 7 -8 23.5t-8.5 25t-9.5 19t-14 16.5v6h46
q39 0 57 -22.5t37 -75.5l210 -577v-25zM424 602l-210 -577h597l-210 577q-8 24 -12 33t-12 21t-19.5 15.5t-29.5 3.5h-31q-32 0 -44 -13.5t-26 -51.5q-1 -2 -1 -3t-1 -2.5t-1 -2.5z" />
    <glyph glyph-name="uni03A9" unicode="&#x3a9;" horiz-adv-x="813" 
d="M644 90h-11v141h-19v-141q0 -40 -27 -65h156v-25h-281v25h54q73 0 73 73v504q0 73 -73 73h-219q-73 0 -73 -73v-504q0 -73 73 -73h55v-25h-281v25h155q-27 25 -27 65v141h-18v-141h-12q-99 0 -99 99v413q0 47 25.5 72.5t72.5 25.5h477q47 0 72.5 -25.5t25.5 -72.5v-413
q0 -99 -99 -99zM417 294l-10 -15l-10 15q-22 32 -49 47l-14 9l14 9q28 17 49 47l10 15l10 -15q18 -28 48 -47l14 -9l-14 -9q-29 -17 -48 -47z" />
    <glyph glyph-name="uni03BC" unicode="&#x3bc;" horiz-adv-x="892" 
d="M621 90v141h-18v-141q0 -41 -27 -65.5t-71 -24.5h-118q-44 0 -71 24.5t-27 65.5v141h-18v-141q0 -54 40 -84v-206h-151v705h-90v25h334v-25h-90v-407q0 -73 73 -73h118q73 0 73 73v407h-90v25h334v-25h-90v-505h-151v6q40 30 40 84z" />
    <glyph glyph-name="pi" unicode="&#x3c0;" horiz-adv-x="946" 
d="M687 495v-397q0 -73 73 -73h18q73 0 73 73v152h25v-152q0 -98 -98 -98h-147q-98 0 -98 98v379h110v18h-278l-71 -397q-17 -98 -115 -98h-17q-99 0 -82 98l7 41h25l-7 -41q-13 -73 60 -73h17q72 0 86 73l71 397h-269v25h800v-25h-183z" />
    <glyph glyph-name="Wgrave" unicode="&#x1e80;" horiz-adv-x="1339" 
d="M367 675h-98l117 -577q8 -39 23 -56t50 -17h53q35 0 50.5 17t22.5 56l123 602h53l122 -602q8 -39 23 -56t50 -17h53q35 0 50 17t23 56l117 577h-104v25h234v-25h-105l-117 -577q-10 -51 -31.5 -74.5t-66.5 -23.5h-53q-81 0 -98 90l-29 141h-19l30 -141q11 -63 40 -84v-6
h-57q-74 0 -94 98l-59 303l-60 -303q-10 -51 -31.5 -74.5t-66.5 -23.5h-53q-81 0 -98 90l-29 141h-18l29 -141q11 -63 40 -84v-6h-57q-74 0 -94 98l-117 577h-105v25h357v-25zM583 812v60h21l153 -129h-20l-133 69h-21z" />
    <glyph glyph-name="wgrave" unicode="&#x1e81;" horiz-adv-x="1096" 
d="M364 505h-98l48 -407q5 -38 21 -55.5t52 -17.5h53q36 0 52 17.5t21 55.5l50 425h99l50 -425q5 -38 21 -55.5t52 -17.5h53q36 0 52 17.5t21 55.5l49 407h-121v25h247v-25h-101l-49 -407q-11 -98 -98 -98h-53q-85 0 -98 90l-20 141h-18l20 -141q9 -61 40 -84v-6h-57
q-81 0 -94 98l-9 96l-11 -96q-11 -98 -98 -98h-53q-43 0 -68 24t-30 66l-20 141h-18l20 -141q7 -60 40 -84v-6h-57q-41 0 -65 26t-29 72l-48 407h-102v25h354v-25zM462 642v60h21l153 -129h-20l-133 69h-21z" />
    <glyph glyph-name="Wacute" unicode="&#x1e82;" horiz-adv-x="1339" 
d="M367 675h-98l117 -577q8 -39 23 -56t50 -17h53q35 0 50.5 17t22.5 56l123 602h53l122 -602q8 -39 23 -56t50 -17h53q35 0 50 17t23 56l117 577h-104v25h234v-25h-105l-117 -577q-10 -51 -31.5 -74.5t-66.5 -23.5h-53q-81 0 -98 90l-29 141h-19l30 -141q11 -63 40 -84v-6
h-57q-74 0 -94 98l-59 303l-60 -303q-10 -51 -31.5 -74.5t-66.5 -23.5h-53q-81 0 -98 90l-29 141h-18l29 -141q11 -63 40 -84v-6h-57q-74 0 -94 98l-117 577h-105v25h357v-25zM735 872h21v-60h-21l-133 -69h-20z" />
    <glyph glyph-name="wacute" unicode="&#x1e83;" horiz-adv-x="1096" 
d="M364 505h-98l48 -407q5 -38 21 -55.5t52 -17.5h53q36 0 52 17.5t21 55.5l50 425h99l50 -425q5 -38 21 -55.5t52 -17.5h53q36 0 52 17.5t21 55.5l49 407h-121v25h247v-25h-101l-49 -407q-11 -98 -98 -98h-53q-85 0 -98 90l-20 141h-18l20 -141q9 -61 40 -84v-6h-57
q-81 0 -94 98l-9 96l-11 -96q-11 -98 -98 -98h-53q-43 0 -68 24t-30 66l-20 141h-18l20 -141q7 -60 40 -84v-6h-57q-41 0 -65 26t-29 72l-48 407h-102v25h354v-25zM614 702h21v-60h-21l-133 -69h-20z" />
    <glyph glyph-name="Wdieresis" unicode="&#x1e84;" horiz-adv-x="1339" 
d="M367 675h-98l117 -577q8 -39 23 -56t50 -17h53q35 0 50.5 17t22.5 56l123 602h53l122 -602q8 -39 23 -56t50 -17h53q35 0 50 17t23 56l117 577h-104v25h234v-25h-105l-117 -577q-10 -51 -31.5 -74.5t-66.5 -23.5h-53q-81 0 -98 90l-29 141h-19l30 -141q11 -63 40 -84v-6
h-57q-74 0 -94 98l-59 303l-60 -303q-10 -51 -31.5 -74.5t-66.5 -23.5h-53q-81 0 -98 90l-29 141h-18l29 -141q11 -63 40 -84v-6h-57q-74 0 -94 98l-117 577h-105v25h357v-25zM652 825l-14 -8q-29 -19 -48 -48l-10 -14l-10 14q-22 31 -49 48l-14 8l14 9q27 16 49 48l10 14
l10 -14q20 -30 48 -48zM832 825l-14 -8q-29 -19 -48 -48l-10 -14l-10 14q-22 31 -49 48l-14 8l14 9q27 16 49 48l10 14l10 -14q20 -30 48 -48z" />
    <glyph glyph-name="wdieresis" unicode="&#x1e85;" horiz-adv-x="1096" 
d="M364 505h-98l48 -407q5 -38 21 -55.5t52 -17.5h53q36 0 52 17.5t21 55.5l50 425h99l50 -425q5 -38 21 -55.5t52 -17.5h53q36 0 52 17.5t21 55.5l49 407h-121v25h247v-25h-101l-49 -407q-11 -98 -98 -98h-53q-85 0 -98 90l-20 141h-18l20 -141q9 -61 40 -84v-6h-57
q-81 0 -94 98l-9 96l-11 -96q-11 -98 -98 -98h-53q-43 0 -68 24t-30 66l-20 141h-18l20 -141q7 -60 40 -84v-6h-57q-41 0 -65 26t-29 72l-48 407h-102v25h354v-25zM531 655l-14 -8q-29 -19 -48 -48l-10 -14l-10 14q-22 31 -49 48l-14 8l14 9q27 16 49 48l10 14l10 -14
q19 -30 48 -48zM711 655l-14 -8q-29 -19 -48 -48l-10 -14l-10 14q-22 31 -49 48l-14 8l14 9q27 16 49 48l10 14l10 -14q19 -30 48 -48z" />
    <glyph glyph-name="endash" unicode="&#x2013;" horiz-adv-x="532" 
d="M70 265v25h392v-25h-392z" />
    <glyph glyph-name="emdash" unicode="&#x2014;" horiz-adv-x="799" 
d="M70 265v25h659v-25h-659z" />
    <glyph glyph-name="quoteleft" unicode="&#x2018;" horiz-adv-x="261" 
d="M191 569q0 -28 -16.5 -44.5t-44.5 -16.5q-27 0 -43.5 17t-16.5 45v92q0 37 20.5 57.5t57.5 20.5h43v-25h-43q-53 0 -53 -53v-42q14 11 35 11q28 0 44.5 -17t16.5 -45z" />
    <glyph glyph-name="quoteright" unicode="&#x2019;" horiz-adv-x="261" 
d="M70 678q0 28 16.5 45t44.5 17q27 0 43.5 -17t16.5 -45v-92q0 -37 -20.5 -57.5t-57.5 -20.5h-43v25h43q25 0 39 14t14 39v41q-15 -10 -35 -10q-28 0 -44.5 16.5t-16.5 44.5z" />
    <glyph glyph-name="quotesinglbase" unicode="&#x201a;" horiz-adv-x="261" 
d="M70 52q0 28 16.5 44.5t44.5 16.5q27 0 43.5 -17t16.5 -45v-92q0 -37 -20.5 -57.5t-57.5 -20.5h-43v25h43q25 0 39 14t14 39v42q-14 -11 -35 -11q-28 0 -44.5 17t-16.5 45z" />
    <glyph glyph-name="quotedblleft" unicode="&#x201c;" horiz-adv-x="431" 
d="M191 569q0 -28 -16.5 -44.5t-44.5 -16.5q-27 0 -43.5 17t-16.5 45v92q0 37 20.5 57.5t57.5 20.5h43v-25h-43q-53 0 -53 -53v-42q14 11 35 11q28 0 44.5 -17t16.5 -45zM361 569q0 -28 -16.5 -44.5t-44.5 -16.5q-27 0 -43.5 17t-16.5 45v92q0 37 20.5 57.5t57.5 20.5h43
v-25h-43q-53 0 -53 -53v-42q14 11 35 11q28 0 44.5 -17t16.5 -45z" />
    <glyph glyph-name="quotedblright" unicode="&#x201d;" horiz-adv-x="431" 
d="M240 678q0 28 16.5 45t44.5 17q27 0 43.5 -17t16.5 -45v-92q0 -37 -20.5 -57.5t-57.5 -20.5h-43v25h43q25 0 39 14t14 39v41q-15 -10 -35 -10q-28 0 -44.5 16.5t-16.5 44.5zM70 678q0 28 16.5 45t44.5 17q27 0 43.5 -17t16.5 -45v-92q0 -37 -20.5 -57.5t-57.5 -20.5h-43
v25h43q25 0 39 14t14 39v41q-15 -10 -35 -10q-28 0 -44.5 16.5t-16.5 44.5z" />
    <glyph glyph-name="quotedblbase" unicode="&#x201e;" horiz-adv-x="431" 
d="M240 52q0 28 16.5 44.5t44.5 16.5q27 0 43.5 -17t16.5 -45v-92q0 -37 -20.5 -57.5t-57.5 -20.5h-43v25h43q25 0 39 14t14 39v42q-14 -11 -35 -11q-28 0 -44.5 17t-16.5 45zM70 52q0 28 16.5 44.5t44.5 16.5q27 0 43.5 -17t16.5 -45v-92q0 -37 -20.5 -57.5t-57.5 -20.5
h-43v25h43q25 0 39 14t14 39v42q-14 -11 -35 -11q-28 0 -44.5 17t-16.5 45z" />
    <glyph glyph-name="dagger" unicode="&#x2020;" horiz-adv-x="432" 
d="M70 541v25h134l-37 134h98l-36 -134h133v-25h-133l50 -83l-50 -458h-25l-50 458l50 83h-134z" />
    <glyph glyph-name="daggerdbl" unicode="&#x2021;" horiz-adv-x="432" 
d="M70 541v25h134l-37 134h98l-36 -134h133v-25h-133l53 -191l-53 -191h133v-25h-133l36 -134h-98l37 134h-134v25h134l-54 191l54 191h-134z" />
    <glyph glyph-name="bullet" unicode="&#x2022;" horiz-adv-x="327" 
d="M164 170q-43 0 -68.5 26t-25.5 69t25.5 69t68.5 26q42 0 67.5 -26t25.5 -69t-25.5 -69t-67.5 -26z" />
    <glyph glyph-name="ellipsis" unicode="&#x2026;" horiz-adv-x="782" 
d="M131 -10q-28 0 -44.5 17t-16.5 45t16.5 44.5t44.5 16.5q27 0 43.5 -16.5t16.5 -44.5t-16.5 -45t-43.5 -17zM392 -10q-28 0 -44.5 17t-16.5 45t16.5 44.5t44.5 16.5q27 0 43.5 -16.5t16.5 -44.5t-16.5 -45t-43.5 -17zM652 -10q-28 0 -44.5 17t-16.5 45t16.5 44.5
t44.5 16.5q27 0 43.5 -16.5t16.5 -44.5t-16.5 -45t-43.5 -17z" />
    <glyph glyph-name="perthousand" unicode="&#x2030;" horiz-adv-x="1280" 
d="M70 407v236q0 57 57 57h223q57 0 57 -57v-236q0 -57 -57 -57h-223q-57 0 -57 57zM147 643v-181q-21 -28 -21 -66v-6h9v11q0 37 29 65l140 127q25 25 25 50q3 45 -44 45h-93q-45 0 -45 -45zM192 363h93q45 0 45 45v180q22 31 22 66v7h-10v-12q0 -36 -29 -65l-140 -127
q-25 -25 -25 -49q-3 -45 44 -45zM477 57v236q0 57 57 57h222q57 0 57 -57v-236q0 -57 -57 -57h-222q-57 0 -57 57zM554 293v-181q-22 -29 -22 -66v-6h9v11q0 36 29 65l141 127q23 23 25 50q2 45 -44 45h-93q-45 0 -45 -45zM599 13h93q45 0 45 45v180q21 29 21 66v7h-9v-12
q0 -36 -29 -65l-140 -127q-24 -24 -26 -49q-2 -45 45 -45zM647 700h27l-437 -700h-27zM873 57v236q0 57 57 57h223q57 0 57 -57v-236q0 -57 -57 -57h-223q-57 0 -57 57zM951 293v-181q-22 -29 -22 -66v-6h9v11q0 36 29 65l140 127q24 24 26 50q2 45 -45 45h-92
q-45 0 -45 -45zM996 13h92q45 0 45 45v180q22 31 22 66v7h-9v-12q0 -36 -29 -65l-140 -127q-24 -24 -26 -49q-2 -45 45 -45z" />
    <glyph glyph-name="guilsinglleft" unicode="&#x2039;" horiz-adv-x="262" 
d="M192 137h-29l-93 128l93 128h29l-93 -128z" />
    <glyph glyph-name="guilsinglright" unicode="&#x203a;" horiz-adv-x="262" 
d="M192 265l-93 -128h-29l93 128l-93 128h29z" />
    <glyph glyph-name="fraction" unicode="&#x2044;" horiz-adv-x="211" 
d="M283 700h28l-384 -700h-27z" />
    <glyph glyph-name="uni2070" unicode="&#x2070;" horiz-adv-x="552" 
d="M50 385v319q0 77 78 77h325q77 0 77 -77v-319q0 -78 -77 -78h-325q-78 0 -78 78zM187 703v-237q-32 -47 -32 -96v-9h15v15q0 46 39 94l149 161q32 40 34 72q6 62 -59 62h-85q-61 0 -61 -62zM248 324h85q60 0 60 61v238q31 46 31 96v9h-14v-15q0 -48 -39 -94l-149 -161
q-32 -39 -35 -73q-2 -29 13.5 -45t47.5 -16z" />
    <glyph glyph-name="uni2074" unicode="&#x2074;" horiz-adv-x="646" 
d="M50 411l222 339h69q29 0 46.5 -16t17.5 -42v-112h13v112q0 35 -26 54v4h115v-323h89v-16h-89v-100h66v-16h-254v16h70v100h-339zM324 734l-239 -307h304v259q0 48 -48 48h-17z" />
    <glyph glyph-name="uni2075" unicode="&#x2075;" horiz-adv-x="518" 
d="M468 661h-388l-13 -83q-4 -23 9.5 -35t38.5 -12h186q29 0 46 -16t17 -43v-62h14v62q0 32 -21.5 52t-55.5 20h-186v16h276q35 0 56 -25.5t21 -67.5v-95q0 -77 -77 -77h-340v130h16v-114h223q58 0 58 59v97q0 48 -47 48h-186q-30 0 -49 16.5t-15 41.5l26 177h391v-89z" />
    <glyph glyph-name="uni2076" unicode="&#x2076;" horiz-adv-x="528" 
d="M169 686v-85h246q30 0 46.5 -17t16.5 -47v-178q0 -31 -16.5 -47.5t-46.5 -16.5h-199q-29 0 -46 16t-17 43v112h-14v-112q0 -35 26 -55v-4h-54q-28 0 -44.5 17.5t-16.5 46.5v327q0 31 16.5 47.5t46.5 16.5h365v-16h-262q-47 0 -47 -48zM311 584h-142v-225q0 -48 47 -48h95
q48 0 48 48v178q0 47 -48 47z" />
    <glyph glyph-name="uni2077" unicode="&#x2077;" horiz-adv-x="538" 
d="M267 295h-119q0 78 63.5 165.5t161.5 163.5l99 77v17l-80 -59h-342v91h438v-53l-95 -80q-54 -51 -90 -140.5t-36 -181.5z" />
    <glyph glyph-name="uni2078" unicode="&#x2078;" horiz-adv-x="539" 
d="M412 295h-286q-76 0 -76 77v71q0 25 15 41t41 18q-56 21 -56 76v95q0 77 76 77h286q77 0 77 -77v-70q0 -25 -15.5 -41t-41.5 -17q57 -23 57 -78v-95q0 -77 -77 -77zM322 544v16h41q47 0 47 48v67q0 59 -58 59h-125q-58 0 -58 -59v-97q0 -47 47 -47h106q29 0 46.5 -16
t17.5 -43v-62h12v62q0 33 -20.5 52.5t-55.5 19.5zM216 502v-17h-41q-47 0 -47 -47v-68q0 -59 58 -59h125q58 0 58 59v97q0 48 -47 48h-106q-29 0 -46 16t-17 42v63h-14v-63q0 -32 21.5 -51.5t55.5 -19.5z" />
    <glyph glyph-name="uni2079" unicode="&#x2079;" horiz-adv-x="528" 
d="M359 359v86h-246q-30 0 -46.5 16.5t-16.5 46.5v178q0 31 16.5 47.5t46.5 16.5h198q29 0 46.5 -16t17.5 -42v-112h13v112q0 35 -26 54v4h54q28 0 45 -17.5t17 -46.5v-327q0 -31 -16.5 -47.5t-46.5 -16.5h-365v16h261q48 0 48 48zM216 461h143v225q0 48 -48 48h-95
q-47 0 -47 -48v-178q0 -47 47 -47z" />
    <glyph glyph-name="uni2080" unicode="&#x2080;" horiz-adv-x="552" 
d="M50 25v320q0 77 78 77h325q77 0 77 -77v-320q0 -77 -77 -77h-325q-78 0 -78 77zM187 344v-238q-32 -46 -32 -96v-9h15v16q0 45 39 94l149 160q32 40 34 73q6 61 -59 61h-85q-61 0 -61 -61zM248 -35h85q60 0 60 61v238q31 44 31 96v9h-14v-16q0 -47 -39 -94l-149 -161
q-32 -38 -35 -72q-2 -29 13.5 -45t47.5 -16z" />
    <glyph glyph-name="uni2081" unicode="&#x2081;" horiz-adv-x="334" 
d="M136 389h-13v-101q0 -27 -17 -43t-46 -16h-18v16h18q47 0 47 48v112h119v-439h98v-16h-314v16h97v265q29 17 29 57v101z" />
    <glyph glyph-name="uni2082" unicode="&#x2082;" horiz-adv-x="552" 
d="M501 341v-62q0 -78 -68 -113q-26 -14 -130 -55t-145 -70h341v-91h-449q0 14 7.5 28.5t25.5 31t33.5 29.5t46.5 32t48 29.5t54.5 32t50.5 29.5q66 34 66 117v62q0 48 -47 48h-119q-47 0 -47 -48v-68h-119v68q0 31 16.5 47.5t46.5 16.5h222q29 0 46 -16t17 -42v-66h13v66
q0 35 -26 54v4h55q28 0 44.5 -17.5t16.5 -46.5z" />
    <glyph glyph-name="uni2083" unicode="&#x2083;" horiz-adv-x="539" 
d="M50 83h119v-69q0 -48 47 -48h95q58 0 58 59v84q0 47 -47 47v16q35 0 55.5 19.5t20.5 52.5v62h-12v-62q0 -26 -18 -42.5t-46 -16.5h-145v17h145q47 0 47 47v81q0 59 -58 59h-95q-47 0 -47 -48v-68h-119v68q0 31 16.5 47.5t46.5 16.5h299q77 0 77 -77v-79q0 -56 -57 -77
q26 -1 41.5 -17t15.5 -41v-87q0 -77 -77 -77h-299q-30 0 -46.5 16.5t-16.5 47.5v69z" />
    <glyph glyph-name="uni2084" unicode="&#x2084;" horiz-adv-x="646" 
d="M50 66l222 339h69q29 0 46.5 -16t17.5 -42v-112h13v112q0 35 -26 54v4h115v-323h89v-16h-89v-100h66v-16h-254v16h70v100h-339zM324 389l-239 -307h304v259q0 48 -48 48h-17z" />
    <glyph glyph-name="uni2085" unicode="&#x2085;" horiz-adv-x="518" 
d="M468 316h-388l-13 -83q-4 -23 9.5 -35t38.5 -12h186q29 0 46 -16t17 -43v-62h14v62q0 32 -21.5 52t-55.5 20h-186v16h276q35 0 56 -25.5t21 -67.5v-95q0 -77 -77 -77h-340v130h16v-114h223q58 0 58 59v97q0 48 -47 48h-186q-30 0 -49 16.5t-15 41.5l26 177h391v-89z" />
    <glyph glyph-name="uni2086" unicode="&#x2086;" horiz-adv-x="528" 
d="M169 341v-85h246q30 0 46.5 -17t16.5 -47v-178q0 -31 -16.5 -47.5t-46.5 -16.5h-199q-29 0 -46 16t-17 43v112h-14v-112q0 -35 26 -55v-4h-54q-28 0 -44.5 17.5t-16.5 46.5v327q0 31 16.5 47.5t46.5 16.5h365v-16h-262q-47 0 -47 -48zM311 239h-142v-225q0 -48 47 -48h95
q48 0 48 48v178q0 47 -48 47z" />
    <glyph glyph-name="uni2087" unicode="&#x2087;" horiz-adv-x="538" 
d="M267 -50h-119q0 78 63.5 165.5t161.5 163.5l99 77v17l-80 -59h-342v91h438v-53l-95 -80q-54 -51 -90 -140.5t-36 -181.5z" />
    <glyph glyph-name="uni2088" unicode="&#x2088;" horiz-adv-x="539" 
d="M412 -50h-286q-76 0 -76 77v71q0 25 15 41t41 18q-56 21 -56 76v95q0 77 76 77h286q77 0 77 -77v-70q0 -25 -15.5 -41t-41.5 -17q57 -22 57 -78v-95q0 -77 -77 -77zM322 199v16h41q47 0 47 48v67q0 59 -58 59h-125q-58 0 -58 -59v-97q0 -47 47 -47h106q29 0 46.5 -16
t17.5 -43v-62h12v62q0 33 -20.5 52.5t-55.5 19.5zM216 157v-17h-41q-47 0 -47 -47v-68q0 -59 58 -59h125q58 0 58 59v97q0 48 -47 48h-106q-29 0 -46 16t-17 42v63h-14v-63q0 -32 21.5 -51.5t55.5 -19.5z" />
    <glyph glyph-name="uni2089" unicode="&#x2089;" horiz-adv-x="528" 
d="M359 14v86h-246q-30 0 -46.5 16.5t-16.5 46.5v178q0 31 16.5 47.5t46.5 16.5h198q29 0 46.5 -16t17.5 -42v-112h13v112q0 35 -26 54v4h54q28 0 45 -17.5t17 -46.5v-327q0 -31 -16.5 -47.5t-46.5 -16.5h-365v16h261q48 0 48 48zM216 116h143v225q0 48 -48 48h-95
q-47 0 -47 -48v-178q0 -47 47 -47z" />
    <glyph glyph-name="franc" unicode="&#x20a3;" horiz-adv-x="767" 
d="M281 482h18v128q0 41 27 65.5t71 24.5h300v-225h-25v200h-275q-73 0 -73 -73v-227h366v-25h-366v-137h226v-25h-226v-163h93v-25h-347v25h100v163h-100v25h100v462h-100v25h251v-6q-40 -30 -40 -84v-128z" />
    <glyph glyph-name="lira" unicode="&#x20a4;" horiz-adv-x="823" 
d="M349 90v83h-18v-83q0 -54 40 -84v-6h-251v25h100v188h129q0 21 -8 37t-23.5 27.5t-31 20t-39 19.5t-38.5 20h-139v25h105q-55 51 -55 148v92q0 44 26 71t68 27h57v-6q-40 -30 -40 -84v-93h18v93q0 41 27 65.5t71 24.5h308q47 0 72.5 -25.5t25.5 -72.5v-104l-154 -50v154
q0 73 -73 73h-179q-73 0 -73 -73v-92q0 -101 31 -148h298v-25h-278q25 -27 34 -47h244v-25h-234q5 -23 5 -52v-115q0 -73 73 -73h281v200h25v-225h-306q-44 0 -71 24.5t-27 65.5z" />
    <glyph glyph-name="peseta" unicode="&#x20a7;" horiz-adv-x="2023" 
d="M789 602v-331q0 -44 -26 -71t-68 -27h-371v-148h100v-25h-354v25h100v650h-100v25h251v-6q-40 -30 -40 -84v-141h18v141q0 41 27 65.5t71 24.5h294q47 0 72.5 -25.5t25.5 -72.5zM324 198h238q73 0 73 73v331q0 73 -73 73h-165q-73 0 -73 -73v-404zM1089 495v-397
q0 -73 73 -73h71q73 0 73 73v152h25v-152q0 -98 -98 -98h-200q-98 0 -98 98v379h109v18h-195v25h8q47 0 89 24t67 68l53 88h23v-180h236v-25h-236zM1953 505h-328q-90 0 -90 -90v-65q0 -73 73 -73h118q44 0 71 -24.5t27 -65.5v-64h18v64q0 49 -32 78.5t-84 29.5v19h30
q89 0 143 -37t54 -98v-65q0 -114 -114 -114h-458v25h328q90 0 90 90v64q0 73 -73 73h-118q-44 0 -71 24.5t-27 65.5v64h-18v-64q0 -49 32 -78.5t84 -29.5v-19h-30q-89 0 -143 37t-54 98v66q0 114 114 114h458v-25z" />
    <glyph glyph-name="Euro" unicode="&#x20ac;" horiz-adv-x="761" 
d="M153 413v189q0 44 26 71t68 27h57v-6q-40 -30 -40 -84v-115h18v115q0 41 27 65.5t71 24.5h213q47 0 72.5 -25.5t25.5 -72.5v-98h-25v98q0 73 -73 73h-213q-73 0 -73 -73v-189h265v-25h-265v-75h265v-25h-265v-190q0 -73 73 -73h213q73 0 73 73v98h25v-98
q0 -47 -25.5 -72.5t-72.5 -25.5h-213q-44 0 -71 24.5t-27 65.5v115h-18v-115q0 -54 40 -84v-6h-57q-42 0 -68 27t-26 71v190h-83v25h83v75h-83v25h83z" />
    <glyph glyph-name="uni2113" unicode="&#x2113;" horiz-adv-x="890" 
d="M668 313h-333l-38 -215q-12 -73 60 -73h50q73 0 86 73l21 124h25l-23 -132q-7 -40 -38.5 -65t-75.5 -25h-178q-47 0 -68 25.5t-13 72.5l38 215h-110l5 25h110l46 264q8 44 38.5 71t72.5 27h57l-1 -6q-45 -30 -55 -84l-21 -121h18l22 121q7 41 38 65.5t75 24.5h260
q47 0 68 -25.5t13 -72.5l-33 -191q-19 -98 -116 -98zM386 602l-46 -264h204q73 0 86 73l33 191q13 73 -60 73h-131q-73 0 -86 -73z" />
    <glyph glyph-name="trademark" unicode="&#x2122;" horiz-adv-x="1277" 
d="M318 555h12v91q0 24 16 39t43 15h234q46 0 58 -54l24 -103h13l-25 103q-9 42 -23 50v4h50q46 0 57 -59l69 -323l68 323q6 30 19.5 44.5t39.5 14.5h17q27 0 43 -14.5t16 -39.5v-103h12v103q0 35 -24 50v4h170v-15h-63v-390h63v-15h-233v15h60v346q0 44 -44 44h-17
q-21 0 -30 -10t-14 -34l-76 -361h-110l-76 361q-5 24 -14 34t-30 10h-52v-390h59v-15h-135v15h60v390h-166q-44 0 -44 -44v-346h54v-15h-224v15h60v390h-150v-120h-15v135h272v-4q-24 -15 -24 -50v-91z" />
    <glyph glyph-name="estimated" unicode="&#x212e;" horiz-adv-x="847" 
d="M70 350q0 162 74.5 261t197.5 99h4v-6q-74 -27 -119.5 -121t-45.5 -219v-14h18v14q0 151 66 248.5t159 97.5q156 0 252.5 -95t100.5 -252v-25h-553q3 -144 68.5 -232t169.5 -88q83 0 151 43t105 119h30q-39 -90 -122 -140t-197 -50q-157 0 -258 99.5t-101 260.5zM224 363
h399q-2 146 -56.5 234t-142.5 88q-85 0 -141 -89t-59 -233z" />
    <glyph glyph-name="onethird" unicode="&#x2153;" horiz-adv-x="1084" 
d="M136 684h-13v-101q0 -27 -17 -43t-46 -16h-18v16h18q47 0 47 48v112h119v-439h98v-16h-314v16h97v265q29 17 29 57v101zM617 700h28l-384 -700h-27zM595 133h119v-69q0 -48 47 -48h95q58 0 58 59v84q0 47 -47 47v16q35 0 55.5 19.5t20.5 52.5v62h-12v-62q0 -26 -18 -42.5
t-46 -16.5h-145v17h145q47 0 47 47v81q0 59 -58 59h-95q-47 0 -47 -48v-68h-119v68q0 31 16.5 47.5t46.5 16.5h299q77 0 77 -77v-79q0 -56 -57 -77q26 -1 41.5 -17t15.5 -41v-87q0 -77 -77 -77h-299q-30 0 -46.5 16.5t-16.5 47.5v69z" />
    <glyph glyph-name="twothirds" unicode="&#x2154;" horiz-adv-x="1301" 
d="M501 636v-62q0 -78 -68 -113q-26 -14 -130 -55t-145 -70h341v-91h-449q0 14 7.5 28.5t25.5 31t33.5 29.5t46.5 32t48 29.5t54.5 32t50.5 29.5q66 34 66 117v62q0 48 -47 48h-119q-47 0 -47 -48v-68h-119v68q0 31 16.5 47.5t46.5 16.5h222q29 0 46 -16t17 -42v-66h13v66
q0 35 -26 54v4h55q28 0 44.5 -17.5t16.5 -46.5zM835 700h28l-384 -700h-27zM813 133h119v-69q0 -48 47 -48h95q58 0 58 59v84q0 47 -47 47v16q35 0 55.5 19.5t20.5 52.5v62h-12v-62q0 -26 -18 -42.5t-46 -16.5h-145v17h145q47 0 47 47v81q0 59 -58 59h-95q-47 0 -47 -48v-68
h-119v68q0 31 16.5 47.5t46.5 16.5h299q77 0 77 -77v-79q0 -56 -57 -77q26 -1 41.5 -17t15.5 -41v-87q0 -77 -77 -77h-299q-30 0 -46.5 16.5t-16.5 47.5v69z" />
    <glyph glyph-name="oneeighth" unicode="&#x215b;" horiz-adv-x="1084" 
d="M136 684h-13v-101q0 -27 -17 -43t-46 -16h-18v16h18q47 0 47 48v112h119v-439h98v-16h-314v16h97v265q29 17 29 57v101zM617 700h28l-384 -700h-27zM957 0h-286q-76 0 -76 77v71q0 25 15 41t41 18q-56 21 -56 76v95q0 77 76 77h286q77 0 77 -77v-70q0 -25 -15.5 -41
t-41.5 -17q57 -23 57 -78v-95q0 -77 -77 -77zM867 249v16h41q47 0 47 48v67q0 59 -58 59h-125q-58 0 -58 -59v-97q0 -47 47 -47h106q29 0 46.5 -16t17.5 -43v-62h12v62q0 33 -20.5 52.5t-55.5 19.5zM761 207v-17h-41q-47 0 -47 -47v-68q0 -59 58 -59h125q58 0 58 59v97
q0 48 -47 48h-106q-29 0 -46 16t-17 42v63h-14v-63q0 -32 21.5 -51.5t55.5 -19.5z" />
    <glyph glyph-name="threeeighths" unicode="&#x215c;" horiz-adv-x="1288" 
d="M50 378h119v-69q0 -48 47 -48h95q58 0 58 59v84q0 47 -47 47v16q35 0 55.5 19.5t20.5 52.5v62h-12v-62q0 -26 -18 -42.5t-46 -16.5h-145v17h145q47 0 47 47v81q0 59 -58 59h-95q-47 0 -47 -48v-68h-119v68q0 31 16.5 47.5t46.5 16.5h299q77 0 77 -77v-79q0 -56 -57 -77
q26 -1 41.5 -17t15.5 -41v-87q0 -77 -77 -77h-299q-30 0 -46.5 16.5t-16.5 47.5v69zM822 700h28l-384 -700h-27zM1161 0h-286q-76 0 -76 77v71q0 25 15 41t41 18q-56 21 -56 76v95q0 77 76 77h286q77 0 77 -77v-70q0 -25 -15.5 -41t-41.5 -17q57 -23 57 -78v-95
q0 -77 -77 -77zM1071 249v16h41q47 0 47 48v67q0 59 -58 59h-125q-58 0 -58 -59v-97q0 -47 47 -47h106q29 0 46.5 -16t17.5 -43v-62h12v62q0 33 -20.5 52.5t-55.5 19.5zM965 207v-17h-41q-47 0 -47 -47v-68q0 -59 58 -59h125q58 0 58 59v97q0 48 -47 48h-106q-29 0 -46 16
t-17 42v63h-14v-63q0 -32 21.5 -51.5t55.5 -19.5z" />
    <glyph glyph-name="fiveeighths" unicode="&#x215d;" horiz-adv-x="1267" 
d="M468 611h-388l-13 -83q-4 -23 9.5 -35t38.5 -12h186q29 0 46 -16t17 -43v-62h14v62q0 32 -21.5 52t-55.5 20h-186v16h276q35 0 56 -25.5t21 -67.5v-95q0 -77 -77 -77h-340v130h16v-114h223q58 0 58 59v97q0 48 -47 48h-186q-30 0 -49 16.5t-15 41.5l26 177h391v-89z
M801 700h28l-384 -700h-27zM1140 0h-286q-76 0 -76 77v71q0 25 15 41t41 18q-56 21 -56 76v95q0 77 76 77h286q77 0 77 -77v-70q0 -25 -15.5 -41t-41.5 -17q57 -23 57 -78v-95q0 -77 -77 -77zM1050 249v16h41q47 0 47 48v67q0 59 -58 59h-125q-58 0 -58 -59v-97
q0 -47 47 -47h106q29 0 46.5 -16t17.5 -43v-62h12v62q0 33 -20.5 52.5t-55.5 19.5zM944 207v-17h-41q-47 0 -47 -47v-68q0 -59 58 -59h125q58 0 58 59v97q0 48 -47 48h-106q-29 0 -46 16t-17 42v63h-14v-63q0 -32 21.5 -51.5t55.5 -19.5z" />
    <glyph glyph-name="seveneighths" unicode="&#x215e;" horiz-adv-x="1287" 
d="M267 245h-119q0 78 63.5 165.5t161.5 163.5l99 77v17l-80 -59h-342v91h438v-53l-95 -80q-54 -51 -90 -140.5t-36 -181.5zM821 700h28l-384 -700h-27zM1161 0h-286q-76 0 -76 77v71q0 25 15 41t41 18q-56 21 -56 76v95q0 77 76 77h286q77 0 77 -77v-70q0 -25 -15.5 -41
t-41.5 -17q57 -23 57 -78v-95q0 -77 -77 -77zM1071 249v16h41q47 0 47 48v67q0 59 -58 59h-125q-58 0 -58 -59v-97q0 -47 47 -47h106q29 0 46.5 -16t17.5 -43v-62h12v62q0 33 -20.5 52.5t-55.5 19.5zM965 207v-17h-41q-47 0 -47 -47v-68q0 -59 58 -59h125q58 0 58 59v97
q0 48 -47 48h-106q-29 0 -46 16t-17 42v63h-14v-63q0 -32 21.5 -51.5t55.5 -19.5z" />
    <glyph glyph-name="partialdiff" unicode="&#x2202;" horiz-adv-x="819" 
d="M405 362h-65q-66 0 -80 -73l-33 -191q-13 -73 60 -73h131q73 0 86 73l89 504q13 73 -60 73h-50q-73 0 -86 -73l-22 -124h-25l23 132q7 40 38.5 65t75.5 25h179q47 0 68 -25.5t13 -72.5l-89 -504q-7 -44 -38 -71t-73 -27h-57l1 6q19 13 34.5 36t19.5 48l22 121h-18
l-22 -121q-8 -41 -38.5 -65.5t-74.5 -24.5h-260q-47 0 -68 25.5t-13 72.5l33 191q8 47 38 72.5t77 25.5h188q104 0 86 -104l-25 -141h-25l26 142q14 78 -66 78z" />
    <glyph glyph-name="product" unicode="&#x220f;" horiz-adv-x="1012" 
d="M942 -110h-254v669q0 73 -73 73h-218q-73 0 -73 -73v-669h-254v25h100v785h227v-25q-56 0 -86 -28t-30 -80v-58h18v58q0 41 27 65.5t71 24.5h218q44 0 71 -24.5t27 -65.5v-58h18v58q0 52 -30 80t-86 28v25h227v-785h100v-25z" />
    <glyph glyph-name="summation" unicode="&#x2211;" horiz-adv-x="750" 
d="M604 326v-62l-464 -221q-45 -23 -45 -53v-15q0 -60 60 -60h525v-25h-525q-85 0 -85 85v15q0 16 5 28.5t18 22.5t21 14.5t27 14.5l198 93v18l-179 -83q-64 -30 -84 -55h-6v115l284 137l-284 137v115h6q20 -25 84 -55l179 -83v18l-198 93q-19 10 -27 14.5t-21 14.5
t-18 22.5t-5 28.5v15q0 85 85 85h525v-25h-525q-60 0 -60 -60v-15q0 -30 45 -53z" />
    <glyph glyph-name="minus" unicode="&#x2212;" horiz-adv-x="432" 
d="M70 338v25h292v-25h-292z" />
    <glyph glyph-name="radical" unicode="&#x221a;" horiz-adv-x="1054" 
d="M206 260v-25l90 -247q9 -25 12.5 -34t12 -21t19.5 -15t29 -3h36q32 0 44 13.5t26 51.5q2 5 3 8l249 687v25h257v-25h-103l-249 -687q-10 -27 -16.5 -41t-17.5 -29.5t-25.5 -21.5t-34.5 -6h-57v6q8 6 14.5 16.5t9.5 19t8 24.5t8 24l51 141h-19l-50 -141q-17 -46 -37.5 -68
t-60.5 -22h-36q-44 0 -62 21t-38 77l-90 247h-109v25h136z" />
    <glyph glyph-name="infinity" unicode="&#x221e;" horiz-adv-x="1155" 
d="M500 566v-19h-110v-19h110q54 0 78 -44q24 44 77 44h110v19h-110v19q0 49 49 49h283q98 0 98 -98v-334q0 -98 -98 -98h-283q-49 0 -49 49v19h110v19h-110q-54 0 -78 44q-24 -44 -77 -44h-110v-19h110v-19q0 -49 -49 -49h-283q-98 0 -98 98v334q0 98 98 98h283
q49 0 49 -49zM95 430v-160q0 -73 73 -73h324q73 0 73 73v160q0 73 -73 73h-324q-73 0 -73 -73zM590 430v-160q0 -73 73 -73h324q73 0 73 73v160q0 73 -73 73h-324q-73 0 -73 -73z" />
    <glyph glyph-name="integral" unicode="&#x222b;" horiz-adv-x="547" 
d="M196 -12v616q0 96 97 96h54v-6q-40 -30 -40 -84v-118h18v118q0 41 27 65.5t71 24.5h54v-25h-54q-73 0 -73 -73v-616q0 -96 -96 -96h-54v6q40 31 40 84v118h-19v-118q0 -41 -27 -65.5t-71 -24.5h-53v25h53q73 0 73 73z" />
    <glyph glyph-name="approxequal" unicode="&#x2248;" horiz-adv-x="558" 
d="M90 371h-20l15 36q17 43 46 66t80 23q37 0 72.5 -13t57 -28t43.5 -28t36 -13q16 0 24 11t14 34l10 37h20l-10 -37q-13 -43 -32 -65.5t-54 -22.5q-37 0 -106.5 42.5t-111.5 42.5q-19 0 -32 -7t-19 -15.5t-15 -26.5zM90 204h-20l15 37q18 43 46.5 65.5t79.5 22.5
q37 0 72.5 -13t57 -28t43.5 -28t36 -13q16 0 24 11t14 34l10 37h20l-10 -37q-13 -43 -32 -65.5t-54 -22.5q-37 0 -106.5 42.5t-111.5 42.5q-19 0 -32 -7t-19 -15t-15 -26z" />
    <glyph glyph-name="notequal" unicode="&#x2260;" horiz-adv-x="432" 
d="M70 425v25h171l94 250h27l-94 -250h94v-25h-103l-58 -149h161v-25h-170l-95 -251h-27l95 251h-95v25h104l58 149h-162z" />
    <glyph glyph-name="lessequal" unicode="&#x2264;" horiz-adv-x="410" 
d="M70 360l270 176v-31l-236 -155l236 -154v-32l-270 176v20zM70 0v25h270v-25h-270z" />
    <glyph glyph-name="greaterequal" unicode="&#x2265;" horiz-adv-x="410" 
d="M70 505v31l270 -176v-20l-270 -176v32l236 154zM70 25h270v-25h-270v25z" />
    <glyph glyph-name="lozenge" unicode="&#x25ca;" horiz-adv-x="667" 
d="M95 351l238 -308l238 308l-238 308zM70 360l263 340l264 -340v-20l-264 -340l-263 340v20z" />
    <glyph glyph-name="o.ss01" horiz-adv-x="712" 
d="M356 15q68 0 110 69t42 181t-42 181t-110 69t-110 -69t-42 -181t42 -181t110 -69zM423 265l-14 -9q-24 -14 -44 -42l-10 -15l-10 15q-17 27 -43 42l-14 9l14 9q27 17 43 42l10 15l10 -15q19 -27 44 -42zM50 265q0 120 64 197.5t150 77.5h3v-6q-48 -19 -77 -90.5
t-29 -169.5v-9h18v9q0 120 47.5 193t126.5 73q139 0 224 -75.5t85 -199.5q0 -120 -64 -197.5t-150 -77.5h-3v6q48 19 77 90.5t29 169.5v9h-18v-9q0 -120 -47.5 -193t-126.5 -73q-139 0 -224 75.5t-85 199.5z" />
    <glyph glyph-name="O.ss01" horiz-adv-x="807" 
d="M404 15q86 0 142.5 93t56.5 242q0 151 -54.5 243t-144.5 92q-87 0 -143.5 -93t-56.5 -242q0 -151 55 -243t145 -92zM50 350q0 162 74.5 261t197.5 99h4v-6q-74 -27 -119.5 -121t-45.5 -219v-14h18v14q0 151 66 248.5t159 97.5q159 0 256 -99t97 -261t-74.5 -261
t-197.5 -99h-3v6q74 27 119.5 121.5t45.5 218.5v14h-19v-14q0 -151 -66 -248.5t-158 -97.5q-160 0 -257 99t-97 261zM476 350l-14 -9q-29 -17 -48 -47l-10 -15l-10 15q-22 32 -49 47l-14 9l14 9q28 17 49 47l10 15l10 -15q18 -28 48 -47z" />
    <glyph glyph-name="A.ss01" horiz-adv-x="1015" 
d="M146 25h106v-25h-242v25h109l210 577q11 29 17 43t17.5 29t27 20.5t38.5 5.5h36q40 0 60.5 -22t37.5 -68l51 -141h18l-50 141q-3 7 -8 23.5t-8.5 25t-9.5 19t-14 16.5v6h56q39 0 57 -22.5t37 -75.5l210 -577h103v-25h-366v25h109l-98 270h-405zM356 602l-103 -282h388
l-103 282q-8 24 -12 33t-12 21t-19.5 15.5t-29.5 3.5h-36q-32 0 -44 -13.5t-26 -51.5q-1 -2 -1 -3t-1 -2.5t-1 -2.5z" />
    <glyph glyph-name="Ograve.ss01" horiz-adv-x="807" 
d="M404 15q86 0 142.5 93t56.5 242q0 151 -54.5 243t-144.5 92q-87 0 -143.5 -93t-56.5 -242q0 -151 55 -243t145 -92zM50 350q0 162 74.5 261t197.5 99h4v-6q-74 -27 -119.5 -121t-45.5 -219v-14h18v14q0 151 66 248.5t159 97.5q159 0 256 -99t97 -261t-74.5 -261
t-197.5 -99h-3v6q74 27 119.5 121.5t45.5 218.5v14h-19v-14q0 -151 -66 -248.5t-158 -97.5q-160 0 -257 99t-97 261zM476 350l-14 -9q-29 -17 -48 -47l-10 -15l-10 15q-22 32 -49 47l-14 9l14 9q28 17 49 47l10 15l10 -15q18 -28 48 -47zM317 812v60h21l153 -129h-20
l-133 69h-21z" />
    <glyph glyph-name="Oacute.ss01" horiz-adv-x="807" 
d="M404 15q86 0 142.5 93t56.5 242q0 151 -54.5 243t-144.5 92q-87 0 -143.5 -93t-56.5 -242q0 -151 55 -243t145 -92zM50 350q0 162 74.5 261t197.5 99h4v-6q-74 -27 -119.5 -121t-45.5 -219v-14h18v14q0 151 66 248.5t159 97.5q159 0 256 -99t97 -261t-74.5 -261
t-197.5 -99h-3v6q74 27 119.5 121.5t45.5 218.5v14h-19v-14q0 -151 -66 -248.5t-158 -97.5q-160 0 -257 99t-97 261zM476 350l-14 -9q-29 -17 -48 -47l-10 -15l-10 15q-22 32 -49 47l-14 9l14 9q28 17 49 47l10 15l10 -15q18 -28 48 -47zM469 872h21v-60h-21l-133 -69h-20z
" />
    <glyph glyph-name="Ocircumflex.ss01" horiz-adv-x="807" 
d="M404 15q86 0 142.5 93t56.5 242q0 151 -54.5 243t-144.5 92q-87 0 -143.5 -93t-56.5 -242q0 -151 55 -243t145 -92zM50 350q0 162 74.5 261t197.5 99h4v-6q-74 -27 -119.5 -121t-45.5 -219v-14h18v14q0 151 66 248.5t159 97.5q159 0 256 -99t97 -261t-74.5 -261
t-197.5 -99h-3v6q74 27 119.5 121.5t45.5 218.5v14h-19v-14q0 -151 -66 -248.5t-158 -97.5q-160 0 -257 99t-97 261zM476 350l-14 -9q-29 -17 -48 -47l-10 -15l-10 15q-22 32 -49 47l-14 9l14 9q28 17 49 47l10 15l10 -15q18 -28 48 -47zM277 743h-20l131 129h31l129 -129
h-20l-109 76h-31z" />
    <glyph glyph-name="Otilde.ss01" horiz-adv-x="807" 
d="M404 15q86 0 142.5 93t56.5 242q0 151 -54.5 243t-144.5 92q-87 0 -143.5 -93t-56.5 -242q0 -151 55 -243t145 -92zM50 350q0 162 74.5 261t197.5 99h4v-6q-74 -27 -119.5 -121t-45.5 -219v-14h18v14q0 151 66 248.5t159 97.5q159 0 256 -99t97 -261t-74.5 -261
t-197.5 -99h-3v6q74 27 119.5 121.5t45.5 218.5v14h-19v-14q0 -151 -66 -248.5t-158 -97.5q-160 0 -257 99t-97 261zM476 350l-14 -9q-29 -17 -48 -47l-10 -15l-10 15q-22 32 -49 47l-14 9l14 9q28 17 49 47l10 15l10 -15q18 -28 48 -47zM266 743h-20l10 37q13 44 31.5 66.5
t53.5 22.5q32 0 61 -20.5t52.5 -41t41.5 -20.5q16 0 24 11t14 34l10 36h20l-10 -36q-13 -44 -32 -66.5t-54 -22.5q-32 0 -61 21.5t-52.5 43t-41.5 21.5q-11 0 -18.5 -7.5t-10.5 -15.5t-8 -26z" />
    <glyph glyph-name="Odieresis.ss01" horiz-adv-x="807" 
d="M404 15q86 0 142.5 93t56.5 242q0 151 -54.5 243t-144.5 92q-87 0 -143.5 -93t-56.5 -242q0 -151 55 -243t145 -92zM50 350q0 162 74.5 261t197.5 99h4v-6q-74 -27 -119.5 -121t-45.5 -219v-14h18v14q0 151 66 248.5t159 97.5q159 0 256 -99t97 -261t-74.5 -261
t-197.5 -99h-3v6q74 27 119.5 121.5t45.5 218.5v14h-19v-14q0 -151 -66 -248.5t-158 -97.5q-160 0 -257 99t-97 261zM476 350l-14 -9q-29 -17 -48 -47l-10 -15l-10 15q-22 32 -49 47l-14 9l14 9q28 17 49 47l10 15l10 -15q18 -28 48 -47zM386 825l-14 -8q-29 -19 -48 -48
l-10 -14l-10 14q-22 31 -49 48l-14 8l14 9q27 16 49 48l10 14l10 -14q20 -30 48 -48zM566 825l-14 -8q-29 -19 -48 -48l-10 -14l-10 14q-22 31 -49 48l-14 8l14 9q27 16 49 48l10 14l10 -14q20 -30 48 -48z" />
    <glyph glyph-name="Oslash.ss01" horiz-adv-x="807" 
d="M234 159l133 166q-10 8 -22 16l-14 9l14 9q28 17 49 47l10 15l10 -15q1 -1 3.5 -5t4.5 -6l139 174q-56 116 -157 116q-87 0 -143.5 -93t-56.5 -242q0 -107 30 -191zM573 540l-132 -165q8 -8 21 -16l14 -9l-14 -9q-29 -17 -48 -47l-10 -15l-10 15l-9 12l-139 -175
q56 -116 158 -116q86 0 142.5 93t56.5 242q0 108 -30 190zM706 750h35l-98 -123q114 -100 114 -277q0 -162 -74.5 -261t-197.5 -99h-3v6q74 27 119.5 121.5t45.5 218.5v14h-19v-14q0 -151 -66 -248.5t-158 -97.5q-127 0 -218 66l-85 -106h-34l98 122q-115 101 -115 278
q0 162 74.5 261t197.5 99h4v-6q-74 -27 -119.5 -121t-45.5 -219v-14h18v14q0 151 66 248.5t159 97.5q129 0 218 -66z" />
    <glyph glyph-name="Omacron.ss01" horiz-adv-x="807" 
d="M404 15q86 0 142.5 93t56.5 242q0 151 -54.5 243t-144.5 92q-87 0 -143.5 -93t-56.5 -242q0 -151 55 -243t145 -92zM50 350q0 162 74.5 261t197.5 99h4v-6q-74 -27 -119.5 -121t-45.5 -219v-14h18v14q0 151 66 248.5t159 97.5q159 0 256 -99t97 -261t-74.5 -261
t-197.5 -99h-3v6q74 27 119.5 121.5t45.5 218.5v14h-19v-14q0 -151 -66 -248.5t-158 -97.5q-160 0 -257 99t-97 261zM476 350l-14 -9q-29 -17 -48 -47l-10 -15l-10 15q-22 32 -49 47l-14 9l14 9q28 17 49 47l10 15l10 -15q18 -28 48 -47zM526 770h-245v25h245v-25z" />
    <glyph glyph-name="Obreve.ss01" horiz-adv-x="807" 
d="M404 15q86 0 142.5 93t56.5 242q0 151 -54.5 243t-144.5 92q-87 0 -143.5 -93t-56.5 -242q0 -151 55 -243t145 -92zM50 350q0 162 74.5 261t197.5 99h4v-6q-74 -27 -119.5 -121t-45.5 -219v-14h18v14q0 151 66 248.5t159 97.5q159 0 256 -99t97 -261t-74.5 -261
t-197.5 -99h-3v6q74 27 119.5 121.5t45.5 218.5v14h-19v-14q0 -151 -66 -248.5t-158 -97.5q-160 0 -257 99t-97 261zM476 350l-14 -9q-29 -17 -48 -47l-10 -15l-10 15q-22 32 -49 47l-14 9l14 9q28 17 49 47l10 15l10 -15q18 -28 48 -47zM275 846l-12 26h20l14 -26
q12 -20 41 -33t67 -13q39 0 68 13t41 33l13 26h20l-12 -26q-52 -103 -129 -103q-40 0 -73.5 28t-57.5 75z" />
    <glyph glyph-name="Ohungarumlaut.ss01" horiz-adv-x="807" 
d="M404 15q86 0 142.5 93t56.5 242q0 151 -54.5 243t-144.5 92q-87 0 -143.5 -93t-56.5 -242q0 -151 55 -243t145 -92zM50 350q0 162 74.5 261t197.5 99h4v-6q-74 -27 -119.5 -121t-45.5 -219v-14h18v14q0 151 66 248.5t159 97.5q159 0 256 -99t97 -261t-74.5 -261
t-197.5 -99h-3v6q74 27 119.5 121.5t45.5 218.5v14h-19v-14q0 -151 -66 -248.5t-158 -97.5q-160 0 -257 99t-97 261zM476 350l-14 -9q-29 -17 -48 -47l-10 -15l-10 15q-22 32 -49 47l-14 9l14 9q28 17 49 47l10 15l10 -15q18 -28 48 -47zM377 864v14h60v-14l-152 -121h-20z
M484 864v14h60v-14l-159 -121h-20z" />
    <glyph glyph-name="Agrave.ss01" horiz-adv-x="1015" 
d="M146 25h106v-25h-242v25h109l210 577q11 29 17 43t17.5 29t27 20.5t38.5 5.5h36q40 0 60.5 -22t37.5 -68l51 -141h18l-50 141q-3 7 -8 23.5t-8.5 25t-9.5 19t-14 16.5v6h56q39 0 57 -22.5t37 -75.5l210 -577h103v-25h-366v25h109l-98 270h-405zM356 602l-103 -282h388
l-103 282q-8 24 -12 33t-12 21t-19.5 15.5t-29.5 3.5h-36q-32 0 -44 -13.5t-26 -51.5q-1 -2 -1 -3t-1 -2.5t-1 -2.5zM400 812v60h21l153 -129h-20l-133 69h-21z" />
    <glyph glyph-name="Aacute.ss01" horiz-adv-x="1015" 
d="M146 25h106v-25h-242v25h109l210 577q11 29 17 43t17.5 29t27 20.5t38.5 5.5h36q40 0 60.5 -22t37.5 -68l51 -141h18l-50 141q-3 7 -8 23.5t-8.5 25t-9.5 19t-14 16.5v6h56q39 0 57 -22.5t37 -75.5l210 -577h103v-25h-366v25h109l-98 270h-405zM356 602l-103 -282h388
l-103 282q-8 24 -12 33t-12 21t-19.5 15.5t-29.5 3.5h-36q-32 0 -44 -13.5t-26 -51.5q-1 -2 -1 -3t-1 -2.5t-1 -2.5zM552 872h21v-60h-21l-133 -69h-20z" />
    <glyph glyph-name="Acircumflex.ss01" horiz-adv-x="1015" 
d="M146 25h106v-25h-242v25h109l210 577q11 29 17 43t17.5 29t27 20.5t38.5 5.5h36q40 0 60.5 -22t37.5 -68l51 -141h18l-50 141q-3 7 -8 23.5t-8.5 25t-9.5 19t-14 16.5v6h56q39 0 57 -22.5t37 -75.5l210 -577h103v-25h-366v25h109l-98 270h-405zM356 602l-103 -282h388
l-103 282q-8 24 -12 33t-12 21t-19.5 15.5t-29.5 3.5h-36q-32 0 -44 -13.5t-26 -51.5q-1 -2 -1 -3t-1 -2.5t-1 -2.5zM360 743h-20l131 129h31l129 -129h-20l-109 76h-31z" />
    <glyph glyph-name="Atilde.ss01" horiz-adv-x="1015" 
d="M146 25h106v-25h-242v25h109l210 577q11 29 17 43t17.5 29t27 20.5t38.5 5.5h36q40 0 60.5 -22t37.5 -68l51 -141h18l-50 141q-3 7 -8 23.5t-8.5 25t-9.5 19t-14 16.5v6h56q39 0 57 -22.5t37 -75.5l210 -577h103v-25h-366v25h109l-98 270h-405zM356 602l-103 -282h388
l-103 282q-8 24 -12 33t-12 21t-19.5 15.5t-29.5 3.5h-36q-32 0 -44 -13.5t-26 -51.5q-1 -2 -1 -3t-1 -2.5t-1 -2.5zM349 743h-20l10 37q13 44 31.5 66.5t53.5 22.5q32 0 61 -20.5t53 -41t41 -20.5q16 0 24 11t14 34l10 36h20l-10 -36q-13 -44 -32 -66.5t-54 -22.5
q-33 0 -61.5 21.5t-52 43t-41.5 21.5q-16 0 -23 -11.5t-14 -37.5z" />
    <glyph glyph-name="Adieresis.ss01" horiz-adv-x="1015" 
d="M146 25h106v-25h-242v25h109l210 577q11 29 17 43t17.5 29t27 20.5t38.5 5.5h36q40 0 60.5 -22t37.5 -68l51 -141h18l-50 141q-3 7 -8 23.5t-8.5 25t-9.5 19t-14 16.5v6h56q39 0 57 -22.5t37 -75.5l210 -577h103v-25h-366v25h109l-98 270h-405zM356 602l-103 -282h388
l-103 282q-8 24 -12 33t-12 21t-19.5 15.5t-29.5 3.5h-36q-32 0 -44 -13.5t-26 -51.5q-1 -2 -1 -3t-1 -2.5t-1 -2.5zM469 825l-14 -8q-29 -19 -48 -48l-10 -14l-10 14q-22 31 -49 48l-14 8l14 9q27 16 49 48l10 14l10 -14q19 -30 48 -48zM649 825l-14 -8q-29 -19 -48 -48
l-10 -14l-10 14q-22 31 -49 48l-14 8l14 9q27 16 49 48l10 14l10 -14q19 -30 48 -48z" />
    <glyph glyph-name="Aring.ss01" horiz-adv-x="1015" 
d="M146 25h106v-25h-242v25h109l210 577q11 29 17 43t17.5 29t27 20.5t38.5 5.5h36q40 0 60.5 -22t37.5 -68l51 -141h18l-50 141q-3 7 -8 23.5t-8.5 25t-9.5 19t-14 16.5v6h56q39 0 57 -22.5t37 -75.5l210 -577h103v-25h-366v25h109l-98 270h-405zM356 602l-103 -282h388
l-103 282q-8 24 -12 33t-12 21t-19.5 15.5t-29.5 3.5h-36q-32 0 -44 -13.5t-26 -51.5q-1 -2 -1 -3t-1 -2.5t-1 -2.5zM486 743l-108 78l108 78l107 -78zM486 879l-78 -58l78 -58l77 58z" />
    <glyph glyph-name="Amacron.ss01" horiz-adv-x="1015" 
d="M146 25h106v-25h-242v25h109l210 577q11 29 17 43t17.5 29t27 20.5t38.5 5.5h36q40 0 60.5 -22t37.5 -68l51 -141h18l-50 141q-3 7 -8 23.5t-8.5 25t-9.5 19t-14 16.5v6h56q39 0 57 -22.5t37 -75.5l210 -577h103v-25h-366v25h109l-98 270h-405zM356 602l-103 -282h388
l-103 282q-8 24 -12 33t-12 21t-19.5 15.5t-29.5 3.5h-36q-32 0 -44 -13.5t-26 -51.5q-1 -2 -1 -3t-1 -2.5t-1 -2.5zM609 770h-245v25h245v-25z" />
    <glyph glyph-name="Abreve.ss01" horiz-adv-x="1015" 
d="M146 25h106v-25h-242v25h109l210 577q11 29 17 43t17.5 29t27 20.5t38.5 5.5h36q40 0 60.5 -22t37.5 -68l51 -141h18l-50 141q-3 7 -8 23.5t-8.5 25t-9.5 19t-14 16.5v6h56q39 0 57 -22.5t37 -75.5l210 -577h103v-25h-366v25h109l-98 270h-405zM356 602l-103 -282h388
l-103 282q-8 24 -12 33t-12 21t-19.5 15.5t-29.5 3.5h-36q-32 0 -44 -13.5t-26 -51.5q-1 -2 -1 -3t-1 -2.5t-1 -2.5zM358 846l-12 26h20l14 -26q12 -20 41 -33t67 -13q39 0 68 13t41 33l13 26h20l-12 -26q-52 -103 -129 -103q-40 0 -73.5 28t-57.5 75z" />
    <glyph glyph-name="Aogonek.ss01" horiz-adv-x="1015" 
d="M356 602l-103 -282h388l-103 282q-8 24 -12 33t-12 21t-19.5 15.5t-29.5 3.5h-36q-32 0 -44 -13.5t-26 -51.5q-1 -2 -1 -3t-1 -2.5t-1 -2.5zM1005 0h-119l-26 -31q-23 -31 -23 -58q0 -16 11 -24.5t26 -8.5q31 0 56 31l29 -51q-41 -42 -89 -42q-32 0 -54.5 20.5
t-22.5 50.5q0 37 42 83l28 30h-224v25h109l-98 270h-405l-99 -270h106v-25h-242v25h109l210 577q11 29 17 43t17.5 29t27 20.5t38.5 5.5h36q40 0 60.5 -22t37.5 -68l51 -141h18l-50 141q-3 7 -8 23.5t-8.5 25t-9.5 19t-14 16.5v6h56q39 0 57 -22.5t37 -75.5l210 -577h103
v-25z" />
    <glyph glyph-name="ograve.ss01" horiz-adv-x="712" 
d="M356 15q68 0 110 69t42 181t-42 181t-110 69t-110 -69t-42 -181t42 -181t110 -69zM409 274l14 -9l-14 -9q-24 -14 -44 -42l-10 -15l-10 15q-17 27 -43 42l-14 9l14 9q27 17 43 42l10 15l10 -15q19 -27 44 -42zM50 265q0 120 64 197.5t150 77.5h3v-6q-48 -19 -77 -90.5
t-29 -169.5v-9h18v9q0 120 47.5 193t126.5 73q139 0 224 -75.5t85 -199.5q0 -120 -64 -197.5t-150 -77.5h-3v6q48 19 77 90.5t29 169.5v9h-18v-9q0 -120 -47.5 -193t-126.5 -73q-139 0 -224 75.5t-85 199.5zM290 642h-21v60h21l153 -129h-20z" />
    <glyph glyph-name="oacute.ss01" horiz-adv-x="712" 
d="M356 15q68 0 110 69t42 181t-42 181t-110 69t-110 -69t-42 -181t42 -181t110 -69zM409 274l14 -9l-14 -9q-24 -14 -44 -42l-10 -15l-10 15q-17 27 -43 42l-14 9l14 9q27 17 43 42l10 15l10 -15q19 -27 44 -42zM50 265q0 120 64 197.5t150 77.5h3v-6q-48 -19 -77 -90.5
t-29 -169.5v-9h18v9q0 120 47.5 193t126.5 73q139 0 224 -75.5t85 -199.5q0 -120 -64 -197.5t-150 -77.5h-3v6q48 19 77 90.5t29 169.5v9h-18v-9q0 -120 -47.5 -193t-126.5 -73q-139 0 -224 75.5t-85 199.5zM268 573l153 129h21v-60h-21l-133 -69h-20z" />
    <glyph glyph-name="ocircumflex.ss01" horiz-adv-x="712" 
d="M356 15q68 0 110 69t42 181t-42 181t-110 69t-110 -69t-42 -181t42 -181t110 -69zM409 274l14 -9l-14 -9q-24 -14 -44 -42l-10 -15l-10 15q-17 27 -43 42l-14 9l14 9q27 17 43 42l10 15l10 -15q19 -27 44 -42zM50 265q0 120 64 197.5t150 77.5h3v-6q-48 -19 -77 -90.5
t-29 -169.5v-9h18v9q0 120 47.5 193t126.5 73q139 0 224 -75.5t85 -199.5q0 -120 -64 -197.5t-150 -77.5h-3v6q48 19 77 90.5t29 169.5v9h-18v-9q0 -120 -47.5 -193t-126.5 -73q-139 0 -224 75.5t-85 199.5zM341 649l-111 -76h-20l131 129h31l129 -129h-20l-109 76h-31z" />
    <glyph glyph-name="otilde.ss01" horiz-adv-x="712" 
d="M356 15q68 0 110 69t42 181t-42 181t-110 69t-110 -69t-42 -181t42 -181t110 -69zM409 274l14 -9l-14 -9q-24 -14 -44 -42l-10 -15l-10 15q-17 27 -43 42l-14 9l14 9q27 17 43 42l10 15l10 -15q19 -27 44 -42zM50 265q0 120 64 197.5t150 77.5h3v-6q-48 -19 -77 -90.5
t-29 -169.5v-9h18v9q0 120 47.5 193t126.5 73q139 0 224 -75.5t85 -199.5q0 -120 -64 -197.5t-150 -77.5h-3v6q48 19 77 90.5t29 169.5v9h-18v-9q0 -120 -47.5 -193t-126.5 -73q-139 0 -224 75.5t-85 199.5zM228 610l-10 -37h-20l10 37q13 44 31.5 66.5t53.5 22.5
q32 0 61 -20.5t52.5 -41t41.5 -20.5q16 0 24 11t14 34l10 36h20l-10 -36q-13 -44 -32 -66.5t-54 -22.5q-32 0 -61 21.5t-52.5 43t-41.5 21.5q-16 0 -23 -11.5t-14 -37.5z" />
    <glyph glyph-name="odieresis.ss01" horiz-adv-x="712" 
d="M356 15q68 0 110 69t42 181t-42 181t-110 69t-110 -69t-42 -181t42 -181t110 -69zM409 274l14 -9l-14 -9q-24 -14 -44 -42l-10 -15l-10 15q-17 27 -43 42l-14 9l14 9q27 17 43 42l10 15l10 -15q19 -27 44 -42zM50 265q0 120 64 197.5t150 77.5h3v-6q-48 -19 -77 -90.5
t-29 -169.5v-9h18v9q0 120 47.5 193t126.5 73q139 0 224 -75.5t85 -199.5q0 -120 -64 -197.5t-150 -77.5h-3v6q48 19 77 90.5t29 169.5v9h-18v-9q0 -120 -47.5 -193t-126.5 -73q-139 0 -224 75.5t-85 199.5zM324 664l14 -9l-14 -8q-29 -19 -48 -48l-10 -14l-10 14
q-22 31 -49 48l-14 8l14 9q27 16 49 48l10 14l10 -14q20 -30 48 -48zM504 664l14 -9l-14 -8q-29 -19 -48 -48l-10 -14l-10 14q-22 31 -49 48l-14 8l14 9q27 16 49 48l10 14l10 -14q20 -30 48 -48z" />
    <glyph glyph-name="oslash.ss01" horiz-adv-x="712" 
d="M373 305l104 121q-43 89 -121 89q-68 0 -110 -69t-42 -181q0 -77 20 -135l97 113q-1 1 -8 6t-11 7l-14 9l14 9q27 17 43 42l10 15l10 -15q6 -8 8 -11zM338 224l-103 -120q43 -89 121 -89q68 0 110 69t42 181q0 77 -20 135l-97 -113q6 -6 18 -13l14 -9l-14 -9
q-24 -14 -44 -42l-10 -15l-10 15q-1 2 -4 5.5t-3 4.5zM536 494l73 86h33l-85 -100q105 -76 105 -215q0 -120 -64 -197.5t-150 -77.5h-3v6q48 19 77 90.5t29 169.5v9h-18v-9q0 -120 -47.5 -193t-126.5 -73q-106 0 -183 46l-73 -86h-33l85 100q-105 76 -105 215
q0 120 64 197.5t150 77.5h3v-6q-48 -19 -77 -90.5t-29 -169.5v-9h18v9q0 120 47.5 193t126.5 73q106 0 183 -46z" />
    <glyph glyph-name="omacron.ss01" horiz-adv-x="712" 
d="M356 15q68 0 110 69t42 181t-42 181t-110 69t-110 -69t-42 -181t42 -181t110 -69zM409 274l14 -9l-14 -9q-24 -14 -44 -42l-10 -15l-10 15q-17 27 -43 42l-14 9l14 9q27 17 43 42l10 15l10 -15q19 -27 44 -42zM50 265q0 120 64 197.5t150 77.5h3v-6q-48 -19 -77 -90.5
t-29 -169.5v-9h18v9q0 120 47.5 193t126.5 73q139 0 224 -75.5t85 -199.5q0 -120 -64 -197.5t-150 -77.5h-3v6q48 19 77 90.5t29 169.5v9h-18v-9q0 -120 -47.5 -193t-126.5 -73q-139 0 -224 75.5t-85 199.5zM479 625v-25h-245v25h245z" />
    <glyph glyph-name="obreve.ss01" horiz-adv-x="712" 
d="M356 15q68 0 110 69t42 181t-42 181t-110 69t-110 -69t-42 -181t42 -181t110 -69zM409 274l14 -9l-14 -9q-24 -14 -44 -42l-10 -15l-10 15q-17 27 -43 42l-14 9l14 9q27 17 43 42l10 15l10 -15q19 -27 44 -42zM50 265q0 120 64 197.5t150 77.5h3v-6q-48 -19 -77 -90.5
t-29 -169.5v-9h18v9q0 120 47.5 193t126.5 73q139 0 224 -75.5t85 -199.5q0 -120 -64 -197.5t-150 -77.5h-3v6q48 19 77 90.5t29 169.5v9h-18v-9q0 -120 -47.5 -193t-126.5 -73q-139 0 -224 75.5t-85 199.5zM227 676l-12 26h20l14 -26q12 -20 41 -33t67 -13q39 0 68 13
t41 33l13 26h20l-12 -26q-52 -103 -129 -103q-40 0 -73.5 28t-57.5 75z" />
    <glyph glyph-name="ohungarumlaut.ss01" horiz-adv-x="712" 
d="M356 15q68 0 110 69t42 181t-42 181t-110 69t-110 -69t-42 -181t42 -181t110 -69zM409 274l14 -9l-14 -9q-24 -14 -44 -42l-10 -15l-10 15q-17 27 -43 42l-14 9l14 9q27 17 43 42l10 15l10 -15q19 -27 44 -42zM50 265q0 120 64 197.5t150 77.5h3v-6q-48 -19 -77 -90.5
t-29 -169.5v-9h18v9q0 120 47.5 193t126.5 73q139 0 224 -75.5t85 -199.5q0 -120 -64 -197.5t-150 -77.5h-3v6q48 19 77 90.5t29 169.5v9h-18v-9q0 -120 -47.5 -193t-126.5 -73q-139 0 -224 75.5t-85 199.5zM218 573l112 121v14h60v-14l-152 -121h-20zM318 573l119 121v14
h60v-14l-159 -121h-20z" />
    <glyph glyph-name="S_S.dlig" horiz-adv-x="1521" 
d="M204 585v-149q0 -73 73 -73h206q44 0 71 -24.5t27 -65.5v-91h19v91q0 49 -32 78.5t-85 29.5h-206v25h315q53 0 85.5 -38.5t32.5 -102.5v-147q0 -118 -118 -118h-542v200h25v-175h391q90 0 90 90v150q0 73 -73 73h-206q-44 0 -71 24.5t-27 65.5v91h-18v-91q0 -49 32 -78.5
t84 -29.5h206v-25h-315q-53 0 -85.5 38.5t-32.5 102.5v146q0 118 118 118h542v-110q0 -65 62.5 -234.5t62.5 -245.5v-85h392q90 0 90 90v150q0 73 -73 73h-207q-44 0 -71 24.5t-27 65.5v91h-18v-91q0 -49 32 -78.5t84 -29.5h207v-25h-316q-53 0 -85.5 38.5t-32.5 102.5v146
q0 118 118 118h543v-180h-25v155h-392q-90 0 -90 -90v-149q0 -73 73 -73h207q44 0 71 -24.5t27 -65.5v-91h18v91q0 49 -32 78.5t-84 29.5h-207v25h316q53 0 85.5 -38.5t32.5 -102.5v-147q0 -118 -118 -118h-543v110q0 65 -62.5 234.5t-62.5 245.5v85h-391q-90 0 -90 -90z
" />
    <glyph glyph-name="A_A.dlig" horiz-adv-x="1535" 
d="M135 675v25h221q40 0 60.5 -22t37.5 -68l51 -141h18l-50 141q-3 7 -8 23.5t-8.5 25t-9.5 19t-14 16.5v6h56q39 0 57 -22.5t37 -75.5l133 -361l159 434h-111v25h222q40 0 60 -22t38 -68l50 -141h18l-50 141q-3 8 -8 24t-8 24.5t-9.5 19t-14.5 16.5v6h57q38 0 56 -22.5
t38 -75.5l210 -577h102v-25h-366v25h110l-89 243h-23q-205 0 -355 -137l-144 -131h-128v25h109l-88 243h-23q-204 0 -356 -137l-144 -131h-18v25l236 650h-111zM356 675h-83l-226 -624l116 105q150 137 355 137h24l-113 309q-8 24 -12 33t-12 21t-19.5 15.5t-29.5 3.5z
M986 675h-83l-227 -624l116 105q152 137 356 137h23l-112 309q-18 49 -30 60q-14 13 -43 13z" />
    <glyph glyph-name="A_V.dlig" horiz-adv-x="1305" 
d="M10 25l236 650h-111v25h221q40 0 60.5 -22t37.5 -68l51 -141h18l-50 141q-3 7 -8 23.5t-8.5 25t-9.5 19t-14 16.5v6h56q39 0 57 -22.5t37 -75.5l184 -504q18 -49 30 -60q15 -13 43 -13h36q18 0 29.5 3.5t19.5 15.5t12 21t12 33l210 577h-106v25h242v-25h-109l-210 -577
q-11 -29 -17 -43t-17.5 -29t-27 -20.5t-38.5 -5.5h-36q-40 0 -60.5 22t-37.5 68l-50 141h-19l51 -141q3 -8 8 -24t8 -24.5t9.5 -19t14.5 -16.5v-6h-57q-38 0 -56 22.5t-38 75.5l-62 170h-23q-204 0 -356 -137l-144 -131h-18v25zM273 675l-226 -624l116 105q150 137 355 137
h24l-113 309q-8 24 -12 33t-12 21t-19.5 15.5t-29.5 3.5h-83z" />
    <glyph glyph-name="H_B.dlig" horiz-adv-x="1353" 
d="M10 675v25h354v-25h-100v-239q0 -73 73 -73h220q43 0 70.5 -24t27.5 -66v-91h18v91q0 50 -33 79t-83 29v25q73 0 73 73v196h-100v25h661q54 0 83 -29t29 -84v-116q0 -38 -23 -62t-62 -27q85 -33 85 -117v-152q0 -55 -29 -84t-83 -29h-661v25h100v240q0 73 -73 73h-220
q-44 0 -71 24.5t-27 65.5v91h-18v-91q0 -49 32 -78.5t84 -29.5v-25q-73 0 -73 -73v-197h100v-25h-354v25h100v650h-100zM1059 675h-275v-239q0 -73 73 -73h219q44 0 71 -24.5t27 -65.5v-91h19v91q0 49 -32 78.5t-85 29.5v25q73 0 73 73v106q0 90 -90 90zM759 519h-19v-91
q0 -50 33 -79t84 -29v-25q-73 0 -73 -73v-197h275q90 0 90 90v150q0 73 -73 73h-219q-43 0 -70.5 24t-27.5 66v91z" />
    <glyph glyph-name="H_D.dlig" horiz-adv-x="1387" 
d="M10 675v25h354v-25h-100v-239q0 -73 73 -73h220q43 0 70.5 -24t27.5 -66v-91h18v91q0 50 -33 79t-83 29v25q73 0 73 73v196h-100v25h375v-6q-82 -32 -123.5 -129.5t-41.5 -201.5v-13h19v13q0 52 13.5 108t39 108.5t70.5 86.5t101 34q160 0 257 -96t97 -254t-74.5 -254
t-197.5 -96h-4v6q75 27 120 118.5t45 212.5v13h-18v-13q0 -148 -66 -242.5t-159 -94.5h-453v25h100v240q0 73 -73 73h-220q-44 0 -71 24.5t-27 65.5v91h-18v-91q0 -49 32 -78.5t84 -29.5v-25q-73 0 -73 -73v-197h100v-25h-354v25h100v650h-100zM784 350v-325h199
q87 0 143.5 90t56.5 235q0 146 -55 235.5t-145 89.5q-86 0 -142.5 -90t-56.5 -235z" />
    <glyph glyph-name="H_E.dlig" horiz-adv-x="1230" 
d="M10 675v25h354v-25h-100v-239q0 -73 73 -73h220q43 0 70.5 -24t27.5 -66v-91h18v91q0 50 -33 79t-83 29v25q73 0 73 73v196h-100v25h250v-6q-40 -31 -40 -84v-128h19v128q0 42 27.5 66t70.5 24h323v-225h-25v200h-298q-73 0 -73 -73v-227h396v-25h-396v-252q0 -73 73 -73
h298v200h25v-225h-323q-43 0 -70.5 24t-27.5 66v128h-19v-128q0 -53 40 -84v-6h-250v25h100v240q0 73 -73 73h-220q-44 0 -71 24.5t-27 65.5v91h-18v-91q0 -49 32 -78.5t84 -29.5v-25q-73 0 -73 -73v-197h100v-25h-354v25h100v650h-100z" />
    <glyph glyph-name="F_F.dlig" horiz-adv-x="1074" 
d="M221 482h18v128q0 41 27 65.5t71 24.5h311v-6q-40 -30 -40 -84v-128h18v128q0 41 27 65.5t71 24.5h300v-225h-25v200h-275q-73 0 -73 -73v-227h366v-25h-366v-325h94v-25h-348v25h100v650h-160q-73 0 -73 -73v-227h159v-25h-159v-325h93v-25h-347v25h100v650h-100v25h251
v-6q-40 -30 -40 -84v-128z" />
    <glyph glyph-name="F_I.dlig" horiz-adv-x="864" 
d="M221 482h18v128q0 41 27 65.5t71 24.5h190q44 0 71 -24.5t27 -65.5v-141h19v141q0 54 -40 84v6h250v-25h-100v-650h100v-25h-354v25h100v577q0 73 -73 73h-190q-73 0 -73 -73v-227h222v-25h-222v-325h93v-25h-347v25h100v650h-100v25h251v-6q-40 -30 -40 -84v-128z" />
    <glyph glyph-name="F_L.dlig" horiz-adv-x="1195" 
d="M221 482h18v128q0 41 27 65.5t71 24.5h522v-25h-93v-577q0 -73 73 -73h281v200h25v-225h-306q-44 0 -71 24.5t-27 65.5v128h-19v-128q0 -53 40 -84v-6h-250v25h100v650h-275q-73 0 -73 -73v-227h216v-25h-216v-325h93v-25h-347v25h100v650h-100v25h251v-6
q-40 -30 -40 -84v-128z" />
    <glyph glyph-name="F_T.dlig" horiz-adv-x="1248" 
d="M221 482h18v128q0 41 27 65.5t71 24.5h158v-25h-158q-73 0 -73 -73v-227h293v325h399v-6q-40 -30 -40 -84v-128h18v128q0 41 27 65.5t71 24.5h206v-225h-25v200h-181q-73 0 -73 -73v-577h94v-25h-348v25h100v650h-223v-325h-318v-325h93v-25h-347v25h100v650h-100v25h251
v-6q-40 -30 -40 -84v-128z" />
    <glyph glyph-name="M_B.dlig" horiz-adv-x="1593" 
d="M110 675h-100v25h216q76 0 96 -90l33 -141h18l-33 141q-16 68 -38 84v6h57q74 0 94 -98l109 -537l109 537q10 50 32 74t67 24h27q43 0 70.5 -24t27.5 -66v-141h18v141q0 54 -40 84v6h558q54 0 83 -29t29 -84v-116q0 -38 -23 -62t-62 -27q85 -33 85 -117v-152
q0 -55 -29 -84t-83 -29h-661v25h100v577q0 73 -73 73h-27q-35 0 -50 -17t-23 -56l-122 -602h-154l-122 602q-8 39 -23 56t-50 17h-90v-650h99v-25h-225v25h100v650zM1299 675h-275v-239q0 -73 73 -73h219q44 0 71 -24.5t27 -65.5v-91h19v91q0 49 -32 78.5t-85 29.5v25
q73 0 73 73v106q0 90 -90 90zM999 519h-19v-91q0 -50 33 -79t84 -29v-25q-73 0 -73 -73v-197h275q90 0 90 90v150q0 73 -73 73h-219q-43 0 -70.5 24t-27.5 66v91z" />
    <glyph glyph-name="M_D.dlig" horiz-adv-x="1627" 
d="M10 675v25h216q76 0 96 -90l33 -141h18l-33 141q-16 68 -38 84v6h57q74 0 94 -98l109 -537l109 537q10 50 32 74t67 24h27q43 0 70.5 -24t27.5 -66v-141h18v141q0 54 -40 84v6h272v-6q-82 -32 -123.5 -129.5t-41.5 -201.5v-13h19v13q0 41 8 85.5t26 89.5t43 81t63.5 58.5
t83.5 22.5q160 0 257 -96t97 -254t-74.5 -254t-197.5 -96h-4v6q75 27 120 118.5t45 212.5v13h-18v-13q0 -148 -66 -242.5t-159 -94.5h-453v25h100v577q0 73 -73 73h-27q-35 0 -50 -17t-23 -56l-122 -602h-154l-122 602q-8 39 -23 56t-50 17h-90v-650h99v-25h-225v25h100v650
h-100zM1024 350v-325h199q87 0 143.5 90t56.5 235q0 146 -55 235.5t-145 89.5q-86 0 -142.5 -90t-56.5 -235z" />
    <glyph glyph-name="M_E.dlig" horiz-adv-x="1470" 
d="M10 675v25h216q76 0 96 -90l33 -141h18l-33 141q-16 68 -38 84v6h57q74 0 94 -98l109 -537l109 537q10 49 31.5 73t63.5 25h31q43 0 70.5 -24t27.5 -66v-141h18v141q0 54 -40 84v6h147v-6q-40 -31 -40 -84v-128h19v128q0 42 27.5 66t70.5 24h323v-225h-25v200h-298
q-73 0 -73 -73v-227h396v-25h-396v-252q0 -73 73 -73h298v200h25v-225h-323q-43 0 -70.5 24t-27.5 66v128h-19v-128q0 -53 40 -84v-6h-250v25h100v577q0 73 -73 73h-27q-35 0 -50 -17t-23 -56l-122 -602h-154l-122 602q-8 39 -23 56t-50 17h-90v-650h99v-25h-225v25h100v650
h-100z" />
    <glyph glyph-name="M_P.dlig" horiz-adv-x="1539" 
d="M10 675v25h216q76 0 96 -90l33 -141h18l-33 141q-16 68 -38 84v6h57q74 0 94 -98l109 -537l109 537q10 49 31.5 73t63.5 25h31q43 0 70.5 -24t27.5 -66v-141h18v141q0 54 -40 84v6h147v-6q-40 -31 -40 -84v-141h19v141q0 42 27.5 66t70.5 24h294q47 0 72.5 -25.5
t25.5 -72.5v-331q0 -44 -26 -71t-68 -27h-371v-148h103v-25h-357v25h100v577q0 73 -73 73h-27q-35 0 -50 -17t-23 -56l-122 -602h-154l-122 602q-8 39 -23 56t-50 17h-90v-650h99v-25h-225v25h100v650h-100zM1024 602v-404h238q73 0 73 73v331q0 73 -73 73h-165
q-73 0 -73 -73z" />
    <glyph glyph-name="O_C.dlig" horiz-adv-x="1262" 
d="M50 350q0 161 74 255.5t198 94.5h4v-6q-75 -27 -120 -116.5t-45 -213.5v-14h18v14q0 151 66 243.5t159 92.5h710q44 0 71 -27t27 -71v-125h-154v125q0 73 -73 73h-226q73 -37 115 -122.5t42 -202.5t-42 -202.5t-115 -122.5h355q73 0 73 73v117h25v-125q0 -41 -27 -65.5
t-71 -24.5h-710q-161 0 -257.5 94.5t-96.5 255.5zM404 25h139q-73 37 -115 122.5t-42 202.5t42 202.5t115 122.5h-139q-87 0 -143.5 -88.5t-56.5 -236.5q0 -150 54.5 -237.5t145.5 -87.5zM651 25q108 0 174 89.5t66 235.5t-66 235.5t-174 89.5t-174 -89.5t-66 -235.5
t66 -235.5t174 -89.5zM584 340l-17 10l17 11q32 20 57 56l12 17l12 -17q25 -36 57 -56l17 -11l-17 -10q-29 -17 -57 -57l-12 -17l-12 17q-28 40 -57 57z" />
    <glyph glyph-name="O_G.dlig" horiz-adv-x="1285" 
d="M50 350q0 161 74 255.5t198 94.5h4v-6q-75 -27 -120 -116.5t-45 -213.5v-14h18v14q0 151 66 243.5t159 92.5h831v-25h-477q73 -37 115 -122.5t42 -202.5t-42 -202.5t-115 -122.5h250q73 0 73 73v407h-100v25h254v-530h-150v6q40 31 40 84v141h-19v-141q0 -41 -27 -65.5
t-71 -24.5h-604q-161 0 -257.5 94.5t-96.5 255.5zM542 675h-138q-87 0 -143.5 -88.5t-56.5 -236.5q0 -150 54.5 -237.5t145.5 -87.5h138q-73 37 -115 122.5t-42 202.5t42 202.5t115 122.5zM650 675q-108 0 -174 -89.5t-66 -235.5t66 -235.5t174 -89.5t174 89.5t66 235.5
t-66 235.5t-174 89.5zM580 340l-17 10l17 11q32 20 57 56l12 17l12 -17q25 -36 57 -56l17 -11l-17 -10q-29 -17 -57 -57l-12 -17l-12 17q-28 40 -57 57z" />
    <glyph glyph-name="O_O.dlig" horiz-adv-x="1311" 
d="M50 350q0 161 74 255.5t198 94.5h4v-6q-75 -27 -120 -116.5t-45 -213.5v-14h18v14q0 151 66 243.5t159 92.5h503q93 0 159 -92.5t66 -243.5v-14h18v14q0 124 -45 213.5t-120 116.5v6h3q124 0 198.5 -94.5t74.5 -255.5t-97 -255.5t-257 -94.5h-503q-161 0 -257.5 94.5
t-96.5 255.5zM546 675h-142q-87 0 -143.5 -88.5t-56.5 -236.5q0 -150 54.5 -237.5t145.5 -87.5h142q-73 37 -115 122.5t-42 202.5t42 202.5t115 122.5zM907 675h-143q73 -37 115 -122.5t42 -202.5t-42 -202.5t-115 -122.5h143q91 0 145.5 87.5t54.5 237.5q0 148 -56.5 236.5
t-143.5 88.5zM654 675q-108 0 -174 -89.5t-66 -235.5t66 -235.5t174 -89.5t175 89.5t67 235.5t-67 235.5t-175 89.5zM587 340l-17 10l17 11q32 20 57 56l12 17l12 -17q25 -36 57 -56l17 -11l-17 -10q-29 -17 -57 -57l-12 -17l-12 17q-28 40 -57 57z" />
    <glyph glyph-name="S_T.dlig" horiz-adv-x="1276" 
d="M204 585v-149q0 -73 73 -73h206q44 0 71 -24.5t27 -65.5v-91h19v91q0 49 -32 78.5t-85 29.5h-206v25h315q53 0 85.5 -38.5t32.5 -102.5v-147q0 -118 -118 -118h-542v200h25v-175h391q90 0 90 90v150q0 73 -73 73h-206q-44 0 -71 24.5t-27 65.5v91h-18v-91q0 -49 32 -78.5
t84 -29.5h206v-25h-315q-53 0 -85.5 38.5t-32.5 102.5v146q0 118 118 118h816v-6q-40 -31 -40 -84v-128h19v128q0 41 27 65.5t71 24.5h205v-225h-25v200h-180q-73 0 -73 -73v-577h93v-25h-347v25h100v650h-254v-200h-25v200h-261q-90 0 -90 -90z" />
    <glyph glyph-name="T_E.dlig" horiz-adv-x="889" 
d="M10 475v225h429v-6q-40 -30 -40 -84v-128h18v128q0 41 27 65.5t71 24.5h324v-225h-25v200h-299q-73 0 -73 -73v-227h397v-25h-397v-252q0 -73 73 -73h299v200h25v-225h-324q-43 0 -70.5 24t-27.5 66v128h-18v-128q0 -54 40 -84v-6h-251v25h100v650h-253v-200h-25z" />
    <glyph glyph-name="T_H_E.dlig" horiz-adv-x="1382" 
d="M35 475h-25v225h532v-25h-100v-239q0 -73 73 -73h220q43 0 70.5 -24t27.5 -66v-91h18v91q0 50 -32.5 79t-83.5 29v25q73 0 73 73v196h-100v25h251v-6q-40 -30 -40 -84v-128h18v128q0 42 27.5 66t70.5 24h323v-225h-25v200h-298q-73 0 -73 -73v-227h396v-25h-396v-252
q0 -73 73 -73h298v200h25v-225h-323q-43 0 -70.5 24t-27.5 66v128h-18v-128q0 -54 40 -84v-6h-251v25h100v240q0 73 -73 73h-220q-43 0 -70.5 24t-27.5 66v91h-18v-91q0 -50 32.5 -79t83.5 -29v-25q-73 0 -73 -73v-197h100v-25h-354v25h100v650h-253v-200z" />
    <glyph glyph-name="T_R.dlig" horiz-adv-x="1113" 
d="M10 475v225h835q114 0 114 -114v-112q0 -40 -28.5 -65t-75.5 -25h-29q62 -21 90 -112l82 -247h105v-25h-354v25h95l-84 257q-10 30 -15.5 42t-19.5 21.5t-38 9.5h-172q-43 0 -70.5 24t-27.5 66v64h-18v-64q0 -50 32.5 -79t83.5 -29v-25q-73 0 -73 -73v-214h100v-25h-354
v25h100v650h-253v-200h-25zM715 675h-273v-222q0 -73 73 -73h175q39 -1 59.5 -23.5t35.5 -66.5l32 -109h18l-32 109q-23 75 -71 94v25q73 0 73 73v103q0 90 -90 90z" />
    <glyph glyph-name="T_T.dlig" horiz-adv-x="1113" 
d="M10 475v225h429v-6q-16 -11 -28 -36t-12 -48v-128h18v128q0 41 28 65.5t70 24.5h306v-6q-40 -31 -40 -84v-128h19v128q0 41 27 65.5t71 24.5h205v-225h-25v200h-180q-73 0 -73 -73v-577h93v-25h-347v25h100v650h-156q-73 0 -73 -73v-577h94v-25h-348v25h100v650h-253
v-200h-25z" />
    <glyph glyph-name="T_W.dlig" horiz-adv-x="1739" 
d="M10 475v225h429v-6q-18 -11 -29 -36t-11 -48v-128h18v128q0 41 28 65.5t70 24.5h267v-25h-113l117 -577q8 -39 23 -56t50 -17h53q35 0 50.5 17t22.5 56l123 602h53l122 -602q8 -39 23 -56t50 -17h53q35 0 50 17t23 56l117 577h-104v25h234v-25h-105l-117 -577
q-10 -51 -31.5 -74.5t-66.5 -23.5h-53q-81 0 -98 90l-29 141h-19l30 -141q11 -63 40 -84v-6h-57q-74 0 -94 98l-59 303l-60 -303q-10 -51 -31.5 -74.5t-66.5 -23.5h-53q-81 0 -98 90l-29 141h-18l29 -141q11 -63 40 -84v-6h-57q-74 0 -94 98l-117 577q-73 0 -73 -73v-577h94
v-25h-348v25h100v650h-253v-200h-25z" />
    <glyph glyph-name="T_Y.dlig" horiz-adv-x="1333" 
d="M10 475v225h429v-6q-18 -11 -29 -36t-11 -48v-128h18v128q0 41 28 65.5t70 24.5h245v-25h-91l110 -294q8 -24 12 -33t12 -21t19.5 -15.5t29.5 -3.5h153q32 0 44 13.5t26 51.5q2 5 3 8l109 294h-101v25h237v-25h-109l-109 -294q-11 -29 -17 -43t-17.5 -29t-27 -20.5
t-38.5 -5.5h-153q-41 0 -61.5 22.5t-36.5 67.5l-53 141h-18l52 -141q38 -108 117 -108h90v-240h100v-25h-354v25h100v216q-51 3 -96 41.5t-67 98.5l-110 294q-73 0 -73 -73v-577h94v-25h-348v25h100v650h-253v-200h-25z" />
    <glyph glyph-name="T_h.dlig" horiz-adv-x="1369" 
d="M399 482h18v128q0 41 27 65.5t71 24.5h326v-174q-43 -29 -43 -86v-131h18v131q0 41 27 65.5t71 24.5h247q98 0 98 -98v-407h100v-25h-347v25h93v407q0 73 -73 73h-118q-73 0 -73 -73v-407h94v-25h-348v25h100v650h-172q-73 0 -73 -73v-577h94v-25h-348v25h100v650h-253
v-200h-25v225h429v-6q-40 -30 -40 -84v-128z" />
    <glyph glyph-name="U_B.dlig" horiz-adv-x="1427" 
d="M10 675v25h357v-25h-103v-577q0 -73 73 -73h293q73 0 73 73v577h-100v25h661q55 0 84 -29t29 -84v-116q0 -38 -23 -62t-63 -27q86 -33 86 -117v-152q0 -55 -29 -84t-84 -29h-561v26q-26 -26 -73 -26h-293q-44 0 -71 24.5t-27 65.5v141h-18v-141q0 -54 40 -84v-6h-57
q-42 0 -68 27t-26 71v577h-100zM1133 675h-276v-239q0 -73 73 -73h220q44 0 71 -24.5t27 -65.5v-91h18v91q0 49 -32 78.5t-84 29.5v25q73 0 73 73v106q0 90 -90 90zM832 519h-18v-91q0 -49 32 -78.5t84 -29.5l1 -25q-73 0 -73 -73v-197h275q90 0 90 90v150q0 73 -73 73h-220
q-44 0 -71 24.5t-27 65.5v91z" />
    <glyph glyph-name="U_D.dlig" horiz-adv-x="1461" 
d="M10 675v25h357v-25h-103v-577q0 -73 73 -73h293q73 0 73 73v577h-100v25h376v-6q-75 -27 -120 -118.5t-45 -212.5v-13h18v13q0 148 66 242.5t159 94.5q159 0 256.5 -96.5t97.5 -253.5q0 -158 -74.5 -254t-198.5 -96h-3v6q75 27 120 118.5t45 212.5v13h-18v-13
q0 -148 -66 -242.5t-159 -94.5h-354v26q-26 -26 -73 -26h-293q-44 0 -71 24.5t-27 65.5v141h-18v-141q0 -54 40 -84v-6h-57q-42 0 -68 27t-26 71v577h-100zM1057 675q-87 0 -143.5 -90t-56.5 -235v-325h200q87 0 143.5 90t56.5 235q0 146 -55 235.5t-145 89.5z" />
    <glyph glyph-name="U_L.dlig" horiz-adv-x="1287" 
d="M10 675v25h357v-25h-103v-577q0 -73 73 -73h293q73 0 73 73v577h-100v25h348v-25h-94v-577q0 -73 73 -73h282v200h25v-225h-307q-44 0 -71 24.5t-27 65.5v128h-18v-128q0 -54 40 -84v-6h-151v26q-26 -26 -73 -26h-293q-44 0 -71 24.5t-27 65.5v141h-18v-141q0 -54 40 -84
v-6h-57q-42 0 -68 27t-26 71v577h-100z" />
    <glyph glyph-name="U_P.dlig" horiz-adv-x="1372" 
d="M10 675v25h357v-25h-103v-577q0 -73 73 -73h293q73 0 73 73v577h-100v25h251v-6q-17 -11 -28.5 -35.5t-11.5 -48.5v-141h18v141q0 41 28 65.5t70 24.5h294q47 0 72.5 -25.5t25.5 -72.5v-331q0 -44 -25.5 -71t-68.5 -27h-371v-148h100v-25h-254v26q-26 -26 -73 -26h-293
q-44 0 -71 24.5t-27 65.5v141h-18v-141q0 -54 40 -84v-6h-57q-42 0 -68 27t-26 71v577h-100zM857 602v-404h238q73 0 73 73v331q0 73 -73 73h-165q-73 0 -73 -73z" />
    <glyph glyph-name="U_R.dlig" horiz-adv-x="1528" 
d="M10 675v25h357v-25h-103v-577q0 -73 73 -73h293q73 0 73 73v577h-100v25h657q114 0 114 -114v-112q0 -40 -28.5 -65t-75.5 -25h-29q62 -21 90 -112l82 -247h105v-25h-354v25h95l-84 257q-10 30 -15.5 42t-19.5 21.5t-38 9.5h-172q-44 0 -71 24.5t-27 65.5v64h-18v-64
q0 -49 32 -78.5t84 -29.5v-25q-73 0 -73 -73v-214h100v-25h-254v26q-26 -26 -73 -26h-293q-44 0 -71 24.5t-27 65.5v141h-18v-141q0 -54 40 -84v-6h-57q-42 0 -68 27t-26 71v577h-100zM1130 675h-273v-222q0 -73 73 -73h175q39 -1 59.5 -23.5t35.5 -66.5l32 -109h18l-32 109
q-23 75 -71 94v25q73 0 73 73v103q0 90 -90 90z" />
    <glyph glyph-name="zero.numr" horiz-adv-x="552" 
d="M50 332v320q0 77 78 77h325q77 0 77 -77v-320q0 -77 -77 -77h-325q-78 0 -78 77zM187 651v-238q-32 -46 -32 -95v-9h15v15q0 46 39 94l149 161q32 39 34 72q6 62 -59 62h-85q-61 0 -61 -62zM248 272h85q60 0 60 61v238q31 46 31 96v9h-14v-16q0 -47 -39 -93l-149 -161
q-32 -39 -35 -73q-2 -29 13.5 -45t47.5 -16z" />
    <glyph glyph-name="one.numr" horiz-adv-x="334" 
d="M136 684h-13v-101q0 -27 -17 -43t-46 -16h-18v16h18q47 0 47 48v112h119v-439h98v-16h-314v16h97v265q29 17 29 57v101z" />
    <glyph glyph-name="two.numr" horiz-adv-x="552" 
d="M501 636v-62q0 -78 -68 -113q-26 -14 -130 -55t-145 -70h341v-91h-449q0 14 7.5 28.5t25.5 31t33.5 29.5t46.5 32t48 29.5t54.5 32t50.5 29.5q66 34 66 117v62q0 48 -47 48h-119q-47 0 -47 -48v-68h-119v68q0 31 16.5 47.5t46.5 16.5h222q29 0 46 -16t17 -42v-66h13v66
q0 35 -26 54v4h55q28 0 44.5 -17.5t16.5 -46.5z" />
    <glyph glyph-name="three.numr" horiz-adv-x="539" 
d="M50 378h119v-69q0 -48 47 -48h95q58 0 58 59v84q0 47 -47 47v16q35 0 55.5 19.5t20.5 52.5v62h-12v-62q0 -26 -18 -42.5t-46 -16.5h-145v17h145q47 0 47 47v81q0 59 -58 59h-95q-47 0 -47 -48v-68h-119v68q0 31 16.5 47.5t46.5 16.5h299q77 0 77 -77v-79q0 -56 -57 -77
q26 -1 41.5 -17t15.5 -41v-87q0 -77 -77 -77h-299q-30 0 -46.5 16.5t-16.5 47.5v69z" />
    <glyph glyph-name="four.numr" horiz-adv-x="646" 
d="M50 361l222 339h69q29 0 46.5 -16t17.5 -42v-112h13v112q0 35 -26 54v4h115v-323h89v-16h-89v-100h66v-16h-254v16h70v100h-339zM324 684l-239 -307h304v259q0 48 -48 48h-17z" />
    <glyph glyph-name="five.numr" horiz-adv-x="518" 
d="M468 611h-388l-13 -83q-4 -23 9.5 -35t38.5 -12h186q29 0 46 -16t17 -43v-62h14v62q0 32 -21.5 52t-55.5 20h-186v16h276q35 0 56 -25.5t21 -67.5v-95q0 -77 -77 -77h-340v130h16v-114h223q58 0 58 59v97q0 48 -47 48h-186q-30 0 -49 16.5t-15 41.5l26 177h391v-89z" />
    <glyph glyph-name="six.numr" horiz-adv-x="528" 
d="M169 636v-85h246q30 0 46.5 -17t16.5 -47v-178q0 -31 -16.5 -47.5t-46.5 -16.5h-199q-29 0 -46 16t-17 43v112h-14v-112q0 -35 26 -55v-4h-54q-28 0 -44.5 17.5t-16.5 46.5v327q0 31 16.5 47.5t46.5 16.5h365v-16h-262q-47 0 -47 -48zM311 534h-142v-225q0 -48 47 -48h95
q48 0 48 48v178q0 47 -48 47z" />
    <glyph glyph-name="seven.numr" horiz-adv-x="538" 
d="M267 245h-119q0 78 63.5 165.5t161.5 163.5l99 77v17l-80 -59h-342v91h438v-53l-95 -80q-54 -51 -90 -140.5t-36 -181.5z" />
    <glyph glyph-name="eight.numr" horiz-adv-x="539" 
d="M412 245h-286q-76 0 -76 77v71q0 25 15 41t41 18q-56 21 -56 76v95q0 77 76 77h286q77 0 77 -77v-70q0 -25 -15.5 -41t-41.5 -17q57 -23 57 -78v-95q0 -77 -77 -77zM322 494v16h41q47 0 47 48v67q0 59 -58 59h-125q-58 0 -58 -59v-97q0 -47 47 -47h106q29 0 46.5 -16
t17.5 -43v-62h12v62q0 33 -20.5 52.5t-55.5 19.5zM216 452v-17h-41q-47 0 -47 -47v-68q0 -59 58 -59h125q58 0 58 59v97q0 48 -47 48h-106q-29 0 -46 16t-17 42v63h-14v-63q0 -32 21.5 -51.5t55.5 -19.5z" />
    <glyph glyph-name="nine.numr" horiz-adv-x="528" 
d="M359 309v86h-246q-30 0 -46.5 16.5t-16.5 46.5v178q0 31 16.5 47.5t46.5 16.5h198q29 0 46.5 -16t17.5 -42v-112h13v112q0 35 -26 54v4h54q28 0 45 -17.5t17 -46.5v-327q0 -31 -16.5 -47.5t-46.5 -16.5h-365v16h261q48 0 48 48zM216 411h143v225q0 48 -48 48h-95
q-47 0 -47 -48v-178q0 -47 47 -47z" />
    <glyph glyph-name="zero.dnom" horiz-adv-x="552" 
d="M50 77v320q0 77 78 77h325q77 0 77 -77v-320q0 -77 -77 -77h-325q-78 0 -78 77zM187 396v-238q-32 -46 -32 -96v-9h15v16q0 46 39 94l149 161q32 39 34 72q6 61 -59 61h-85q-61 0 -61 -61zM248 17h85q60 0 60 61v238q31 44 31 96v9h-14v-16q0 -47 -39 -94l-149 -161
q-32 -38 -35 -72q-2 -29 13.5 -45t47.5 -16z" />
    <glyph glyph-name="one.dnom" horiz-adv-x="334" 
d="M136 439h-13v-101q0 -27 -17 -43t-46 -16h-18v16h18q47 0 47 48v112h119v-439h98v-16h-314v16h97v265q29 17 29 57v101z" />
    <glyph glyph-name="two.dnom" horiz-adv-x="552" 
d="M501 391v-62q0 -78 -68 -113q-26 -14 -130 -55t-145 -70h341v-91h-449q0 14 7.5 28.5t25.5 31t33.5 29.5t46.5 32t48 29.5t54.5 32t50.5 29.5q66 34 66 117v62q0 48 -47 48h-119q-47 0 -47 -48v-68h-119v68q0 31 16.5 47.5t46.5 16.5h222q29 0 46 -16t17 -42v-66h13v66
q0 35 -26 54v4h55q28 0 44.5 -17.5t16.5 -46.5z" />
    <glyph glyph-name="three.dnom" horiz-adv-x="539" 
d="M50 133h119v-69q0 -48 47 -48h95q58 0 58 59v84q0 47 -47 47v16q35 0 55.5 19.5t20.5 52.5v62h-12v-62q0 -26 -18 -42.5t-46 -16.5h-145v17h145q47 0 47 47v81q0 59 -58 59h-95q-47 0 -47 -48v-68h-119v68q0 31 16.5 47.5t46.5 16.5h299q77 0 77 -77v-79q0 -56 -57 -77
q26 -1 41.5 -17t15.5 -41v-87q0 -77 -77 -77h-299q-30 0 -46.5 16.5t-16.5 47.5v69z" />
    <glyph glyph-name="four.dnom" horiz-adv-x="646" 
d="M50 116l222 339h69q29 0 46.5 -16t17.5 -42v-112h13v112q0 35 -26 54v4h115v-323h89v-16h-89v-100h66v-16h-254v16h70v100h-339zM324 439l-239 -307h304v259q0 48 -48 48h-17z" />
    <glyph glyph-name="five.dnom" horiz-adv-x="518" 
d="M468 366h-388l-13 -83q-4 -23 9.5 -35t38.5 -12h186q29 0 46 -16t17 -43v-62h14v62q0 32 -21.5 52t-55.5 20h-186v16h276q35 0 56 -25.5t21 -67.5v-95q0 -77 -77 -77h-340v130h16v-114h223q58 0 58 59v97q0 48 -47 48h-186q-30 0 -49 16.5t-15 41.5l26 177h391v-89z" />
    <glyph glyph-name="six.dnom" horiz-adv-x="528" 
d="M169 391v-85h246q30 0 46.5 -17t16.5 -47v-178q0 -31 -16.5 -47.5t-46.5 -16.5h-199q-29 0 -46 16t-17 43v112h-14v-112q0 -35 26 -55v-4h-54q-28 0 -44.5 17.5t-16.5 46.5v327q0 31 16.5 47.5t46.5 16.5h365v-16h-262q-47 0 -47 -48zM311 289h-142v-225q0 -48 47 -48h95
q48 0 48 48v178q0 47 -48 47z" />
    <glyph glyph-name="seven.dnom" horiz-adv-x="538" 
d="M267 0h-119q0 78 63.5 165.5t161.5 163.5l99 77v17l-80 -59h-342v91h438v-53l-95 -80q-54 -51 -90 -140.5t-36 -181.5z" />
    <glyph glyph-name="eight.dnom" horiz-adv-x="539" 
d="M412 0h-286q-76 0 -76 77v71q0 25 15 41t41 18q-56 21 -56 76v95q0 77 76 77h286q77 0 77 -77v-70q0 -25 -15.5 -41t-41.5 -17q57 -23 57 -78v-95q0 -77 -77 -77zM322 249v16h41q47 0 47 48v67q0 59 -58 59h-125q-58 0 -58 -59v-97q0 -47 47 -47h106q29 0 46.5 -16
t17.5 -43v-62h12v62q0 33 -20.5 52.5t-55.5 19.5zM216 207v-17h-41q-47 0 -47 -47v-68q0 -59 58 -59h125q58 0 58 59v97q0 48 -47 48h-106q-29 0 -46 16t-17 42v63h-14v-63q0 -32 21.5 -51.5t55.5 -19.5z" />
    <glyph glyph-name="nine.dnom" horiz-adv-x="528" 
d="M359 64v86h-246q-30 0 -46.5 16.5t-16.5 46.5v178q0 31 16.5 47.5t46.5 16.5h198q29 0 46.5 -16t17.5 -42v-112h13v112q0 35 -26 54v4h54q28 0 45 -17.5t17 -46.5v-327q0 -31 -16.5 -47.5t-46.5 -16.5h-365v16h261q48 0 48 48zM216 166h143v225q0 48 -48 48h-95
q-47 0 -47 -48v-178q0 -47 47 -47z" />
    </font>
</defs>
</svg>
