<?xml version="1.0" standalone="no"?>
<!DOCTYPE svg PUBLIC "-//W3C//DTD SVG 1.1//EN" "http://www.w3.org/Graphics/SVG/1.1/DTD/svg11.dtd" >
<svg xmlns="http://www.w3.org/2000/svg" xmlns:xlink="http://www.w3.org/1999/xlink" version="1.1">
<metadata>
Created by FontForge 20200314 at Sun Jul 30 17:39:54 2023
 By Unknown
Chillight (c) zamjumps. 2023. All Rights Reserved
</metadata>
<defs>
<font id="Chillight" horiz-adv-x="1709" >
  <font-face 
    font-family="Chillight"
    font-weight="400"
    font-stretch="normal"
    units-per-em="2048"
    panose-1="2 0 6 0 0 0 0 0 0 0"
    ascent="1638"
    descent="-410"
    x-height="976"
    cap-height="1484"
    bbox="-669 -616.013 7574 1928"
    underline-thickness="150"
    underline-position="-292"
    unicode-range="U+0020-FB2D"
  />
<missing-glyph horiz-adv-x="874" 
d="M0 0v1434h824v-1434h-824zM50 50h724v1334h-724v-1334zM225 1148q31 28 58 43q53 30 112 30q92 0 148 -47.5t56 -127.5q0 -49 -23 -98.5t-87 -129.5q-63 -80 -99 -132t-36 -99q0 -38 24 -133h-32q-35 97 -35 148q0 76 81.5 218t81.5 217q0 57 -33 90t-91 33
q-38 0 -69 -17q-26 -15 -56 -40v45zM289 334l57 58q11 10 20 10q10 0 22 -11l56 -60q9 -11 9 -20q0 -11 -10 -22l-56 -62q-14 -14 -21 -14q-11 0 -20 10l-61 71q-7 9 -7 18q0 10 11 22z" />
    <glyph glyph-name="AE" unicode="AE" horiz-adv-x="2463" 
d="M1119 673q2 60 2 122q0 318 -58 518q-57 63 -160 49q-39 -355 -39 -689h255zM1116 595h-252q0 -362 51 -595h-610q93 313 105 591q-102 2 -112 -113q-6 -72 63 -141q-82 -36 -161 -36q-200 0 -200 161q0 230 414 211v133q0 434 -106 635q203 -32 380.5 12.5t316.5 49.5
q257 6 388 -56q124 17 284 56q53 12 121 12q423 4 419 -223q0 -109 -184 -137q-106 -14 -176 20q12 40 12 97q0 119 -79 134q-95 17 -180 -12q-31 -298 -31 -709q147 47 258 47q286 0 282 -203q0 -162 -258 -134q8 167 -215 204h-71q-8 -286 35 -517q45 -12 137 -12
q186 0 286 141q24 50 24 83l-4 47q359 11 360 -165q0 -203 -356 -207q-215 0 -451 31h-583q76 263 93 595z" />
    <glyph glyph-name="ae" unicode="ae" horiz-adv-x="1946" 
d="M424 184q0 -112 116 -112q134 0 168 208q16 101 16 256v64q-27 -41 -224 -228q-76 -75 -76 -188zM1316 592h60q124 0 124 32l4 56q17 273 -152 276q-124 0 -160 -364q0 -32 27.5 -16t96.5 16zM785 192h-45q-56 -135 -144 -172q-134 -56 -236 -56q-360 0 -354 284
q0 260 422 264q149 0 240 108q84 106 84 208q0 127 -144 128q-160 2 -160 -164q0 -92 68 -164q-121 -76 -228 -76q-225 -2 -226 160q0 316 570 316q261 0 399 -94q146 86 313 86q373 0 488 -344l20 -68q-76 -64 -580 -64q-80 -19 -80 -44q0 -468 276 -464q172 0 176 224
q0 89 -92 188q81 52 160 52q175 0 180 -156q4 -328 -424 -376q-488 -55 -683 224z" />
    <glyph glyph-name="uniFB01" unicode="fi" horiz-adv-x="1632" 
d="M784 1364q173 -2 304 -52l-4 -72l-72 4q-198 10 -188 -272q364 -8 468 -8q90 0 290 56q-56 -241 -56 -504q0 -254 52 -516h-542q104 306 104 520q0 208 -60 364h-256q41 -642 48 -960q0 -508 -444 -508q-724 3 -724 304q0 122 156 176q142 47 240 -60q-92 -86 -92 -168
q0 -173 192 -172q216 0 216 308q-5 714 -52 1076q-124 -20 -124 -120q0 -56 48 -160q-24 -12 -76 -12q-218 0 -216 176q0 241 372 208q-27 392 416 392z" />
    <glyph glyph-name="uniFB02" unicode="fl" horiz-adv-x="1650" 
d="M1600 1439q-56 -380 -56 -843q0 -402 52 -596h-546q104 342 104 712q0 592 -164 588q-188 0 -178 -328h210v-88l-198 -4q24 -165 34 -980q0 -489 -492 -484q-672 12 -672 296q0 126 156 184q143 50 236 -60q-88 -82 -88 -172q4 -165 200 -168q207 0 204 304
q-6 430 -52 1076q-116 -18 -116 -116q-1 -75 48 -160q-288 -12 -288 172q0 220 360 200q-38 424 432 424q137 3 360 -52q224 -53 454 95z" />
    <glyph glyph-name="uniFB03" unicode="ff" horiz-adv-x="1799" 
d="M805 1404q136 0 272 -44l-20 -76h-60q-176 0 -176 -284v-80h204q-24 484 436 484q183 -1 288 -52v-64q-298 -4 -264 -368h180v-88h-176q28 -68 44 -876q0 -530 -432 -540q-182 -1 -280 24v48q180 8 228 144q24 64 24 152q0 774 -48 1048h-204q44 -764 44 -920
q0 -494 -440 -496q-212 -2 -288 28v52h68q160 4 188 160q16 88 16 144q-13 816 -44 1028q-124 -20 -124 -124q0 -52 48 -156q-26 -12 -108 -12q-181 0 -180 196q0 200 360 188q-4 475 444 484z" />
    <glyph glyph-name="uniFB04" unicode="ck" horiz-adv-x="2707" 
d="M479 1019q-5 46 -5 97q0 640 656 636q539 0 668 -372q55 -168 48 -862q291 186 291 330q0 81 -96 136h508q-36 -97 -236 -240q-98 -74 -164 -112q68 -172 320 -476q95 -112 188 -156h-608q24 35 24 60q0 115 -170 416q-27 -16 -57 -32q2 -313 44 -444h-604
q100 316 100 788q0 904 -320 904q-321 0 -320 -340q0 -319 148 -376q204 -79 168 -224q-39 -142 -196 -128q-287 24 -364 280q-91 -75 -91 -304q0 -563 296 -564q89 0 140 148q64 174 -72 264q88 56 156 56q189 0 188 -208q0 -326 -528 -336q-591 0 -588 520q0 493 476 539z
" />
    <glyph glyph-name="uniFB05" unicode="ee" horiz-adv-x="2383" 
d="M556 1020q422 0 516 -388h143q59 388 557 388q487 0 516 -475l-408 3h-252q8 -519 300 -516q154 0 152 224q0 96 -92 184q70 60 148 60q197 0 196 -200q0 -336 -552 -340q-564 2 -564 588h-672q-110 0 -136 -52q38 -464 300 -464q155 0 152 224q0 93 -88 188
q71 56 144 56q197 0 196 -196q0 -343 -568 -344q-531 0 -544 548q0 514 556 512zM412 596q37 40 305 40q9 321 -145 320q-117 0 -156 -264q-8 -63 -4 -96zM1628 632h312q4 326 -148 324q-137 0 -164 -324z" />
    <glyph glyph-name="uniFB06" unicode="ll" horiz-adv-x="1402" 
d="M1352 1732q-56 -346 -56 -1020q0 -538 44 -712h-604q92 310 92 836q0 552 -100 852l156 -12q206 -19 468 56zM620 1408q-56 -308 -56 -824q0 -424 44 -584h-604q100 319 100 744q0 427 -104 620l152 -12q205 -17 468 56z" />
    <glyph glyph-name="uniFB07" unicode="oo" horiz-adv-x="2007" 
d="M593 1020q210 0 384 -128q185 128 384 128q583 0 596 -556q0 -496 -604 -504q-204 0 -372 120q-177 -120 -396 -120q-585 0 -584 516q3 544 592 544zM425 480q-10 -452 176 -456q162 0 164 508q-3 409 -172 420q-161 13 -168 -472zM1193 432q-1 -408 176 -408
q163 0 164 460q0 466 -180 468q-153 2 -160 -520z" />
    <glyph glyph-name="uniFB08" unicode="rr" horiz-adv-x="2210" 
d="M1684 1689q384 -6 384 -292q0 -166 -172 -260q-107 -58 -276 16q84 135 84 212q0 148 -220 152q-243 3 -565 -411t-343 -542v-60q0 -283 36 -504h-604q100 301 100 552q0 244 -108 420q81 -12 172 -12q209 0 448 60q-12 -44 -32 -220q575 889 1096 889zM1580 1020
q-12 -51 -32 -224q90 216 256 216q356 0 320 -300q-32 -252 -252 -252q-51 0 -144 36q78 30 80 220q0 125 -128 128q-102 0 -144 -340q-30 -269 36 -504h-604q100 295 100 548q0 252 -108 424q80 -12 168 -12q221 0 452 60z" />
    <glyph glyph-name="uniFB09" unicode="ss" horiz-adv-x="2604" 
d="M1383 46q-156 -158 -667 -152q-710 0 -716 328q0 156 212 156q152 0 376 -108q-52 -64 -52 -160q0 -152 168 -156q274 0 280 128q8 157 -425 302.5t-427 391.5q0 244 528 248q602 0 596 -268q0 -132 -216 -128q-97 0 -256 72q84 0 84 92q0 159 -160 160q-128 0 -128 -156
q0 -129 436 -257q171 -50 275 -110q48 19 123 19q152 0 376 -108q-52 -64 -52 -160q0 -152 168 -156q174 0 180 128q8 157 -375 272.5t-377 351.5q0 244 528 248q602 0 596 -268q0 -132 -216 -128q-97 0 -256 72q84 0 84 92q0 159 -160 160q-128 0 -128 -156
q0 -129 386 -217t386 -291q0 -332 -636 -324q-356 0 -535 82z" />
    <glyph glyph-name="uniFB0A" unicode="tt" horiz-adv-x="2398" 
d="M1668 1584q-48 -330 -48 -616q115 0 280 32q48 8 48 -44q0 -72 -196 -72q-51 -4 -132 -4v-136q0 -829 244 -832q102 0 104 220q0 173 -120 304q128 80 212 80q288 4 284 -280q0 -414 -616 -416q-264 0 -412 204q-49 -68 -236 -68q-624 5 -624 544q4 298 4 432h-40
q-120 0 -120 -132q0 -51 40 -156q-340 -58 -340 188q0 187 308 192q43 0 148 -8q0 69 -64 244q85 -4 100 -4q227 0 480 52q-36 -238 -36 -328q92 -8 220 -8q0 427 -68 568q40 -4 116 -4q199 0 464 48zM928 896q-8 -179 -8 -276q0 -561 212 -564q92 0 76 160q-56 584 -56 672
z" />
    <glyph glyph-name="uniFB0B" unicode="st" horiz-adv-x="2684" 
d="M1962 1308q-40 -226 -40 -356q148 0 256 32q47 14 48 -44q1 -92 -192 -76q-53 4 -120 11q0 -110 -4 -191q-21 -705 200 -660q124 27 124 196q0 104 -92 216q128 80 212 80q279 0 280 -296q0 -177 -316 -240q-91 -16 -180 -16h-92q-483 0 -568 292q-32 107 -32 208v148
q0 96 4 300l-184 24q-60 0 -92 -40l-196 88q83 36 172 36h24q48 0 268 -24q0 117 -64 260h100q230 0 484 52zM660 1024q602 0 596 -268q0 -132 -216 -128q-97 0 -256 72q84 0 84 92q0 159 -160 160q-128 0 -128 -156q0 -129 386 -217t386 -291q0 -332 -636 -324
q-710 0 -716 328q0 156 212 156q152 0 376 -108q-52 -64 -52 -160q0 -152 168 -156q174 0 180 128q8 157 -375 272.5t-377 351.5q0 244 528 248z" />
    <glyph glyph-name="uniFB0C" unicode="sl" horiz-adv-x="2128" 
d="M665 1024q-3 43 -3 92q0 640 656 636q539 0 668 -372q56 -173 48 -900q0 -342 44 -480h-604q100 316 100 788q0 904 -320 904q-321 0 -320 -340q0 -319 148 -376q204 -79 168 -224q-39 -142 -196 -128q-298 33 -381 325q-93 -20 -93 -153q0 -129 386 -217t386 -291
q0 -332 -636 -324q-710 0 -716 328q0 156 212 156q152 0 376 -108q-52 -64 -52 -160q0 -152 168 -156q174 0 180 128q8 157 -375 272.5t-377 351.5q0 244 533 248z" />
    <glyph glyph-name="uniFB0D" unicode="sh" horiz-adv-x="2896" 
d="M2034 840h48q136 176 336 176q361 0 336 -395q-11 -237 92 -621h-603q111 411 111 660q0 216 -100 216q-104 0 -220 -258q-21 -299 44 -618h-604q100 316 100 788q0 904 -320 904q-321 0 -320 -340q0 -319 148 -376q204 -79 168 -224q-39 -142 -196 -128
q-298 33 -381 325q-93 -20 -93 -153q0 -129 386 -217t386 -291q0 -332 -636 -324q-710 0 -716 328q0 156 212 156q152 0 376 -108q-52 -64 -52 -160q0 -152 168 -156q174 0 180 128q8 157 -375 272.5t-377 351.5q0 244 533 248q-3 43 -3 92q0 640 656 636q539 0 668 -372
q40 -125 48 -540z" />
    <glyph glyph-name="uniFB0E" unicode="sk" horiz-adv-x="2895" 
d="M2034 518q291 186 291 330q0 81 -96 136h508q-36 -97 -236 -240q-98 -74 -164 -112q68 -172 320 -476q95 -112 188 -156h-608q24 35 24 60q0 115 -170 416q-27 -16 -57 -32q2 -313 44 -444h-604q100 316 100 788q0 904 -320 904q-321 0 -320 -340q0 -319 148 -376
q204 -79 168 -224q-39 -142 -196 -128q-298 33 -381 325q-93 -20 -93 -153q0 -129 386 -217t386 -291q0 -332 -636 -324q-710 0 -716 328q0 156 212 156q152 0 376 -108q-52 -64 -52 -160q0 -152 168 -156q174 0 180 128q8 157 -375 272.5t-377 351.5q0 244 533 248
q-3 43 -3 92q0 640 656 636q539 0 668 -372q55 -168 48 -862z" />
    <glyph glyph-name=".notdef" horiz-adv-x="874" 
d="M0 0v1434h824v-1434h-824zM50 50h724v1334h-724v-1334zM225 1148q31 28 58 43q53 30 112 30q92 0 148 -47.5t56 -127.5q0 -49 -23 -98.5t-87 -129.5q-63 -80 -99 -132t-36 -99q0 -38 24 -133h-32q-35 97 -35 148q0 76 81.5 218t81.5 217q0 57 -33 90t-91 33
q-38 0 -69 -17q-26 -15 -56 -40v45zM289 334l57 58q11 10 20 10q10 0 22 -11l56 -60q9 -11 9 -20q0 -11 -10 -22l-56 -62q-14 -14 -21 -14q-11 0 -20 10l-61 71q-7 9 -7 18q0 10 11 22z" />
    <glyph glyph-name="space" unicode=" " horiz-adv-x="508" 
 />
    <glyph glyph-name="space" unicode="&#xa0;" horiz-adv-x="508" 
 />
    <glyph glyph-name="exclam" unicode="!" horiz-adv-x="614" 
d="M286 1440q278 0 264 -232q-10 -275 -176 -820h-160q-138 543 -180 816q-34 236 252 236zM289 -38q-77 0 -131 54t-54 130q0 77 54 131t131 54q76 0 130 -54t54 -131q0 -76 -54 -130t-130 -54z" />
    <glyph glyph-name="quotedbl" unicode="&#x22;" horiz-adv-x="414" 
d="M0 1440h168l-32 -384h-88zM204 1440h160l-28 -384h-88z" />
    <glyph glyph-name="numbersign" unicode="#" horiz-adv-x="886" 
d="M396 1128q-16 -145 -16 -188h92q-12 81 -32 148q44 -4 72 -4q65 0 180 44l-16 -188h160v-176h-168v-84h168v-176h-160l16 -188h-252q20 112 28 188h-88q0 -44 16 -188l-252 4q16 94 28 184h-172v176h184l4 84h-188v176h176l-32 152q44 -8 72 -8q64 0 180 44zM372 764v-84
h108l4 84h-112z" />
    <glyph glyph-name="dollar" unicode="$" horiz-adv-x="1406" 
d="M492 1440h368l-20 -200q420 -9 420 -244q0 -126 -192 -144q-109 0 -276 68q80 8 80 108q0 150 -164 152q-126 0 -124 -164q0 -99 240 -152q363 -84 447.5 -161t84.5 -199q0 -232 -348 -292q-81 -12 -168 -20q0 -32 20 -192h-364q28 101 40 200q-208 0 -376 92
q-160 92 -160 204q0 119 116 164q40 16 104 16q144 0 368 -108q-48 -64 -48 -176q0 -141 164 -140q175 0 180 116q8 132 -396 288q-356 132 -356 348q0 195 408 244z" />
    <glyph glyph-name="percent" unicode="%" horiz-adv-x="1703" 
d="M1569 1488q-340 -442 -616 -956q-160 -284 -260 -532l-616 8q237 263 400 512q243 374 360 636q80 188 80 280q61 -4 160 -8q186 0 492 60zM316 1468q313 -1 313 -368q-12 -359 -302 -356q-304 4 -314 356q-13 368 303 368zM257 1100q6 -286 69 -288q61 0 59 288
q1 304 -68 304q-70 1 -60 -304zM1340 699q313 -1 313 -368q-12 -359 -302 -356q-304 4 -314 356q-13 368 303 368zM1281 331q6 -286 69 -288q61 0 59 288q1 304 -68 304q-70 1 -60 -304z" />
    <glyph glyph-name="ampersand" unicode="&#x26;" horiz-adv-x="1956" 
d="M774 1520q598 0 596 -388q0 -234 -252 -232q-141 0 -268 132q147 -6 148 164q0 232 -208 232q-211 0 -212 -264q0 -368 792 -920q36 92 36 176q0 280 -116 352q97 96 232 96q312 0 312 -360q0 -221 -160 -412q232 -71 232 -268l-316 -220l8 180q0 105 -88 176
q-283 -192 -708 -192q-802 0 -792 564q5 444 312 460q-160 151 -160 352q0 364 612 372zM406 332q6 -452 504 -452q246 0 376 184v4q-336 164 -600 376q-102 95 -160 152q-120 -80 -120 -264z" />
    <glyph glyph-name="quotesingle" unicode="'" horiz-adv-x="210" 
d="M0 1440h160l-28 -384h-88z" />
    <glyph glyph-name="parenleft" unicode="(" horiz-adv-x="698" 
d="M648 1684v-96q-227 -105 -236 -892q3 -830 236 -844v-96q-648 -8 -644 940q16 996 644 988z" />
    <glyph glyph-name="parenright" unicode=")" horiz-adv-x="698" 
d="M0 1684q628 8 644 -988q4 -948 -644 -940v96q233 14 236 844q-9 787 -236 892v96z" />
    <glyph glyph-name="asterisk" unicode="*" horiz-adv-x="486" 
d="M164 1440h108l-4 -136l128 64l40 -108l-140 -44l104 -108l-96 -60l-76 112l-68 -124l-96 60l88 116l-152 36l32 100l144 -52z" />
    <glyph glyph-name="plus" unicode="+" horiz-adv-x="1028" 
d="M618 1256q-19 -85 -40 -368q146 0 400 32q-37 -108 -36 -286q-108 52 -368 76q4 -273 32 -416h-294q68 276 68 408q-114 0 -380 -60v274q175 -36 384 -36q0 138 -72 340q127 -8 306 36z" />
    <glyph glyph-name="comma" unicode="," horiz-adv-x="311" 
d="M174 -45q-26 -26 -62 -55h-76q44 37 56 68q-30 9 -53 32q-39 38 -39 92t38.5 92.5t92.5 38.5q53 0 91.5 -38.5t38.5 -92.5t-61 -114q-14 -14 -26 -23z" />
    <glyph glyph-name="hyphen" unicode="-" horiz-adv-x="1122" 
d="M404 515q486 2 668 8v-2q-44 -90 -36 -193q-126 14 -448 14q-423 0 -588 -10v187q4 -1 404 -4z" />
    <glyph glyph-name="hyphen" unicode="&#xad;" horiz-adv-x="1122" 
d="M404 515q486 2 668 8v-2q-44 -90 -36 -193q-126 14 -448 14q-423 0 -588 -10v187q4 -1 404 -4z" />
    <glyph glyph-name="period" unicode="." horiz-adv-x="311" 
d="M131 -38q-54 0 -92.5 38t-38.5 92t38.5 92.5t92.5 38.5q53 0 91.5 -38.5t38.5 -92.5t-38.5 -92t-91.5 -38z" />
    <glyph glyph-name="slash" unicode="/" horiz-adv-x="1248" 
d="M1198 1483v-4q-303 -387 -608 -940q-192 -352 -264 -544h-326v4q267 305 442 628q345 586 368 808q65 -12 156 -12q-40 0 232 60z" />
    <glyph glyph-name="zero" unicode="0" horiz-adv-x="1366" 
d="M656 1500q660 4 660 -798q-10 -762 -656 -762q-660 12 -660 756q0 811 656 804zM440 702q-13 -670 224 -670q196 0 212 668q0 703 -224 708q-188 0 -212 -706z" />
    <glyph glyph-name="one" unicode="1" horiz-adv-x="870" 
d="M820 1484q-56 -293 -56 -696q0 -497 52 -788l-612 -1q108 334 106 735q-2 98 5 310q-174 -68 -267 -68l-48 240q200 55 208 220q89 -12 172 -12q191 0 440 60z" />
    <glyph glyph-name="two" unicode="2" horiz-adv-x="1390" 
d="M716 1508q616 0 612 -408q0 -307 -404 -432q-532 -170 -533 -392q169 -8 369 -12q354 0 544 60q-8 -184 36 -324h-1320l-8 300q-12 278 408 452q511 204 512 400q0 288 -304 288q-156 0 -160 -240q0 -170 92 -288q-95 -96 -252 -96q-294 0 -296 328q0 371 704 364z" />
    <glyph glyph-name="three" unicode="3" horiz-adv-x="1518" 
d="M1203 830q265 -33 265 -426q0 -464 -664 -472h-100q-704 0 -704 364q0 331 332 328q130 0 212 -100q-64 -122 -64 -240q0 -285 272 -284q318 0 320 376q0 308 -440 376v136q272 85 272 284q0 270 -216 268q-210 0 -208 -240q0 -172 136 -172q-121 -132 -256 -132
q-246 0 -248 236q0 375 624 376q571 0 580 -380q0 -242 -129 -268q-27 -6 -58 -6v-20q39 0 74 -4z" />
    <glyph glyph-name="four" unicode="4" horiz-adv-x="1466" 
d="M1164 1488q-56 -284 -56 -724l4 -204q124 20 304 68l-8 -308q-145 38 -284 40q0 -122 36 -360h-604q36 130 72 372q-343 0 -628 -12v140q193 204 296 368q131 215 252 572q55 -12 172 -12q222 0 444 60zM268 548q205 -24 376 -20q8 119 12 256q2 167 -16 304
q-117 -233 -372 -540z" />
    <glyph glyph-name="five" unicode="5" horiz-adv-x="1440" 
d="M170 1440l1084 -4q-50 -125 -48 -204l4 -116q-201 76 -596 76q-149 0 -288 -16q28 -136 36 -224q266 68 436 68q402 0 536 -288q56 -126 56 -288q0 -509 -732 -508q-658 0 -652 352q0 335 296 336q164 0 252 -100q-88 -89 -88 -244q-3 -269 232 -276q296 0 296 412
q0 367 -408 368q-185 0 -408 -72q40 133 40 368q0 182 -48 360z" />
    <glyph glyph-name="six" unicode="6" horiz-adv-x="1311" 
d="M594 1472q576 5 576 -272q0 -195 -216 -196q-100 0 -184 60q92 92 92 168q0 172 -172 172q-220 0 -220 -634l20 1q60 141 276 141q494 0 492 -456q3 -496 -576 -496q-682 0 -680 816q0 696 592 696zM494 452q-23 -428 172 -428q170 0 168 440q0 365 -168 364
q-154 0 -172 -376z" />
    <glyph glyph-name="seven" unicode="7" horiz-adv-x="1346" 
d="M1296 1484q-184 -305 -404 -968q-132 -425 -140 -516h-604q223 341 396 832q100 293 96 360q-114 8 -248 8q-263 0 -392 -92l52 332h460q542 0 784 44z" />
    <glyph glyph-name="eight" unicode="8" horiz-adv-x="1718" 
d="M830 1460q703 0 706 -316q0 -213 -360 -252q492 -104 492 -472q0 -461 -808 -460h-52q-807 0 -808 472q0 320 416 444l76 20q-362 32 -364 260q0 302 702 304zM632 1140q0 -237 200 -236q197 0 204 248q7 265 -208 260q-192 0 -196 -272zM592 420q0 -391 240 -396
q264 0 244 407q-16 397 -240 397q-243 0 -244 -408z" />
    <glyph glyph-name="nine" unicode="9" horiz-adv-x="1309" 
d="M605 1472q640 0 652 -844q2 -666 -616 -668q-540 0 -548 292q0 97 128 142.5t268 -30.5q-88 -84 -88 -176q0 -162 164 -164q132 0 184 152q47 125 36 380h-12q-55 -88 -232 -88q-541 0 -540 532q0 466 604 472zM423 959q-3 -427 174 -423q144 0 168 416q21 453 -172 456
q-166 0 -170 -449z" />
    <glyph glyph-name="colon" unicode=":" horiz-adv-x="311" 
d="M131 -38q-54 0 -92.5 38t-38.5 92t38.5 92.5t92.5 38.5q53 0 91.5 -38.5t38.5 -92.5t-38.5 -92t-91.5 -38zM131 870q-54 0 -92.5 38t-38.5 92t38.5 92.5t92.5 38.5q53 0 91.5 -38.5t38.5 -92.5t-38.5 -92t-91.5 -38z" />
    <glyph glyph-name="semicolon" unicode=";" horiz-adv-x="317" 
d="M131 870q-54 0 -92.5 38t-38.5 92t38.5 92.5t92.5 38.5q53 0 91.5 -38.5t38.5 -92.5t-38.5 -92t-91.5 -38zM180 -45q-26 -26 -62 -55h-76q44 37 56 68q-30 9 -53 32q-39 38 -39 92t38.5 92.5t92.5 38.5q53 0 91.5 -38.5t38.5 -92.5t-61 -114q-14 -14 -26 -23z" />
    <glyph glyph-name="less" unicode="&#x3c;" horiz-adv-x="690" 
d="M516 1228q43 -130 124 -240q-218 -122 -380 -244q329 -227 380 -236q-80 -98 -128 -244q-202 154 -512 360v240l356 248z" />
    <glyph glyph-name="equal" unicode="=" horiz-adv-x="834" 
d="M316 631q305 0 468 7q-28 -87 -24 -186q-93 10 -365 10t-395 -3v172h316zM316 1008q305 0 468 7q-28 -87 -24 -186q-93 10 -365 10t-395 -3v172h316z" />
    <glyph glyph-name="greater" unicode="&#x3e;" horiz-adv-x="690" 
d="M124 264q-43 130 -124 240q218 122 380 244q-329 227 -380 236q81 98 128 244q202 -154 512 -360v-240l-356 -248z" />
    <glyph glyph-name="question" unicode="?" horiz-adv-x="1394" 
d="M668 1532q674 0 676 -432q0 -307 -432 -460q-242 -90 -271 -239h-28q-58 0 -120 -8q-33 50 -33 115q0 196 292 360q183 104 196 276q18 305 -240 304q-229 0 -228 -304q0 -124 64 -232q-95 -96 -228 -96q-316 6 -316 316q4 400 668 400zM563 -38q-77 0 -131 54t-54 130
q0 77 54 131t131 54q76 0 130 -54t54 -131q0 -76 -54 -130t-130 -54z" />
    <glyph glyph-name="at" unicode="@" horiz-adv-x="1678" 
d="M896 1232q732 0 712 -556q-8 -216 -8 -332q0 -37 8 -152h-116q-189 0 -218.5 64.5t-29.5 123.5h-20l-40 -72q-119 -156 -340 -156q-317 0 -312 260q0 189 216 256q77 24 268 64q212 41 212 260q0 151 -344 156q-472 0 -476 -660q0 -442 332 -588q181 -84 524 -84l8 -84
q-149 -29 -304 -32q-968 -29 -968 728q0 803 896 804zM1008 592q-104 -54 -104 -216q1 -112 100 -112q129 0 176 172q24 87 24 286q-35 -47 -196 -130z" />
    <glyph glyph-name="A" unicode="A" 
d="M1620 1084q-65 -855 8 -1084h-603q94 355 97 595h-258q0 -362 51 -595h-610q93 313 105 591q-102 2 -112 -113q-6 -72 63 -141q-82 -36 -161 -36q-200 0 -200 161q0 230 414 211v133q0 434 -106 635q203 -32 380.5 12.5t316.5 49.5q654 16 615 -419zM864 673h266
q8 225 8 333q6 388 -235 356q-39 -355 -39 -689z" />
    <glyph glyph-name="B" unicode="B" horiz-adv-x="1497" 
d="M826 1515q438 0 438 -360q0 -199 -152 -270q-39 -18 -63 -16v-16h16q382 0 376 -446q0 -450 -533 -450q-177 0 -313 90l4 -47h-592q98 342 98 791q0 435 -105 650q62 -12 168 -12q220 0 404.5 43t253.5 43zM556 748q76 85 152 102q153 36 153 321q0 242 -110 242
q-83 0 -156 -54q-28 -185 -39 -611zM556 595l4 -47q28 16 90 16t148 -86q-141 -78 -141 -224q0 -219 192 -215q168 1 177 384q0 172 -134 321q-57 39 -113 39q-149 0 -223 -188z" />
    <glyph glyph-name="C" unicode="C" horiz-adv-x="1422" 
d="M687 1519q541 0 548 -329q0 -150 -173 -219q-127 -48 -250 20q96 5 94 176q0 274 -188 278q-218 0 -223 -654q-4 -752 336 -752q189 0 188 329q0 186 -148 274q123 35 203 35q294 0 298 -262q0 -436 -646 -446q-722 0 -726 794q0 758 687 756z" />
    <glyph glyph-name="D" unicode="D" horiz-adv-x="1510" 
d="M779 1527q669 0 681 -873q0 -701 -548 -705q-152 0 -300 78h-9v-27h-596q98 340 98 795q0 431 -105 646q62 -12 168 -12q256 0 380.5 49t230.5 49zM556 560q123 15 211 -79q-125 -84 -125 -223q0 -223 152 -219q217 0 212 642q0 789 -298 736q-90 -15 -117 -55
q-35 -339 -35 -802z" />
    <glyph glyph-name="E" unicode="E" horiz-adv-x="1448" 
d="M1202 1292q0 -109 -184 -137q-106 -14 -176 20q12 40 12 97q0 119 -79 134q-95 17 -180 -12q-31 -298 -31 -435q147 47 258 47q286 0 282 -203q0 -162 -258 -134q8 167 -215 204h-71q-4 -162 -4 -243q-4 -317 39 -548q45 -12 137 -12q186 0 286 141q24 50 24 83l-4 47
q359 11 360 -165q0 -203 -356 -207q-215 0 -451 31h-583q98 340 98 795q0 431 -106 646q62 -12 230 -7.5t432 69.5q53 12 121 12q423 4 419 -223z" />
    <glyph glyph-name="F" unicode="F" horiz-adv-x="1331" 
d="M1273 1335q8 -180 -231 -180q-71 0 -125 16q8 27 8 62q0 126 -141 176q-79 29 -184 -11q-32 -284 -32 -419q125 35 188 35q315 0 317 -215q0 -159 -262 -133q10 160 -106 191q-56 16 -141 16q-4 -119 -4 -176v-118q0 -418 43 -579h-591q98 346 98 806q0 429 -110 631
q67 -8 130 -8q266 28 536 74q71 12 188 12q403 -2 419 -180z" />
    <glyph glyph-name="G" unicode="G" horiz-adv-x="1553" 
d="M700 1519q665 -4 662 -376q0 -202 -251 -207q-94 0 -215 55q74 23 74 148q-6 306 -266 306q-211 0 -215 -627q0 -696 325 -701q122 0 164 443q12 102 -35 164h47q231 0 446 71q-23 -122 -23 -239q0 -331 90 -556l-511 -2l18 166h-24q-33 -103 -113 -148q-78 -47 -165 -47
q-267 0 -484 230.5t-217 556.5q-7 763 693 763z" />
    <glyph glyph-name="H" unicode="H" horiz-adv-x="1688" 
d="M878 1484q-51 -371 -51 -736q134 -8 184 -8q64 0 126 8q0 503 -106 693q62 -12 176 -12q189 0 431 59q-51 -326 -51 -873q0 -457 43 -615h-591q94 365 90 673q-85 -4 -118 -4q-50 0 -184 8v-113q0 -406 43 -564h-591q94 315 100 717q-87 -10 -85 -137q0 -46 51 -125
q-84 -66 -214.5 -42t-130.5 155q0 236 377 220q0 463 -106 653q62 -12 176 -12q189 0 431 55z" />
    <glyph glyph-name="I" unicode="I" horiz-adv-x="661" 
d="M611 1484q-51 -322 -51 -869q0 -457 43 -615h-591q97 361 97 791q0 446 -109 646q66 -8 180 -8q189 0 431 55z" />
    <glyph glyph-name="J" unicode="J" horiz-adv-x="1115" 
d="M1065 1488q-24 -137 -24 -235q0 -84 4 -529q0 -745 -579 -755q-466 0 -462 344q0 206 227 208q94 0 180 -32q-78 -86 -78 -246q3 -204 90 -204q135 0 133 544q0 612 -101 852q65 -6 179 -6q189 0 431 59z" />
    <glyph glyph-name="K" unicode="K" horiz-adv-x="1591" 
d="M983 1462h501q-145 -59 -239 -188q-134 -185 -313 -395q194 -417 401 -672q121 -152 208 -207h-750l12 70q18 153 -201 535l-39 -12v-125q-3 -310 40 -468h-591q98 361 98 791q0 446 -110 646q67 -8 180 -8q190 0 431 59q-51 -375 -51 -782q101 28 311 239.5t210 332.5
q0 98 -98 184z" />
    <glyph glyph-name="L" unicode="L" horiz-adv-x="1577" 
d="M607 1484q-51 -417 -51 -1042q0 -370 278 -372q370 0 337 321q354 7 356 -203q0 -222 -434 -219q-172 0 -509 31h-576q98 361 98 791q0 446 -106 650q63 -12 176 -12q190 0 431 55z" />
    <glyph glyph-name="M" unicode="M" horiz-adv-x="2059" 
d="M575 1488q267 -694 506 -1159q343 644 375 963q10 79 -54 149q62 -12 176 -12q189 0 431 55q-51 -324 -51 -909q0 -417 43 -575h-592q98 354 90 893q-177 -392 -305 -772l94 -121h-552q-129 404 -345 814l-4 -168q0 -488 44 -646h-290q98 328 98 767q0 250 -36 419
q-23 123 -203 255q64 -12 180 -12q191 0 395 59z" />
    <glyph glyph-name="N" unicode="N" horiz-adv-x="1722" 
d="M575 1488q115 -228 748 -1065q20 211 20 372q0 428 -86 642h58q74 0 239 51q-51 -319 -51 -858q-6 -303 32 -470l137 -160h-592q-261 504 -575 904l-106 126q-12 -205 -12 -396q0 -469 43 -634h-289q98 328 98 763q0 332 -59 513q-83 80 -180 165q67 -12 184 -12
q185 0 391 59z" />
    <glyph glyph-name="O" unicode="O" horiz-adv-x="1600" 
d="M775 1527q388 0 611 -305q164 -225 164 -494q0 -413 -328 -626q-218 -137 -447 -137q-442 0 -658 360q-117 198 -117 407q0 459 356 670q213 125 419 125zM419 924q0 -375 200 -693q103 -165 262 -165q259 0 254 490q0 332 -176 654q-118 215 -290 215q-260 0 -250 -501z
" />
    <glyph glyph-name="P" unicode="P" horiz-adv-x="1362" 
d="M861 1511q242 0 361 -203q90 -145 90 -325q-6 -662 -482 -662q-210 0 -254 102h-12q0 -262 47 -419l-8 -4h-591l-8 4q106 357 106 787q0 446 -110 646q66 -8 180 -8q189 0 431 59q-8 -50 -8 -63l13 1q86 85 245 85zM560 658q0 -207 117 -208q166 0 251 400q16 79 16 184
q0 373 -204 372q-89 0 -160 -302q-20 -93 -20 -446z" />
    <glyph glyph-name="Q" unicode="Q" horiz-adv-x="1742" 
d="M756 1515q401 3 638 -313q157 -221 157 -482q0 -373 -325 -622q-163 -125 -286 -129q132 -83 231 -83q118 0 227 106q79 76 75 219q219 -61 219 -199q0 -300 -380 -294q-178 0 -427 153q-153 98 -270 98q-78 0 -78 -75q0 -39 12 -113q-47 -12 -106 -12q-224 3 -219 196
q0 92 74 156q-86 61 -157 161q-141 205 -141 446q0 283 196 521q221 266 560 266zM419 920q0 -355 177 -662q113 -199 278 -199q264 0 262 497q0 320 -176 646q-122 215 -278 215q-275 -3 -263 -497z" />
    <glyph glyph-name="R" unicode="R" horiz-adv-x="1624" 
d="M1425 991q0 -345 -392 -463q44 -88 306 -344q158 -156 235 -184h-681q-110 356 -341 560q0 -366 43 -560h-591q98 354 98 810q0 427 -102 627q166 -12 328.5 24t325.5 50q775 68 771 -520zM556 634q360 45 364 358q0 468 -235 433q-95 -14 -98 -47q-35 -337 -31 -744z
" />
    <glyph glyph-name="S" unicode="S" horiz-adv-x="1474" 
d="M747 1519q564 -12 564 -372q0 -161 -188 -196t-313 94q131 18 137 145q12 260 -207 259q-207 0 -204 -267q0 -183 345 -297q543 -180 540 -517q0 -396 -638 -399q-783 -9 -783 356q0 327 301 325q146 0 231 -102q-63 -120 -63 -231q0 -275 278 -278q289 0 286 290
q0 158 -282 250q-618 192 -618 556q-7 384 614 384z" />
    <glyph glyph-name="T" unicode="T" horiz-adv-x="1711" 
d="M1661 1355q0 -186 -250 -184q-128 0 -290 101v-3q-23 -255 -23 -521q0 -550 54 -748l-606 -1q105 335 105 788q0 595 -94 622q-75 24 -156 24q-297 -3 -306 -184q-7 -98 141 -98q176 0 200 188q133 -95 133 -208q0 -200 -294 -191q-275 12 -274 262q0 313 419 313
q147 0 858 -98q119 -19 121 63v39q261 4 262 -164z" />
    <glyph glyph-name="U" unicode="U" horiz-adv-x="1534" 
d="M0 1432q329 -43 622 60q-106 -522 -106 -952q0 -468 161 -470q106 0 223 263q47 107 47 411q0 430 -117 688q311 -36 622 58q-51 -323 -51 -789q0 -543 83 -701h-463q-45 46 -68 196h-22q-113 -158 -254 -200q-64 -20 -184 -27q-427 -19 -427 587l12 492q0 223 -78 384z
" />
    <glyph glyph-name="V" unicode="V" horiz-adv-x="1745" 
d="M0 1432q321 -33 591 60l47 -196q125 -496 298 -916q172 711 172 1052q253 -24 587 60l-94 -196q-205 -427 -450 -1296h-458q-329 964 -607 1322q-42 62 -86 110z" />
    <glyph glyph-name="W" unicode="W" horiz-adv-x="2666" 
d="M0 1432q297 -26 583 60l44 -137q133 -389 399 -1046q111 293 135.5 405t28.5 183q9 163 -80.5 272.5t-248.5 262.5q325 -25 600 60l47 -196q125 -496 289 -916q261 553 267 770q0 136 -98 282q310 -30 650 56q-40 -136 -321 -548q-310 -455 -310 -737q0 -136 8 -203h-431
l-19 121q-50 294 -216 611q-35 -122 -156 -560q-26 -93 -28 -172h-458q-81 384 -160 575q-188 457 -525 857z" />
    <glyph glyph-name="X" unicode="X" horiz-adv-x="1753" 
d="M106 1432q320 -39 603 60q221 -432 337 -631q227 82 227 302q0 83 -102 269q262 -26 525 60q7 -344 -388 -580q-140 -85 -231 -106q225 -399 532 -806h-599q-153 396 -270 599q-274 -172 -274 -470q0 -55 4 -129h-466q-4 305 497 568q121 61 208 86q-178 355 -474 637
q-78 86 -129 141z" />
    <glyph glyph-name="Y" unicode="Y" horiz-adv-x="1831" 
d="M6 1434q328 -30 620 58l43 -98q74 -156 223 -372q106 -147 200 -226q192 241 192 402q0 166 -152 239q315 -41 641 55q8 -182 -297 -411q-290 -229 -290 -509q0 -391 43 -572h-591q85 130 90 572q0 203 -722 862z" />
    <glyph glyph-name="Z" unicode="Z" horiz-adv-x="1775" 
d="M600 1492l1093 -4q-133 -104 -310 -313q-397 -495 -599 -834q-115 -196 -117 -259l626 -8q133 21 133 126q0 35 -31 113q31 8 102 8q228 3 227 -165q-3 -200 -407 -187q-695 31 -1317 32q256 248 373 418q442 603 638 998q-40 4 -446 8q-145 4 -145 -129q0 -53 47 -129
q-61 -8 -106 -8q-203 -3 -203 137q0 153 250 184q95 12 192 12z" />
    <glyph glyph-name="bracketleft" unicode="[" horiz-adv-x="662" 
d="M364 1621q60 -4 238 0l-2 -136q-191 8 -248 -4q-28 -468 -28 -940q0 -418 20 -680h236h32l-12 -124q-400 21 -600 4q68 490 68 1076q0 489 -52 740q44 -16 96 -16q119 0 252 80z" />
    <glyph glyph-name="backslash" unicode="\" horiz-adv-x="1248" 
d="M0 1483q272 -60 232 -60q91 0 156 12q23 -222 368 -808q175 -323 442 -628v-4h-326q-72 192 -264 544q-305 553 -608 940v4z" />
    <glyph glyph-name="bracketright" unicode="]" horiz-adv-x="662" 
d="M248 -263q-60 4 -238 0l2 136q191 -8 248 4q28 468 28 940q0 418 -20 680h-236h-32l12 124q400 -21 600 -4q-68 -490 -68 -1076q0 -489 52 -740q-44 16 -96 16q-119 0 -252 -80z" />
    <glyph glyph-name="asciicircum" unicode="^" horiz-adv-x="610" 
d="M196 1433h168l196 -384h-88l-196 256l-184 -256h-92z" />
    <glyph glyph-name="underscore" unicode="_" horiz-adv-x="834" 
d="M316 -56q305 0 468 7q-28 -87 -24 -186q-93 10 -365 10t-395 -3v172h316z" />
    <glyph glyph-name="grave" unicode="`" horiz-adv-x="417" 
d="M0 1339l112 114l255 -288l-62 -63z" />
    <glyph glyph-name="a" unicode="a" horiz-adv-x="1240" 
d="M632 1028q558 0 556 -430q0 -124 -8 -442q-3 -130 4 -156q-339 -2 -380 60q-37 57 -40 132h-24q-56 -135 -144 -172q-134 -56 -236 -56q-360 0 -354 284q0 260 422 264q149 0 240 108q84 106 84 208q0 127 -144 128q-160 2 -160 -164q0 -92 68 -164q-121 -76 -228 -76
q-225 -2 -226 160q0 316 570 316zM424 184q0 -112 116 -112q134 0 168 208q16 101 16 256v64q-27 -41 -224 -228q-76 -75 -76 -188z" />
    <glyph glyph-name="b" unicode="b" horiz-adv-x="1346" 
d="M620 1435q-52 -258 -52 -519q85 108 264 108q463 0 464 -556q0 -499 -496 -500q-202 0 -268 148q-28 59 -28 72h-20q-8 -188 -284 -188h-148q36 297 36 772q0 437 -88 615q141 -12 156 -12q209 0 464 60zM552 372q0 -308 136 -308q184 0 184 400q0 448 -196 444
q-106 -1 -116 -236q-9 -232 -8 -300z" />
    <glyph glyph-name="c" unicode="c" horiz-adv-x="1170" 
d="M591 1024q441 0 444 -272q4 -177 -184 -176q-72 0 -164 52q72 17 72 128q0 183 -148 184q-200 0 -200 -340q0 -563 296 -564q89 0 140 148q64 174 -72 264q88 56 156 56q189 0 188 -208q0 -326 -528 -336q-591 0 -588 520q0 548 588 544z" />
    <glyph glyph-name="d" unicode="d" horiz-adv-x="1298" 
d="M1248 1435q-56 -255 -56 -687q0 -489 52 -748l-140 -4q-217 -7 -256 192h-24q-24 -226 -364 -224q-460 7 -460 492q0 570 476 564q167 0 252 -104q-27 338 -92 471q65 -8 148 -12q213 0 464 60zM420 488q0 -423 184 -424q141 0 136 240q0 544 -32 544q-33 60 -100 60
q-185 0 -188 -420z" />
    <glyph glyph-name="e" unicode="e" horiz-adv-x="1188" 
d="M586 1020q373 0 488 -344l20 -68q-76 -64 -580 -64q-80 -19 -80 -44q0 -468 276 -464q172 0 176 224q0 89 -92 188q81 52 160 52q175 0 180 -156q4 -328 -424 -376q-710 -80 -704 536q0 243 264 428q147 88 316 88zM558 592h60q124 0 124 32l4 56q17 273 -152 276
q-124 0 -160 -364q0 -32 27.5 -16t96.5 16z" />
    <glyph glyph-name="f" unicode="f" horiz-adv-x="1434" 
d="M1104 1368q120 0 280 -48v-68q-216 -4 -244 -116q-20 -80 -20 -256h208v-88h-208l44 -908q24 -452 -500 -468q-664 -6 -664 324q0 163 220 164q77 0 172 -68q-88 -83 -88 -172q0 -171 200 -168q207 0 204 304q-29 840 -44 988q-120 -23 -120 -136q0 -44 44 -144
q-29 -12 -80 -12q-210 0 -208 184q0 204 284 200h76v48q0 442 444 440z" />
    <glyph glyph-name="g" unicode="g" horiz-adv-x="1314" 
d="M1264 1124q-70 -127 -52 -288q50 -542 52 -764q0 -584 -512 -580q-660 -9 -660 304q0 175 220 180q99 0 176 -64q-88 -84 -88 -168q0 -174 172 -172q180 0 208 360q8 99 8 200l-4 36q-99 -84 -184 -84q-590 0 -600 524q0 421 596 412q83 0 180 -16v36q176 8 488 84z
M424 576q0 -431 168 -428q173 0 172 400q-7 408 -172 408q-176 0 -168 -380z" />
    <glyph glyph-name="h" unicode="h" horiz-adv-x="1406" 
d="M620 1436q-12 -79 -36 -596h12q142 180 356 180q314 0 324 -312q0 -57 -4 -376q0 -183 84 -332h-588q104 407 104 656q0 220 -96 220q-187 0 -216 -388q-14 -196 56 -488h-616q104 345 104 732q0 469 -104 664q59 -12 160 -12q205 0 460 52z" />
    <glyph glyph-name="i" unicode="i" horiz-adv-x="670" 
d="M620 1016q-60 -231 -60 -468q0 -262 56 -548h-616q104 319 104 532q0 262 -104 440q72 -8 156 -12q205 -9 464 56zM313 1035q-92 0 -157.5 68t-65.5 165t65.5 165.5t157.5 68.5t157 -68.5t65 -165.5t-65 -165t-157 -68z" />
    <glyph glyph-name="j" unicode="j" horiz-adv-x="1201" 
d="M1139 1016q-44 -181 -4 -944q16 -565 -524 -576q-611 0 -608 300q0 182 192 180q86 0 168 -72q-64 -39 -64 -136q0 -198 144 -196q158 0 200 284q24 151 24 288q0 445 -108 824q60 -4 88 -4q221 0 492 52zM839 1035q-92 0 -157.5 68t-65.5 165t65.5 165.5t157.5 68.5
t157 -68.5t65 -165.5t-65 -165t-157 -68z" />
    <glyph glyph-name="k" unicode="k" horiz-adv-x="1440" 
d="M571 440q11 -292 49 -440h-616q104 341 104 764q0 404 -108 630q63 -12 164 -12q204 0 460 52q-56 -330 -56 -890q0 -17 1 -33q301 191 301 337q0 81 -96 136h508q-36 -97 -236 -240q-98 -74 -164 -112q68 -172 320 -476q95 -112 188 -156h-608q24 35 24 60
q0 115 -170 416q-31 -18 -65 -36z" />
    <glyph glyph-name="l" unicode="l" horiz-adv-x="670" 
d="M620 1434q-56 -320 -56 -850q0 -401 52 -584h-616q104 342 104 732q0 465 -104 662q59 -12 140 -12h20q204 0 460 52z" />
    <glyph glyph-name="m" unicode="m" horiz-adv-x="2022" 
d="M624 1016q-20 -64 -36 -176h12q99 180 252 180q262 0 328 -180h16q149 180 364 180q327 0 320 -664q0 -206 92 -356h-600q108 415 108 668q0 207 -120 208q-163 0 -156 -288q0 -460 96 -588h-568q104 390 104 616q0 261 -104 260q-168 0 -168 -392q0 -192 56 -484h-616
q104 316 104 544q0 250 -108 428q78 -12 160 -12q207 0 464 56z" />
    <glyph glyph-name="n" unicode="n" horiz-adv-x="1410" 
d="M620 1020q-20 -94 -32 -180l25 3q129 177 343 177q324 0 324 -316q0 -57 -4 -376q0 -176 84 -328h-588q104 401 104 660q0 217 -112 216q-102 0 -200 -388q-47 -193 56 -488h-616q104 315 104 540q0 260 -108 428q73 -4 160 -8q211 -9 460 60z" />
    <glyph glyph-name="o" unicode="o" horiz-adv-x="1238" 
d="M596 1020q591 0 592 -512q-9 -548 -596 -548q-589 0 -592 540q0 515 596 520zM424 476q0 -449 172 -452q167 0 168 457q0 478 -168 475q-160 0 -172 -480z" />
    <glyph glyph-name="p" unicode="p" horiz-adv-x="1341" 
d="M848 1020q443 0 440 -516q0 -538 -456 -540q-156 0 -260 96q0 -329 44 -479h-612q104 343 104 695v88q0 381 -108 568q103 -8 172 -8q206 0 448 60l-4 -52q98 88 232 88zM696 84q211 0 220 532q4 308 -140 304q-116 0 -180 -284q-117 -557 100 -552z" />
    <glyph glyph-name="q" unicode="q" horiz-adv-x="1421" 
d="M587 1020q84 0 480 -28q121 -8 304 24q-120 -224 -120 -696q0 -465 93 -740l-614 1q45 152 49 467q-97 -88 -180 -88q-599 0 -596 536q0 521 584 524zM435 520q0 -482 196 -484q137 0 164 520q0 392 -172 392q-185 0 -188 -428z" />
    <glyph glyph-name="r" unicode="r" horiz-adv-x="1232" 
d="M616 1020q-28 -155 -24 -220q85 212 252 212q338 0 316 -296q-13 -251 -244 -256q-81 0 -152 44q84 134 84 216q0 93 -120 128q-117 0 -152 -392q-17 -246 36 -456l-612 -5q108 322 108 549q0 239 -108 428q129 -12 156 -12q212 0 460 60z" />
    <glyph glyph-name="s" unicode="s" horiz-adv-x="1402" 
d="M660 1024q602 0 596 -268q0 -132 -216 -128q-97 0 -256 72q84 0 84 92q0 159 -160 160q-128 0 -128 -156q0 -129 386 -217t386 -291q0 -332 -636 -324q-710 0 -716 328q0 156 212 156q152 0 376 -108q-52 -64 -52 -160q0 -152 168 -156q174 0 180 128q8 157 -375 267.5
t-377 356.5q0 244 528 248z" />
    <glyph glyph-name="t" unicode="t" horiz-adv-x="945" 
d="M0 977l223 -1q-4 103 -68 280q40 -4 120 -4q201 0 460 44q-28 -145 -45 -320h63l127 2l-2 -40v-69h-188l-3 -153q-13 -624 208 -648v-100q-500 -8 -620 232q-56 109 -56 332q4 287 0 337h-219v108z" />
    <glyph glyph-name="u" unicode="u" horiz-adv-x="1362" 
d="M0 976h524q-28 -156 -28 -496q-3 -404 68 -406q170 -6 176 426q0 253 -36 476h524q-32 -259 -32 -508q0 -270 116 -472h-416q-69 73 -73 288h-24q-18 -318 -391 -324q-346 0 -328 320q12 286 12 320q0 228 -92 376z" />
    <glyph glyph-name="v" unicode="v" horiz-adv-x="1490" 
d="M1440 976q-327 -436 -480 -980h-436q-146 561 -524 976l608 4q26 -272 128 -536q104 263 128 536h576z" />
    <glyph glyph-name="w" unicode="w" horiz-adv-x="2186" 
d="M0 976h600q36 -349 136 -536q173 168 200 532l8 4h300q32 -341 172 -536q85 153 132 536l588 -4q-366 -450 -496 -976h-436q-8 0 -28.5 105t-75.5 275h-24q-85 -166 -128 -380h-432q-8 0 -104 301t-412 679z" />
    <glyph glyph-name="x" unicode="x" horiz-adv-x="1454" 
d="M664 976q100 -226 192 -320q92 42 92 132q0 79 -40 184l448 4q-65 -185 -456 -380q133 -248 504 -600h-608q-78 222 -208 396q-116 -73 -116 -276v-120h-472q144 287 552 456q-168 293 -492 516z" />
    <glyph glyph-name="y" unicode="y" horiz-adv-x="1496" 
d="M802 972q-70 -388 104 -748h4q212 343 212 512q0 155 -140 240h464v-4q-118 -98 -356 -572q-271 -502 -432 -752q-94 -153 -308 -156q-350 6 -348 312q0 183 200 240q109 31 220 -12q-108 -118 -108 -276q0 -175 148 -176q101 0 136 164q37 186 -124 628
q-99 258 -448 596z" />
    <glyph glyph-name="z" unicode="z" horiz-adv-x="1394" 
d="M768 984q135 -8 576 -16q-172 -84 -376 -328q-285 -324 -332 -552q133 -40 220 -40q130 3 132 120q0 81 -40 168q335 51 340 -176q0 -204 -256 -196q-411 16 -1032 32v4q567 508 704 896l-168 28q-147 25 -88 -292q-340 -2 -340 188q0 179 216 188z" />
    <glyph glyph-name="braceleft" unicode="{" horiz-adv-x="601" 
d="M551 1647l-3 -110q-85 -2 -92 -108l-28 -412q-25 -283 -176 -316q91 -47 144 -184q32 -83 56 -504q5 -119 96 -148l-24 -116q-292 22 -400 276q-28 64 -48 476q-5 99 -76 152v108q88 70 88 344q0 544 463 542z" />
    <glyph glyph-name="bar" unicode="|" horiz-adv-x="296" 
d="M12 1621h234q-12 -343 -18 -1096q3 -352 12 -732l-240 -8q36 521 36 1092q0 488 -24 744z" />
    <glyph glyph-name="braceright" unicode="}" horiz-adv-x="601" 
d="M0 1647q463 2 463 -542q0 -274 88 -344v-108q-71 -53 -76 -152q-20 -412 -48 -476q-108 -254 -400 -276l-24 116q91 29 96 148q24 421 56 504q53 137 144 184q-151 33 -176 316l-28 412q-7 106 -92 108z" />
    <glyph glyph-name="asciitilde" unicode="~" horiz-adv-x="958" 
d="M804 901h96q8 -237 -188 -253q-158 -11 -532 30q-66 8 -76 -49h-96q-8 261 296 261q53 0 412 -41q78 -8 88 52z" />
    <glyph glyph-name="exclamdown" unicode="&#xa1;" horiz-adv-x="614" 
d="M286 -485q-286 0 -252 236q42 273 180 816h160q166 -545 176 -820q14 -232 -264 -232zM289 993q76 0 130 -54t54 -130q0 -77 -54 -131t-130 -54q-77 0 -131 54t-54 131q0 76 54 130t131 54z" />
    <glyph glyph-name="cent" unicode="&#xa2;" horiz-adv-x="1168" 
d="M482 1397h308l-8 -184q247 -77 252 -252q5 -179 -192 -180q-74 0 -156 52q72 16 72 124q0 189 -152 192q-193 0 -196 -348q0 -247 73.5 -403.5t234.5 -156.5q140 0 140 224q0 104 -84 184q72 60 160 60q181 0 184 -208q0 -215 -344 -308l4 -192h-308l12 172
q-472 29 -476 548q-6 478 488 504z" />
    <glyph glyph-name="sterling" unicode="&#xa3;" horiz-adv-x="1612" 
d="M732 1469q679 2 680 -372q4 -325 -328 -324q-127 0 -216 96q80 153 80 308q0 221 -192 220q-231 0 -236 -196q0 -123 72 -500h260l-28 -212q-15 12 -240 12q-72 -176 -72 -264q4 -180 220 -184q214 0 404 152q66 51 60 152q366 -1 364 -200q0 -157 -264 -220
q-50 -12 -238.5 -0.5t-477.5 20.5l-580 4l216 428l32 112q-125 0 -180 -4v208q86 -4 200 0q-84 336 -84 448q0 212 172 272q130 44 376 44z" />
    <glyph glyph-name="currency" unicode="&#xa4;" horiz-adv-x="1242" 
d="M300 1285q25 -42 88 -152q105 32 232 32q77 0 180 -32q46 75 80 152l260 -188l-96 -120q148 -154 148 -348q0 -184 -148 -348l100 -104l-256 -192l-104 148q-71 -36 -188 -28q-121 8 -196 28l-104 -144l-248 192q96 100 96 104q-144 156 -144 328q0 204 144 368
q-72 80 -96 112zM424 621q0 -447 176 -448q158 0 164 508q0 422 -168 420q-162 0 -172 -480z" />
    <glyph glyph-name="yen" unicode="&#xa5;" horiz-adv-x="1874" 
d="M0 1440h648q174 -343 380 -584q82 -91 116 -102q172 229 172 394q0 171 -160 292h668q0 -120 -300 -387q-223 -211 -248 -296h100q-32 -82 -32 -121v-53l4 -27q-30 4 -128 8l4 -42q128 4 148 4q-28 -93 -32 -205q-35 8 -116 12q0 -168 48 -334l-8 -4h-604q-8 0 -8 8
q44 126 76 330q-81 -4 -136 -4q0 78 -4 193l160 -3v45q-117 -4 -156 -4q0 78 -4 194h64q-36 90 -536 576q-110 95 -116 106v4z" />
    <glyph glyph-name="brokenbar" unicode="&#xa6;" horiz-adv-x="296" 
d="M12 1621h234q-12 -156 -18 -500q3 -161 12 -335l-240 -3q36 238 36 498q0 223 -24 340zM12 389h234q-12 -156 -18 -500q3 -161 12 -335l-240 -3q36 238 36 498q0 223 -24 340z" />
    <glyph glyph-name="section" unicode="&#xa7;" horiz-adv-x="1122" 
d="M548 1436q449 -12 448 -268q0 -114 -164 -128q-89 0 -208 72q64 4 64 88q2 168 -124 168q-100 -1 -100 -140q0 -144 312 -216q296 -95 296 -348q0 -169 -184 -240q80 -99 80 -228q0 -224 -440 -232q-492 0 -452 264q17 134 164 132q77 0 212 -76q-68 0 -68 -104
q1 -144 124 -148q106 -2 104 160q0 107 -184 156q-428 121 -428 348q0 211 188 280q-84 98 -84 204q4 268 444 256zM376 844q-8 -18 -8 -76q0 -89 151 -150.5t181 -61.5q8 55 8 72q0 87 -236 176q-60 22 -96 40z" />
    <glyph glyph-name="dieresis" unicode="&#xa8;" horiz-adv-x="709" 
d="M131 1120q-54 0 -92.5 38t-38.5 92t38.5 92.5t92.5 38.5q53 0 91.5 -38.5t38.5 -92.5t-38.5 -92t-91.5 -38zM529 1120q-54 0 -92.5 38t-38.5 92t38.5 92.5t92.5 38.5q53 0 91.5 -38.5t38.5 -92.5t-38.5 -92t-91.5 -38z" />
    <glyph glyph-name="copyright" unicode="&#xa9;" horiz-adv-x="1514" 
d="M732 1454q390 0 632 -360q100 -182 100 -376q0 -373 -340 -616q-190 -112 -372 -112h-40q-346 0 -592 328q-120 190 -120 408q0 371 336 612q187 116 396 116zM160 746v-48q0 -248 228 -436q162 -116 344 -116q297 0 484 268q88 144 88 284v52q0 180 -148 360
q-189 184 -396 184h-56q-191 0 -372 -160q-172 -182 -172 -388zM768 1106q245 0 300 -164q4 -5 4 -28v-8q-18 -124 -124 -124h-24q-34 0 -100 28v4q48 25 48 88v8q-11 132 -96 132h-12q-140 0 -140 -240q0 -324 124 -388q21 -16 96 -24q46 0 88 88q12 37 12 68v8
q0 73 -56 128v4q52 44 112 44q92 0 132 -120v-36q0 -167 -292 -228q-44 -8 -100 -8q-260 0 -376 212q-32 75 -32 144v32q0 274 268 360q107 20 168 20z" />
    <glyph glyph-name="ordfeminine" unicode="&#xaa;" horiz-adv-x="1831" 
d="M739 1646q-54 0 -92.5 38t-38.5 92t38.5 92.5t92.5 38.5q53 0 91.5 -38.5t38.5 -92.5t-38.5 -92t-91.5 -38zM1137 1646q-54 0 -92.5 38t-38.5 92t38.5 92.5t92.5 38.5q53 0 91.5 -38.5t38.5 -92.5t-38.5 -92t-91.5 -38zM6 1434q328 -30 620 58l43 -98q74 -156 223 -372
q106 -147 200 -226q192 241 192 402q0 166 -152 239q315 -41 641 55q8 -182 -297 -411q-290 -229 -290 -509q0 -391 43 -572h-591q85 130 90 572q0 203 -722 862z" />
    <glyph glyph-name="guillemotleft" unicode="&#xab;" horiz-adv-x="1215" 
d="M1041 1181q43 -138 120 -244q-111 -41 -376 -236q260 -185 380 -244q-78 -85 -132 -236q-200 153 -508 360v240l392 276l124 88v-4zM516 1181q43 -138 120 -244q-111 -41 -376 -236q260 -185 380 -244q-78 -85 -132 -236q-200 153 -508 360v240l392 276l124 88v-4z" />
    <glyph glyph-name="logicalnot" unicode="&#xac;" horiz-adv-x="1122" 
d="M867 596q-114 4 -279 4q-423 0 -588 -10v187q4 -1 404 -4q486 2 668 8v-2q-18 -37 -27 -76q-2 -48 -4 -144q0 -230 5 -316h-2q-90 22 -192 18q14 60 15 212q1 69 0 123z" />
    <glyph glyph-name="registered" unicode="&#xae;" horiz-adv-x="1514" 
d="M736 1454q355 0 592 -308q136 -194 136 -416v-24q0 -347 -324 -596q-201 -120 -388 -120h-48q-288 0 -532 260q-172 218 -172 472q0 363 320 604q191 128 416 128zM316 1114q50 -4 60 -4q52 0 324 48q14 0 36 4q262 0 352 -212q12 -51 12 -76v-36q0 -128 -124 -216
q-37 -24 -100 -36q58 -99 260 -268h4q168 178 168 404q0 296 -268 484q-144 88 -284 88h-52q-207 0 -388 -180zM600 670v-20q208 43 208 252v4q0 135 -104 192q-7 4 -20 4h-12q-56 0 -56 -48q-16 -183 -16 -384zM160 738v-40q0 -177 136 -348q40 198 40 376v68
q0 160 -44 292q-132 -162 -132 -348zM600 602v-8q0 -207 28 -300l-8 -4h-264q168 -144 376 -144q202 0 368 136h-300q-10 1 -32 96q-54 124 -148 212l-16 12h-4z" />
    <glyph glyph-name="macron" unicode="&#xaf;" horiz-adv-x="566" 
d="M0 1195v125h516v-125h-516z" />
    <glyph glyph-name="degree" unicode="&#xb0;" horiz-adv-x="606" 
d="M279 1372q-86 0 -147.5 -61t-61.5 -148t61 -147t148 -60t147 60t60 147t-60.5 148t-146.5 61zM279 1442q115 0 196 -81.5t81 -196.5q0 -114 -82 -196t-197 -82q-117 0 -197 81t-80 197t81.5 197t197.5 81z" />
    <glyph glyph-name="plusminus" unicode="&#xb1;" horiz-adv-x="1028" 
d="M618 1256q-19 -85 -40 -368q146 0 400 32q-37 -108 -36 -286q-108 52 -368 76q4 -273 32 -416h-294q68 276 68 408q-114 0 -380 -60v274q175 -36 384 -36q0 138 -72 340q127 -8 306 36zM6 158q129 -16 388 -16q253 0 346 16l-6 -68q0 -58 22 -168q-2 0 -2 -4
q-155 8 -422 8h-146q-123 0 -183 -8l-3 8v224q1 8 6 8z" />
    <glyph glyph-name="acute" unicode="&#xb4;" horiz-adv-x="417" 
d="M367 1339l-306 -237l-61 63l255 288z" />
    <glyph glyph-name="mu" unicode="&#xb5;" horiz-adv-x="1362" 
d="M92 600q0 228 -92 376h524q-28 -156 -28 -496q-3 -404 68 -406q170 -6 176 426q0 253 -36 476h524q-32 -259 -32 -508q0 -270 116 -472h-416q-69 73 -73 288h-24q-17 -302 -353 -323q2 -152 6 -310l-406 -8q50 358 46 957z" />
    <glyph glyph-name="paragraph" unicode="&#xb6;" horiz-adv-x="1081" 
d="M1031 1435v-70h-140q-11 -310 -16 -915q3 -317 12 -658l-240 -7q36 468 36 981q0 376 -18 599h-87q-11 -310 -16 -915q3 -317 12 -658l-240 -7q35 455 36 953q-169 10 -268 103q-102 94 -102 245q0 157 108 253q92 83 238 94v2h685z" />
    <glyph glyph-name="periodcentered" unicode="&#xb7;" horiz-adv-x="311" 
d="M131 615q-54 0 -92.5 38t-38.5 92t38.5 92.5t92.5 38.5q53 0 91.5 -38.5t38.5 -92.5t-38.5 -92t-91.5 -38z" />
    <glyph glyph-name="periodcentered" unicode="&#x2219;" horiz-adv-x="311" 
d="M131 615q-54 0 -92.5 38t-38.5 92t38.5 92.5t92.5 38.5q53 0 91.5 -38.5t38.5 -92.5t-38.5 -92t-91.5 -38z" />
    <glyph glyph-name="cedilla" unicode="&#xb8;" horiz-adv-x="458" 
d="M0 -290q85 -52 152 -52q66 0 94.5 21.5t28.5 66.5t-49 64q-40 16 -102 16q-16 0 -34 -2l48 176h63l-37 -104q32 4 62 5q86 0 134 -40.5t48 -113.5q0 -76 -58.5 -120.5t-160.5 -44.5q-109 0 -189 32v96z" />
    <glyph glyph-name="guillemotright" unicode="&#xbb;" horiz-adv-x="1215" 
d="M124 1181v4l124 -88l392 -276v-240q-308 -207 -508 -360q-54 151 -132 236q120 59 380 244q-265 195 -376 236q77 106 120 244zM649 1181v4l124 -88l392 -276v-240q-308 -207 -508 -360q-54 151 -132 236q120 59 380 244q-265 195 -376 236q77 106 120 244z" />
    <glyph glyph-name="onequarter" unicode="&#xbc;" horiz-adv-x="1916" 
d="M1432 1483v-4q-303 -387 -608 -940q-192 -352 -264 -544h-326v4q267 305 442 628q345 586 368 808q65 -12 156 -12q-40 0 232 60zM1694 999q-36 -177 -36 -440v-200q124 24 208 48v-216q-91 28 -200 28q12 -160 24 -248h-420q28 92 52 256h-56q-195 0 -372 -12l-4 100
q176 182 244 328q71 146 132 324q51 -8 108 -8q158 0 320 40zM1326 719q-92 -198 -248 -368q140 -16 256 -16q8 91 8 184q0 45 -16 200zM428 1475v-4q-40 -204 -40 -496q0 -308 32 -528l-420 8q72 220 72 504q0 327 -68 480l104 -8q143 0 320 44z" />
    <glyph glyph-name="onehalf" unicode="&#xbd;" horiz-adv-x="2282" 
d="M428 1475v-4q-40 -204 -40 -496q0 -308 32 -528l-420 8q72 220 72 504q0 327 -68 480l104 -8q143 0 320 44zM1736 1015q486 0 484 -284q0 -216 -304 -308q-320 -92 -320 -260q167 -8 228 -8q232 0 380 40q-4 -118 28 -224h-916l-4 212q0 211 368 348q264 97 264 240
q0 196 -200 196q-117 0 -116 -180q0 -101 60 -184q-60 -68 -148 -68q-229 0 -228 220q0 263 424 260zM1619 1483v-4q-303 -387 -608 -940q-192 -352 -264 -544h-326v4q267 305 442 628q345 586 368 808q65 -12 156 -12q-40 0 232 60z" />
    <glyph glyph-name="threequarters" unicode="&#xbe;" horiz-adv-x="2539" 
d="M529 1507q387 0 388 -256q0 -124 -108 -244q210 -25 212 -268q0 -217 -264 -300q-96 -24 -220 -24h-20q-517 0 -512 248q0 233 236 232q78 0 144 -68q-48 -88 -48 -172q0 -189 192 -192q210 0 216 264q0 201 -300 252v100l96 52q88 57 88 152q0 176 -144 176
q-143 0 -144 -188q0 -96 104 -96q-89 -92 -192 -92q-169 0 -168 176q0 190 304 236q76 12 140 12zM2317 999q-36 -177 -36 -440v-200q124 24 208 48v-216q-91 28 -200 28q12 -160 24 -248h-420q28 92 52 256h-56q-195 0 -372 -12l-4 100q176 182 244 328q71 146 132 324
q51 -8 108 -8q158 0 320 40zM1949 719q-92 -198 -248 -368q140 -16 256 -16q8 91 8 184q0 45 -16 200zM1967 1483v-4q-303 -387 -608 -940q-192 -352 -264 -544h-326v4q267 305 442 628q345 586 368 808q65 -12 156 -12q-40 0 232 60z" />
    <glyph glyph-name="questiondown" unicode="&#xbf;" horiz-adv-x="1394" 
d="M676 -147q-674 0 -676 432q0 308 432 460q242 90 271 239h28q58 0 120 8q33 -50 33 -115q0 -196 -292 -360q-183 -104 -196 -276q-18 -305 240 -304q229 0 228 304q0 124 -64 232q95 96 228 96q316 -6 316 -316q-4 -400 -668 -400zM781 1423q77 0 131 -54t54 -130
q0 -77 -54 -131t-131 -54q-76 0 -130 54t-54 131q0 76 54 130t130 54z" />
    <glyph glyph-name="Agrave" unicode="&#xc0;" 
d="M1620 1084q-65 -855 8 -1084h-603q94 355 97 595h-258q0 -362 51 -595h-610q93 313 105 591q-102 2 -112 -113q-6 -72 63 -141q-82 -36 -161 -36q-200 0 -200 161q0 230 414 211v133q0 434 -106 635q203 -32 380.5 12.5t316.5 49.5q654 16 615 -419zM864 673h266
q8 225 8 333q6 388 -235 356q-39 -355 -39 -689zM719 1789l112 114l255 -288l-62 -63z" />
    <glyph glyph-name="Aacute" unicode="&#xc1;" 
d="M1620 1084q-65 -855 8 -1084h-603q94 355 97 595h-258q0 -362 51 -595h-610q93 313 105 591q-102 2 -112 -113q-6 -72 63 -141q-82 -36 -161 -36q-200 0 -200 161q0 230 414 211v133q0 434 -106 635q203 -32 380.5 12.5t316.5 49.5q654 16 615 -419zM864 673h266
q8 225 8 333q6 388 -235 356q-39 -355 -39 -689zM1229 1789l-306 -237l-61 63l255 288z" />
    <glyph glyph-name="Acircumflex" unicode="&#xc2;" 
d="M1620 1084q-65 -855 8 -1084h-603q94 355 97 595h-258q0 -362 51 -595h-610q93 313 105 591q-102 2 -112 -113q-6 -72 63 -141q-82 -36 -161 -36q-200 0 -200 161q0 230 414 211v133q0 434 -106 635q203 -32 380.5 12.5t316.5 49.5q654 16 615 -419zM864 673h266
q8 225 8 333q6 388 -235 356q-39 -355 -39 -689zM885 1910h168l196 -384h-88l-196 256l-184 -256h-92z" />
    <glyph glyph-name="Atilde" unicode="&#xc3;" 
d="M1620 1084q-65 -855 8 -1084h-603q94 355 97 595h-258q0 -362 51 -595h-610q93 313 105 591q-102 2 -112 -113q-6 -72 63 -141q-82 -36 -161 -36q-200 0 -200 161q0 230 414 211v133q0 434 -106 635q203 -32 380.5 12.5t316.5 49.5q654 16 615 -419zM864 673h266
q8 225 8 333q6 388 -235 356q-39 -355 -39 -689zM1213 1909h66q5 -163 -130 -174q-108 -7 -366 21q-45 5 -52 -34h-66q-6 180 204 180q36 0 283 -29q54 -5 61 36z" />
    <glyph glyph-name="Adieresis" unicode="&#xc4;" 
d="M1620 1084q-65 -855 8 -1084h-603q94 355 97 595h-258q0 -362 51 -595h-610q93 313 105 591q-102 2 -112 -113q-6 -72 63 -141q-82 -36 -161 -36q-200 0 -200 161q0 230 414 211v133q0 434 -106 635q203 -32 380.5 12.5t316.5 49.5q654 16 615 -419zM864 673h266
q8 225 8 333q6 388 -235 356q-39 -355 -39 -689zM790 1646q-54 0 -92.5 38t-38.5 92t38.5 92.5t92.5 38.5q53 0 91.5 -38.5t38.5 -92.5t-38.5 -92t-91.5 -38zM1188 1646q-54 0 -92.5 38t-38.5 92t38.5 92.5t92.5 38.5q53 0 91.5 -38.5t38.5 -92.5t-38.5 -92t-91.5 -38z" />
    <glyph glyph-name="Aring" unicode="&#xc5;" 
d="M1620 1084q-65 -855 8 -1084h-603q94 355 97 595h-258q0 -362 51 -595h-610q93 313 105 591q-102 2 -112 -113q-6 -72 63 -141q-82 -36 -161 -36q-200 0 -200 161q0 230 414 211v133q0 434 -106 635q203 -32 380.5 12.5t316.5 49.5q654 16 615 -419zM864 673h266
q8 225 8 333q6 388 -235 356q-39 -355 -39 -689zM1022 1839q201 0 201 -173q-3 -186 -202 -186q-200 0 -201 183q0 175 202 176zM964 1655q0 -153 58 -153q57 0 57 154q0 162 -57 161q-54 0 -58 -162z" />
    <glyph glyph-name="Ccedilla" unicode="&#xc7;" horiz-adv-x="1422" 
d="M687 1519q541 0 548 -329q0 -150 -173 -219q-127 -48 -250 20q96 5 94 176q0 274 -188 278q-218 0 -223 -654q-4 -752 336 -752q189 0 188 329q0 186 -148 274q123 35 203 35q294 0 298 -262q0 -436 -646 -446q-722 0 -726 794q0 758 687 756zM660 -290q85 -52 152 -52
q66 0 94.5 21.5t28.5 66.5t-49 64q-40 16 -102 16q-16 0 -34 -2l48 176h63l-37 -104q32 4 62 5q86 0 134 -40.5t48 -113.5q0 -76 -58.5 -120.5t-160.5 -44.5q-109 0 -189 32v96z" />
    <glyph glyph-name="Egrave" unicode="&#xc8;" horiz-adv-x="1448" 
d="M1202 1292q0 -109 -184 -137q-106 -14 -176 20q12 40 12 97q0 119 -79 134q-95 17 -180 -12q-31 -298 -31 -435q147 47 258 47q286 0 282 -203q0 -162 -258 -134q8 167 -215 204h-71q-4 -162 -4 -243q-4 -317 39 -548q45 -12 137 -12q186 0 286 141q24 50 24 83l-4 47
q359 11 360 -165q0 -203 -356 -207q-215 0 -451 31h-583q98 340 98 795q0 431 -106 646q62 -12 230 -7.5t432 69.5q53 12 121 12q423 4 419 -223zM376 1789l112 114l255 -288l-62 -63z" />
    <glyph glyph-name="Eacute" unicode="&#xc9;" horiz-adv-x="1448" 
d="M1202 1292q0 -109 -184 -137q-106 -14 -176 20q12 40 12 97q0 119 -79 134q-95 17 -180 -12q-31 -298 -31 -435q147 47 258 47q286 0 282 -203q0 -162 -258 -134q8 167 -215 204h-71q-4 -162 -4 -243q-4 -317 39 -548q45 -12 137 -12q186 0 286 141q24 50 24 83l-4 47
q359 11 360 -165q0 -203 -356 -207q-215 0 -451 31h-583q98 340 98 795q0 431 -106 646q62 -12 230 -7.5t432 69.5q53 12 121 12q423 4 419 -223zM929 1789l-306 -237l-61 63l255 288z" />
    <glyph glyph-name="Ecircumflex" unicode="&#xca;" horiz-adv-x="1448" 
d="M1202 1292q0 -109 -184 -137q-106 -14 -176 20q12 40 12 97q0 119 -79 134q-95 17 -180 -12q-31 -298 -31 -435q147 47 258 47q286 0 282 -203q0 -162 -258 -134q8 167 -215 204h-71q-4 -162 -4 -243q-4 -317 39 -548q45 -12 137 -12q186 0 286 141q24 50 24 83l-4 47
q359 11 360 -165q0 -203 -356 -207q-215 0 -451 31h-583q98 340 98 795q0 431 -106 646q62 -12 230 -7.5t432 69.5q53 12 121 12q423 4 419 -223zM506 1910h168l196 -384h-88l-196 256l-184 -256h-92z" />
    <glyph glyph-name="Edieresis" unicode="&#xcb;" horiz-adv-x="1448" 
d="M1202 1292q0 -109 -184 -137q-106 -14 -176 20q12 40 12 97q0 119 -79 134q-95 17 -180 -12q-31 -298 -31 -435q147 47 258 47q286 0 282 -203q0 -162 -258 -134q8 167 -215 204h-71q-4 -162 -4 -243q-4 -317 39 -548q45 -12 137 -12q186 0 286 141q24 50 24 83l-4 47
q359 11 360 -165q0 -203 -356 -207q-215 0 -451 31h-583q98 340 98 795q0 431 -106 646q62 -12 230 -7.5t432 69.5q53 12 121 12q423 4 419 -223zM310 1646q-54 0 -92.5 38t-38.5 92t38.5 92.5t92.5 38.5q53 0 91.5 -38.5t38.5 -92.5t-38.5 -92t-91.5 -38zM708 1646
q-54 0 -92.5 38t-38.5 92t38.5 92.5t92.5 38.5q53 0 91.5 -38.5t38.5 -92.5t-38.5 -92t-91.5 -38z" />
    <glyph glyph-name="Igrave" unicode="&#xcc;" horiz-adv-x="661" 
d="M611 1484q-51 -322 -51 -869q0 -457 43 -615h-591q97 361 97 791q0 446 -109 646q66 -8 180 -8q189 0 431 55zM124 1789l112 114l255 -288l-62 -63z" />
    <glyph glyph-name="Iacute" unicode="&#xcd;" horiz-adv-x="661" 
d="M611 1484q-51 -322 -51 -869q0 -457 43 -615h-591q97 361 97 791q0 446 -109 646q66 -8 180 -8q189 0 431 55zM535 1789l-306 -237l-61 63l255 288z" />
    <glyph glyph-name="Icircumflex" unicode="&#xce;" horiz-adv-x="661" 
d="M611 1484q-51 -322 -51 -869q0 -457 43 -615h-591q97 361 97 791q0 446 -109 646q66 -8 180 -8q189 0 431 55zM232 1910h168l196 -384h-88l-196 256l-184 -256h-92z" />
    <glyph glyph-name="Idieresis" unicode="&#xcf;" horiz-adv-x="709" 
d="M632 1484q-51 -322 -51 -869q0 -457 43 -615h-591q97 361 97 791q0 446 -109 646q66 -8 180 -8q189 0 431 55zM131 1646q-54 0 -92.5 38t-38.5 92t38.5 92.5t92.5 38.5q53 0 91.5 -38.5t38.5 -92.5t-38.5 -92t-91.5 -38zM529 1646q-54 0 -92.5 38t-38.5 92t38.5 92.5
t92.5 38.5q53 0 91.5 -38.5t38.5 -92.5t-38.5 -92t-91.5 -38z" />
    <glyph glyph-name="Eth" unicode="&#xd0;" horiz-adv-x="1574" 
d="M872 1555q637 0 652 -892q0 -409 -276 -632q-127 -88 -284 -88q-156 0 -300 103l-22 -1l2 -50h-604q40 127 62 306t34 330l-136 -4v208q80 -4 140 -4q0 411 -104 632q154 -53 308 -10q358 103 528 102zM604 831l176 8q-28 -87 -28 -164l4 -56l-156 16v-72q21 8 44 8
q89 0 172 -84q-128 -87 -128 -236q0 -132 96 -204q19 -12 60 -12q216 0 216 648q0 476 -176 700q-48 63 -144 68.5t-104 -64.5q-32 -332 -32 -556z" />
    <glyph glyph-name="Ntilde" unicode="&#xd1;" horiz-adv-x="1722" 
d="M575 1488q115 -228 748 -1065q20 211 20 372q0 428 -86 642h58q74 0 239 51q-51 -319 -51 -858q-6 -303 32 -470l137 -160h-592q-261 504 -575 904l-106 126q-12 -205 -12 -396q0 -469 43 -634h-289q98 328 98 763q0 332 -59 513q-83 80 -180 165q67 -12 184 -12
q185 0 391 59zM1165 1909h66q5 -163 -130 -174q-108 -7 -366 21q-45 5 -52 -34h-66q-6 180 204 180q36 0 283 -29q54 -5 61 36z" />
    <glyph glyph-name="Ograve" unicode="&#xd2;" horiz-adv-x="1600" 
d="M775 1527q388 0 611 -305q164 -225 164 -494q0 -413 -328 -626q-218 -137 -447 -137q-442 0 -658 360q-117 198 -117 407q0 459 356 670q213 125 419 125zM419 924q0 -375 200 -693q103 -165 262 -165q259 0 254 490q0 332 -176 654q-118 215 -290 215q-260 0 -250 -501z
M473 1789l112 114l255 -288l-62 -63z" />
    <glyph glyph-name="Oacute" unicode="&#xd3;" horiz-adv-x="1600" 
d="M775 1527q388 0 611 -305q164 -225 164 -494q0 -413 -328 -626q-218 -137 -447 -137q-442 0 -658 360q-117 198 -117 407q0 459 356 670q213 125 419 125zM419 924q0 -375 200 -693q103 -165 262 -165q259 0 254 490q0 332 -176 654q-118 215 -290 215q-260 0 -250 -501z
M921 1789l-306 -237l-61 63l255 288z" />
    <glyph glyph-name="Ocircumflex" unicode="&#xd4;" horiz-adv-x="1600" 
d="M775 1527q388 0 611 -305q164 -225 164 -494q0 -413 -328 -626q-218 -137 -447 -137q-442 0 -658 360q-117 198 -117 407q0 459 356 670q213 125 419 125zM419 924q0 -375 200 -693q103 -165 262 -165q259 0 254 490q0 332 -176 654q-118 215 -290 215q-260 0 -250 -501z
M670 1910h168l196 -384h-88l-196 256l-184 -256h-92z" />
    <glyph glyph-name="Otilde" unicode="&#xd5;" horiz-adv-x="1600" 
d="M775 1527q388 0 611 -305q164 -225 164 -494q0 -413 -328 -626q-218 -137 -447 -137q-442 0 -658 360q-117 198 -117 407q0 459 356 670q213 125 419 125zM419 924q0 -375 200 -693q103 -165 262 -165q259 0 254 490q0 332 -176 654q-118 215 -290 215q-260 0 -250 -501z
M956 1909h66q5 -163 -130 -174q-108 -7 -366 21q-45 5 -52 -34h-66q-6 180 204 180q36 0 283 -29q54 -5 61 36z" />
    <glyph glyph-name="Odieresis" unicode="&#xd6;" horiz-adv-x="1600" 
d="M775 1527q388 0 611 -305q164 -225 164 -494q0 -413 -328 -626q-218 -137 -447 -137q-442 0 -658 360q-117 198 -117 407q0 459 356 670q213 125 419 125zM419 924q0 -375 200 -693q103 -165 262 -165q259 0 254 490q0 332 -176 654q-118 215 -290 215q-260 0 -250 -501z
M517 1646q-54 0 -92.5 38t-38.5 92t38.5 92.5t92.5 38.5q53 0 91.5 -38.5t38.5 -92.5t-38.5 -92t-91.5 -38zM915 1646q-54 0 -92.5 38t-38.5 92t38.5 92.5t92.5 38.5q53 0 91.5 -38.5t38.5 -92.5t-38.5 -92t-91.5 -38z" />
    <glyph glyph-name="multiply" unicode="&#xd7;" horiz-adv-x="974" 
d="M302 671q359 328 490 454l2 -1q27 -97 102 -167q-103 -75 -341 -291q-314 -283 -430 -401l-125 138q4 2 302 268zM924 403l-125 -138q-116 118 -430 401q-238 216 -341 291q75 70 102 167l2 1q131 -126 490 -454q298 -266 302 -268z" />
    <glyph glyph-name="Oslash" unicode="&#xd8;" horiz-adv-x="1600" 
d="M775 1527q388 0 611 -305q164 -225 164 -494q0 -413 -328 -626q-218 -137 -447 -137q-442 0 -658 360q-117 198 -117 407q0 459 356 670q213 125 419 125zM419 924q0 -375 200 -693q103 -165 262 -165q259 0 254 490q0 332 -176 654q-118 215 -290 215q-260 0 -250 -501z
M1526 1700v-4q-445 -577 -750 -1130q-192 -352 -435 -720h-326v4q438 481 613 804q345 586 510 998q65 -12 156 -12q-40 0 232 60z" />
    <glyph glyph-name="Ugrave" unicode="&#xd9;" horiz-adv-x="1534" 
d="M0 1492h622q-106 -522 -106 -952q0 -468 161 -470q106 0 223 263q47 107 47 411q0 490 -117 748l622 -2q-51 -323 -51 -789q0 -543 83 -701h-463q-45 46 -68 196h-22q-113 -158 -254 -200q-64 -20 -184 -27q-427 -19 -427 587l12 552q0 223 -78 384zM458 1789l112 114
l255 -288l-62 -63z" />
    <glyph glyph-name="Uacute" unicode="&#xda;" horiz-adv-x="1534" 
d="M0 1492h622q-106 -522 -106 -952q0 -468 161 -470q106 0 223 263q47 107 47 411q0 490 -117 748l622 -2q-51 -323 -51 -789q0 -543 83 -701h-463q-45 46 -68 196h-22q-113 -158 -254 -200q-64 -20 -184 -27q-427 -19 -427 587l12 552q0 223 -78 384zM980 1789l-306 -237
l-61 63l255 288z" />
    <glyph glyph-name="Ucircumflex" unicode="&#xdb;" horiz-adv-x="1534" 
d="M0 1492h622q-106 -522 -106 -952q0 -468 161 -470q106 0 223 263q47 107 47 411q0 490 -117 748l622 -2q-51 -323 -51 -789q0 -543 83 -701h-463q-45 46 -68 196h-22q-113 -158 -254 -200q-64 -20 -184 -27q-427 -19 -427 587l12 552q0 223 -78 384zM631 1910h168
l196 -384h-88l-196 256l-184 -256h-92z" />
    <glyph glyph-name="Udieresis" unicode="&#xdc;" horiz-adv-x="1534" 
d="M0 1492h622q-106 -522 -106 -952q0 -468 161 -470q106 0 223 263q47 107 47 411q0 490 -117 748l622 -2q-51 -323 -51 -789q0 -543 83 -701h-463q-45 46 -68 196h-22q-113 -158 -254 -200q-64 -20 -184 -27q-427 -19 -427 587l12 552q0 223 -78 384zM517 1646
q-54 0 -92.5 38t-38.5 92t38.5 92.5t92.5 38.5q53 0 91.5 -38.5t38.5 -92.5t-38.5 -92t-91.5 -38zM915 1646q-54 0 -92.5 38t-38.5 92t38.5 92.5t92.5 38.5q53 0 91.5 -38.5t38.5 -92.5t-38.5 -92t-91.5 -38z" />
    <glyph glyph-name="Yacute" unicode="&#xdd;" horiz-adv-x="1831" 
d="M1166 1789l-306 -237l-61 63l255 288zM6 1434q328 -30 620 58l43 -98q74 -156 223 -372q106 -147 200 -226q192 241 192 402q0 166 -152 239q315 -41 641 55q8 -182 -297 -411q-290 -229 -290 -509q0 -391 43 -572h-591q85 130 90 572q0 203 -722 862z" />
    <glyph glyph-name="Thorn" unicode="&#xde;" horiz-adv-x="1010" 
d="M233 963q-3 -217 -5 -488q0 -31 1 -63q28 -149 123 -149q184 0 184 400q0 448 -196 444q-83 -1 -107 -144zM230 259q4 -201 10 -466l-240 -8q36 471 36 1042q0 538 -24 794h234q-6 -173 -11 -502q86 104 261 104q463 0 464 -556q0 -499 -496 -500q-159 0 -234 92z" />
    <glyph glyph-name="germandbls" unicode="&#xdf;" horiz-adv-x="1317" 
d="M651 1519q430 0 436 -360q3 -296 -220 -296v-20q398 0 400 -428q0 -492 -532 -492q-262 0 -396 112q-32 -108 -40 -456l-299 -2q108 435 99.5 1018t95.5 736q135 188 456 188zM367 739q100 108 224 108q84 80 84 272q0 300 -108 300q-87 0 -156 -280q-44 -184 -44 -400z
M363 575v-48q35 20 76 20q90 0 172 -84q-147 -73 -144 -216q0 -240 200 -236q182 0 180 384q0 200 -112 308q-68 68 -140 68q-155 0 -232 -196z" />
    <glyph glyph-name="agrave" unicode="&#xe0;" horiz-adv-x="1240" 
d="M632 1028q558 0 556 -430q0 -124 -8 -442q-3 -130 4 -156q-339 -2 -380 60q-37 57 -40 132h-24q-56 -135 -144 -172q-134 -56 -236 -56q-360 0 -354 284q0 260 422 264q149 0 240 108q84 106 84 208q0 127 -144 128q-160 2 -160 -164q0 -92 68 -164q-121 -76 -228 -76
q-225 -2 -226 160q0 316 570 316zM424 184q0 -112 116 -112q134 0 168 208q16 101 16 256v64q-27 -41 -224 -228q-76 -75 -76 -188zM345 1339l112 114l255 -288l-62 -63z" />
    <glyph glyph-name="aacute" unicode="&#xe1;" horiz-adv-x="1240" 
d="M632 1028q558 0 556 -430q0 -124 -8 -442q-3 -130 4 -156q-339 -2 -380 60q-37 57 -40 132h-24q-56 -135 -144 -172q-134 -56 -236 -56q-360 0 -354 284q0 260 422 264q149 0 240 108q84 106 84 208q0 127 -144 128q-160 2 -160 -164q0 -92 68 -164q-121 -76 -228 -76
q-225 -2 -226 160q0 316 570 316zM424 184q0 -112 116 -112q134 0 168 208q16 101 16 256v64q-27 -41 -224 -228q-76 -75 -76 -188zM761 1339l-306 -237l-61 63l255 288z" />
    <glyph glyph-name="acircumflex" unicode="&#xe2;" horiz-adv-x="1240" 
d="M632 1028q558 0 556 -430q0 -124 -8 -442q-3 -130 4 -156q-339 -2 -380 60q-37 57 -40 132h-24q-56 -135 -144 -172q-134 -56 -236 -56q-360 0 -354 284q0 260 422 264q149 0 240 108q84 106 84 208q0 127 -144 128q-160 2 -160 -164q0 -92 68 -164q-121 -76 -228 -76
q-225 -2 -226 160q0 316 570 316zM424 184q0 -112 116 -112q134 0 168 208q16 101 16 256v64q-27 -41 -224 -228q-76 -75 -76 -188zM504 1433h168l196 -384h-88l-196 256l-184 -256h-92z" />
    <glyph glyph-name="atilde" unicode="&#xe3;" horiz-adv-x="1240" 
d="M632 1028q558 0 556 -430q0 -124 -8 -442q-3 -130 4 -156q-339 -2 -380 60q-37 57 -40 132h-24q-56 -135 -144 -172q-134 -56 -236 -56q-360 0 -354 284q0 260 422 264q149 0 240 108q84 106 84 208q0 127 -144 128q-160 2 -160 -164q0 -92 68 -164q-121 -76 -228 -76
q-225 -2 -226 160q0 316 570 316zM424 184q0 -112 116 -112q134 0 168 208q16 101 16 256v64q-27 -41 -224 -228q-76 -75 -76 -188zM859 1359h66q5 -163 -130 -174q-108 -7 -366 21q-45 5 -52 -34h-66q-6 180 204 180q36 0 283 -29q54 -5 61 36z" />
    <glyph glyph-name="adieresis" unicode="&#xe4;" horiz-adv-x="1240" 
d="M632 1028q558 0 556 -430q0 -124 -8 -442q-3 -130 4 -156q-339 -2 -380 60q-37 57 -40 132h-24q-56 -135 -144 -172q-134 -56 -236 -56q-360 0 -354 284q0 260 422 264q149 0 240 108q84 106 84 208q0 127 -144 128q-160 2 -160 -164q0 -92 68 -164q-121 -76 -228 -76
q-225 -2 -226 160q0 316 570 316zM424 184q0 -112 116 -112q134 0 168 208q16 101 16 256v64q-27 -41 -224 -228q-76 -75 -76 -188zM421 1120q-54 0 -92.5 38t-38.5 92t38.5 92.5t92.5 38.5q53 0 91.5 -38.5t38.5 -92.5t-38.5 -92t-91.5 -38zM819 1120q-54 0 -92.5 38
t-38.5 92t38.5 92.5t92.5 38.5q53 0 91.5 -38.5t38.5 -92.5t-38.5 -92t-91.5 -38z" />
    <glyph glyph-name="aring" unicode="&#xe5;" horiz-adv-x="1240" 
d="M632 1028q558 0 556 -430q0 -124 -8 -442q-3 -130 4 -156q-339 -2 -380 60q-37 57 -40 132h-24q-56 -135 -144 -172q-134 -56 -236 -56q-360 0 -354 284q0 260 422 264q149 0 240 108q84 106 84 208q0 127 -144 128q-160 2 -160 -164q0 -92 68 -164q-121 -76 -228 -76
q-225 -2 -226 160q0 316 570 316zM424 184q0 -112 116 -112q134 0 168 208q16 101 16 256v64q-27 -41 -224 -228q-76 -75 -76 -188zM629 1365q201 0 201 -173q-3 -186 -202 -186q-200 0 -201 183q0 175 202 176zM571 1181q0 -153 58 -153q57 0 57 154q0 162 -57 161
q-54 0 -58 -162z" />
    <glyph glyph-name="ccedilla" unicode="&#xe7;" horiz-adv-x="1170" 
d="M591 1024q441 0 444 -272q4 -177 -184 -176q-72 0 -164 52q72 17 72 128q0 183 -148 184q-200 0 -200 -340q0 -563 296 -564q89 0 140 148q64 174 -72 264q88 56 156 56q189 0 188 -208q0 -326 -528 -336q-591 0 -588 520q0 548 588 544zM511 -290q85 -52 152 -52
q66 0 94.5 21.5t28.5 66.5t-49 64q-40 16 -102 16q-16 0 -34 -2l48 176h63l-37 -104q32 4 62 5q86 0 134 -40.5t48 -113.5q0 -76 -58.5 -120.5t-160.5 -44.5q-109 0 -189 32v96z" />
    <glyph glyph-name="egrave" unicode="&#xe8;" horiz-adv-x="1188" 
d="M586 1020q373 0 488 -344l20 -68q-76 -64 -580 -64q-80 -19 -80 -44q0 -468 276 -464q172 0 176 224q0 89 -92 188q81 52 160 52q175 0 180 -156q4 -328 -424 -376q-710 -80 -704 536q0 243 264 428q147 88 316 88zM558 592h60q124 0 124 32l4 56q17 273 -152 276
q-124 0 -160 -364q0 -32 27.5 -16t96.5 16zM395 1339l112 114l255 -288l-62 -63z" />
    <glyph glyph-name="eacute" unicode="&#xe9;" horiz-adv-x="1188" 
d="M586 1020q373 0 488 -344l20 -68q-76 -64 -580 -64q-80 -19 -80 -44q0 -468 276 -464q172 0 176 224q0 89 -92 188q81 52 160 52q175 0 180 -156q4 -328 -424 -376q-710 -80 -704 536q0 243 264 428q147 88 316 88zM558 592h60q124 0 124 32l4 56q17 273 -152 276
q-124 0 -160 -364q0 -32 27.5 -16t96.5 16zM811 1339l-306 -237l-61 63l255 288z" />
    <glyph glyph-name="ecircumflex" unicode="&#xea;" horiz-adv-x="1188" 
d="M586 1020q373 0 488 -344l20 -68q-76 -64 -580 -64q-80 -19 -80 -44q0 -468 276 -464q172 0 176 224q0 89 -92 188q81 52 160 52q175 0 180 -156q4 -328 -424 -376q-710 -80 -704 536q0 243 264 428q147 88 316 88zM558 592h60q124 0 124 32l4 56q17 273 -152 276
q-124 0 -160 -364q0 -32 27.5 -16t96.5 16zM494 1433h168l196 -384h-88l-196 256l-184 -256h-92z" />
    <glyph glyph-name="edieresis" unicode="&#xeb;" horiz-adv-x="1188" 
d="M586 1020q373 0 488 -344l20 -68q-76 -64 -580 -64q-80 -19 -80 -44q0 -468 276 -464q172 0 176 224q0 89 -92 188q81 52 160 52q175 0 180 -156q4 -328 -424 -376q-710 -80 -704 536q0 243 264 428q147 88 316 88zM558 592h60q124 0 124 32l4 56q17 273 -152 276
q-124 0 -160 -364q0 -32 27.5 -16t96.5 16zM371 1120q-54 0 -92.5 38t-38.5 92t38.5 92.5t92.5 38.5q53 0 91.5 -38.5t38.5 -92.5t-38.5 -92t-91.5 -38zM769 1120q-54 0 -92.5 38t-38.5 92t38.5 92.5t92.5 38.5q53 0 91.5 -38.5t38.5 -92.5t-38.5 -92t-91.5 -38z" />
    <glyph glyph-name="igrave" unicode="&#xec;" horiz-adv-x="670" 
d="M620 1016q-60 -231 -60 -468q0 -262 56 -548h-616q104 319 104 532q0 262 -104 440q72 -8 156 -12q205 -9 464 56zM100 1339l112 114l255 -288l-62 -63z" />
    <glyph glyph-name="iacute" unicode="&#xed;" horiz-adv-x="670" 
d="M620 1016q-60 -231 -60 -468q0 -262 56 -548h-616q104 319 104 532q0 262 -104 440q72 -8 156 -12q205 -9 464 56zM507 1339l-306 -237l-61 63l255 288z" />
    <glyph glyph-name="icircumflex" unicode="&#xee;" horiz-adv-x="670" 
d="M620 1016q-60 -231 -60 -468q0 -262 56 -548h-616q104 319 104 532q0 262 -104 440q72 -8 156 -12q205 -9 464 56zM236 1433h168l196 -384h-88l-196 256l-184 -256h-92z" />
    <glyph glyph-name="idieresis" unicode="&#xef;" horiz-adv-x="709" 
d="M620 1016q-60 -231 -60 -468q0 -262 56 -548h-616q104 319 104 532q0 262 -104 440q72 -8 156 -12q205 -9 464 56zM131 1120q-54 0 -92.5 38t-38.5 92t38.5 92.5t92.5 38.5q53 0 91.5 -38.5t38.5 -92.5t-38.5 -92t-91.5 -38zM529 1120q-54 0 -92.5 38t-38.5 92t38.5 92.5
t92.5 38.5q53 0 91.5 -38.5t38.5 -92.5t-38.5 -92t-91.5 -38z" />
    <glyph glyph-name="eth" unicode="&#xf0;" horiz-adv-x="1282" 
d="M1108 1490q24 -102 76 -170l-184 -108q232 -358 232 -656v-56q0 -364 -332 -500q-124 -48 -288 -48h-28q-387 0 -540 272q-44 89 -44 176v40q0 195 132 328q152 136 332 136h44q177 0 276 -104h59q-16 172 -48 272l-187 -86l-12 140q11 16 136 96v4q-94 152 -160 178
q-4 0 -4 4v48q4 12 24 12h48q77 0 236 -146q165 117 232 168zM424 456v-88q0 -243 120 -340q33 -12 48 -12q119 0 152 212q12 67 20 220q0 224 -96 340q-37 32 -68 32h-12q-114 0 -156 -272q-8 -43 -8 -92z" />
    <glyph glyph-name="ntilde" unicode="&#xf1;" horiz-adv-x="1410" 
d="M620 1020q-20 -94 -32 -180l25 3q129 177 343 177q324 0 324 -316q0 -57 -4 -376q0 -176 84 -328h-588q104 401 104 660q0 217 -112 216q-102 0 -200 -388q-47 -193 56 -488h-616q104 315 104 540q0 260 -108 428q73 -4 160 -8q211 -9 460 60zM955 1359h66
q5 -163 -130 -174q-108 -7 -366 21q-45 5 -52 -34h-66q-6 180 204 180q36 0 283 -29q54 -5 61 36z" />
    <glyph glyph-name="ograve" unicode="&#xf2;" horiz-adv-x="1238" 
d="M596 1020q591 0 592 -512q-9 -548 -596 -548q-589 0 -592 540q0 515 596 520zM424 476q0 -449 172 -452q167 0 168 457q0 478 -168 475q-160 0 -172 -480zM295 1339l112 114l255 -288l-62 -63z" />
    <glyph glyph-name="oacute" unicode="&#xf3;" horiz-adv-x="1238" 
d="M596 1020q591 0 592 -512q-9 -548 -596 -548q-589 0 -592 540q0 515 596 520zM424 476q0 -449 172 -452q167 0 168 457q0 478 -168 475q-160 0 -172 -480zM808 1339l-306 -237l-61 63l255 288z" />
    <glyph glyph-name="ocircumflex" unicode="&#xf4;" horiz-adv-x="1238" 
d="M596 1020q591 0 592 -512q-9 -548 -596 -548q-589 0 -592 540q0 515 596 520zM424 476q0 -449 172 -452q167 0 168 457q0 478 -168 475q-160 0 -172 -480zM491 1433h168l196 -384h-88l-196 256l-184 -256h-92z" />
    <glyph glyph-name="otilde" unicode="&#xf5;" horiz-adv-x="1238" 
d="M596 1020q591 0 592 -512q-9 -548 -596 -548q-589 0 -592 540q0 515 596 520zM424 476q0 -449 172 -452q167 0 168 457q0 478 -168 475q-160 0 -172 -480zM855 1359h66q5 -163 -130 -174q-108 -7 -366 21q-45 5 -52 -34h-66q-6 180 204 180q36 0 283 -29q54 -5 61 36z
" />
    <glyph glyph-name="odieresis" unicode="&#xf6;" horiz-adv-x="1238" 
d="M596 1020q591 0 592 -512q-9 -548 -596 -548q-589 0 -592 540q0 515 596 520zM424 476q0 -449 172 -452q167 0 168 457q0 478 -168 475q-160 0 -172 -480zM390 1120q-54 0 -92.5 38t-38.5 92t38.5 92.5t92.5 38.5q53 0 91.5 -38.5t38.5 -92.5t-38.5 -92t-91.5 -38z
M788 1120q-54 0 -92.5 38t-38.5 92t38.5 92.5t92.5 38.5q53 0 91.5 -38.5t38.5 -92.5t-38.5 -92t-91.5 -38z" />
    <glyph glyph-name="divide" unicode="&#xf7;" horiz-adv-x="806" 
d="M4 889q129 -16 388 -16q253 0 346 16l-6 -68q0 -58 22 -168q-2 0 -2 -4q-155 8 -422 8h-146q-123 0 -183 -8l-3 8v224q1 8 6 8zM387 203q-54 0 -92.5 38t-38.5 92t38.5 92.5t92.5 38.5q53 0 91.5 -38.5t38.5 -92.5t-38.5 -92t-91.5 -38zM387 1111q-54 0 -92.5 38
t-38.5 92t38.5 92.5t92.5 38.5q53 0 91.5 -38.5t38.5 -92.5t-38.5 -92t-91.5 -38z" />
    <glyph glyph-name="oslash" unicode="&#xf8;" horiz-adv-x="1373" 
d="M596 1020q591 0 592 -512q-9 -548 -596 -548q-589 0 -592 540q0 515 596 520zM424 476q0 -449 172 -452q167 0 168 457q0 478 -168 475q-160 0 -172 -480zM1323 1226v-4q-257 -130 -562 -683q-192 -352 -435 -720l-326 4q438 481 613 804l322 551q65 -12 156 -12
q-40 0 232 60z" />
    <glyph glyph-name="ugrave" unicode="&#xf9;" horiz-adv-x="1362" 
d="M0 976h524q-28 -156 -28 -496q-3 -404 68 -406q170 -6 176 426q0 253 -36 476h524q-32 -259 -32 -508q0 -270 116 -472h-416q-69 73 -73 288h-24q-18 -318 -391 -324q-346 0 -328 320q12 286 12 320q0 228 -92 376zM295 1339l112 114l255 -288l-62 -63z" />
    <glyph glyph-name="uacute" unicode="&#xfa;" horiz-adv-x="1362" 
d="M0 976h524q-28 -156 -28 -496q-3 -404 68 -406q170 -6 176 426q0 253 -36 476h524q-32 -259 -32 -508q0 -270 116 -472h-416q-69 73 -73 288h-24q-18 -318 -391 -324q-346 0 -328 320q12 286 12 320q0 228 -92 376zM905 1339l-306 -237l-61 63l255 288z" />
    <glyph glyph-name="ucircumflex" unicode="&#xfb;" horiz-adv-x="1362" 
d="M0 976h524q-28 -156 -28 -496q-3 -404 68 -406q170 -6 176 426q0 253 -36 476h524q-32 -259 -32 -508q0 -270 116 -472h-416q-69 73 -73 288h-24q-18 -318 -391 -324q-346 0 -328 320q12 286 12 320q0 228 -92 376zM533 1433h168l196 -384h-88l-196 256l-184 -256h-92z
" />
    <glyph glyph-name="udieresis" unicode="&#xfc;" horiz-adv-x="1362" 
d="M0 976h524q-28 -156 -28 -496q-3 -404 68 -406q170 -6 176 426q0 253 -36 476h524q-32 -259 -32 -508q0 -270 116 -472h-416q-69 73 -73 288h-24q-18 -318 -391 -324q-346 0 -328 320q12 286 12 320q0 228 -92 376zM409 1120q-54 0 -92.5 38t-38.5 92t38.5 92.5
t92.5 38.5q53 0 91.5 -38.5t38.5 -92.5t-38.5 -92t-91.5 -38zM807 1120q-54 0 -92.5 38t-38.5 92t38.5 92.5t92.5 38.5q53 0 91.5 -38.5t38.5 -92.5t-38.5 -92t-91.5 -38z" />
    <glyph glyph-name="yacute" unicode="&#xfd;" horiz-adv-x="1496" 
d="M802 972q-70 -388 104 -748h4q212 343 212 512q0 155 -140 240h464v-4q-118 -98 -356 -572q-271 -502 -432 -752q-94 -153 -308 -156q-350 6 -348 312q0 183 200 240q109 31 220 -12q-108 -118 -108 -276q0 -175 148 -176q101 0 136 164q37 186 -124 628
q-99 258 -448 596zM1209 1339l-306 -237l-61 63l255 288z" />
    <glyph glyph-name="thorn" unicode="&#xfe;" horiz-adv-x="821" 
d="M232 961q-2 -197 -4 -436q0 -52 1 -104q26 -57 77 -57q140 0 141 307q0 343 -150 340q-42 -1 -65 -50zM230 343q3 -267 10 -550l-240 -8q36 521 36 1092q0 488 -24 744h234q-7 -213 -13 -583q65 62 183 62q355 0 355 -426q0 -382 -379 -383q-105 0 -162 52z" />
    <glyph glyph-name="ydieresis" unicode="&#xff;" horiz-adv-x="1496" 
d="M802 972q-70 -388 104 -748h4q212 343 212 512q0 155 -140 240h464v-4q-118 -98 -356 -572q-271 -502 -432 -752q-94 -153 -308 -156q-350 6 -348 312q0 183 200 240q109 31 220 -12q-108 -118 -108 -276q0 -175 148 -176q101 0 136 164q37 186 -124 628
q-99 258 -448 596zM658 1120q-54 0 -92.5 38t-38.5 92t38.5 92.5t92.5 38.5q53 0 91.5 -38.5t38.5 -92.5t-38.5 -92t-91.5 -38zM1056 1120q-54 0 -92.5 38t-38.5 92t38.5 92.5t92.5 38.5q53 0 91.5 -38.5t38.5 -92.5t-38.5 -92t-91.5 -38z" />
    <glyph glyph-name="dotlessi" unicode="&#x131;" horiz-adv-x="528" 
d="M478 973q-37 -192 -37 -456q0 -327 34 -517l-341 -1q71 219 69 542q-1 65 4 204q-114 -45 -176 -45l-31 97q131 36 136 145q59 -8 113 -8q65 0 229 39z" />
    <glyph glyph-name="gravecomb" unicode="&#x300;" horiz-adv-x="417" 
d="M0 1339l112 114l255 -288l-62 -63z" />
    <glyph glyph-name="acutecomb" unicode="&#x301;" horiz-adv-x="417" 
d="M367 1339l-306 -237l-61 63l255 288z" />
    <glyph glyph-name="uni0302" unicode="&#x302;" horiz-adv-x="610" 
d="M196 1433h168l196 -384h-88l-196 256l-184 -256h-92z" />
    <glyph glyph-name="tildecomb" unicode="&#x303;" horiz-adv-x="675" 
d="M554 1359h66q5 -163 -130 -174q-108 -7 -366 21q-45 5 -52 -34h-66q-6 180 204 180q36 0 283 -29q54 -5 61 36z" />
    <glyph glyph-name="uni0304" unicode="&#x304;" horiz-adv-x="530" 
d="M194 1321q186 0 286 7q-17 -87 -14 -186q-58 10 -224.5 10t-241.5 -3v172h194z" />
    <glyph glyph-name="uni0307" unicode="&#x307;" horiz-adv-x="311" 
d="M131 1120q-54 0 -92.5 38t-38.5 92t38.5 92.5t92.5 38.5q53 0 91.5 -38.5t38.5 -92.5t-38.5 -92t-91.5 -38z" />
    <glyph glyph-name="uni0308" unicode="&#x308;" horiz-adv-x="709" 
d="M131 1120q-54 0 -92.5 38t-38.5 92t38.5 92.5t92.5 38.5q53 0 91.5 -38.5t38.5 -92.5t-38.5 -92t-91.5 -38zM529 1120q-54 0 -92.5 38t-38.5 92t38.5 92.5t92.5 38.5q53 0 91.5 -38.5t38.5 -92.5t-38.5 -92t-91.5 -38z" />
    <glyph glyph-name="uni030A" unicode="&#x30a;" horiz-adv-x="453" 
d="M202 1398q201 0 201 -173q-3 -186 -202 -186q-200 0 -201 183q0 175 202 176zM144 1214q0 -153 58 -153q57 0 57 154q0 162 -57 161q-54 0 -58 -162z" />
    <glyph glyph-name="uni030C" unicode="&#x30c;" horiz-adv-x="610" 
d="M196 1049l-196 384h92l184 -256l196 256h88l-196 -384h-168z" />
    <glyph glyph-name="uni0327" unicode="&#x327;" horiz-adv-x="458" 
d="M0 -290q85 -52 152 -52q66 0 94.5 21.5t28.5 66.5t-49 64q-40 16 -102 16q-16 0 -34 -2l48 176h63l-37 -104q32 4 62 5q86 0 134 -40.5t48 -113.5q0 -76 -58.5 -120.5t-160.5 -44.5q-109 0 -189 32v96z" />
    <glyph glyph-name="endash" unicode="&#x2013;" horiz-adv-x="1122" 
d="M404 494q486 2 668 7v-1q-44 -80 -36 -172q-126 12 -448 12q-423 0 -588 -8v166q4 -1 404 -4z" />
    <glyph glyph-name="emdash" unicode="&#x2014;" horiz-adv-x="2103" 
d="M774 506q930 2 1279 8v-2q-84 -86 -69 -184q-242 13 -858 13q-810 0 -1126 -9v178q8 -1 774 -4z" />
    <glyph glyph-name="quoteleft" unicode="&#x2018;" horiz-adv-x="319" 
d="M269 1528q-98 -126 -101 -163q-2 -27 37 -55.5t39 -80.5q0 -124 -124 -124q-119 0 -120 128q0 108 209 291z" />
    <glyph glyph-name="quoteright" unicode="&#x2019;" horiz-adv-x="319" 
d="M0 1105q98 127 101 163q2 27 -37 55.5t-39 80.5q0 124 124 124q119 0 120 -128q0 -108 -209 -291z" />
    <glyph glyph-name="quotesinglbase" unicode="&#x201a;" horiz-adv-x="319" 
d="M0 -225q98 127 101 163q2 27 -37 55.5t-39 80.5q0 124 124 124q119 0 120 -128q0 -108 -209 -291z" />
    <glyph glyph-name="quotedblleft" unicode="&#x201c;" horiz-adv-x="666" 
d="M269 1528q-98 -126 -101 -163q-2 -27 37 -55.5t39 -80.5q0 -124 -124 -124q-119 0 -120 128q0 108 209 291zM616 1528q-98 -126 -101 -163q-2 -27 37 -55.5t39 -80.5q0 -124 -124 -124q-119 0 -120 128q0 108 209 291z" />
    <glyph glyph-name="quotedblright" unicode="&#x201d;" horiz-adv-x="666" 
d="M347 1105q98 127 101 163q2 27 -37 55.5t-39 80.5q0 124 124 124q119 0 120 -128q0 -108 -209 -291zM0 1105q98 127 101 163q2 27 -37 55.5t-39 80.5q0 124 124 124q119 0 120 -128q0 -108 -209 -291z" />
    <glyph glyph-name="quotedblbase" unicode="&#x201e;" horiz-adv-x="666" 
d="M347 -187q98 127 101 163q2 27 -37 55.5t-39 80.5q0 124 124 124q119 0 120 -128q0 -108 -209 -291zM0 -187q98 127 101 163q2 27 -37 55.5t-39 80.5q0 124 124 124q119 0 120 -128q0 -108 -209 -291z" />
    <glyph glyph-name="dagger" unicode="&#x2020;" horiz-adv-x="826" 
d="M232 1423h316q-8 -238 -16 -500q158 3 244 7q-28 -97 -28 -127l-4 -75q-63 12 -216 12v-445q0 -258 8 -590h-308q40 482 40 1035q-170 0 -268 -12v202q73 -7 264 -7q0 229 -32 500z" />
    <glyph glyph-name="daggerdbl" unicode="&#x2021;" horiz-adv-x="834" 
d="M212 1423h308q-12 -325 -8 -512l268 8q-28 -99 -28 -130v-46l4 -27l-8 -4q-63 12 -244 12q-4 -57 -4 -229q101 0 284 3q-32 -82 -32 -164v-42q-88 15 -252 12q4 -388 8 -638h-308q16 191 36 641q-175 -3 -232 -15l-4 8v191l240 4q4 144 0 229q-134 0 -236 -12l-4 8v191
h240q0 227 -28 512z" />
    <glyph glyph-name="bullet" unicode="&#x2022;" horiz-adv-x="642" 
d="M0 718q0 123 87 209t210 86q122 0 208.5 -86.5t86.5 -208.5t-87.5 -209.5t-209.5 -87.5q-123 0 -209 87t-86 210z" />
    <glyph glyph-name="ellipsis" unicode="&#x2026;" horiz-adv-x="1143" 
d="M131 -38q-54 0 -92.5 38t-38.5 92t38.5 92.5t92.5 38.5q53 0 91.5 -38.5t38.5 -92.5t-38.5 -92t-91.5 -38zM547 -38q-54 0 -92.5 38t-38.5 92t38.5 92.5t92.5 38.5q53 0 91.5 -38.5t38.5 -92.5t-38.5 -92t-91.5 -38zM963 -38q-54 0 -92.5 38t-38.5 92t38.5 92.5
t92.5 38.5q53 0 91.5 -38.5t38.5 -92.5t-38.5 -92t-91.5 -38z" />
    <glyph glyph-name="guilsinglleft" unicode="&#x2039;" horiz-adv-x="690" 
d="M516 1116q43 -130 124 -240q-218 -122 -380 -244q329 -227 380 -236q-80 -98 -128 -244q-202 154 -512 360v240l356 248z" />
    <glyph glyph-name="guilsinglright" unicode="&#x203a;" horiz-adv-x="690" 
d="M124 1146l160 -116l356 -248v-240q-310 -206 -512 -360q-47 146 -128 244q51 9 380 236q-162 122 -380 244q81 110 124 240z" />
    <glyph glyph-name="fraction" unicode="&#x2044;" horiz-adv-x="1561" 
d="M1511 1673v-4q-445 -577 -750 -1130q-192 -352 -435 -720h-326v4q438 481 613 804q345 586 510 998q65 -12 156 -12q-40 0 232 60z" />
    <glyph glyph-name="fraction" unicode="&#x2215;" horiz-adv-x="1561" 
d="M1511 1673v-4q-445 -577 -750 -1130q-192 -352 -435 -720h-326v4q438 481 613 804q345 586 510 998q65 -12 156 -12q-40 0 232 60z" />
    <glyph glyph-name="franc" unicode="&#x20a3;" horiz-adv-x="1349" 
d="M780 543q-28 -103 -24 -212q-53 4 -72 4q-611 0 -684 -8v216q44 -4 365 -4t415 4zM1291 1335q8 -180 -231 -180q-71 0 -125 16q8 27 8 62q0 126 -141 176q-79 29 -184 -11q-32 -284 -32 -419q125 35 188 35q315 0 317 -215q0 -159 -262 -133q10 160 -106 191
q-56 16 -141 16q-4 -119 -4 -176v-118q0 -418 43 -579h-591q98 346 98 806q0 429 -110 631q67 -8 130 -8q266 28 536 74q71 12 188 12q403 -2 419 -180z" />
    <glyph glyph-name="lira" unicode="&#x20a4;" horiz-adv-x="1606" 
d="M712 1507q695 0 696 -368q0 -326 -324 -332q-124 0 -224 100q84 155 84 308q0 220 -180 220q-252 0 -252 -216q0 -88 56 -376q102 0 240 4q-33 -87 -28 -156l4 -60q-65 12 -155 10q75 -394 -159 -540q771 -59 722 294q364 -2 364 -204q-10 -225 -380 -228h-136
q-105 0 -292 32h-748q408 198 305 647q-195 1 -277 -3l4 208q63 -4 208 -8q-60 238 -60 352v4q0 192 160 260q132 52 372 52zM564 588q102 0 240 4q-33 -87 -28 -156l4 -60q-65 12 -155 10l-324 1q-195 1 -277 -3l4 208q63 -4 208 -8z" />
    <glyph glyph-name="peseta" unicode="&#x20a7;" horiz-adv-x="3002" 
d="M848 1540q340 0 460 -348q11 -64 24 -64q35 -4 60 -4h52q200 0 464 52v-4q-40 -245 -40 -352h120q77 68 276 68h8q476 0 576 -200q8 -28 8 -48v-12q0 -90 -108 -128q-48 -8 -76 -8h-24q-96 0 -264 68v8h4q80 0 80 88v20q0 122 -160 144q-82 0 -120 -100l-8 -60
q0 -108 248 -160q349 -80 432 -156q92 -81 92 -184v-20q0 -198 -396 -304q-171 -36 -320 -36h-68q-391 0 -640 184q-136 114 -136 360q0 218 8 348q-4 18 -4 64v8l-48 4h-32q-6 -1 -36 -100q-149 -344 -444 -344q-223 0 -260 104h-4v-12q0 -258 48 -416l-8 -4h-604
q-8 0 -8 8q108 345 108 804q0 429 -108 656q141 -12 156 -12q209 0 464 64q-8 -60 -8 -64h4q100 88 232 88zM568 668q23 -212 112 -212h8q87 0 160 120h-4q-174 0 -240 140v32q0 119 344 140q12 65 12 160v28q0 250 -136 340q-57 16 -64 16q-122 0 -184 -404
q-8 -203 -8 -360zM1324 1124v-4q12 -52 12 -120v-44q0 -51 -8 -104h4q22 0 60 -8q-20 175 -64 280h-4zM836 668q16 -45 36 -52l44 120h-4q-76 -23 -76 -68zM1864 736l-4 -40v-136q0 -365 88 -524q91 -112 272 -112q237 17 268 132q4 7 4 20q0 95 -288 208q-284 132 -284 352
q0 43 12 96l-40 4h-28z" />
    <glyph glyph-name="Euro" unicode="&#x20ac;" horiz-adv-x="1394" 
d="M936 1600l24 -4h8q159 0 376 -60v-76l-4 -8q-191 72 -380 72h-12q-233 0 -320 -504h4q107 0 440 8q-44 -121 -44 -176q5 -45 12 -64q-4 0 -4 -4q-26 16 -424 20v-64q169 0 460 8q-44 -121 -44 -176q8 -51 8 -64h-4q-176 16 -404 16q84 -512 316 -512h36q150 0 364 68v-76
q-35 -23 -220 -52q-54 -12 -196 -16q-453 0 -680 396q-64 131 -68 184h-12q-62 0 -164 -8l-4 8v224l4 8l144 -8v56h-4q-30 0 -140 -8l-4 8v224l4 8q49 -4 184 -8q94 307 324 460q207 120 424 120z" />
    <glyph glyph-name="uni2116" unicode="&#x2116;" horiz-adv-x="2914" 
d="M584 1516q206 -370 764 -1088q20 163 20 380q0 463 -108 652q4 0 4 4q55 -4 68 -4q82 0 252 56q0 -4 4 -4q-56 -312 -56 -896q4 -460 32 -460l144 -156v-4h-608q-8 2 -68 144q-157 297 -412 640q-136 176 -216 268v-4q-8 -164 -8 -312v-196q0 -360 48 -540h-300
q-8 0 -8 8q108 350 108 784q-22 528 -84 528q-119 118 -160 140v8q145 -12 168 -12q201 0 416 64zM2268 1496q346 0 540 -304q56 -120 56 -208v-52q0 -237 -268 -416q-162 -80 -312 -80h-28q-316 0 -508 268q-72 123 -72 236v36q0 233 240 412q167 108 352 108zM2100 952
q0 -320 128 -440q31 -12 44 -12h4q100 0 152 284q12 73 12 124v100q0 241 -112 396q-30 24 -48 24h-20q-80 0 -136 -232q-24 -104 -24 -244zM2816 340q0 -4 4 -4q-44 -99 -44 -160v-20q0 -26 8 -56l-8 -4q-103 16 -352 16h-196q-342 0 -480 -16l-4 8v224l4 8q244 -8 372 -8
q176 0 672 8z" />
    <glyph glyph-name="trademark" unicode="&#x2122;" horiz-adv-x="1370" 
d="M504 1548h24q68 -10 68 -60q-18 -68 -88 -68q-43 0 -108 36v-4q-8 -134 -8 -216q0 -151 20 -232l-8 -4h-204l-8 4q40 135 40 276q-8 228 -48 228q-10 4 -40 8q-108 -9 -108 -60v-16q14 -24 48 -24q47 0 72 64q24 0 48 -68q0 -60 -100 -72h-20q-84 16 -84 80v20
q0 69 68 96q36 8 52 8h48l296 -32q36 3 36 28q-4 0 -4 4zM804 1536h4q72 -195 176 -412h4q132 261 132 344q-8 25 -20 48q4 0 4 4l56 -4q52 0 160 20v-4q-20 -156 -20 -308q0 -140 20 -216l-8 -4h-204l-8 4q36 110 36 272v32h-4q-56 -131 -104 -260q0 -6 28 -40v-8h-192
q-6 1 -36 108l-84 180h-4v-88q0 -104 16 -200h-100l-8 4q36 126 36 268q0 161 -40 192l-44 48v4l64 -4q53 0 140 20z" />
    <glyph glyph-name="partialdiff" unicode="&#x2202;" horiz-adv-x="1282" 
d="M592 1491h48q182 0 400 -316q192 -328 192 -592v-60q0 -376 -360 -508q-119 -36 -228 -36h-72q-371 0 -532 272q-40 102 -40 176v36q0 335 344 448q85 20 156 20q174 0 284 -104h4v4q0 335 -144 544q-37 41 -76 52v52q4 12 24 12zM424 471v-68q0 -258 120 -348
q21 -12 40 -12h20q114 0 148 260q12 140 12 172q0 192 -80 320q-45 52 -88 52q-149 0 -172 -376z" />
    <glyph glyph-name="Delta" unicode="&#x2206;" horiz-adv-x="1730" 
d="M1044 1836q14 0 32 -116q156 -584 392 -1204q124 -315 212 -516q-4 0 -4 -4q-447 -4 -660 -4h-412q-212 0 -600 4l-4 8q289 646 564 1568l64 264h416zM836 1544q-272 -751 -432 -1272h4q233 -16 516 -16q133 0 352 8v4q-228 727 -436 1276h-4z" />
    <glyph glyph-name="product" unicode="&#x220f;" horiz-adv-x="1282" 
d="M8 1448q362 -28 700 -28q310 4 520 16l4 -8v-308l-4 -8q-102 20 -188 20l-4 -8q-12 -440 -12 -776q0 -409 16 -768l-8 -4h-308l-8 4q52 570 52 1008q-5 400 -16 572h-268q0 -2 -4 -16q-12 -411 -12 -684v-208q0 -360 16 -672l-8 -4h-308q-8 0 -8 8q48 495 48 996v116
q0 282 -12 456q-161 -16 -192 -28l-4 8v308q1 8 8 8z" />
    <glyph glyph-name="summation" unicode="&#x2211;" horiz-adv-x="1618" 
d="M1472 1592v-4q-44 -113 -44 -172l8 -68q-114 16 -344 16h-328v-4q508 -299 568 -320v-8q-700 -936 -904 -1228h544q440 0 560 16l-8 -72q0 -48 44 -172h-4q-12 0 -28 4q-690 8 -1004 8q-204 0 -528 -8l-4 8v224q1 8 8 8q89 -8 128 -8q0 5 672 884q148 197 192 272
q-680 412 -720 412q0 15 120 208q90 -4 392 -8q599 4 680 12z" />
    <glyph glyph-name="minus" unicode="&#x2212;" horiz-adv-x="806" 
d="M6 805q129 -16 388 -16q253 0 346 16l-6 -68q0 -58 22 -168q-2 0 -2 -4q-155 8 -422 8h-146q-123 0 -183 -8l-3 8v224q1 8 6 8z" />
    <glyph glyph-name="radical" unicode="&#x221a;" horiz-adv-x="1556" 
d="M966 1786q73 -8 160 -8h8q178 0 368 8q0 -4 4 -4q-16 -43 -24 -168q4 -42 4 -68q-70 16 -224 16h-48q-40 0 -120 -4q-242 -598 -494 -1386q-24 -78 -52 -184h-244q-9 0 -44 148q-92 267 -240 587q-20 53 -20 60v4h260q9 0 108 -312l56 -195q6 2 220 584q178 497 322 922z
" />
    <glyph glyph-name="infinity" unicode="&#x221e;" horiz-adv-x="1614" 
d="M408 1232h12q229 0 364 -252q17 65 132 172q114 80 236 80h12q237 0 368 -280q32 -119 32 -184q0 -266 -224 -416q-90 -48 -160 -48h-52q-169 0 -316 192q-28 54 -28 60h-4q-70 -156 -208 -220q-74 -32 -128 -32h-44q-216 0 -352 244q-48 96 -48 208v32q0 240 228 396
q98 48 180 48zM88 784v-32q0 -161 252 -216q35 -4 60 -4h40q170 0 264 124q32 55 32 116q0 167 -240 220q-50 8 -88 8q-167 0 -268 -96q-52 -57 -52 -120zM824 764q0 -166 232 -224q45 -7 92 -12q244 0 320 180q4 56 8 60q0 150 -196 212q-71 20 -136 20q-236 -11 -300 -148
q-20 -43 -20 -88z" />
    <glyph glyph-name="integral" unicode="&#x222b;" horiz-adv-x="762" 
d="M676 1734q28 -4 36 -7q-10 -94 -28 -94q-102 0 -132 -684q-44 -577 -92 -784q-128 -524 -400 -524h-52l-8 3q12 94 24 94q83 0 112 354q72 1103 164 1274q118 368 376 368z" />
    <glyph glyph-name="approxequal" unicode="&#x2248;" horiz-adv-x="958" 
d="M804 1079h96q8 -237 -188 -253q-158 -11 -532 30q-66 8 -76 -49h-96q-8 261 296 261q53 0 412 -41q78 -8 88 52zM804 626h96q8 -237 -188 -253q-158 -11 -532 30q-66 8 -76 -49h-96q-8 261 296 261q53 0 412 -41q78 -8 88 52z" />
    <glyph glyph-name="lessequal" unicode="&#x2264;" horiz-adv-x="690" 
d="M7292 1245q43 -130 124 -240q-218 -122 -380 -244q329 -227 380 -236q-80 -98 -128 -244q-202 154 -512 360v240l356 248zM6824 158q129 -16 388 -16q253 0 346 16l-6 -68q0 -58 22 -168q-2 0 -2 -4q-155 8 -422 8h-146q-123 0 -183 -8l-3 8v224q1 8 6 8z" />
    <glyph glyph-name="greaterequal" unicode="&#x2265;" horiz-adv-x="690" 
d="M124 281q-43 130 -124 240q218 122 380 244q-329 227 -380 236q81 98 128 244q202 -154 512 -360v-240l-356 -248zM6 158q129 -16 388 -16q253 0 346 16l-6 -68q0 -58 22 -168q-2 0 -2 -4q-155 8 -422 8h-146q-123 0 -183 -8l-3 8v224q1 8 6 8z" />
    <glyph glyph-name="uniFB0F" unicode="&#xfb0f;" horiz-adv-x="1201" 
d="M568 1024q514 0 508 -460q-4 -351 -4 -380q0 -732 268 -732q176 0 176 176q0 95 -104 164q84 60 152 60q248 0 244 -208q0 -257 -500 -252q-422 0 -524 240q-68 157 -72 556h-24q-93 -228 -372 -228q-316 0 -312 280q0 227 388 268q151 20 252 144q56 68 56 172
q0 144 -144 128q-160 -22 -160 -140v-16q0 -102 68 -172q-124 -76 -224 -76q-180 3 -180 160q0 312 508 316zM372 180q-1 -112 112 -112q144 0 176 236q12 94 12 228v64q-27 -41 -224 -228q-76 -71 -76 -188z" />
    <glyph glyph-name="uniFB10" unicode="&#xfb10;" horiz-adv-x="1306" 
d="M531 1148l-4 -236q82 104 268 108q461 0 460 -560q0 -488 -476 -496q-215 0 -280 132l-44 92h-20q0 -153 -196 -188q-139 -25 -236 4q64 383 64 956q0 902 -264 904q-177 0 -180 -156q0 -116 104 -184q-67 -60 -168 -60q-224 0 -228 216q0 246 496 244q714 0 704 -776z
M511 368q-3 -281 144 -304q171 -31 176 464q0 377 -192 376q-120 0 -120 -228q0 -18 -8 -308z" />
    <glyph glyph-name="uniFB11" unicode="&#xfb11;" horiz-adv-x="1626" 
d="M1148 1332q427 0 428 -568q0 -825 -1008 -796q-568 10 -568 512q0 551 588 544q438 -5 444 -268q0 -175 -192 -180q-58 0 -156 44q72 27 72 132q0 186 -148 188q-200 0 -200 -344q0 -543 316 -544q464 0 472 500q0 441 -324 676q128 104 276 104z" />
    <glyph glyph-name="uniFB12" unicode="&#xfb12;" horiz-adv-x="1298" 
d="M1368 1924q559 0 556 -256q0 -203 -244 -204q-83 0 -156 60q108 63 108 184q0 155 -180 156q-97 0 -168 -176q-108 -270 -108 -952q0 -485 50 -740h-158q-217 0 -220 192h-24q-32 -112 -120 -172q-85 -52 -224 -52q-480 2 -480 496q0 559 460 560q182 0 264 -104
q-4 1018 644 1008zM424 468q2 -415 196 -404q83 6 116 176q8 39 8 128q-5 418 -36 480q-29 56 -100 56q-181 0 -184 -436z" />
    <glyph glyph-name="uniFB13" unicode="&#xfb13;" horiz-adv-x="1605" 
d="M592 1016q310 0 432 -240q117 28 228 28q303 0 300 -196q0 -74 -76 -72q-31 0 -148.5 34t-203.5 34q-261 0 -704 -160q59 -412 304 -412q167 0 168 208q0 99 -100 200q65 56 140 56q201 0 200 -212q0 -317 -572 -324q-556 0 -560 520q0 540 592 536zM413 524
q120 60 327 156q-8 272 -152 272q-200 0 -175 -428z" />
    <glyph glyph-name="uniFB14" unicode="&#xfb14;" horiz-adv-x="1464" 
d="M914 1436q333 0 332 -404q0 -363 -292 -340v-80q0 -85 4 -260q132 -35 344 48l4 -80q-174 -68 -280 -60q388 -126 388 -420q-3 -452 -396 -452q-581 0 -568 1160q0 37 4 176q-160 0 -160 -160q0 -132 -140 -132q-154 0 -152 168q0 223 344 216h116q49 620 452 620z
M966 860v-80q180 -24 180 236q-4 248 -96 248q-84 0 -84 -404zM962 196q-4 -659 184 -652q171 5 176 292q0 255 -360 360z" />
    <glyph glyph-name="uniFB15" unicode="&#xfb15;" horiz-adv-x="1399" 
d="M1264 1120q-42 -183 -32 -368q32 -633 32 -760v-92q550 0 856 -72q388 -88 388 -252q0 -185 -256 -188q-121 0 -292 132q-304 224 -722 224q-43 -360 -402 -360q-484 2 -484 272q0 172 436 256l-4 300q-65 -128 -188 -128q-596 0 -596 476q0 307 304 416q119 40 280 40
q119 0 192 -16l12 44q145 0 476 76zM424 572q0 -427 172 -424q140 0 168 396q11 199 -44 308q-49 100 -124 100q-170 0 -172 -380zM484 -320q-2 -90 136 -88q173 0 168 224q-304 -40 -304 -136z" />
    <glyph glyph-name="uniFB16" unicode="&#xfb16;" horiz-adv-x="1550" 
d="M745 856l35 28q132 132 308 132q326 0 332 -312q0 -73 -4 -372q0 -186 84 -332l-592 -1q108 422 108 661q0 216 -104 216q-94 0 -175 -269q-1 -35 -3 -71q-12 -317 28 -536l-692 -4q208 326 208 824q0 1054 -292 1048q-176 -6 -176 -172q0 -95 108 -172q-82 -56 -172 -56
q-231 0 -228 212q0 239 500 248q728 0 728 -928q0 -68 -1 -144z" />
    <glyph glyph-name="uniFB17" unicode="&#xfb17;" horiz-adv-x="686" 
d="M616 1300q20 -65 20 -124v-36q-12 -90 -52 -328q-25 -166 -20 -292q10 -235 56 -520h-616q104 314 104 528q0 270 -108 436q118 -12 204 -12q282 3 349 201q-17 -38 -48 -70q-70 -72 -168 -72q-99 0 -168.5 72t-69.5 173t69.5 172.5t168.5 71.5q219 -1 279 -200z" />
    <glyph glyph-name="uniFB18" unicode="&#xfb18;" horiz-adv-x="898" 
d="M-70 -320q-2 -90 136 -88q173 0 168 224q-304 -40 -304 -136zM710 235v-335q550 0 856 -72q388 -88 388 -252q0 -185 -256 -188q-121 0 -292 132q-304 224 -722 224q-43 -360 -402 -360q-484 2 -484 272q0 172 436 256l-4 300zM710 1300q24 -68 24 -144q0 -72 -48 -308
v-28q0 -119 36 -760l10 -204l-498 74q0 499 -68 890q-18 57 -68 148h4q117 -16 200 -16q251 0 328 144q24 39 24 116h-1q-11 -78 -69 -136q-72 -72 -174 -72t-174 72t-72 174t72 174t174 72q221 0 300 -196z" />
    <glyph glyph-name="uniFB19" unicode="&#xfb19;" horiz-adv-x="1533" 
d="M727 511l36 25q260 179 260 312q0 77 -100 136l516 -4q-29 -144 -408 -352q258 -490 452 -627l-546 -2q21 157 -211 451q-4 -261 30 -450l-692 -4q208 326 208 824q0 1054 -292 1048q-176 -6 -176 -172q0 -95 108 -172q-82 -56 -172 -56q-231 0 -228 212q0 239 500 248
q728 0 728 -928q0 -197 -12 -464q0 -13 -1 -25z" />
    <glyph glyph-name="uniFB1A" unicode="&#xfb1a;" horiz-adv-x="802" 
d="M268 820q0 1054 -292 1048q-176 -6 -176 -172q0 -95 108 -172q-82 -56 -172 -56q-231 0 -228 212q0 239 500 248q728 0 728 -928q0 -197 -12 -464q-12 -317 28 -536l-692 -4q208 326 208 824z" />
    <glyph glyph-name="uniFB1B" unicode="&#xfb1b;" horiz-adv-x="2448" 
d="M549 961q18 -1 37 -1q207 0 464 56q-20 -64 -36 -176h12q99 180 252 180q262 0 328 -180h16q149 180 364 180q327 0 320 -664q0 -206 92 -356h-600q108 415 108 668q0 207 -120 208q-163 0 -156 -288q0 -460 96 -588h-568q104 390 104 616q0 261 -104 260
q-168 0 -168 -392q0 -192 56 -484h-616q104 316 104 544q0 204 -78 356q-125 0 -128 -152q-4 -115 112 -216q-110 -40 -220 -40q-220 0 -220 224q0 216 232 260q130 25 317 -15z" />
    <glyph glyph-name="uniFB1C" unicode="&#xfb1c;" horiz-adv-x="1828" 
d="M456 900q-125 0 -128 -152q-4 -115 112 -216q-110 -40 -220 -40q-220 0 -220 224q0 216 232 260q131 25 320 -16zM1038 1020q-20 -94 -32 -180l25 3q129 177 343 177q324 0 324 -316q0 -57 -4 -376q0 -176 84 -328h-588q104 401 104 660q0 217 -112 216q-102 0 -200 -388
q-47 -193 56 -488h-616q104 315 104 540q0 260 -108 428q73 -4 160 -8q211 -9 460 60z" />
    <glyph glyph-name="uniFB1D" unicode="&#xfb1d;" horiz-adv-x="1238" 
d="M434 488v-84q31 15 104 16q101 0 184 -184q-205 23 -208 -120q0 -93 92 -92q172 0 168 408v76q-9 444 -176 444q-164 0 -164 -464zM596 1020q591 0 592 -512q-9 -548 -596 -548q-589 0 -592 540q0 515 596 520z" />
    <glyph glyph-name="uniFB1E" unicode="&#xfb1e;" horiz-adv-x="1401" 
d="M577 468q232 35 236 -180q-142 4 -196 -92q-59 -112 60 -112q243 0 240 536q-4 302 -156 300q-121 0 -180 -384zM-209 -320q-2 -90 136 -88q173 0 168 224q-304 -40 -304 -136zM93 -88q-7 92 -6 272q14 583 -86 744q77 -4 196 -4q190 0 424 56q-4 -42 -4 -52
q94 88 212 88q468 0 456 -488q-2 -564 -448 -564q-164 0 -266 94v-158q550 0 856 -72q388 -88 388 -252q0 -185 -256 -188q-121 0 -292 132q-304 224 -722 224q-43 -360 -402 -360q-484 2 -484 272q0 172 434 256z" />
    <glyph glyph-name="uniFB1F" unicode="&#xfb1f;" horiz-adv-x="1828" 
d="M580 1016q540 -82 788 -4q-124 -228 -120 -1068q378 0 380 -256q0 -306 -408 -304q-440 0 -440 444q-164 0 -224 -148q-115 -289 -332 -292q-166 0 -164 188q0 296 716 356v112q-94 -84 -184 -84q-592 5 -592 540q0 598 580 516zM432 520q0 -343 120 -452
q39 -36 101.5 -22t62.5 82q0 162 -208 124q23 180 204 180q32 0 76 -20v4l8 128q-14 398 -172 400q-188 0 -192 -424zM1252 -160q0 -263 104 -264q108 0 108 140q0 124 -212 124z" />
    <glyph glyph-name="uniFB20" unicode="&#xfb20;" horiz-adv-x="752" 
d="M1856 1756q362 -2 392 -292q25 -280 -296 -284q-58 0 -152 32q86 119 84 212q-5 161 -212 160q-360 0 -916 -724q-180 -251 -180 -304q0 -336 36 -556h-604q100 295 100 552q0 237 -108 416h4q87 -8 120 -8q255 0 496 52q-20 -101 -28 -216q70 144 396 500
q428 458 868 460z" />
    <glyph glyph-name="uniFB21" unicode="&#xfb21;" horiz-adv-x="1438" 
d="M680 1020q578 0 576 -260q0 -133 -192 -136q-112 0 -280 68q84 20 84 116q0 153 -156 144q-132 -10 -132 -156q0 -121 304 -180q466 -97 468 -360q0 -200 -280 -272q98 -53 344 -284q161 -155 -11.5 -255.5t-268.5 119.5q-98 223 -232 396q-624 -69 -844 164
q-60 62 -60 144q0 171 228 168q252 0 656 -296q8 37 8 64q0 68 -356 200q-404 141 -404 364q0 258 548 252zM692 16q96 0 136 32q-130 115 -276 200q-43 -232 140 -232z" />
    <glyph glyph-name="uniFB22" unicode="&#xfb22;" horiz-adv-x="1198" 
d="M1612 1808q280 0 276 -268q0 -165 -140 -312q-108 -115 -244 -184q-179 -85 -416 -128q-141 -24 -192 -24l-8 -352q0 -1120 288 -1092q176 21 176 168q0 104 -108 176q78 56 144 56q259 0 256 -212q0 -243 -508 -248q-712 0 -712 1096q4 327 4 448q-135 -13 -128 -132
q2 -53 40 -160q-64 -8 -96 -8q-243 0 -244 196q0 200 240 192l180 -4q0 97 -56 244q40 -4 104 -4q208 0 472 52q-36 -240 -36 -312q279 31 444 104q226 104 236 288q4 125 -264 176q90 244 292 244z" />
    <glyph glyph-name="uniFB28" unicode="&#xfb28;" horiz-adv-x="1779" 
d="M464 976h477q-28 -156 -28 -496q-3 -404 68 -406q170 -6 176 426q0 253 -36 476h524q-32 -259 -32 -508q0 -270 116 -472h-416q-69 73 -73 288h-24q-18 -318 -391 -324q-346 0 -328 320q12 286 12 320q0 173 -53 300q-125 0 -128 -152q-4 -115 112 -216
q-110 -40 -220 -40q-220 0 -220 224q0 216 232 260q99 19 232 0z" />
    <glyph glyph-name="uniFB29" unicode="&#xfb29;" horiz-adv-x="1782" 
d="M482 973l418 3q26 -272 128 -536q104 263 128 536h576q-327 -436 -480 -980h-436q-129 497 -441 879q-45 -36 -47 -127q-4 -115 112 -216q-110 -40 -220 -40q-220 0 -220 224q0 216 232 260q106 20 250 -3z" />
    <glyph glyph-name="uniFB2A" unicode="&#xfb2a;" horiz-adv-x="2587" 
d="M464 976h537q36 -349 136 -536q173 168 200 532l8 4h300q32 -341 172 -536q85 153 132 536l588 -4q-366 -450 -496 -976h-436q-8 0 -28.5 105t-75.5 275h-24q-85 -166 -128 -380h-432q-8 0 -104 301q-87 272 -359 603q-123 -1 -126 -152q-4 -115 112 -216
q-110 -40 -220 -40q-220 0 -220 224q0 216 232 260q99 19 232 0z" />
    <glyph glyph-name="uniFB2B" unicode="&#xfb2b;" horiz-adv-x="1653" 
d="M1578 -160q94 -248 212 -248q83 0 84 100q0 136 -160 144zM432 980h446l60 -116q43 -87 132 -204q92 42 92 128q0 84 -40 192l448 -4q-96 -226 -456 -376q152 -276 424 -656q484 0 484 -292q0 -263 -360 -260q-203 0 -352 212l-164 228q-94 0 -332 -304
q-116 -140 -228 -140q-174 0 -176 200q0 170 268 264q211 76 424 76q-131 236 -304 468q-108 -69 -112 -396h-472q129 292 552 456q-65 123 -367 434q-69 -30 -71 -142q-4 -115 112 -216q-110 -40 -220 -40q-220 0 -220 224q0 216 232 260q87 17 200 4z" />
    <glyph glyph-name="uniFB2C" unicode="&#xfb2c;" horiz-adv-x="1885" 
d="M539 980h644q-20 -100 -20 -204q0 -187 136 -552q130 223 172 336q40 105 40 180q0 155 -140 232l464 4q-118 -98 -356 -572q-297 -547 -424 -744q-109 -168 -320 -168q-346 0 -344 312q0 252 284 252q57 0 136 -20q-108 -121 -108 -276q0 -176 160 -176q99 0 132 212
q26 188 -124 556q-76 198 -172 352q-120 196 -243 196q-125 0 -128 -152q-4 -115 112 -216q-110 -40 -220 -40q-220 0 -220 224q0 216 232 260q107 22 307 4z" />
    <glyph glyph-name="uniFB2D" unicode="&#xfb2d;" horiz-adv-x="1902" 
d="M339 985l-2 3q592 -8 1027 -16q-123 -62 -428 -392q-301 -346 -304 -520q193 -43 548 -152q123 -40 244 -40h4q149 0 148 160q0 64 -60 124q334 28 336 -192q0 -134 -180 -164q-292 -47 -732 88q-405 135 -920 110q369 370 412 446q234 299 292 460l-265 2l-3 -2
q-125 0 -128 -152q-4 -115 112 -216q-110 -40 -220 -40q-220 0 -220 224q0 216 232 260q49 9 107 9z" />
    </font>
</defs>
</svg>
